<svg width="65" height="65" viewBox="0 0 65 65" fill="none" xmlns="http://www.w3.org/2000/svg">
<path d="M32.4999 59.5833C26.7536 59.5833 21.2426 57.3006 17.1793 53.2373C13.116 49.174 10.8333 43.663 10.8333 37.9167C10.8333 28.4321 18.1728 20.846 24.6268 13.8937L32.4999 5.41666L40.373 13.8937C46.827 20.8487 54.1666 28.4348 54.1666 37.9167C54.1666 43.663 51.8839 49.174 47.8206 53.2373C43.7573 57.3006 38.2463 59.5833 32.4999 59.5833Z" stroke="#EA2B2B" stroke-width="2.5" stroke-linecap="round" stroke-linejoin="round"/>
<path d="M25.7908 33.3369L21.5544 45H19.823L24.7009 32.2031H25.8171L25.7908 33.3369ZM29.3416 45L25.0964 33.3369L25.0701 32.2031H26.1863L31.0818 45H29.3416ZM29.1218 40.2627V41.6514H21.9324V40.2627H29.1218ZM37.6072 39.0146H34.364L34.3464 37.6523H37.2908C37.7771 37.6523 38.2019 37.5703 38.5652 37.4062C38.9285 37.2422 39.2097 37.0078 39.4089 36.7031C39.614 36.3926 39.7166 36.0234 39.7166 35.5957C39.7166 35.127 39.6257 34.7461 39.4441 34.4531C39.2683 34.1543 38.9958 33.9375 38.6267 33.8027C38.2634 33.6621 37.8005 33.5918 37.238 33.5918H34.7419V45H33.0457V32.2031H37.238C37.8943 32.2031 38.4802 32.2705 38.9958 32.4053C39.5115 32.5342 39.948 32.7393 40.3054 33.0205C40.6687 33.2959 40.9441 33.6475 41.1316 34.0752C41.3191 34.5029 41.4128 35.0156 41.4128 35.6133C41.4128 36.1406 41.2781 36.6182 41.0085 37.0459C40.739 37.4678 40.364 37.8135 39.8835 38.083C39.4089 38.3525 38.8523 38.5254 38.2136 38.6016L37.6072 39.0146ZM37.5281 45H33.696L34.6541 43.6201H37.5281C38.0671 43.6201 38.5242 43.5264 38.8992 43.3389C39.28 43.1514 39.5701 42.8877 39.7693 42.5479C39.9685 42.2021 40.0681 41.7949 40.0681 41.3262C40.0681 40.8516 39.9832 40.4414 39.8132 40.0957C39.6433 39.75 39.3767 39.4834 39.0134 39.2959C38.6501 39.1084 38.1814 39.0146 37.6072 39.0146H35.1902L35.2078 37.6523H38.5125L38.8728 38.1445C39.488 38.1973 40.0095 38.373 40.4373 38.6719C40.865 38.9648 41.1902 39.3398 41.4128 39.7969C41.6414 40.2539 41.7556 40.7578 41.7556 41.3086C41.7556 42.1055 41.5798 42.7793 41.2283 43.3301C40.8826 43.875 40.3933 44.291 39.7605 44.5781C39.1277 44.8594 38.3835 45 37.5281 45ZM47.6482 38.8916V40.2275H43.3591V38.8916H47.6482Z" fill="#EA2B2B"/>
</svg>
