<svg width="818" height="610" viewBox="0 0 818 610" fill="none" xmlns="http://www.w3.org/2000/svg">
<g clip-path="url(#clip0_4156_5302)">
<path d="M818 535.637H0V536.046H818V535.637Z" fill="#C8C8C8"/>
<path d="M736.044 561.941H681.859V562.35H736.044V561.941Z" fill="#C8C8C8"/>
<path d="M541.882 566.396H527.665V566.805H541.882V566.396Z" fill="#C8C8C8"/>
<path d="M680.21 546.759H648.815V547.168H680.21V546.759Z" fill="#C8C8C8"/>
<path d="M156.478 549.525H85.8193V549.934H156.478V549.525Z" fill="#C8C8C8"/>
<path d="M181.407 549.525H171.051V549.934H181.407V549.525Z" fill="#C8C8C8"/>
<path d="M368.337 556.428H215.076V556.837H368.337V556.428Z" fill="#C8C8C8"/>
<path d="M387.739 462.661H71.8438C69.3691 462.657 66.9972 461.671 65.2488 459.919C63.5005 458.168 62.5186 455.794 62.5186 453.319V9.25976C62.5401 6.79926 63.5316 4.44662 65.2776 2.71285C67.0236 0.979078 69.3832 0.00421497 71.8438 0H387.739C390.216 0 392.592 0.984198 394.344 2.73608C396.096 4.48796 397.08 6.86403 397.08 9.34156V453.319C397.08 455.797 396.096 458.173 394.344 459.925C392.592 461.677 390.216 462.661 387.739 462.661ZM71.8438 0.327201C69.4775 0.331535 67.2097 1.27455 65.5381 2.94926C63.8664 4.62397 62.9276 6.89353 62.9276 9.25976V453.319C62.9276 455.686 63.8664 457.955 65.5381 459.63C67.2097 461.305 69.4775 462.248 71.8438 462.252H387.739C390.107 462.248 392.376 461.305 394.05 459.631C395.725 457.957 396.667 455.687 396.671 453.319V9.25976C396.667 6.89203 395.725 4.62251 394.05 2.94826C392.376 1.27402 390.107 0.331526 387.739 0.327201H71.8438Z" fill="#C8C8C8"/>
<path d="M741.608 462.661H425.697C423.221 462.657 420.847 461.671 419.096 459.92C417.345 458.169 416.36 455.796 416.355 453.319V9.25976C416.381 6.79777 417.376 4.44514 419.125 2.71182C420.874 0.978506 423.235 0.004169 425.697 0H741.608C744.066 0.00851456 746.422 0.98528 748.164 2.71859C749.907 4.4519 750.896 6.80209 750.917 9.25976V453.319C750.917 455.791 749.938 458.162 748.193 459.913C746.448 461.664 744.08 462.652 741.608 462.661ZM425.697 0.327201C423.329 0.331526 421.06 1.27402 419.386 2.94826C417.711 4.62251 416.769 6.89203 416.764 9.25976V453.319C416.769 455.687 417.711 457.957 419.386 459.631C421.06 461.305 423.329 462.248 425.697 462.252H741.608C743.976 462.248 746.246 461.305 747.92 459.631C749.594 457.957 750.537 455.687 750.541 453.319V9.25976C750.537 6.89203 749.594 4.62251 747.92 2.94826C746.246 1.27402 743.976 0.331526 741.608 0.327201H425.697Z" fill="#C8C8C8"/>
<path d="M207.126 91.9824H109.539V237.456H207.126V91.9824Z" fill="#C8C8C8"/>
<path d="M207.126 237.482H208.664V92.0098H207.126V237.482Z" fill="#C8C8C8"/>
<path d="M201.618 231.945V97.5146H115.074V231.945H201.618Z" fill="white"/>
<path d="M174.713 153.709C183.747 144.675 183.747 130.028 174.713 120.994C165.679 111.96 151.032 111.96 141.998 120.994C132.964 130.028 132.964 144.675 141.998 153.709C151.032 162.743 165.679 162.743 174.713 153.709Z" fill="#C8C8C8"/>
<path d="M186.865 173.863H129.785V179.704H186.865V173.863Z" fill="#C8C8C8"/>
<path d="M186.865 189.393H129.785V195.233H186.865V189.393Z" fill="#C8C8C8"/>
<path d="M186.865 204.934H129.785V210.774H186.865V204.934Z" fill="#C8C8C8"/>
<path d="M329.773 112.946H232.186V258.42H329.773V112.946Z" fill="#C8C8C8"/>
<path d="M329.763 258.395H331.301V112.921H329.763V258.395Z" fill="#C8C8C8"/>
<path d="M324.265 252.913V118.483H237.72V252.913H324.265Z" fill="white"/>
<path d="M303.48 163.585C306.414 151.151 298.713 138.691 286.279 135.757C273.845 132.822 261.385 140.523 258.451 152.957C255.516 165.392 263.217 177.851 275.651 180.786C288.086 183.72 300.545 176.019 303.48 163.585Z" fill="#C8C8C8"/>
<path d="M309.513 194.821H252.433V200.662H309.513V194.821Z" fill="#C8C8C8"/>
<path d="M309.513 210.345H252.433V216.185H309.513V210.345Z" fill="#C8C8C8"/>
<path d="M309.513 225.873H252.433V231.714H309.513V225.873Z" fill="#C8C8C8"/>
<path d="M673.913 319.016H247.424V323.564H673.913V319.016Z" fill="#C8C8C8"/>
<path d="M673.91 323.562H708.446V319.014H673.91V323.562Z" fill="#C8C8C8"/>
<path d="M673.896 323.562H253.264V535.621H673.896V323.562Z" fill="white"/>
<path d="M347.61 323.562H345.254V535.621H347.61V323.562Z" fill="#C8C8C8"/>
<path d="M458.854 366.689H456.498V535.623H458.854V366.689Z" fill="#C8C8C8"/>
<path d="M346.436 493.676V491.32H253.282V493.676H346.436Z" fill="#C8C8C8"/>
<path d="M346.436 451.741V449.385H253.282V451.741H346.436Z" fill="#C8C8C8"/>
<path d="M346.436 409.783V407.427H253.282V409.783H346.436Z" fill="#C8C8C8"/>
<path d="M673.916 367.878V365.522H253.284V367.878H673.916Z" fill="#C8C8C8"/>
<path d="M673.912 535.637H704.129V323.578H673.912V535.637Z" fill="#C8C8C8"/>
<path d="M681.007 35.5088H532.131V247.502H681.007V35.5088Z" fill="white"/>
<path d="M682.661 38.0704H530.513C530.179 38.0704 529.848 38.0043 529.539 37.8758C529.23 37.7474 528.95 37.5591 528.715 37.3219C528.479 37.0847 528.292 36.8032 528.166 36.4937C528.039 36.1842 527.975 35.8526 527.978 35.5183C527.975 35.1847 528.039 34.8539 528.166 34.5453C528.293 34.2367 528.48 33.9562 528.715 33.7203C528.951 33.4844 529.232 33.2977 529.54 33.1711C529.849 33.0444 530.18 32.9803 530.513 32.9825H682.661C682.996 32.9803 683.327 33.0443 683.637 33.1708C683.946 33.2972 684.228 33.4837 684.465 33.7194C684.702 33.9551 684.891 34.2353 685.019 34.5441C685.147 34.8528 685.214 35.1839 685.214 35.5183C685.214 36.1951 684.945 36.8443 684.466 37.3229C683.987 37.8015 683.338 38.0704 682.661 38.0704Z" fill="#C8C8C8"/>
<path d="M682.661 250.063H530.513C530.179 250.063 529.848 249.996 529.539 249.868C529.23 249.74 528.95 249.551 528.715 249.314C528.479 249.077 528.292 248.795 528.166 248.486C528.039 248.176 527.975 247.845 527.978 247.51C527.975 247.177 528.039 246.846 528.166 246.537C528.293 246.229 528.48 245.948 528.715 245.713C528.951 245.477 529.232 245.29 529.54 245.163C529.849 245.037 530.18 244.972 530.513 244.975H682.661C682.996 244.973 683.327 245.036 683.637 245.163C683.946 245.289 684.228 245.476 684.465 245.712C684.702 245.947 684.891 246.228 685.019 246.536C685.147 246.845 685.214 247.176 685.214 247.51C685.214 248.187 684.945 248.836 684.466 249.315C683.987 249.794 683.338 250.063 682.661 250.063Z" fill="#C8C8C8"/>
<path d="M612.159 87.8701H601.001C591.433 87.8701 583.676 95.6269 583.676 105.195V140.075C583.676 149.643 591.433 157.4 601.001 157.4H612.159C621.727 157.4 629.484 149.643 629.484 140.075V105.195C629.484 95.6269 621.727 87.8701 612.159 87.8701Z" fill="#C8C8C8"/>
<path d="M593.492 228.022C590.888 228.022 588.392 226.988 586.551 225.147C584.71 223.306 583.676 220.81 583.676 218.206V144.046C583.676 141.443 584.71 138.946 586.551 137.106C588.392 135.265 590.888 134.23 593.492 134.23C596.095 134.23 598.592 135.265 600.433 137.106C602.274 138.946 603.308 141.443 603.308 144.046V218.206C603.308 220.81 602.274 223.306 600.433 225.147C598.592 226.988 596.095 228.022 593.492 228.022Z" fill="#C8C8C8"/>
<path d="M574.357 96.3027H574.34C571.106 96.3027 568.483 98.925 568.483 102.16V146.463C568.483 149.697 571.106 152.319 574.34 152.319H574.357C577.591 152.319 580.213 149.697 580.213 146.463V102.16C580.213 98.925 577.591 96.3027 574.357 96.3027Z" fill="#C8C8C8"/>
<path d="M638.826 152.336C637.272 152.327 635.785 151.705 634.688 150.605C633.591 149.505 632.973 148.016 632.969 146.463V102.176C632.973 100.622 633.591 99.1335 634.688 98.0335C635.785 96.9334 637.272 96.3114 638.826 96.3027C640.381 96.3113 641.87 96.9329 642.969 98.0325C644.069 99.1321 644.69 100.621 644.699 102.176V146.463C644.69 148.018 644.069 149.506 642.969 150.606C641.87 151.706 640.381 152.327 638.826 152.336Z" fill="#C8C8C8"/>
<path d="M619.662 228.022C617.058 228.022 614.562 226.988 612.721 225.147C610.88 223.306 609.846 220.81 609.846 218.206V144.046C609.846 141.443 610.88 138.946 612.721 137.106C614.562 135.265 617.058 134.23 619.662 134.23C622.265 134.23 624.762 135.265 626.603 137.106C628.444 138.946 629.478 141.443 629.478 144.046V218.206C629.478 220.81 628.444 223.306 626.603 225.147C624.762 226.988 622.265 228.022 619.662 228.022Z" fill="#C8C8C8"/>
<path d="M616.807 77.0953C622.449 71.4538 622.449 62.3071 616.807 56.6657C611.166 51.0242 602.019 51.0242 596.378 56.6657C590.736 62.3072 590.736 71.4538 596.378 77.0952C602.019 82.7367 611.166 82.7367 616.807 77.0953Z" fill="#C8C8C8"/>
<path d="M623.577 277.567H555.045V319.007H623.577V277.567Z" fill="white"/>
<path d="M623.581 319.016H640.465V277.576H623.581V319.016Z" fill="#C8C8C8"/>
<path d="M602.404 294.326H593.258V285.197H585.356V294.326H576.228V302.244H585.356V311.373H593.258V302.244H602.404V294.326Z" fill="white"/>
<path d="M495.031 319.013H488.487V245.703C488.487 242.457 487.847 239.243 486.605 236.243C485.363 233.244 483.542 230.519 481.247 228.224C478.951 225.928 476.226 224.107 473.227 222.865C470.228 221.623 467.013 220.983 463.767 220.983C460.521 220.983 457.306 221.623 454.307 222.865C451.308 224.107 448.583 225.928 446.287 228.224C443.992 230.519 442.171 233.244 440.929 236.243C439.686 239.243 439.047 242.457 439.047 245.703H432.503C432.503 237.412 435.797 229.46 441.66 223.596C447.523 217.733 455.475 214.439 463.767 214.439C472.059 214.439 480.011 217.733 485.874 223.596C491.737 229.46 495.031 237.412 495.031 245.703V319.013Z" fill="#C8C8C8"/>
<path d="M507.234 308.297H500.69V319.029H507.234V308.297Z" fill="#C8C8C8"/>
<path d="M299.102 315.215H292.558V319.027H299.102V315.215Z" fill="#C8C8C8"/>
<path d="M287.508 315.215H280.964V319.027H287.508V315.215Z" fill="#C8C8C8"/>
<path d="M225.462 415.988H140.275V535.629H225.462V415.988Z" fill="white"/>
<path d="M222.13 412.992H143.569V416.002H222.13V412.992Z" fill="#C8C8C8"/>
<path d="M167.253 385.992H198.468C205.627 385.992 212.493 388.836 217.556 393.899C222.618 398.961 225.462 405.827 225.462 412.986H140.275C140.273 409.442 140.969 405.932 142.324 402.657C143.679 399.382 145.666 396.406 148.171 393.9C150.677 391.393 153.651 389.404 156.925 388.047C160.2 386.691 163.709 385.992 167.253 385.992Z" fill="white"/>
<path d="M151.584 522.498H142.569C139.098 522.498 135.769 523.877 133.315 526.332C130.86 528.786 129.481 532.115 129.481 535.586H164.754C164.754 533.861 164.412 532.152 163.75 530.559C163.087 528.966 162.115 527.519 160.891 526.303C159.667 525.086 158.215 524.124 156.617 523.471C155.02 522.818 153.309 522.488 151.584 522.498Z" fill="#C8C8C8"/>
<path d="M408.994 609.508C584.181 609.508 726.199 601.216 726.199 590.988C726.199 580.76 584.181 572.469 408.994 572.469C233.807 572.469 91.79 580.76 91.79 590.988C91.79 601.216 233.807 609.508 408.994 609.508Z" fill="white"/>
<path d="M313.627 149.096L306.199 140L295.827 146.544C295.827 146.544 300.572 151.616 306.33 158.699L313.627 149.096Z" fill="#B55B52"/>
<path d="M406.252 149.835C405.827 150.751 405.532 151.307 405.172 152.011L404.142 153.974C403.438 155.267 402.751 156.543 402.015 157.802C400.575 160.311 399.065 162.776 397.483 165.197C394.303 170.155 390.794 174.893 386.98 179.381C382.937 184.17 378.384 188.504 373.401 192.306C370.644 194.343 367.709 196.128 364.632 197.639L362.162 198.735L359.561 199.7C358.694 200.011 357.761 200.24 356.845 200.502L356.158 200.698L355.176 200.911C354.456 201.058 353.753 201.156 353.066 201.238C350.563 201.483 348.037 201.351 345.573 200.845C343.553 200.449 341.576 199.863 339.667 199.095C336.483 197.791 333.436 196.174 330.571 194.269C325.613 190.925 320.945 187.171 316.616 183.046C312.411 179.136 308.517 175.095 304.787 170.972C302.922 168.894 301.074 166.833 299.274 164.706C297.474 162.579 295.757 160.534 293.892 158.162L311.986 144.125C313.393 145.909 315.078 147.954 316.697 149.835C318.317 151.716 319.969 153.647 321.704 155.496C325.139 159.177 328.657 162.727 332.272 165.982C335.679 169.11 339.352 171.935 343.25 174.424C344.8 175.416 346.444 176.255 348.158 176.927C349.565 177.467 350.612 177.451 350.301 177.369H350.137L350.415 177.287C350.775 177.14 351.119 177.058 351.495 176.911L352.591 176.436L353.736 175.864C355.372 174.957 356.927 173.912 358.383 172.739C361.726 169.957 364.74 166.801 367.364 163.332C370.235 159.596 372.842 155.666 375.168 151.569C376.368 149.475 377.497 147.348 378.555 145.189C379.094 144.125 379.618 143.046 380.191 141.917L380.91 140.281C381.123 139.79 381.401 139.152 381.516 138.857L406.252 149.835Z" fill="#28CC9E"/>
<path opacity="0.8" d="M406.252 149.835C405.827 150.751 405.532 151.307 405.172 152.011L404.142 153.974C403.438 155.267 402.751 156.543 402.015 157.802C400.575 160.311 399.065 162.776 397.483 165.197C394.303 170.155 390.794 174.893 386.98 179.381C382.937 184.17 378.384 188.504 373.401 192.306C370.644 194.343 367.709 196.128 364.632 197.639L362.162 198.735L359.561 199.7C358.694 200.011 357.761 200.24 356.845 200.502L356.158 200.698L355.176 200.911C354.456 201.058 353.753 201.156 353.066 201.238C350.563 201.483 348.037 201.351 345.573 200.845C343.553 200.449 341.576 199.863 339.667 199.095C336.483 197.791 333.436 196.174 330.571 194.269C325.613 190.925 320.945 187.171 316.616 183.046C312.411 179.136 308.517 175.095 304.787 170.972C302.922 168.894 301.074 166.833 299.274 164.706C297.474 162.579 295.757 160.534 293.892 158.162L311.986 144.125C313.393 145.909 315.078 147.954 316.697 149.835C318.317 151.716 319.969 153.647 321.704 155.496C325.139 159.177 328.657 162.727 332.272 165.982C335.679 169.11 339.352 171.935 343.25 174.424C344.8 175.416 346.444 176.255 348.158 176.927C349.565 177.467 350.612 177.451 350.301 177.369H350.137L350.415 177.287C350.775 177.14 351.119 177.058 351.495 176.911L352.591 176.436L353.736 175.864C355.372 174.957 356.927 173.912 358.383 172.739C361.726 169.957 364.74 166.801 367.364 163.332C370.235 159.596 372.842 155.666 375.168 151.569C376.368 149.475 377.497 147.348 378.555 145.189C379.094 144.125 379.618 143.046 380.191 141.917L380.91 140.281C381.123 139.79 381.401 139.152 381.516 138.857L406.252 149.835Z" fill="white"/>
<path d="M402.625 411.298H455.435L435.41 311.207H409.545L402.625 411.298Z" fill="#28CC9E"/>
<path opacity="0.6" d="M402.625 411.298H455.435L435.41 311.207H409.545L402.625 411.298Z" fill="white"/>
<path d="M413.95 576.039H400.486L399.913 544.873H413.377L413.95 576.039Z" fill="#B55B52"/>
<path d="M488.484 576.039H475.02L469.016 544.873H482.48L488.484 576.039Z" fill="#B55B52"/>
<path d="M474.105 574.489H489.156C489.421 574.487 489.679 574.577 489.885 574.745C490.091 574.912 490.232 575.145 490.285 575.405L492.641 587.364C492.694 587.659 492.681 587.962 492.604 588.251C492.526 588.54 492.385 588.809 492.191 589.037C491.997 589.266 491.755 589.448 491.482 589.572C491.209 589.696 490.912 589.757 490.612 589.752C485.344 589.671 482.792 589.36 476.134 589.36C472.044 589.36 463.602 589.785 457.958 589.785C452.314 589.785 451.708 584.206 454.031 583.699C464.453 581.425 468.445 578.3 471.831 575.307C472.466 574.769 473.273 574.478 474.105 574.489Z" fill="#132F2B"/>
<path d="M400.6 574.489H415.324C415.587 574.488 415.842 574.579 416.046 574.747C416.249 574.914 416.387 575.147 416.437 575.405L418.809 587.332C418.864 587.625 418.854 587.927 418.779 588.216C418.705 588.505 418.567 588.774 418.376 589.004C418.186 589.233 417.947 589.418 417.676 589.545C417.406 589.672 417.111 589.737 416.813 589.737C411.512 589.639 403.856 589.328 397.181 589.328C389.393 589.328 388.755 589.753 379.627 589.753C374.097 589.753 372.706 584.174 375.029 583.667C385.614 581.36 388.117 581.115 397.344 575.487C398.318 574.864 399.444 574.519 400.6 574.489Z" fill="#132F2B"/>
<path d="M301.185 136.892L292.482 136.761L290.846 147.984C296.387 148.996 302.102 148.429 307.337 146.348L307.189 142.699C307.122 141.147 306.462 139.679 305.345 138.598C304.228 137.518 302.739 136.907 301.185 136.892Z" fill="#B55B52"/>
<path d="M278.868 137.284L280.553 144.368L290.811 147.984L292.48 136.761L278.868 137.284Z" fill="#B55B52"/>
<path opacity="0.2" d="M399.913 544.896L400.208 560.963H413.672L413.377 544.896H399.913Z" fill="#196B69"/>
<path opacity="0.2" d="M482.48 544.896H469.016L472.124 560.963H485.588L482.48 544.896Z" fill="#196B69"/>
<path d="M384.017 141.47C380.287 155.736 373.596 191.728 380.909 248.971H452.893C453.596 238.943 449.015 193.577 457.114 146.345C457.455 144.422 457.398 142.45 456.947 140.55C456.497 138.65 455.662 136.862 454.494 135.297C453.326 133.732 451.849 132.423 450.156 131.45C448.462 130.477 446.588 129.862 444.647 129.642C441.85 129.331 438.889 129.069 435.96 128.922C425.899 128.642 415.83 128.97 405.809 129.903C401.534 130.311 397.303 131.089 393.162 132.227C390.959 132.825 388.952 133.995 387.346 135.618C385.74 137.241 384.592 139.26 384.017 141.47Z" fill="white"/>
<path d="M432.64 100.306C430.464 110.122 429.205 122.343 435.912 128.919C435.912 128.919 431.708 138.899 413.417 138.899C396.697 138.899 405.237 128.919 405.237 128.919C416.28 126.302 416.051 112.723 414.317 105.066L432.64 100.306Z" fill="#B55B52"/>
<path d="M412.589 137.536L408.63 141.904C408.49 142.055 408.393 142.241 408.35 142.443C408.306 142.644 408.318 142.854 408.384 143.049L409.644 146.91C409.714 147.127 409.849 147.317 410.03 147.454C410.212 147.592 410.431 147.67 410.658 147.679L414.928 147.892C415.131 147.9 415.332 147.857 415.512 147.765C415.693 147.673 415.847 147.537 415.959 147.368L418.511 143.622C418.665 143.42 418.749 143.172 418.749 142.918C418.749 142.664 418.665 142.417 418.511 142.215L414.389 137.52C414.28 137.384 414.142 137.276 413.986 137.201C413.829 137.127 413.658 137.089 413.485 137.091C413.311 137.092 413.141 137.133 412.986 137.21C412.831 137.287 412.695 137.399 412.589 137.536Z" fill="#28CC9E"/>
<path d="M411.604 147.659C411.604 147.659 405.06 195.823 404.913 204.216C404.999 212.142 406.245 220.012 408.61 227.578C408.61 227.578 413.109 219.071 413.878 203.856C414.647 188.641 413.715 156.199 414.058 147.659H411.604Z" fill="#28CC9E"/>
<path opacity="0.2" d="M414.425 105.083C415.455 109.565 415.946 116.077 413.95 121.246C415.259 121.819 420.658 119.741 422.899 118.318C427.889 115.144 429.819 112.036 431.652 105.41C431.946 103.659 432.273 101.958 432.65 100.306L414.425 105.083Z" fill="#196B69"/>
<path d="M397.347 95.5202C397.95 97.0508 398.852 98.4455 400.001 99.6227C401.15 100.8 402.523 101.736 404.039 102.375C408.112 104.011 410.746 100.445 410.092 96.2727C409.519 92.5263 406.689 87.1275 402.37 87.242C401.418 87.2958 400.494 87.5805 399.677 88.0713C398.86 88.5621 398.174 89.2445 397.68 90.0594C397.186 90.8743 396.897 91.7973 396.839 92.7487C396.781 93.7001 396.955 94.6513 397.347 95.5202Z" fill="#B55B52"/>
<path opacity="0.2" d="M397.347 95.5202C397.95 97.0508 398.852 98.4455 400.001 99.6227C401.15 100.8 402.523 101.736 404.039 102.375C408.112 104.011 410.746 100.445 410.092 96.2727C409.519 92.5263 406.689 87.1275 402.37 87.242C401.418 87.2958 400.494 87.5805 399.677 88.0713C398.86 88.5621 398.174 89.2445 397.68 90.0594C397.186 90.8743 396.897 91.7973 396.839 92.7487C396.781 93.7001 396.955 94.6513 397.347 95.5202Z" fill="#196B69"/>
<path d="M413.907 80.7779C413.138 86.5366 409.539 90.8229 405.875 90.3321C402.21 89.8413 399.87 84.7697 400.656 78.9946C401.441 73.2195 405.024 68.9332 408.688 69.424C412.353 69.9148 414.725 75.0028 413.907 80.7779Z" fill="#132F2B"/>
<path d="M439.096 87.5461C435.824 100.634 434.548 108.422 426.679 114.082C414.867 122.606 399.897 113.837 399.276 100.127C398.703 87.7915 404.184 68.4867 417.926 65.3783C420.939 64.6813 424.082 64.7806 427.045 65.6666C430.009 66.5526 432.69 68.1948 434.826 70.4315C436.962 72.6682 438.479 75.4225 439.228 78.4233C439.976 81.4241 439.931 84.5682 439.096 87.5461Z" fill="#B55B52"/>
<path d="M417.356 60.8126C409.52 62.4486 400.849 68.8453 408.326 73.5079C415.802 78.1705 432.637 78.8904 432.637 78.8904C432.637 78.8904 427.074 91.9784 434.682 98.7351C437.217 97.4753 431.802 108.895 431.802 108.895C434.588 107.935 436.92 105.976 438.346 103.398C442.894 102.236 456.342 80.4936 447.377 74.3423C445.675 61.6633 427.876 58.5385 417.356 60.8126Z" fill="#132F2B"/>
<path d="M436.285 95.4265H436.105L424.326 90.0277C424.267 90.0109 424.213 89.9818 424.167 89.9422C424.12 89.9027 424.083 89.8536 424.057 89.7984C424.032 89.7432 424.018 89.683 424.018 89.6221C424.017 89.5612 424.03 89.5008 424.055 89.4452C424.079 89.3896 424.116 89.3399 424.162 89.2996C424.207 89.2593 424.261 89.2293 424.32 89.2116C424.378 89.194 424.439 89.189 424.5 89.1972C424.56 89.2053 424.618 89.2263 424.67 89.2588L436.465 94.6576C436.566 94.704 436.645 94.7883 436.685 94.8923C436.725 94.9963 436.722 95.1117 436.678 95.2138C436.639 95.2822 436.581 95.3383 436.512 95.3758C436.442 95.4134 436.364 95.4309 436.285 95.4265Z" fill="white"/>
<path d="M442.263 103.075C440 105.58 436.847 107.101 433.477 107.312C429.044 107.541 427.899 103.304 430.026 99.6063C431.94 96.3343 436.57 92.1461 440.561 93.6676C444.553 95.1891 444.995 99.9826 442.263 103.075Z" fill="#B55B52"/>
<path d="M380.915 248.967C380.915 248.967 376.596 349.581 377.055 390.628C377.529 433.311 395.28 557.827 395.28 557.827H418.069C418.069 557.827 416.024 435.798 418.069 393.884C420.294 348.174 428.245 248.967 428.245 248.967H380.915Z" fill="#28CC9E"/>
<path d="M419.122 547.768C419.237 547.768 419.548 558.304 419.548 558.304H393.274L391.769 546.852L419.122 547.768Z" fill="#132F2B"/>
<path opacity="0.2" d="M411.733 275.598C410.948 325.528 413.206 355.86 418.785 380.302C420.159 356.481 422.4 324.988 424.38 298.829L411.733 275.598Z" fill="#196B69"/>
<path d="M406.443 248.967C406.443 248.967 419.204 351.806 426.632 390.334C434.812 432.526 465.896 557.827 465.896 557.827H490.55C490.55 557.827 471.098 435.945 466.877 394.227C462.313 348.894 452.857 249.032 452.857 249.032L406.443 248.967Z" fill="#28CC9E"/>
<path d="M489.968 548.331C490.082 548.331 491.8 558.31 491.8 558.31H464.708L461.73 547.316L489.968 548.331Z" fill="#132F2B"/>
<path d="M418.629 87.8798C418.417 88.9596 417.697 89.7285 416.993 89.614C416.29 89.4994 415.897 88.5342 416.093 87.4544C416.29 86.3747 417.026 85.6058 417.729 85.7203C418.433 85.8348 418.809 86.8 418.629 87.8798Z" fill="#132F2B"/>
<path d="M405.424 84.7694C405.228 85.8492 404.492 86.6181 403.788 86.5036C403.085 86.3891 402.692 85.4238 402.888 84.3441C403.085 83.2643 403.821 82.4954 404.524 82.6099C405.228 82.7244 405.62 83.6897 405.424 84.7694Z" fill="#132F2B"/>
<path d="M410.928 87.4727C408.689 90.2999 406.081 92.8144 403.174 94.9492C403.724 95.6656 404.426 96.2513 405.229 96.6643C406.033 97.0772 406.917 97.3072 407.82 97.3377L410.928 87.4727Z" fill="#A02724"/>
<path d="M410.953 100.689C410.872 100.67 410.801 100.62 410.755 100.55C410.71 100.48 410.693 100.395 410.707 100.313C410.723 100.229 410.772 100.154 410.842 100.105C410.912 100.056 410.999 100.037 411.084 100.051C412.412 100.295 413.779 100.227 415.076 99.8519C416.374 99.4772 417.566 98.8062 418.56 97.8919C418.617 97.8311 418.695 97.7953 418.778 97.7922C418.86 97.7891 418.941 97.8191 419.002 97.8755C419.063 97.9319 419.098 98.0101 419.102 98.093C419.105 98.1758 419.075 98.2565 419.018 98.3172C417.959 99.3243 416.674 100.065 415.272 100.477C413.869 100.89 412.389 100.962 410.953 100.689Z" fill="#132F2B"/>
<path d="M425.027 84.3794C424.931 84.3563 424.842 84.3099 424.768 84.2443C424.694 84.1787 424.637 84.0959 424.602 84.0031C424.343 83.2641 423.911 82.5978 423.342 82.0598C422.772 81.5219 422.083 81.1281 421.33 80.9111C421.166 80.8757 421.022 80.7768 420.93 80.6359C420.838 80.4949 420.805 80.3234 420.839 80.1585C420.875 79.9931 420.973 79.8479 421.113 79.7533C421.254 79.6588 421.425 79.6222 421.592 79.6514C422.568 79.8912 423.468 80.3696 424.214 81.0434C424.959 81.7173 425.525 82.5657 425.862 83.5124C425.916 83.6732 425.908 83.8488 425.838 84.0037C425.768 84.1585 425.642 84.2811 425.486 84.3467C425.342 84.4126 425.179 84.4242 425.027 84.3794Z" fill="#132F2B"/>
<path d="M402.045 79.6201C401.952 79.6002 401.867 79.5549 401.799 79.4892C401.684 79.3677 401.62 79.2067 401.62 79.0393C401.62 78.872 401.684 78.711 401.799 78.5894C402.432 77.7926 403.243 77.1543 404.166 76.7255C405.089 76.2966 406.099 76.089 407.116 76.1191C407.198 76.1291 407.277 76.1554 407.349 76.1964C407.421 76.2373 407.483 76.2921 407.534 76.3576C407.584 76.4231 407.621 76.4979 407.642 76.5778C407.663 76.6576 407.668 76.7408 407.656 76.8225C407.648 76.9065 407.623 76.988 407.583 77.0623C407.544 77.1367 407.489 77.2024 407.424 77.2556C407.358 77.3089 407.283 77.3486 407.202 77.3726C407.121 77.3965 407.037 77.4042 406.953 77.3951C406.148 77.3778 405.35 77.5511 404.625 77.9009C403.9 78.2506 403.268 78.7668 402.781 79.4074C402.695 79.5138 402.578 79.5912 402.446 79.6293C402.315 79.6673 402.174 79.6641 402.045 79.6201Z" fill="#132F2B"/>
<path d="M418.38 95.5398C418.057 95.5364 417.734 95.5091 417.415 95.458C416.649 95.3122 415.918 95.016 415.267 94.5863C414.615 94.1567 414.056 93.6022 413.62 92.9549C413.062 92.1226 412.674 91.1884 412.477 90.2059C412.281 89.2234 412.28 88.2118 412.475 87.2289C412.696 85.4392 413.609 83.8072 415.019 82.6821C416.428 81.557 418.222 81.0281 420.016 81.2085C421.563 81.508 422.928 82.408 423.812 83.7115C424.932 85.3954 425.343 87.4525 424.957 89.4375C424.734 91.0575 423.957 92.5502 422.758 93.6625C421.559 94.7748 420.013 95.4381 418.38 95.5398ZM419.035 81.9774C417.604 82.0786 416.252 82.6714 415.209 83.6554C414.165 84.6393 413.494 85.9539 413.309 87.3762C412.958 89.1427 413.317 90.9762 414.307 92.4805C414.684 93.0359 415.167 93.5112 415.729 93.8791C416.29 94.2469 416.919 94.4999 417.579 94.6236C419.15 94.7662 420.715 94.2879 421.938 93.2911C423.161 92.2942 423.945 90.8581 424.123 89.2903C424.469 87.5217 424.104 85.6879 423.109 84.186C422.733 83.6293 422.25 83.1531 421.688 82.7851C421.126 82.4171 420.497 82.1648 419.837 82.0428C419.572 81.9985 419.303 81.9766 419.035 81.9774Z" fill="white"/>
<path d="M412.902 87.7303C412.835 87.7297 412.769 87.713 412.709 87.6817C412.649 87.6504 412.598 87.6054 412.559 87.5503C412.293 87.0138 411.84 86.5929 411.286 86.3669C410.732 86.1409 410.114 86.1254 409.549 86.3233C409.444 86.3625 409.329 86.3606 409.225 86.3181C409.122 86.2756 409.039 86.1957 408.992 86.0943C408.948 85.9922 408.945 85.8767 408.985 85.7727C409.025 85.6687 409.104 85.5845 409.205 85.538C409.954 85.2721 410.773 85.2808 411.516 85.5624C412.259 85.8441 412.878 86.3804 413.262 87.0759C413.293 87.1231 413.313 87.1758 413.323 87.231C413.333 87.2862 413.331 87.3428 413.319 87.3976C413.307 87.4523 413.284 87.5041 413.252 87.55C413.22 87.5958 413.179 87.6349 413.131 87.6648C413.064 87.7109 412.984 87.7338 412.902 87.7303Z" fill="white"/>
<path d="M403.215 92.0867C402.886 92.0842 402.558 92.0568 402.234 92.0049C401.467 91.8591 400.737 91.5629 400.085 91.1333C399.434 90.7036 398.874 90.1491 398.438 89.5018C397.318 87.818 396.907 85.7608 397.293 83.7758C397.514 81.9873 398.428 80.3569 399.838 79.2344C401.248 78.1119 403.042 77.5868 404.835 77.7717C405.602 77.9112 406.333 78.2031 406.985 78.6303C407.637 79.0574 408.196 79.6111 408.63 80.2584C409.751 81.948 410.162 84.0106 409.775 86.0008C409.552 87.6164 408.777 89.1051 407.581 90.2143C406.385 91.3235 404.843 91.9851 403.215 92.0867ZM403.853 78.5243C402.422 78.6255 401.071 79.2183 400.027 80.2023C398.984 81.1862 398.312 82.5008 398.127 83.9231C397.952 84.7988 397.952 85.7004 398.126 86.5763C398.3 87.4522 398.645 88.2851 399.141 89.0274C399.517 89.5841 400 90.0603 400.562 90.4283C401.124 90.7962 401.753 91.0486 402.413 91.1706C403.985 91.3131 405.55 90.8348 406.773 89.838C407.996 88.8411 408.78 87.4051 408.957 85.8372C409.309 84.0686 408.944 82.2328 407.943 80.7329C407.179 79.6137 406.002 78.843 404.671 78.5897C404.401 78.5445 404.127 78.5226 403.853 78.5243Z" fill="white"/>
<path d="M469.528 576.826C468.621 576.898 467.716 576.662 466.96 576.155C466.734 575.952 466.559 575.697 466.451 575.412C466.343 575.128 466.304 574.822 466.338 574.519C466.346 574.33 466.403 574.146 466.504 573.986C466.604 573.825 466.744 573.693 466.911 573.603C468.399 572.85 472.686 575.517 473.177 575.812C473.231 575.845 473.273 575.895 473.296 575.954C473.32 576.012 473.324 576.077 473.307 576.139C473.299 576.202 473.27 576.262 473.226 576.309C473.182 576.356 473.125 576.388 473.062 576.401C471.904 576.675 470.718 576.818 469.528 576.826ZM467.598 574.045C467.457 574.043 467.318 574.071 467.189 574.127C467.122 574.163 467.066 574.218 467.029 574.284C466.991 574.351 466.973 574.427 466.976 574.503C466.942 574.715 466.962 574.933 467.033 575.135C467.105 575.338 467.226 575.52 467.385 575.664C468.105 576.286 469.855 576.368 472.162 575.91C470.798 575.002 469.27 574.369 467.663 574.045H467.598Z" fill="#28CC9E"/>
<path d="M473.065 576.366C473.017 576.382 472.966 576.382 472.918 576.366C471.544 575.613 468.91 572.668 469.237 571.163C469.291 570.929 469.422 570.72 469.609 570.569C469.796 570.418 470.027 570.333 470.268 570.329C470.51 570.297 470.756 570.318 470.99 570.388C471.224 570.459 471.441 570.578 471.625 570.738C473.147 572.014 473.376 575.891 473.392 576.071C473.383 576.156 473.346 576.236 473.286 576.298C473.227 576.36 473.15 576.401 473.065 576.415V576.366ZM470.48 570.967H470.333C469.924 570.967 469.875 571.196 469.859 571.278C469.679 572.161 471.331 574.402 472.689 575.449C472.631 573.924 472.112 572.453 471.2 571.229C470.999 571.058 470.744 570.965 470.48 570.967Z" fill="#28CC9E"/>
<path d="M394.974 576.847C393.819 576.956 392.663 576.661 391.702 576.012C391.486 575.821 391.322 575.578 391.224 575.306C391.127 575.035 391.1 574.743 391.145 574.458C391.156 574.284 391.212 574.116 391.306 573.97C391.401 573.824 391.531 573.705 391.685 573.624C393.321 572.691 398.687 575.44 399.293 575.767C399.353 575.796 399.403 575.844 399.434 575.904C399.465 575.964 399.476 576.032 399.465 576.098C399.454 576.165 399.421 576.226 399.373 576.272C399.324 576.319 399.261 576.348 399.194 576.356C397.806 576.65 396.393 576.814 394.974 576.847ZM392.65 574.049C392.443 574.046 392.237 574.085 392.045 574.164C391.985 574.198 391.935 574.249 391.9 574.309C391.866 574.369 391.848 574.438 391.849 574.507C391.815 574.695 391.831 574.889 391.894 575.07C391.957 575.25 392.065 575.411 392.209 575.538C393.01 576.274 395.219 576.405 398.213 575.898C396.477 574.97 394.596 574.345 392.65 574.049Z" fill="#28CC9E"/>
<path d="M399.176 576.37H399.045C397.409 575.633 394.301 572.738 394.579 571.2C394.579 570.856 394.906 570.398 395.79 570.316C396.103 570.278 396.421 570.306 396.723 570.399C397.024 570.492 397.303 570.648 397.54 570.856C399.176 572.263 399.487 575.895 399.503 576.042C399.505 576.098 399.494 576.153 399.471 576.204C399.448 576.255 399.415 576.301 399.372 576.337C399.31 576.362 399.243 576.373 399.176 576.37ZM395.986 570.971H395.79C395.217 570.971 395.168 571.249 395.152 571.331C394.988 572.231 397.115 574.521 398.751 575.519C398.649 573.998 398.077 572.546 397.115 571.363C396.802 571.095 396.398 570.955 395.986 570.971Z" fill="#28CC9E"/>
<path d="M436.817 128.023L452.359 129.888C454.937 130.195 457.305 131.457 458.996 133.427C460.687 135.396 461.576 137.928 461.488 140.522C460.703 164.752 457.496 198.044 460.065 248.973C461.357 274.658 479.304 414.127 479.304 414.127L443.95 420.328C427.068 366.733 415.238 311.676 408.613 255.877C406.043 231.627 405.955 207.179 408.351 182.911L436.817 128.023Z" fill="#28CC9E"/>
<path opacity="0.8" d="M436.817 128.023L452.359 129.888C454.937 130.195 457.305 131.457 458.996 133.427C460.687 135.396 461.576 137.928 461.488 140.522C460.703 164.752 457.496 198.044 460.065 248.973C461.357 274.658 479.304 414.127 479.304 414.127L443.95 420.328C427.068 366.733 415.238 311.676 408.613 255.877C406.043 231.627 405.955 207.179 408.351 182.911L436.817 128.023Z" fill="white"/>
<path opacity="0.2" d="M449.506 158.936C449.506 162.567 452.287 181.054 459.175 193.815C459.371 185.112 459.682 177.161 460.042 169.864L449.506 158.936Z" fill="#28CC9E"/>
<path opacity="0.2" d="M382.592 155.704C380.596 159.516 374.838 175.68 371.909 193.332C373.251 192.4 374.527 191.434 375.754 190.453C380.277 186.698 384.429 182.517 388.155 177.97L388.874 177.087L382.592 155.704Z" fill="#28CC9E"/>
<path d="M403.968 129.613L394.79 130.726C390.391 131.267 386.329 133.357 383.331 136.622C380.333 139.887 378.596 144.112 378.43 148.542C377.383 175.732 375.257 230.047 374.095 248.976C372.459 274.645 373.621 414.13 373.621 414.13L395.658 417.991C395.658 417.991 401.253 341.197 408.664 255.88C410.565 230.557 411.018 205.147 410.022 179.773L403.968 129.613Z" fill="#28CC9E"/>
<path opacity="0.8" d="M403.968 129.613L394.79 130.726C390.391 131.267 386.329 133.357 383.331 136.622C380.333 139.887 378.596 144.112 378.43 148.542C377.383 175.732 375.257 230.047 374.095 248.976C372.459 274.645 373.621 414.13 373.621 414.13L395.658 417.991C395.658 417.991 401.253 341.197 408.664 255.88C410.565 230.557 411.018 205.147 410.022 179.773L403.968 129.613Z" fill="white"/>
<path d="M413.447 137.139C415.499 140.431 417.146 143.957 418.355 147.642C418.355 147.642 439.836 140.264 439.067 128.436C439.067 128.436 435.795 126.505 433.832 124.935C433.815 124.935 432.85 132.395 413.447 137.139Z" fill="white"/>
<path d="M413.456 137.156C411.008 139.984 408.955 143.133 407.354 146.514C404.712 144.527 402.766 141.757 401.794 138.598C400.821 135.44 400.872 132.055 401.939 128.927C403.856 128.153 405.831 127.529 407.845 127.062C407.845 127.062 406.291 134.62 413.456 137.156Z" fill="white"/>
<path opacity="0.2" d="M435.769 256.114L460.39 277.268L443.572 269.039L435.769 256.114Z" fill="#28CC9E"/>
<path d="M460.5 136.077C461.547 137.533 462.332 138.678 463.216 139.971L465.719 143.75C467.355 146.28 468.941 148.838 470.479 151.423C473.571 156.609 476.483 161.91 479.167 167.456C481.938 173.129 484.295 178.996 486.218 185.01C487.241 188.225 488.05 191.504 488.639 194.826C489.262 198.423 489.541 202.072 489.473 205.722C489.168 212.609 487.84 219.414 485.531 225.91C483.439 231.888 480.856 237.683 477.809 243.235C474.907 248.604 471.712 253.809 468.238 258.826C466.537 261.324 464.781 263.778 462.97 266.188C462.07 267.399 461.138 268.61 460.189 269.804C459.24 270.998 458.34 272.111 457.162 273.485L439.87 258.483C440.524 257.697 441.506 256.585 442.226 255.571L444.647 252.429C446.283 250.303 447.788 248.143 449.277 245.885C452.214 241.523 454.907 237.001 457.342 232.339C459.678 227.883 461.632 223.236 463.183 218.45C464.614 214.23 465.392 209.816 465.49 205.362C465.294 201.022 464.405 196.741 462.856 192.683C461.138 187.936 459.054 183.331 456.622 178.908C454.136 174.327 451.371 169.779 448.442 165.345C446.954 163.137 445.416 160.944 443.845 158.801L441.457 155.611C440.671 154.597 439.821 153.451 439.117 152.65L460.5 136.077Z" fill="#28CC9E"/>
<path opacity="0.8" d="M460.5 136.077C461.547 137.533 462.332 138.678 463.216 139.971L465.719 143.75C467.355 146.28 468.941 148.838 470.479 151.423C473.571 156.609 476.483 161.91 479.167 167.456C481.938 173.129 484.295 178.996 486.218 185.01C487.241 188.225 488.05 191.504 488.639 194.826C489.262 198.423 489.541 202.072 489.473 205.722C489.168 212.609 487.84 219.414 485.531 225.91C483.439 231.888 480.856 237.683 477.809 243.235C474.907 248.604 471.712 253.809 468.238 258.826C466.537 261.324 464.781 263.778 462.97 266.188C462.07 267.399 461.138 268.61 460.189 269.804C459.24 270.998 458.34 272.111 457.162 273.485L439.87 258.483C440.524 257.697 441.506 256.585 442.226 255.571L444.647 252.429C446.283 250.303 447.788 248.143 449.277 245.885C452.214 241.523 454.907 237.001 457.342 232.339C459.678 227.883 461.632 223.236 463.183 218.45C464.614 214.23 465.392 209.816 465.49 205.362C465.294 201.022 464.405 196.741 462.856 192.683C461.138 187.936 459.054 183.331 456.622 178.908C454.136 174.327 451.371 169.779 448.442 165.345C446.954 163.137 445.416 160.944 443.845 158.801L441.457 155.611C440.671 154.597 439.821 153.451 439.117 152.65L460.5 136.077Z" fill="white"/>
<path d="M438.453 164.452C437.925 165.687 436.982 166.699 435.788 167.315C434.593 167.93 433.222 168.109 431.909 167.822C431.311 167.691 430.749 167.429 430.266 167.053C429.782 166.677 429.389 166.198 429.114 165.651C428.84 165.103 428.691 164.501 428.679 163.889C428.668 163.277 428.793 162.67 429.046 162.112C429.575 160.878 430.518 159.867 431.713 159.255C432.908 158.643 434.279 158.467 435.59 158.759C436.188 158.887 436.749 159.148 437.233 159.522C437.716 159.896 438.11 160.374 438.385 160.92C438.659 161.466 438.808 162.067 438.82 162.678C438.832 163.289 438.706 163.895 438.453 164.452Z" fill="#132F2B"/>
<path opacity="0.2" d="M438.453 164.452C437.925 165.687 436.982 166.699 435.788 167.315C434.593 167.93 433.222 168.109 431.909 167.822C431.311 167.691 430.749 167.429 430.266 167.053C429.782 166.677 429.389 166.198 429.114 165.651C428.84 165.103 428.691 164.501 428.679 163.889C428.668 163.277 428.793 162.67 429.046 162.112C429.575 160.878 430.518 159.867 431.713 159.255C432.908 158.643 434.279 158.467 435.59 158.759C436.188 158.887 436.749 159.148 437.233 159.522C437.716 159.896 438.11 160.374 438.385 160.92C438.659 161.466 438.808 162.067 438.82 162.678C438.832 163.289 438.706 163.895 438.453 164.452Z" fill="white"/>
<path d="M433.054 161.974C432.919 161.977 432.788 161.937 432.677 161.86C432.542 161.762 432.45 161.614 432.423 161.448C432.395 161.283 432.434 161.114 432.53 160.976C444.702 144.044 441.299 128.993 441.266 128.845C441.232 128.76 441.216 128.669 441.22 128.577C441.224 128.485 441.248 128.396 441.29 128.314C441.332 128.232 441.391 128.161 441.464 128.104C441.536 128.047 441.62 128.007 441.709 127.985C441.798 127.964 441.891 127.962 441.981 127.98C442.071 127.998 442.156 128.035 442.231 128.088C442.305 128.142 442.367 128.211 442.413 128.291C442.458 128.371 442.486 128.46 442.493 128.551C442.493 128.698 446.093 144.289 433.561 161.713C433.505 161.796 433.43 161.863 433.341 161.909C433.252 161.955 433.153 161.977 433.054 161.974Z" fill="#132F2B"/>
<path d="M390.631 153.371C390.471 153.367 390.318 153.306 390.2 153.197C390.083 153.089 390.009 152.941 389.993 152.782C388.668 136.16 397.47 130.025 397.846 129.78C397.986 129.689 398.156 129.655 398.32 129.686C398.484 129.716 398.631 129.808 398.729 129.943C398.823 130.084 398.856 130.256 398.822 130.422C398.788 130.588 398.69 130.733 398.549 130.827C398.468 130.827 389.993 136.847 391.269 152.684C391.278 152.85 391.222 153.014 391.112 153.139C391.002 153.264 390.847 153.342 390.68 153.354L390.631 153.371Z" fill="#132F2B"/>
<path d="M436.662 164.023C436.131 165.256 435.188 166.267 433.995 166.881C432.801 167.496 431.431 167.677 430.118 167.393C429.518 167.265 428.955 167.004 428.47 166.629C427.984 166.254 427.59 165.774 427.315 165.226C427.04 164.678 426.892 164.075 426.881 163.462C426.871 162.848 426.999 162.241 427.255 161.683C427.798 160.464 428.747 159.471 429.941 158.875C431.134 158.278 432.498 158.114 433.799 158.411C434.385 158.545 434.934 158.806 435.408 159.175C435.882 159.544 436.269 160.013 436.542 160.548C436.815 161.083 436.967 161.672 436.988 162.272C437.009 162.872 436.898 163.47 436.662 164.023Z" fill="#132F2B"/>
<path opacity="0.4" d="M436.662 164.023C436.131 165.256 435.188 166.267 433.995 166.881C432.801 167.496 431.431 167.677 430.118 167.393C429.518 167.265 428.955 167.004 428.47 166.629C427.984 166.254 427.59 165.774 427.315 165.226C427.04 164.678 426.892 164.075 426.881 163.462C426.871 162.848 426.999 162.241 427.255 161.683C427.798 160.464 428.747 159.471 429.941 158.875C431.134 158.278 432.498 158.114 433.799 158.411C434.385 158.545 434.934 158.806 435.408 159.175C435.882 159.544 436.269 160.013 436.542 160.548C436.815 161.083 436.967 161.672 436.988 162.272C437.009 162.872 436.898 163.47 436.662 164.023Z" fill="white"/>
<path opacity="0.4" d="M433.915 163.126C433.635 163.776 433.137 164.308 432.507 164.63C431.877 164.953 431.154 165.046 430.463 164.893C430.15 164.824 429.856 164.685 429.602 164.488C429.349 164.291 429.143 164.04 428.999 163.754C428.855 163.467 428.776 163.152 428.769 162.831C428.762 162.51 428.827 162.192 428.958 161.899C429.241 161.251 429.739 160.721 430.368 160.399C430.998 160.076 431.719 159.982 432.41 160.132C432.724 160.201 433.018 160.339 433.271 160.536C433.524 160.733 433.731 160.984 433.875 161.271C434.019 161.558 434.097 161.873 434.104 162.194C434.111 162.515 434.047 162.833 433.915 163.126Z" fill="white"/>
<path d="M395.597 192.059C395.43 192.054 395.272 191.985 395.156 191.866C395.04 191.747 394.975 191.587 394.975 191.42C394.973 191.337 394.987 191.255 395.018 191.178C395.048 191.1 395.093 191.03 395.151 190.97C395.209 190.911 395.278 190.864 395.355 190.831C395.431 190.799 395.514 190.782 395.597 190.782C396.797 190.747 397.943 190.273 398.817 189.45C399.691 188.627 400.234 187.512 400.341 186.316L401.552 165.048C401.653 163.556 401.445 162.059 400.941 160.652C400.436 159.244 399.646 157.956 398.619 156.868C397.593 155.78 396.353 154.916 394.977 154.331C393.601 153.745 392.119 153.451 390.623 153.465C387.477 153.503 384.461 154.725 382.175 156.886C379.889 159.048 378.501 161.991 378.288 165.13L377.061 186.398C377.017 186.966 377.093 187.537 377.283 188.074C377.474 188.612 377.774 189.103 378.165 189.517C378.556 189.932 379.03 190.26 379.555 190.481C380.081 190.701 380.647 190.81 381.216 190.799C381.385 190.799 381.548 190.866 381.667 190.986C381.787 191.105 381.854 191.268 381.854 191.437C381.85 191.605 381.782 191.765 381.663 191.883C381.544 192.002 381.384 192.071 381.216 192.075C380.475 192.081 379.741 191.934 379.06 191.643C378.378 191.353 377.764 190.924 377.256 190.385C376.747 189.846 376.356 189.208 376.105 188.511C375.855 187.813 375.752 187.072 375.801 186.333L377.028 165.065C377.262 161.604 378.792 158.36 381.311 155.977C383.831 153.593 387.156 152.247 390.623 152.206C392.293 152.19 393.947 152.521 395.483 153.175C397.019 153.83 398.402 154.796 399.547 156.011C400.691 157.226 401.572 158.665 402.134 160.237C402.696 161.81 402.927 163.481 402.811 165.146L401.601 186.414C401.49 187.937 400.811 189.362 399.699 190.407C398.587 191.453 397.123 192.042 395.597 192.059Z" fill="#132F2B"/>
<path d="M382.267 191.41C382.267 192.424 381.694 193.259 381.121 193.259C380.549 193.259 380.107 192.424 380.172 191.41C380.238 190.396 380.745 189.545 381.334 189.545C381.923 189.545 382.332 190.379 382.267 191.41Z" fill="#132F2B"/>
<path d="M396.664 191.41C396.664 192.424 396.091 193.259 395.502 193.259C394.913 193.259 394.488 192.424 394.554 191.41C394.619 190.396 395.126 189.545 395.715 189.545C396.304 189.545 396.713 190.379 396.664 191.41Z" fill="#132F2B"/>
<path d="M264.941 62.1565L263.779 61.3222C267.198 56.6405 272.005 53.1549 277.517 51.3605C283.03 49.5661 288.967 49.5541 294.487 51.3262L294.045 52.7005C288.815 51.0241 283.191 51.0353 277.967 52.7324C272.744 54.4294 268.187 57.7264 264.941 62.1565Z" fill="#28CC9E"/>
<path d="M259.991 76.8757H258.552C258.626 74.2627 259.072 71.6735 259.877 69.1865L261.251 69.6282C260.488 71.9717 260.064 74.4122 259.991 76.8757Z" fill="#28CC9E"/>
<path d="M336.905 78.0301C335.648 75.2536 333.84 72.7613 331.591 70.7043C329.342 68.6473 326.699 67.0685 323.821 66.0635C320.944 65.0584 317.892 64.6482 314.852 64.8576C311.811 65.067 308.845 65.8916 306.132 67.2816C304.768 64.619 302.886 62.2552 300.597 60.3283C298.309 58.4013 295.659 56.9498 292.803 56.0588C289.947 55.1677 286.942 54.8549 283.964 55.1385C280.985 55.4222 278.094 56.2967 275.457 57.711C264.545 63.5679 260.733 77.4411 266.41 88.4841L281.134 117.229C281.849 118.628 282.833 119.872 284.029 120.89C285.226 121.908 286.612 122.68 288.107 123.162C289.602 123.644 291.178 123.826 292.744 123.698C294.31 123.569 295.835 123.133 297.232 122.415L326.091 107.691C331.355 105.078 335.412 100.542 337.425 95.0212C339.438 89.5005 339.252 83.4174 336.905 78.0301Z" fill="#28CC9E"/>
</g>
<defs>
<clipPath id="clip0_4156_5302">
<rect width="818" height="610" fill="white"/>
</clipPath>
</defs>
</svg>
