<svg width="65" height="65" viewBox="0 0 65 65" fill="none" xmlns="http://www.w3.org/2000/svg">
<path d="M32.4999 59.5833C26.7536 59.5833 21.2426 57.3006 17.1793 53.2373C13.116 49.174 10.8333 43.663 10.8333 37.9167C10.8333 28.4321 18.1728 20.846 24.6268 13.8938L32.4999 5.41667L40.373 13.8938C46.827 20.8488 54.1666 28.4348 54.1666 37.9167C54.1666 43.663 51.8839 49.174 47.8206 53.2373C43.7573 57.3006 38.2463 59.5833 32.4999 59.5833Z" fill="#EA2B2B" stroke="#EA2B2B" stroke-width="2.5" stroke-linecap="round" stroke-linejoin="round"/>
<path d="M32.4827 38.1973V39.0059C32.4827 39.9668 32.3625 40.8281 32.1223 41.5898C31.8821 42.3516 31.5364 42.999 31.0852 43.5322C30.634 44.0654 30.092 44.4727 29.4592 44.7539C28.8323 45.0352 28.1292 45.1758 27.3499 45.1758C26.594 45.1758 25.8997 45.0352 25.2668 44.7539C24.6399 44.4727 24.095 44.0654 23.6321 43.5322C23.175 42.999 22.8206 42.3516 22.5686 41.5898C22.3167 40.8281 22.1907 39.9668 22.1907 39.0059V38.1973C22.1907 37.2363 22.3137 36.3779 22.5598 35.6221C22.8118 34.8604 23.1663 34.2129 23.6233 33.6797C24.0803 33.1406 24.6223 32.7305 25.2493 32.4492C25.8821 32.168 26.5764 32.0273 27.3323 32.0273C28.1116 32.0273 28.8147 32.168 29.4417 32.4492C30.0745 32.7305 30.6165 33.1406 31.0676 33.6797C31.5247 34.2129 31.8733 34.8604 32.1135 35.6221C32.3596 36.3779 32.4827 37.2363 32.4827 38.1973ZM30.804 39.0059V38.1797C30.804 37.418 30.7249 36.7441 30.5667 36.1582C30.4143 35.5723 30.1887 35.0801 29.8899 34.6816C29.5911 34.2832 29.2249 33.9814 28.7913 33.7764C28.3635 33.5713 27.8772 33.4688 27.3323 33.4688C26.8049 33.4688 26.3274 33.5713 25.8997 33.7764C25.4778 33.9814 25.1145 34.2832 24.8098 34.6816C24.511 35.0801 24.2795 35.5723 24.1155 36.1582C23.9514 36.7441 23.8694 37.418 23.8694 38.1797V39.0059C23.8694 39.7734 23.9514 40.4531 24.1155 41.0449C24.2795 41.6309 24.5139 42.126 24.8186 42.5303C25.1292 42.9287 25.4954 43.2305 25.9172 43.4355C26.345 43.6406 26.8225 43.7432 27.3499 43.7432C27.9006 43.7432 28.3899 43.6406 28.8176 43.4355C29.2454 43.2305 29.6057 42.9287 29.8987 42.5303C30.1975 42.126 30.4231 41.6309 30.5754 41.0449C30.7278 40.4531 30.804 39.7734 30.804 39.0059ZM43.2444 38.1357V39.665H34.4729V38.1357H43.2444ZM39.676 34.4004V43.7168H38.05V34.4004H39.676Z" fill="white"/>
</svg>
