<svg width="26" height="30" viewBox="0 0 26 30" fill="none" xmlns="http://www.w3.org/2000/svg">
<path d="M1.85714 26.9286C1.85714 27.6674 2.15064 28.376 2.67306 28.8984C3.19548 29.4208 3.90404 29.7143 4.64286 29.7143H21.3571C22.096 29.7143 22.8045 29.4208 23.3269 28.8984C23.8494 28.376 24.1429 27.6674 24.1429 26.9286V7.42858H1.85714V26.9286ZM17.6429 12.0714C17.6429 11.8252 17.7407 11.589 17.9148 11.4148C18.089 11.2407 18.3252 11.1429 18.5714 11.1429C18.8177 11.1429 19.0539 11.2407 19.228 11.4148C19.4022 11.589 19.5 11.8252 19.5 12.0714V25.0714C19.5 25.3177 19.4022 25.5539 19.228 25.728C19.0539 25.9022 18.8177 26 18.5714 26C18.3252 26 18.089 25.9022 17.9148 25.728C17.7407 25.5539 17.6429 25.3177 17.6429 25.0714V12.0714ZM12.0714 12.0714C12.0714 11.8252 12.1693 11.589 12.3434 11.4148C12.5175 11.2407 12.7537 11.1429 13 11.1429C13.2463 11.1429 13.4825 11.2407 13.6566 11.4148C13.8307 11.589 13.9286 11.8252 13.9286 12.0714V25.0714C13.9286 25.3177 13.8307 25.5539 13.6566 25.728C13.4825 25.9022 13.2463 26 13 26C12.7537 26 12.5175 25.9022 12.3434 25.728C12.1693 25.5539 12.0714 25.3177 12.0714 25.0714V12.0714ZM6.5 12.0714C6.5 11.8252 6.59783 11.589 6.77197 11.4148C6.94611 11.2407 7.1823 11.1429 7.42857 11.1429C7.67484 11.1429 7.91103 11.2407 8.08517 11.4148C8.25931 11.589 8.35714 11.8252 8.35714 12.0714V25.0714C8.35714 25.3177 8.25931 25.5539 8.08517 25.728C7.91103 25.9022 7.67484 26 7.42857 26C7.1823 26 6.94611 25.9022 6.77197 25.728C6.59783 25.5539 6.5 25.3177 6.5 25.0714V12.0714ZM25.0714 1.85715H18.1071L17.5616 0.771885C17.446 0.539867 17.268 0.344698 17.0476 0.208334C16.8272 0.0719711 16.573 -0.00017573 16.3138 1.01752e-05H9.68036C9.42174 -0.000984008 9.16807 0.0708938 8.94841 0.207409C8.72876 0.343924 8.552 0.539554 8.43839 0.771885L7.89286 1.85715H0.928571C0.682299 1.85715 0.446113 1.95498 0.271972 2.12913C0.0978314 2.30327 0 2.53945 0 2.78572L0 4.64287C0 4.88914 0.0978314 5.12533 0.271972 5.29947C0.446113 5.47361 0.682299 5.57144 0.928571 5.57144H25.0714C25.3177 5.57144 25.5539 5.47361 25.728 5.29947C25.9022 5.12533 26 4.88914 26 4.64287V2.78572C26 2.53945 25.9022 2.30327 25.728 2.12913C25.5539 1.95498 25.3177 1.85715 25.0714 1.85715Z" fill="#EA2B2B"/>
</svg>
