<svg width="704" height="700" viewBox="0 0 704 700" fill="none" xmlns="http://www.w3.org/2000/svg">
<path d="M352 670.628C536.925 670.628 686.835 584.449 686.835 478.142C686.835 371.835 536.925 285.656 352 285.656C167.076 285.656 17.1655 371.835 17.1655 478.142C17.1655 584.449 167.076 670.628 352 670.628Z" fill="#51938F" fill-opacity="0.26"/>
<path d="M149.75 517.482C207.723 517.482 254.72 491.57 254.72 459.606C254.72 427.642 207.723 401.73 149.75 401.73C91.7758 401.73 44.7788 427.642 44.7788 459.606C44.7788 491.57 91.7758 517.482 149.75 517.482Z" fill="#3C8782" fill-opacity="0.49"/>
<path d="M85.5662 555.1L250.066 649.642C250.908 650.063 251.837 650.282 252.78 650.282C253.722 650.282 254.651 650.063 255.493 649.642L546.391 482.398C546.717 482.286 547 482.075 547.2 481.795C547.4 481.515 547.507 481.18 547.507 480.837C547.507 480.494 547.4 480.159 547.2 479.879C547 479.599 546.717 479.388 546.391 479.276L381.891 384.734C381.052 384.313 380.125 384.094 379.185 384.094C378.245 384.094 377.318 384.313 376.478 384.734L85.5662 551.978C85.2403 552.09 84.9577 552.301 84.7577 552.581C84.5577 552.861 84.4502 553.196 84.4502 553.539C84.4502 553.882 84.5577 554.217 84.7577 554.497C84.9577 554.777 85.2403 554.988 85.5662 555.1Z" fill="#3C8782" fill-opacity="0.49"/>
<path d="M541.428 602.35C590.992 602.35 631.172 579.252 631.172 550.76C631.172 522.268 590.992 499.17 541.428 499.17C491.864 499.17 451.684 522.268 451.684 550.76C451.684 579.252 491.864 602.35 541.428 602.35Z" fill="#3C8782" fill-opacity="0.49"/>
<path d="M159.789 506.996C159.481 506.996 159.176 506.935 158.892 506.818C158.608 506.7 158.35 506.528 158.133 506.31C157.916 506.093 157.745 505.835 157.628 505.552C157.512 505.268 157.453 504.964 157.455 504.658V355.18C157.455 354.564 157.701 353.972 158.138 353.537C158.576 353.101 159.17 352.856 159.789 352.856C160.408 352.856 161.001 353.101 161.439 353.537C161.877 353.972 162.122 354.564 162.122 355.18V504.658C162.123 505.276 161.877 505.868 161.44 506.306C161.002 506.744 160.409 506.992 159.789 506.996Z" fill="#455A64"/>
<path d="M252.667 452.578C252.207 452.582 251.755 452.451 251.367 452.202C250.98 451.954 250.675 451.598 250.488 451.178L204.456 335.16C204.229 334.586 204.239 333.946 204.486 333.38C204.732 332.815 205.195 332.369 205.771 332.143C206.347 331.916 206.99 331.927 207.558 332.173C208.126 332.418 208.573 332.878 208.801 333.452L254.833 449.4C254.972 449.752 255.023 450.133 254.982 450.509C254.94 450.885 254.807 451.245 254.593 451.559C254.38 451.872 254.093 452.129 253.757 452.306C253.422 452.484 253.047 452.577 252.667 452.578Z" fill="#455A64"/>
<path d="M247.128 438.648C246.812 438.648 246.499 438.583 246.209 438.458C245.919 438.332 245.657 438.149 245.441 437.92L159.774 347.662L74.2766 437.528C74.0696 437.763 73.8172 437.954 73.5343 438.09C73.2515 438.225 72.944 438.303 72.6304 438.318C72.3168 438.332 72.0034 438.284 71.7091 438.175C71.4148 438.066 71.1455 437.899 70.9175 437.684C70.6894 437.469 70.5072 437.211 70.3818 436.924C70.2564 436.638 70.1903 436.329 70.1876 436.016C70.1849 435.704 70.2455 435.394 70.3659 435.105C70.4862 434.816 70.6639 434.555 70.8881 434.336L158.059 342.678C158.278 342.447 158.542 342.264 158.834 342.139C159.127 342.014 159.442 341.949 159.76 341.95C160.076 341.951 160.389 342.016 160.679 342.142C160.969 342.267 161.23 342.449 161.448 342.678L248.801 434.728C249.012 434.949 249.176 435.209 249.285 435.494C249.394 435.779 249.446 436.082 249.437 436.386C249.427 436.691 249.358 436.991 249.232 437.268C249.106 437.546 248.926 437.796 248.703 438.004C248.28 438.412 247.717 438.643 247.128 438.648Z" fill="#455A64"/>
<path d="M66.9092 452.578C66.6151 452.578 66.3239 452.521 66.0515 452.41C65.7652 452.3 65.5036 452.135 65.2818 451.924C65.0601 451.713 64.8826 451.46 64.7597 451.18C64.6368 450.9 64.5709 450.598 64.5658 450.293C64.5606 449.987 64.6164 449.684 64.7299 449.4L110.762 333.382C110.989 332.808 111.436 332.348 112.004 332.103C112.573 331.857 113.216 331.847 113.792 332.073C114.368 332.3 114.83 332.745 115.077 333.31C115.323 333.876 115.334 334.516 115.106 335.09L69.0744 451.108C68.9027 451.541 68.6046 451.912 68.2186 452.174C67.8325 452.436 67.3764 452.577 66.9092 452.578Z" fill="#455A64"/>
<path d="M249.49 435.064L255.578 451.052C255.591 451.187 255.591 451.323 255.578 451.458V451.752C255.403 452.185 255.079 452.542 254.664 452.76C254.089 453.05 253.453 453.202 252.808 453.202C252.163 453.202 251.528 453.05 250.952 452.76C250.632 452.599 250.378 452.332 250.235 452.004V451.794L244.611 436.8L249.49 435.064Z" fill="#28CC9E"/>
<path d="M70.0726 435.064L63.9846 451.052C63.9715 451.187 63.9715 451.323 63.9846 451.458C63.9706 451.555 63.9706 451.654 63.9846 451.752C64.1498 452.191 64.4765 452.552 64.8985 452.76C65.4713 453.05 66.1048 453.201 66.7474 453.201C67.39 453.201 68.0235 453.05 68.5963 452.76C68.9239 452.609 69.1806 452.338 69.3133 452.004V451.794L75.0216 436.8L70.0726 435.064Z" fill="#28CC9E"/>
<path d="M162.474 493.094V506.324C162.445 506.557 162.358 506.779 162.22 506.97C162.083 507.161 161.899 507.314 161.686 507.416C161.096 507.714 160.443 507.869 159.781 507.869C159.119 507.869 158.467 507.714 157.876 507.416C157.664 507.314 157.48 507.161 157.342 506.97C157.205 506.779 157.118 506.557 157.089 506.324V493.094C157.917 492.653 158.842 492.422 159.781 492.422C160.721 492.422 161.645 492.653 162.474 493.094Z" fill="#28CC9E"/>
<path d="M247.676 340.536C247.676 337.022 244.583 333.298 238.059 329.084C226.01 321.3 199.099 305.676 182.242 296.366C182.236 296.332 182.218 296.302 182.193 296.279C182.168 296.256 182.135 296.243 182.101 296.24C169.124 288.4 157.018 251.062 148.048 222.698C144.983 213.024 141.243 207.55 136.8 204.974C135.746 204.372 131.851 202.244 130.98 201.726C122.178 196.462 110.607 202.776 96.2096 210.63C82.9371 217.854 72.575 227.108 70.4942 251.678C69.2147 266.63 70.4239 295.204 73.4749 316.862C77.8897 353.052 83.3167 353.108 91.1762 359.156C104.73 369.6 135.24 384.216 148.133 389.2C171.444 398.328 190.509 384.244 204.709 377.258C217.728 370.711 230.297 363.312 242.333 355.11C245.891 352.548 247.732 349.944 247.69 347.2C247.648 346.122 247.676 341.67 247.676 340.536Z" fill="#28CC9E"/>
<path opacity="0.25" d="M247.676 340.536C247.676 337.022 244.583 333.298 238.059 329.084C226.01 321.3 199.099 305.676 182.242 296.366C182.236 296.332 182.218 296.302 182.193 296.279C182.168 296.256 182.135 296.243 182.101 296.24C169.124 288.4 157.018 251.062 148.048 222.698C144.983 213.024 141.243 207.55 136.8 204.974C135.746 204.372 131.851 202.244 130.98 201.726C122.178 196.462 110.607 202.776 96.2096 210.63C82.9371 217.854 72.575 227.108 70.4942 251.678C69.2147 266.63 70.4239 295.204 73.4749 316.862C77.8897 353.052 83.3167 353.108 91.1762 359.156C104.73 369.6 135.24 384.216 148.133 389.2C171.444 398.328 190.509 384.244 204.709 377.258C217.728 370.711 230.297 363.312 242.333 355.11C245.891 352.548 247.732 349.944 247.69 347.2C247.648 346.122 247.676 341.67 247.676 340.536Z" fill="black"/>
<path d="M136.28 204.68C127.549 200.116 116.203 206.318 102.171 213.976C93.1868 218.89 85.5242 224.7 80.8704 235.578L75.0215 232.162C79.6753 221.326 87.3238 215.516 96.2799 210.63C110.691 202.776 122.248 196.462 131.064 201.726L136.28 204.68Z" fill="#28CC9E"/>
<path d="M238.116 329.084C230.298 324.03 230.13 322.742 181.876 296.128C181.957 296.147 182.033 296.18 182.101 296.226C169.138 288.358 157.047 251.048 148.077 222.698C138.952 193.886 123.753 202.23 102.199 213.99C88.8988 221.2 78.5367 230.468 76.4277 255.038C74.3187 279.608 78.8882 340.438 87.31 347.858C96.4911 357.966 133.342 376.754 148.063 382.522C171.374 391.65 190.439 377.566 204.639 370.58C217.683 364.021 230.275 356.608 242.334 348.39C250.39 342.538 249.645 336.56 238.116 329.084Z" fill="#28CC9E"/>
<g opacity="0.1">
<path d="M102.171 213.99C123.725 202.23 138.923 193.886 148.048 222.698C157.018 251.062 169.138 288.4 182.101 296.24C182.101 296.24 159.844 296.24 127.605 313.558C94.0865 331.576 88.9687 349.202 87.4362 347.942C79.0003 340.942 74.3606 279.594 76.4555 255.038C78.5504 230.482 88.8984 221.2 102.171 213.99Z" fill="black"/>
</g>
<path d="M252.935 459.34L105.278 374.458L351.902 232.75L499.544 317.632L252.935 459.34Z" fill="#455A64"/>
<path d="M105.278 374.458V544.222L113.053 548.688V432.53L245.16 508.48V624.638L252.935 629.104V459.34L105.278 374.458Z" fill="#263238"/>
<path d="M113.053 548.688L120.828 544.222V436.996L113.053 432.53V548.688Z" fill="black"/>
<path d="M252.935 629.104L260.71 624.638V508.48L491.783 375.718V491.876L499.544 487.41V317.632L252.935 459.34V629.104Z" fill="#37474F"/>
<path d="M491.783 491.876L484.008 487.41V380.184L491.783 375.718V491.876Z" fill="#263238"/>
<g opacity="0.2">
<path d="M239.521 425.852C231.971 430.178 231.971 437.206 239.521 441.546C247.072 445.886 259.205 445.872 266.812 441.546C274.418 437.22 274.348 430.178 266.812 425.852C259.276 421.526 247.086 421.512 239.521 425.852Z" fill="black"/>
</g>
<g opacity="0.2">
<path d="M130.501 374.36L184.688 405.538C185.16 405.78 185.683 405.906 186.214 405.906C186.744 405.906 187.267 405.78 187.739 405.538L227.655 382.592C227.839 382.53 227.998 382.412 228.111 382.255C228.224 382.098 228.285 381.91 228.285 381.717C228.285 381.524 228.224 381.336 228.111 381.179C227.998 381.022 227.839 380.904 227.655 380.842L173.44 349.65C172.966 349.416 172.444 349.294 171.915 349.294C171.385 349.294 170.863 349.416 170.389 349.65L130.473 372.61C129.658 373.086 129.658 373.87 130.501 374.36Z" fill="black"/>
</g>
<g opacity="0.2">
<path d="M130.502 379.932L184.688 411.11C185.16 411.352 185.683 411.478 186.214 411.478C186.745 411.478 187.268 411.352 187.739 411.11L227.655 388.164C228.499 387.674 228.499 386.89 227.655 386.414L173.44 355.222C172.966 354.988 172.444 354.866 171.915 354.866C171.386 354.866 170.864 354.988 170.389 355.222L130.502 378.168C130.32 378.234 130.162 378.353 130.051 378.511C129.94 378.669 129.88 378.857 129.88 379.05C129.88 379.243 129.94 379.431 130.051 379.589C130.162 379.747 130.32 379.866 130.502 379.932Z" fill="black"/>
</g>
<path d="M130.502 378.112L184.688 409.29C185.16 409.532 185.683 409.658 186.214 409.658C186.745 409.658 187.268 409.532 187.739 409.29L227.711 386.4C228.555 385.91 228.555 385.126 227.711 384.65L173.44 353.402C172.966 353.168 172.444 353.046 171.915 353.046C171.386 353.046 170.864 353.168 170.39 353.402L130.502 376.348C130.32 376.414 130.162 376.533 130.051 376.691C129.94 376.849 129.88 377.037 129.88 377.23C129.88 377.423 129.94 377.611 130.051 377.769C130.162 377.926 130.32 378.046 130.502 378.112Z" fill="#EBEBEB"/>
<path d="M170.417 353.402L132.512 375.2L184.688 405.23C185.162 405.464 185.684 405.586 186.214 405.586C186.743 405.586 187.265 405.464 187.739 405.23L225.701 383.432L173.44 353.402C172.97 353.172 172.453 353.053 171.929 353.053C171.405 353.053 170.888 353.172 170.417 353.402Z" fill="#E0E0E0"/>
<path d="M130.502 372.624L184.688 403.802C185.16 404.044 185.683 404.17 186.214 404.17C186.745 404.17 187.268 404.044 187.739 403.802L227.711 380.8C227.893 380.734 228.051 380.615 228.162 380.457C228.273 380.299 228.333 380.111 228.333 379.918C228.333 379.725 228.273 379.537 228.162 379.379C228.051 379.222 227.893 379.102 227.711 379.036L173.44 347.914C172.969 347.672 172.446 347.546 171.915 347.546C171.384 347.546 170.861 347.672 170.389 347.914L130.502 370.86C130.32 370.926 130.162 371.045 130.051 371.203C129.94 371.361 129.88 371.549 129.88 371.742C129.88 371.935 129.94 372.123 130.051 372.281C130.162 372.439 130.32 372.558 130.502 372.624Z" fill="#FAFAFA"/>
<g opacity="0.2">
<path d="M191.718 346.64L221.033 363.538C221.59 363.821 222.207 363.968 222.833 363.968C223.458 363.968 224.075 363.821 224.632 363.538L319.241 309.12C319.459 309.048 319.649 308.909 319.784 308.723C319.918 308.537 319.991 308.313 319.991 308.084C319.991 307.855 319.918 307.631 319.784 307.445C319.649 307.26 319.459 307.12 319.241 307.048L289.94 290.15C289.38 289.867 288.761 289.72 288.134 289.72C287.506 289.72 286.887 289.867 286.327 290.15L191.718 344.568C191.5 344.64 191.31 344.779 191.175 344.965C191.041 345.151 190.968 345.375 190.968 345.604C190.968 345.833 191.041 346.057 191.175 346.243C191.31 346.428 191.5 346.568 191.718 346.64Z" fill="black"/>
</g>
<path d="M192.73 342.678V342.02C192.768 341.457 192.938 340.91 193.226 340.424C193.514 339.937 193.912 339.525 194.39 339.22L281.251 289.24C281.765 288.978 282.333 288.842 282.91 288.842C283.487 288.842 284.056 288.978 284.569 289.24L311.48 304.752C311.954 305.06 312.35 305.473 312.638 305.959C312.926 306.445 313.097 306.99 313.139 307.552V308.21C313.099 308.773 312.929 309.319 312.641 309.805C312.353 310.291 311.955 310.703 311.48 311.01L224.618 360.99C224.105 361.252 223.536 361.388 222.959 361.388C222.382 361.388 221.814 361.252 221.3 360.99L194.39 345.534C193.908 345.22 193.507 344.798 193.219 344.302C192.931 343.806 192.764 343.25 192.73 342.678Z" fill="#E0E0E0"/>
<path d="M194.39 341.068L221.244 356.58C221.759 356.835 222.327 356.968 222.903 356.968C223.479 356.968 224.047 356.835 224.562 356.58L311.48 306.6C311.678 306.531 311.851 306.403 311.972 306.232C312.094 306.061 312.16 305.857 312.16 305.648C312.16 305.439 312.094 305.235 311.972 305.064C311.851 304.893 311.678 304.765 311.48 304.696L284.513 289.184C284 288.922 283.431 288.786 282.854 288.786C282.277 288.786 281.709 288.922 281.195 289.184L194.333 339.164C194.137 339.238 193.968 339.372 193.851 339.546C193.734 339.72 193.675 339.926 193.681 340.136C193.687 340.345 193.759 340.548 193.886 340.715C194.013 340.882 194.189 341.005 194.39 341.068Z" fill="#FAFAFA"/>
<path d="M265.645 434.812C272.295 428.05 276.204 411.152 269.708 405.79H236.709C230.214 411.152 234.122 428.036 240.773 434.798L240.956 434.994L241.18 435.218L241.785 435.75L241.94 435.876L242.446 436.254C242.727 436.45 243.022 436.632 243.304 436.8C246.377 438.353 249.776 439.163 253.223 439.163C256.67 439.163 260.068 438.353 263.142 436.8C263.439 436.631 263.726 436.444 264 436.24L264.478 435.89L264.674 435.736C264.871 435.568 265.068 435.4 265.251 435.218L265.518 434.966L265.645 434.812Z" fill="#EBEBEB"/>
<path d="M239.521 403.634C231.971 407.96 231.971 414.988 239.521 419.328C247.072 423.668 259.205 423.654 266.812 419.328C274.418 415.002 274.348 407.96 266.812 403.634C259.276 399.308 247.086 399.294 239.521 403.634Z" fill="#FAFAFA"/>
<path d="M244.892 406.7C240.309 409.346 240.309 413.616 244.892 416.248C247.463 417.553 250.308 418.234 253.195 418.234C256.081 418.234 258.926 417.553 261.497 416.248C266.08 413.616 266.08 409.346 261.497 406.7C258.923 405.402 256.079 404.726 253.195 404.726C250.31 404.726 247.466 405.402 244.892 406.7Z" fill="#EBEBEB"/>
<path d="M261.497 411.236C258.924 409.938 256.08 409.262 253.195 409.262C250.31 409.262 247.466 409.938 244.893 411.236C243.761 411.826 242.794 412.687 242.081 413.742C242.794 414.797 243.761 415.658 244.893 416.248C247.464 417.553 250.309 418.234 253.195 418.234C256.081 418.234 258.926 417.553 261.497 416.248C262.633 415.664 263.601 414.802 264.309 413.742C263.601 412.682 262.633 411.82 261.497 411.236Z" fill="#E0E0E0"/>
<path d="M245.905 413.742C243.557 411.37 241.538 408.695 239.901 405.79C237.089 400.904 236.611 394.366 238.045 393.554C239.48 392.742 245.314 399.28 245.314 399.28C244.776 396.514 244.568 393.695 244.696 390.88C244.949 386.526 246.003 382.578 247.255 381.78C248.506 380.982 251.318 386.47 252.513 390.446C253.708 394.422 254.425 397.698 254.425 397.698C254.913 394.597 255.632 391.537 256.576 388.542C257.982 384.412 259.388 383.474 260.387 383.894C261.385 384.314 262.088 386.218 262.383 391.72C262.492 394.345 262.407 396.975 262.13 399.588C262.13 399.588 264.197 397.334 266.474 395.15C268.991 392.756 270.06 392.35 270.777 392.882C271.494 393.414 271.691 397.082 267.81 404.082C265.877 407.646 263.402 410.891 260.471 413.7C260.471 413.7 255.086 417.2 245.905 413.742Z" fill="#28CC9E"/>
<path d="M389.961 333.76L396.991 249.424C397.063 248.056 396.778 246.692 396.165 245.466C395.551 244.239 394.63 243.192 393.491 242.424C392.238 241.818 390.859 241.515 389.467 241.54C388.074 241.564 386.707 241.915 385.476 242.564L292.682 295.89C291.459 296.686 290.422 297.734 289.641 298.963C288.86 300.193 288.353 301.575 288.154 303.016L281.124 387.338C281.055 388.704 281.34 390.065 281.95 391.291C282.561 392.517 283.477 393.566 284.611 394.338C285.868 394.942 287.249 395.242 288.644 395.215C290.038 395.189 291.407 394.835 292.639 394.184L385.434 340.872C386.654 340.076 387.689 339.03 388.47 337.803C389.251 336.577 389.759 335.198 389.961 333.76Z" fill="#28CC9E"/>
<path opacity="0.5" d="M389.961 333.76L396.991 249.424C397.063 248.056 396.778 246.692 396.165 245.466C395.551 244.239 394.63 243.192 393.491 242.424C392.238 241.818 390.859 241.515 389.467 241.54C388.074 241.564 386.707 241.915 385.476 242.564L292.682 295.89C291.459 296.686 290.422 297.734 289.641 298.963C288.86 300.193 288.353 301.575 288.154 303.016L281.124 387.338C281.055 388.704 281.34 390.065 281.95 391.291C282.561 392.517 283.477 393.566 284.611 394.338C285.868 394.942 287.249 395.242 288.644 395.215C290.038 395.189 291.407 394.835 292.639 394.184L385.434 340.872C386.654 340.076 387.689 339.03 388.47 337.803C389.251 336.577 389.759 335.198 389.961 333.76Z" fill="white"/>
<path d="M389.962 333.76L396.992 249.424C397.063 248.056 396.778 246.692 396.165 245.466C395.552 244.239 394.63 243.192 393.491 242.424C392.238 241.818 390.859 241.515 389.467 241.54C388.074 241.564 386.707 241.915 385.477 242.564L292.682 295.89C291.456 296.651 290.425 297.686 289.673 298.914L304.084 307.202V387.618L385.434 340.858C386.653 340.064 387.687 339.02 388.467 337.796C389.248 336.571 389.757 335.196 389.962 333.76Z" fill="#28CC9E"/>
<path opacity="0.8" d="M389.962 333.76L396.992 249.424C397.063 248.056 396.778 246.692 396.165 245.466C395.552 244.239 394.63 243.192 393.491 242.424C392.238 241.818 390.859 241.515 389.467 241.54C388.074 241.564 386.707 241.915 385.477 242.564L292.682 295.89C291.456 296.651 290.425 297.686 289.673 298.914L304.084 307.202V387.618L385.434 340.858C386.653 340.064 387.687 339.02 388.467 337.796C389.248 336.571 389.757 335.196 389.962 333.76Z" fill="white"/>
<path d="M288.9 391.832L295.93 307.51C296.127 306.069 296.634 304.686 297.415 303.457C298.196 302.227 299.233 301.179 300.457 300.384L393.252 247.058C395.543 245.742 397.217 246.806 397.006 249.424L389.976 333.76C389.775 335.201 389.268 336.582 388.487 337.811C387.706 339.04 386.67 340.089 385.449 340.886L292.654 394.198C290.362 395.514 288.731 394.45 288.9 391.832Z" fill="#28CC9E"/>
<path opacity="0.65" d="M288.9 391.832L295.93 307.51C296.127 306.069 296.634 304.686 297.415 303.457C298.196 302.227 299.233 301.179 300.457 300.384L393.252 247.058C395.543 245.742 397.217 246.806 397.006 249.424L389.976 333.76C389.775 335.201 389.268 336.582 388.487 337.811C387.706 339.04 386.67 340.089 385.449 340.886L292.654 394.198C290.362 395.514 288.731 394.45 288.9 391.832Z" fill="white"/>
<path d="M336.76 324.17C337.125 319.858 340.162 314.776 343.55 312.816C346.939 310.856 349.399 312.816 349.034 317.086C348.668 321.356 345.645 326.494 342.257 328.454C338.868 330.414 336.408 328.496 336.76 324.17Z" fill="#28CC9E"/>
<path d="M338.939 349.664L361.744 336.476L357.863 334.25L335.072 347.438L338.939 349.664Z" fill="#28CC9E"/>
<g opacity="0.85">
<path d="M338.939 349.664L361.744 336.476L357.863 334.25L335.072 347.438L338.939 349.664Z" fill="white"/>
</g>
<path d="M372.317 375.2L344.563 391.16C344.015 391.453 343.398 391.594 342.777 391.566C342.254 391.554 341.739 391.424 341.273 391.188L329.055 384.188H328.984C328.524 383.873 328.142 383.456 327.869 382.971C327.596 382.485 327.439 381.944 327.41 381.388V380.744C327.41 379.694 328.127 379.26 329.055 379.792L336.436 383.992L338.081 384.944L337.716 383.082L335.129 347.438L338.995 349.678L361.8 336.49L373.624 372.4C373.695 372.942 373.61 373.493 373.379 373.989C373.147 374.485 372.779 374.905 372.317 375.2Z" fill="#28CC9E"/>
<g opacity="0.5">
<path d="M372.317 375.2L344.563 391.16C344.015 391.453 343.398 391.594 342.777 391.566C342.254 391.554 341.739 391.424 341.273 391.188L329.055 384.188H328.984C328.524 383.873 328.142 383.456 327.869 382.971C327.596 382.485 327.439 381.944 327.41 381.388V380.744C327.41 379.694 328.127 379.26 329.055 379.792L336.436 383.992L338.081 384.944L337.716 383.082L335.129 347.438L338.995 349.678L361.8 336.49L373.624 372.4C373.695 372.942 373.61 373.493 373.379 373.989C373.147 374.485 372.779 374.905 372.317 375.2Z" fill="white"/>
</g>
<path d="M327.874 379.526L337.336 374.08L339.262 386.778L327.874 379.526Z" fill="#28CC9E"/>
<g opacity="0.25">
<path d="M327.874 379.526L337.336 374.08L339.262 386.778L327.874 379.526Z" fill="black"/>
</g>
<path d="M338.938 349.678L335.072 347.438L337.673 382.984C337.884 384.006 337.293 384.384 336.394 383.894L329.012 379.694C328.084 379.162 327.367 379.596 327.367 380.646V381.29C327.396 381.846 327.553 382.387 327.827 382.873C328.1 383.358 328.481 383.775 328.942 384.09H329.012L341.23 391.09C341.697 391.326 342.211 391.456 342.735 391.468L338.938 349.678Z" fill="#28CC9E"/>
<g opacity="0.25">
<path d="M338.938 349.678L335.072 347.438L337.673 382.984C337.884 384.006 337.293 384.384 336.394 383.894L329.012 379.694C328.084 379.162 327.367 379.596 327.367 380.646V381.29C327.396 381.846 327.553 382.387 327.827 382.873C328.1 383.358 328.481 383.775 328.942 384.09H329.012L341.23 391.09C341.697 391.326 342.211 391.456 342.735 391.468L338.938 349.678Z" fill="white"/>
</g>
<path opacity="0.2" d="M235.093 372.988L239.367 375.438L273.082 355.782L276.808 351.414L269.047 353.458L235.093 372.988Z" fill="black"/>
<path d="M269.356 350.476L276.541 349.076C276.586 349.068 276.633 349.075 276.675 349.094C276.716 349.113 276.751 349.145 276.774 349.185C276.797 349.224 276.807 349.27 276.803 349.316C276.799 349.361 276.781 349.405 276.752 349.44L271.859 354.928L269.356 350.476Z" fill="#FFA8A7"/>
<path d="M276.752 349.44C276.782 349.405 276.799 349.361 276.803 349.316C276.807 349.27 276.797 349.224 276.774 349.185C276.751 349.145 276.716 349.113 276.675 349.094C276.633 349.075 276.587 349.068 276.541 349.076L275.135 349.342C275.329 349.461 275.486 349.631 275.588 349.834C275.69 350.037 275.732 350.264 275.712 350.49V350.616L276.752 349.44Z" fill="#263238"/>
<path d="M245.145 370.216L245.736 369.88L246.453 369.488L271.859 354.928C272.097 354.143 272.027 353.297 271.662 352.562C271.473 352.054 271.164 351.599 270.76 351.235C270.356 350.872 269.869 350.612 269.342 350.476L243.88 365.022L242.474 365.792C243.444 365.4 245.989 369.754 245.145 370.216Z" fill="#28CC9E"/>
<path d="M247.339 368.956L248.647 368.2C249.026 367.99 248.815 367.052 248.351 366.072C247.761 364.77 246.58 363.51 246.06 363.776L245.103 364.336L244.752 364.532C245.272 364.266 246.453 365.526 247.044 366.828C247.48 367.766 247.705 368.676 247.367 368.928L247.339 368.956Z" fill="#EBEBEB"/>
<path d="M247.662 368.76C248.562 368.284 245.989 363.86 245.075 364.336L243.768 365.092C244.667 364.616 247.24 369.04 246.341 369.516L247.662 368.76Z" fill="#28CC9E"/>
<path d="M245.146 370.216L246.453 369.488C247.339 369.026 244.879 364.742 243.951 365.022L242.643 365.778C243.444 365.4 245.989 369.754 245.146 370.216Z" fill="#EBEBEB"/>
<path opacity="0.15" d="M276.78 349.188L276.541 349.076L271.325 351.876L244.372 367.276C244.372 367.192 244.288 367.192 244.26 367.276C245.019 368.466 245.595 369.964 245.089 370.216L245.68 369.88L246.397 369.488L271.859 354.928L276.738 349.44C276.768 349.406 276.788 349.365 276.796 349.32C276.803 349.275 276.798 349.23 276.78 349.188Z" fill="black"/>
<path d="M239.592 373.366L245.089 370.216C245.483 370.02 245.272 369.082 244.822 368.116C244.232 366.8 243.051 365.54 242.53 365.792L237.005 368.942C235.908 369.572 236.921 371.952 238.144 373.002C238.319 373.203 238.552 373.345 238.811 373.41C239.069 373.475 239.342 373.46 239.592 373.366Z" fill="#F28F8F"/>
<path opacity="0.1" d="M239.915 371.658C239.777 371.064 239.502 370.511 239.111 370.042C238.721 369.573 238.226 369.201 237.666 368.956C237.531 368.904 237.386 368.887 237.243 368.906C237.101 368.926 236.965 368.981 236.85 369.068C236.021 369.824 236.977 372.008 238.144 373.002C238.316 373.194 238.541 373.331 238.791 373.396C239.042 373.461 239.305 373.451 239.55 373.366C239.971 373.128 240.126 372.498 239.915 371.658Z" fill="black"/>
<path d="M435.037 111.72C434.766 111.571 434.461 111.494 434.151 111.496H418.081L411.445 115.304V138.166L418.081 134.4L423.803 127.82V143.92L430.44 140.112L447.818 121.492C447.985 121.296 448.106 121.066 448.175 120.819C448.243 120.571 448.256 120.311 448.214 120.058C448.171 119.805 448.073 119.564 447.927 119.352C447.781 119.14 447.59 118.963 447.368 118.832L435.037 111.72Z" fill="#455A64"/>
<path d="M423.832 143.92L430.468 140.112L447.846 121.492C448.067 121.238 448.211 120.926 448.259 120.593C448.307 120.26 448.258 119.92 448.117 119.614C447.976 119.308 447.749 119.049 447.464 118.868C447.179 118.688 446.848 118.592 446.51 118.594H430.468L423.832 122.416V143.92Z" fill="#37474F"/>
<path d="M430.51 99.722C430.392 97.5238 429.755 95.3843 428.651 93.4773C427.547 91.5702 426.006 89.9492 424.155 88.746C422.182 87.7476 420 87.2272 417.786 87.2272C415.573 87.2272 413.39 87.7476 411.417 88.746L363.037 116.326C361.181 117.529 359.637 119.152 358.53 121.061C357.424 122.971 356.785 125.114 356.668 127.316V179.326C356.788 181.525 357.427 183.666 358.533 185.573C359.64 187.48 361.183 189.1 363.037 190.302C365.01 191.3 367.193 191.821 369.406 191.821C371.62 191.821 373.802 191.3 375.775 190.302L424.76 162.302C430.482 159.054 430.538 155.792 430.538 151.746L430.51 99.722Z" fill="#37474F"/>
<path d="M356.668 179.326C356.788 181.525 357.427 183.666 358.533 185.573C359.64 187.48 361.183 189.1 363.037 190.302C364.833 191.202 366.799 191.714 368.808 191.806C370.816 191.897 372.822 191.566 374.693 190.834C371.698 191.954 369.406 190.246 369.406 186.634V134.624C369.485 132.418 370.129 130.269 371.276 128.38L358.538 121.072C357.395 122.962 356.756 125.111 356.682 127.316L356.668 179.326Z" fill="#263238"/>
<path d="M430.313 98C429.568 95.298 427.093 94.444 424.155 96.138L375.761 123.648C373.876 124.807 372.329 126.439 371.276 128.38L358.622 121.086C359.678 119.143 361.224 117.508 363.107 116.34L411.473 88.76C413.45 87.7658 415.634 87.2478 417.849 87.2478C420.064 87.2478 422.248 87.7658 424.225 88.76C425.817 89.8083 427.177 91.1681 428.224 92.7566C429.27 94.3451 429.981 96.1291 430.313 98Z" fill="#455A64"/>
<path d="M406.299 162.484L394.883 169.05V123.55L406.299 116.984V162.484Z" fill="#28CC9E"/>
<path d="M417.73 125.58V140.742L383.466 160.44V145.278L417.73 125.58Z" fill="#28CC9E"/>
<path d="M533.864 163.366C545.112 163.674 548.304 168.154 555.081 177.8C561.857 187.446 584.915 224 584.915 224L617.576 236.488L613.274 255.458C613.274 255.458 569.618 248.094 566.764 246.428C563.91 244.762 542.652 209.888 542.652 209.888L533.864 163.366Z" fill="#E6E6E6"/>
<path d="M525.259 163.674C535.889 161.028 540.585 166.936 544.128 173.474C560.226 202.874 566.764 379.274 566.764 379.274C566.764 379.274 530.855 393.54 504.212 376.796L525.259 163.674Z" fill="#F0F0F0"/>
<path d="M559.495 466.872L552.775 492.338C552.775 492.338 545.028 496.888 538.349 492.408C533.049 488.852 533.372 484.638 533.372 484.638L533.681 480.802L534.441 451.192L559.495 466.872Z" fill="#B16668"/>
<path d="M527.158 498.4C525.316 502.474 524.261 514.374 524.261 514.374C524.261 514.374 525.386 518.756 531.502 522.634L537.449 506.898L527.158 498.4Z" fill="#263238"/>
<path d="M531.502 522.69L546.954 520.576L552.831 508.326L534.933 513.618L531.502 522.69Z" fill="black"/>
<path d="M553.942 487.928L554.771 484.82C557.119 484.946 556.908 489.566 557.077 490.91C557.597 494.76 557.991 498.61 558.582 502.446C559.194 506.693 560.186 510.877 561.548 514.948C562.954 518.826 563.77 522.956 566.146 526.386C568.522 529.816 572.698 531.846 576.072 534.156C576.965 534.665 577.704 535.405 578.209 536.298C578.982 538.006 577.9 539.98 576.564 541.282C574.194 543.485 571.208 544.92 568.002 545.398C564.809 545.867 561.564 545.867 558.371 545.398C552.699 544.791 547.269 542.79 542.567 539.574C538.04 536.354 537.056 529.984 536.325 524.832C535.734 520.632 536.1 515.746 534.356 511.812C532.613 507.878 527.636 502.712 527.158 498.456C526.954 494.849 527.721 491.253 529.379 488.04C531.193 484.582 532.501 480.172 533.682 480.802L533.471 483.322C533.471 483.14 534.638 488.166 541.907 489.958C545.323 490.812 551.777 490.784 553.942 487.928Z" fill="#263238"/>
<path d="M542.933 515.508C543.129 520.212 542.933 522.158 542.933 524.286C543.129 528.178 544.17 530.88 545.056 534.66C545.437 536.212 545.974 537.723 546.658 539.168C547.39 540.848 548.753 543.116 547.952 544.768C547.555 545.526 547.01 546.197 546.349 546.742C543.424 549.235 539.649 550.514 535.804 550.312C533.779 550.29 531.797 549.724 530.068 548.674C526.679 546.462 525.344 542.43 523.53 539.028C521.548 535.346 522.701 533.428 522.377 529.382C521.982 524.032 521.283 518.708 520.282 513.436C527.607 505.092 533.766 513.184 542.933 515.508Z" fill="#B16668"/>
<path d="M554.152 282.8C565.133 320.908 583.678 385.672 578.476 405.832C574.539 420.938 557.386 476.098 557.386 476.098C550.764 477.022 537.224 478.492 531.952 466.942C530.616 448.196 525.977 320.908 525.977 320.908L554.152 282.8Z" fill="#28CC9E"/>
<path opacity="0.4" d="M554.152 282.8C565.133 320.908 583.678 385.672 578.476 405.832C574.539 420.938 557.386 476.098 557.386 476.098C550.764 477.022 537.224 478.492 531.952 466.942C530.616 448.196 525.977 320.908 525.977 320.908L554.152 282.8Z" fill="white"/>
<path opacity="0.25" d="M526.033 320.838C533.003 314.28 539.483 307.224 545.421 299.726C545.421 299.726 544.015 308.756 531.516 321.202C531.516 321.202 552.465 401.548 552.339 414.372C552.212 427.196 545.309 473.172 545.309 473.172L526.033 320.838Z" fill="black"/>
<path d="M554.153 282.8C545.196 301.294 541.681 308.686 526.033 320.908C526.033 320.908 545.168 400.092 546.012 415.464C547.418 441.014 544.114 498.204 542.933 515.578C539.966 519.442 525.513 520.1 520.957 516.81C518.876 508.774 511.889 480.494 508.613 455.126C506.194 436.38 509.288 419.608 509.681 414.694C499.544 388.948 476.781 351.372 468.458 324.45C467.092 319.79 466.23 314.998 465.885 310.156C464.029 293.09 471.045 280.056 475.164 270.956L554.153 282.8Z" fill="#28CC9E"/>
<g opacity="0.5">
<path d="M554.153 282.8C545.196 301.294 541.681 308.686 526.033 320.908C526.033 320.908 545.168 400.092 546.012 415.464C547.418 441.014 544.114 498.204 542.933 515.578C539.966 519.442 525.513 520.1 520.957 516.81C518.876 508.774 511.889 480.494 508.613 455.126C506.194 436.38 509.288 419.608 509.681 414.694C499.544 388.948 476.781 351.372 468.458 324.45C467.092 319.79 466.23 314.998 465.885 310.156C464.029 293.09 471.045 280.056 475.164 270.956L554.153 282.8Z" fill="white"/>
</g>
<path d="M518.736 542.29C517.625 546.602 518.637 558.488 518.637 558.488C518.637 558.488 520.479 562.604 527.158 565.39L530.321 548.898L518.736 542.29Z" fill="#263238"/>
<path d="M527.158 565.39L542.005 560.672L545.675 547.638L528.986 555.87L527.158 565.39Z" fill="black"/>
<path d="M542.877 527.38L542.989 524.286C544.986 525.28 549.274 541.422 555.151 552.538C560.522 562.674 571.292 568.386 574.764 572.81C579.404 578.732 570.209 586.222 555.573 582.974C548.318 581.35 537.295 576.618 534.399 571.704C531.502 566.79 530.518 557.802 528.114 554.19C525.71 550.578 519.931 546.392 518.736 542.29C517.804 538.576 517.847 534.685 518.862 530.992C520.044 527.282 519.987 523.474 521.857 523.166L522.138 526.078C523.109 528.08 526.905 530.376 534.3 530.852C537.829 531.062 541.246 530.6 542.877 527.38Z" fill="#37474F"/>
<path d="M516.978 131.796L509.597 156.646C489.07 156.646 476.388 136.738 476.388 116.298C476.388 95.774 489.52 78.624 510.131 78.624H516.824C537.435 78.624 554.153 92.246 554.153 112.784C554.153 126.154 537.506 131.796 516.978 131.796Z" fill="#263238"/>
<path d="M558.005 93.8C559.58 91.2377 560.34 88.2605 560.184 85.26C560.086 83.7587 559.646 82.2993 558.899 80.992C558.151 79.6848 557.114 78.5639 555.868 77.714C552.029 75.278 546.715 76.426 543.214 79.24C542.929 76.5666 541.61 74.1086 539.537 72.3865C537.464 70.6644 534.799 69.8135 532.107 70.014C528.69 70.28 525.653 72.17 522.7 73.878C517.674 76.4153 512.248 78.0773 506.658 78.792L512.943 81.2C512.089 82.5098 511.546 83.9964 511.356 85.5467C511.166 87.097 511.333 88.6701 511.846 90.146C512.116 90.7512 512.446 91.3281 512.83 91.868C517.003 98.0821 522.765 103.075 529.522 106.331C536.28 109.587 543.787 110.988 551.27 110.39C553.368 110.345 555.421 109.767 557.231 108.71C558.288 107.962 559.182 107.01 559.861 105.91C561.173 103.999 561.82 101.712 561.702 99.4C561.62 98.2293 561.236 97.0993 560.589 96.1186C559.941 95.138 559.051 94.3395 558.005 93.8Z" fill="#263238"/>
<path d="M500.95 166.6L487.495 168C478.567 170.17 474.532 174.09 473.618 182C473.196 185.668 470.961 195.44 474.082 207.69C476.894 218.778 484.458 245.924 484.458 245.924C484.458 245.924 474.687 270.326 470.103 282.8C501.85 303.422 541.035 295.274 554.195 282.8C553.084 271.012 548.894 260.022 547.952 249.508C547.952 249.508 548.627 233.072 549.935 225.946C559.988 215.04 558.694 204.596 554.153 196.182C545.829 180.628 533.274 166.978 529.225 166.992L500.95 166.6Z" fill="#455A64"/>
<path d="M525.077 157.766C529.098 158.746 532.233 160.37 533.864 163.366C535.495 166.362 548.219 186.312 548.219 186.312C548.219 186.312 537.955 172.858 530.223 168.784C528.644 167.867 526.892 167.285 525.077 167.076V157.766Z" fill="#E0E0E0"/>
<path d="M500.95 166.6C500.95 166.6 515.01 195.79 517.513 215.488C520.015 235.186 514.701 302.386 514.701 323.708C514.701 349.412 514.785 391.832 514.785 391.832C514.785 391.832 498.743 391.832 487.72 388.696C479.663 386.414 470.117 382.312 464.338 375.438C464.338 375.438 462.764 322.826 466.082 297.766C469.217 273.966 481.941 244.65 481.941 244.65L465.632 182.742C465.632 182.742 466.391 172.102 476.444 169.12C485.962 166.264 500.95 166.6 500.95 166.6Z" fill="#FAFAFA"/>
<path d="M487.72 179.34L471.073 203.602L481.885 244.622C481.885 244.622 471.846 265.72 468.148 286.146C478.173 257.908 487.228 249.438 487.228 249.438L481.351 225.554C481.351 225.554 483.417 218.036 486.3 205.212C489.182 192.388 488.704 184.954 487.72 179.34Z" fill="#EBEBEB"/>
<path d="M496.816 202.216C496.816 200.998 496.704 198.366 496.493 195.034C495.453 178.78 494.975 164.08 500.486 162.834L500.978 165.074C496.943 165.942 498.279 186.928 498.785 194.824C499.01 198.226 499.178 200.9 499.122 202.244L496.816 202.216Z" fill="#28CC9E"/>
<path d="M500.95 157.766C499.925 157.772 498.92 158.056 498.045 158.589C497.171 159.122 496.459 159.883 495.987 160.79C494.666 163.03 491.882 166.796 491.882 166.796C491.882 166.796 491.783 181.72 493.288 185.598C494.581 188.958 510.469 201.404 510.469 201.404C510.469 201.404 508.922 214.578 508.796 219.184C508.669 223.79 516.824 240.492 517.822 249.438C517.822 249.438 519.509 227.71 518.188 217.616C515.868 200.046 504.859 173.768 500.95 166.572V157.766Z" fill="#EBEBEB"/>
<path d="M493.484 256.578H493.287V254.982C495.197 254.823 497.025 254.145 498.574 253.022C496.922 251.926 495.443 250.591 494.187 249.06C491.586 245.714 485.906 221.844 487.663 216.286C489.069 211.624 493.723 201.334 497.829 201.166H497.927C502.019 201.166 507.389 210.882 509.245 215.362C511.467 220.766 507.839 245.028 505.534 248.57C504.417 250.208 503.056 251.666 501.498 252.896C503.128 253.899 505.01 254.423 506.925 254.408L507.122 255.99C504.627 256.032 502.178 255.325 500.092 253.96C498.181 255.435 495.891 256.342 493.484 256.578ZM497.997 202.748C495.593 202.846 491.277 210.476 489.308 216.748C487.692 221.858 493.161 244.958 495.565 248.066C496.843 249.604 498.356 250.932 500.05 252C501.68 250.793 503.104 249.332 504.268 247.674C506.405 244.384 509.892 220.906 507.825 215.95C505.323 210 500.416 202.748 497.997 202.748Z" fill="#455A64"/>
<path d="M509.47 255.08C509.489 255.545 509.37 256.004 509.126 256.401C508.883 256.798 508.527 257.114 508.103 257.31C507.679 257.505 507.207 257.572 506.746 257.5C506.284 257.428 505.855 257.222 505.511 256.907C505.167 256.592 504.925 256.183 504.815 255.731C504.705 255.279 504.731 254.805 504.892 254.368C505.052 253.931 505.339 253.552 505.716 253.277C506.093 253.003 506.543 252.846 507.01 252.826C507.635 252.803 508.245 253.027 508.705 253.449C509.166 253.871 509.441 254.457 509.47 255.08Z" fill="#263238"/>
<path d="M495.678 255.668C495.697 256.133 495.577 256.592 495.334 256.989C495.09 257.386 494.734 257.702 494.311 257.898C493.887 258.093 493.415 258.159 492.953 258.088C492.492 258.016 492.062 257.81 491.718 257.495C491.375 257.18 491.132 256.771 491.022 256.319C490.912 255.867 490.939 255.393 491.099 254.956C491.26 254.519 491.546 254.14 491.923 253.865C492.3 253.591 492.751 253.434 493.217 253.414C493.527 253.401 493.837 253.449 494.129 253.555C494.421 253.661 494.688 253.824 494.917 254.033C495.145 254.242 495.33 254.494 495.461 254.775C495.591 255.056 495.665 255.359 495.678 255.668Z" fill="#263238"/>
<path d="M509.695 225.876L508.289 225.778C508.22 225.775 508.153 225.757 508.091 225.727C508.028 225.696 507.973 225.653 507.929 225.601C507.884 225.549 507.85 225.487 507.83 225.422C507.81 225.356 507.804 225.286 507.811 225.218C508.078 220.738 507.938 217.434 507.389 216.118C504.999 210.322 500.078 203.07 497.927 203.154C495.776 203.238 491.474 210.896 489.59 216.874C489.168 218.274 489.294 221.536 489.955 225.974C489.976 226.111 489.942 226.251 489.86 226.363C489.779 226.476 489.657 226.552 489.519 226.576L488.113 226.786C488.043 226.796 487.972 226.792 487.903 226.774C487.834 226.756 487.77 226.724 487.714 226.681C487.658 226.638 487.611 226.584 487.575 226.523C487.54 226.462 487.518 226.394 487.509 226.324C486.764 221.34 486.679 217.924 487.228 216.146C488.24 212.954 492.978 200.956 497.759 200.746C502.539 200.536 508.289 212.1 509.569 215.208C510.272 216.916 510.483 220.332 510.159 225.372C510.154 225.497 510.104 225.616 510.019 225.708C509.935 225.8 509.82 225.86 509.695 225.876Z" fill="#28CC9E"/>
<path d="M454.271 347.9C456.718 350.182 458.054 353.248 460.57 357.784C463.087 362.32 475.502 362.754 476.486 350C477.231 340.396 473.857 337.148 467.094 329.672C459.994 321.804 457.252 320.516 457.576 313.222C457.758 309.624 463.199 257.544 463.199 257.544L481.098 208.446C481.098 208.446 487.565 185.5 484.317 169.512C484.317 169.512 472.718 168.574 464.521 176.722C454.946 186.242 444.106 233.31 441.716 242.816C438.273 254.861 436.768 267.374 437.259 279.888C437.822 295.162 437.878 327.082 439.916 334.124C441.955 341.166 447.677 341.754 454.271 347.9Z" fill="#B16668"/>
<path d="M485.119 167.398C485.119 167.398 472.788 166.628 465.576 172.508C458.363 178.388 453.878 194.824 448.577 211.246C443.277 227.668 438.553 243.67 436.809 255.178C435.403 264.81 438.215 315.658 438.215 315.658C438.215 315.658 446.426 318.626 457.576 313.222L464.479 257.6L485.147 201.768C488.957 190.624 488.947 178.536 485.119 167.398Z" fill="#F0F0F0"/>
<path d="M533.161 97.384C542.553 98.35 550.399 108.29 549.878 130.844C549.429 149.968 543.2 154.644 540.037 156.044C536.873 157.444 530.884 157.626 525.035 156.646V167.076C525.035 167.076 531.783 181.888 528.915 187.18C512.901 180.6 500.95 166.6 500.95 166.6V142.968C500.95 142.968 496.999 147.63 490.532 143.36C484.064 139.09 483.811 128.492 487.579 124.684C491.347 120.876 499.446 122.094 500.95 127.344C500.95 127.344 506.574 127.204 516.936 119.854C524.821 114.487 530.563 106.535 533.161 97.384Z" fill="#B16668"/>
<path d="M523.797 123.508C523.828 123.851 523.789 124.196 523.684 124.524C523.578 124.852 523.407 125.155 523.182 125.416C522.957 125.677 522.681 125.891 522.371 126.044C522.061 126.197 521.724 126.287 521.379 126.308C520.853 126.354 520.324 126.243 519.861 125.989C519.399 125.735 519.023 125.349 518.781 124.881C518.54 124.413 518.444 123.883 518.506 123.361C518.568 122.838 518.786 122.346 519.13 121.947C519.475 121.548 519.931 121.26 520.441 121.121C520.95 120.981 521.49 120.996 521.991 121.164C522.492 121.332 522.932 121.644 523.253 122.062C523.575 122.479 523.764 122.983 523.797 123.508Z" fill="#263238"/>
<path d="M526.497 141.4L534.117 143.822C533.98 144.329 533.742 144.804 533.416 145.217C533.091 145.631 532.685 145.974 532.223 146.228C531.761 146.481 531.252 146.64 530.727 146.693C530.202 146.746 529.672 146.694 529.168 146.538C528.146 146.186 527.299 145.456 526.802 144.5C526.305 143.544 526.196 142.434 526.497 141.4Z" fill="#9A4A4D"/>
<path d="M546.448 117.6L541.274 114.03C541.492 113.683 541.778 113.384 542.116 113.151C542.453 112.918 542.835 112.756 543.238 112.674C543.64 112.593 544.055 112.594 544.457 112.678C544.859 112.762 545.24 112.927 545.576 113.162C546.269 113.646 546.747 114.379 546.91 115.206C547.072 116.034 546.907 116.891 546.448 117.6Z" fill="#263238"/>
<path d="M544.62 123.018C544.625 123.518 544.482 124.008 544.21 124.427C543.937 124.847 543.547 125.177 543.087 125.377C542.627 125.578 542.119 125.639 541.624 125.553C541.13 125.468 540.671 125.24 540.306 124.897C539.941 124.555 539.685 124.113 539.57 123.626C539.456 123.14 539.487 122.631 539.66 122.162C539.834 121.693 540.142 121.285 540.546 120.989C540.951 120.694 541.434 120.523 541.935 120.498C542.277 120.487 542.619 120.543 542.94 120.664C543.261 120.785 543.554 120.968 543.804 121.202C544.053 121.436 544.254 121.717 544.394 122.029C544.534 122.34 544.611 122.677 544.62 123.018Z" fill="#263238"/>
<path d="M531.643 121.562L532.05 136.878L540.149 134.386L531.643 121.562Z" fill="#9A4A4D"/>
<path d="M525.077 156.646C518.89 155.848 506.194 151.172 504.212 146.16C505.005 148.693 506.561 150.921 508.669 152.544C512.465 155.792 525.077 159.432 525.077 159.432V156.646Z" fill="#9A4A4D"/>
<path d="M628.346 217.672L567.214 246.638L550.398 319.074L551.762 320.516L609.872 291.41L629.71 219.114L628.346 217.672Z" fill="#28CC9E"/>
<path opacity="0.35" d="M568.592 248.094L551.762 320.516L550.398 319.074L567.214 246.638L568.592 248.094Z" fill="black"/>
<path opacity="0.25" d="M629.71 219.114L568.592 248.094L551.762 320.516L609.872 291.41L629.71 219.114Z" fill="black"/>
<g opacity="0.2">
<path d="M600.859 276.682C601.422 278.082 606.104 281.246 612.895 280.686L614.033 276.486L600.859 276.682Z" fill="black"/>
</g>
<g opacity="0.1">
<path d="M611.292 233.954L611.798 231.532C612.079 230.132 608.494 230.888 603.784 233.1L594.785 237.3C590.075 239.512 586.04 242.396 585.759 243.74L585.253 246.162L611.292 233.954Z" fill="black"/>
</g>
<path d="M615.003 222.6C615.186 221.76 613.724 221.858 611.755 222.824L608.198 224.56C608.198 224.56 609.253 219.31 601.337 222.74C593.421 226.17 591.706 232.232 591.706 232.232L587.896 234.122C585.787 235.158 583.889 236.698 583.678 237.538L583.228 239.078L614.708 224.168C614.708 224.168 614.835 223.44 615.003 222.6Z" fill="#37474F"/>
<path d="M611.657 227.626C608.775 228.928 607.566 229.572 607.144 231.644C606.652 233.996 606.455 235.704 606.455 235.704L592.508 242.312C592.508 242.312 593.183 239.316 593.394 238.112C593.605 236.908 593.141 236.376 590.919 237.44L590.047 235.004L612.543 224.56L611.657 227.626Z" fill="#37474F"/>
<path d="M612.107 233.996C612.107 233.996 612.332 232.904 612.613 231.574C612.894 230.244 609.309 230.93 604.599 233.142L595.587 237.342C590.891 239.554 586.856 242.438 586.574 243.782L586.068 246.204L612.107 233.996Z" fill="#37474F"/>
<path d="M622.905 243.894C622.905 243.894 620.74 251.846 620.177 253.848C619.615 255.85 609.604 260.456 604.585 261.086C594.996 262.276 593.914 264.348 596.219 271.124C598.343 277.368 604.585 279.734 613.246 278.712C617.295 278.236 622.905 274.652 625.112 268.394C627.924 260.414 626.406 251.874 627.517 247.212C628.627 242.55 625.351 241.122 622.905 243.894Z" fill="#B16668"/>
<path d="M72.1533 161.966L75.0075 163.604L146.361 122.584L143.507 120.946L72.1533 161.966Z" fill="#455A64"/>
<path d="M143.507 120.946L75.0078 160.328V101.206L143.507 61.824V120.946Z" fill="#28CC9E"/>
<g opacity="0.8">
<path d="M143.507 120.946L75.0078 160.328V101.206L143.507 61.824V120.946Z" fill="white"/>
</g>
<path d="M149.215 55.258L72.2095 99.554V168.532L149.271 124.222L149.215 55.258ZM146.403 122.584L75.0214 163.604V101.206L146.361 60.2L146.403 122.584Z" fill="#37474F"/>
<path d="M146.361 122.584L143.507 120.946V61.824L146.361 60.172V122.584Z" fill="#263238"/>
<path d="M149.215 55.258L146.361 53.62L69.2993 97.916L72.1535 99.554L149.215 55.258Z" fill="#455A64"/>
<path d="M69.2993 97.916L72.1535 99.554V168.532L69.2993 166.894V97.916Z" fill="#263238"/>
<path d="M130.066 111.006C132.737 109.466 134.888 110.712 134.888 113.806C134.799 115.47 134.315 117.09 133.477 118.533C132.639 119.976 131.47 121.201 130.066 122.108C127.408 123.634 125.257 122.402 125.257 119.308C125.348 117.645 125.83 116.027 126.665 114.585C127.501 113.143 128.666 111.916 130.066 111.006Z" fill="#28CC9E"/>
<path opacity="0.2" d="M91.1344 98.504L127.409 77.644C128.421 77.056 129.237 77.532 129.237 78.68V78.792C129.203 79.4234 129.02 80.0381 128.703 80.5856C128.385 81.1331 127.942 81.5979 127.409 81.942L91.1344 102.83C90.1362 103.418 89.3066 102.942 89.3066 101.78V101.654C89.3453 101.024 89.5306 100.411 89.8478 99.8645C90.165 99.3179 90.6055 98.8521 91.1344 98.504Z" fill="black"/>
<g opacity="0.2">
<path d="M85.398 114.94L133.201 87.5C134.214 86.912 135.029 87.178 135.029 88.088C134.956 88.647 134.753 89.1812 134.436 89.648C134.118 90.1147 133.696 90.501 133.201 90.776L85.398 118.244C84.3997 118.832 83.5843 118.566 83.5983 117.642C83.6713 117.085 83.8715 116.551 84.1834 116.083C84.4953 115.615 84.9108 115.224 85.398 114.94Z" fill="black"/>
<path d="M85.398 121.506L133.201 94.052C134.214 93.478 135.029 93.744 135.029 94.64C134.955 95.2004 134.752 95.7362 134.434 96.205C134.117 96.6739 133.695 97.0631 133.201 97.342L85.398 124.81C84.3997 125.384 83.5843 125.118 83.5983 124.208C83.6693 123.65 83.8686 123.116 84.1807 122.647C84.4929 122.179 84.9094 121.788 85.398 121.506Z" fill="black"/>
<path d="M85.398 128.058L133.201 100.604C134.214 100.03 135.029 100.296 135.029 101.206C134.956 101.765 134.753 102.299 134.436 102.766C134.118 103.233 133.696 103.619 133.201 103.894L85.398 131.362C84.3997 131.95 83.5843 131.67 83.5983 130.76C83.6713 130.203 83.8715 129.67 84.1834 129.201C84.4953 128.733 84.9108 128.342 85.398 128.058Z" fill="black"/>
</g>
<path opacity="0.3" d="M121.504 125.034C121.134 125.228 120.726 125.338 120.308 125.356C119.282 125.356 119.38 124.32 119.409 123.606C119.409 123.284 118.973 122.78 118.748 123.214C118.129 124.32 117.342 125.356 116.667 126.434C116.259 127.092 115.486 128.59 114.502 128.38C114.108 128.296 113.967 127.862 113.967 127.316C114.464 126.409 114.684 125.378 114.6 124.348C114.6 124.04 114.038 123.662 113.883 124.082C113.527 124.976 113.318 125.922 113.264 126.882C112.808 127.681 112.291 128.444 111.718 129.164C111.38 129.598 111.099 130.088 110.734 130.564C110.635 130.662 110.467 130.914 110.326 130.928C110.185 130.942 110.031 130.788 109.989 130.564C109.971 130.235 110.024 129.906 110.143 129.598C110.143 129.598 110.143 129.598 110.143 129.514C110.143 129.192 109.721 128.716 109.553 129.122C108.922 130.836 107.968 132.414 106.741 133.77L106.558 133.924C106.558 133.728 106.558 133.546 106.558 133.35C106.54 132.913 106.465 132.48 106.333 132.062C106.249 131.852 105.883 131.53 105.686 131.81C104.813 133.392 103.746 134.859 102.509 136.178C102.3 136.348 102.079 136.503 101.848 136.64C101.623 136.528 101.96 135.366 102.017 135.24C102.143 134.722 102.312 134.218 102.481 133.714C102.656 133.31 102.783 132.887 102.86 132.454C102.86 132.062 102.256 131.46 102.129 131.992C102.129 132.202 101.89 132.72 101.693 133.392C100.877 134.895 99.9515 136.336 98.9234 137.704C98.0006 139.185 96.7196 140.413 95.1976 141.274C94.7758 141.498 93.9744 141.834 93.5104 141.498C93.0464 141.162 93.0886 140.588 93.0745 140.098C93.0561 138.985 93.2078 137.876 93.5244 136.808C95.0225 136.019 96.4118 135.04 97.658 133.896C98.8811 132.922 99.9397 131.759 100.793 130.452C101.215 129.682 101.468 128.436 100.442 128.002C99.7248 127.694 98.8109 128.198 98.2064 128.534C97.3763 129.024 96.6231 129.632 95.9709 130.34C94.6488 131.836 93.687 133.612 93.1589 135.534C93.0745 135.828 92.948 136.22 92.8355 136.654C91.2159 137.481 89.3793 137.789 87.5771 137.536C87.4787 137.536 87.4365 137.746 87.5771 137.76C89.3022 138.128 91.0994 137.957 92.723 137.27C92.2591 139.258 92.006 141.89 93.8619 142.408C95.7178 142.926 97.9673 140.602 98.9656 139.258C99.7303 138.254 100.399 137.18 100.962 136.052C101.014 135.969 101.07 135.89 101.131 135.814C101.131 136.738 101.314 137.41 102.227 137.214C103.141 137.018 103.971 135.814 104.477 135.072C104.983 134.33 105.391 133.672 105.883 133.014C105.967 133.854 106.108 134.792 106.909 134.638C107.711 134.484 108.315 133.098 108.737 132.538C109.159 131.978 109.37 131.558 109.637 131.054C109.693 131.146 109.754 131.235 109.82 131.32C110.481 132.02 111.226 131.32 111.704 130.704C112.308 129.92 112.983 129.08 113.56 128.184C113.697 128.569 113.979 128.885 114.347 129.066C115.373 129.542 116.329 128.702 116.92 127.96C117.637 126.985 118.277 125.955 118.832 124.88C118.874 125.083 118.958 125.275 119.079 125.444C119.2 125.613 119.356 125.755 119.535 125.86C119.913 126.05 120.336 126.136 120.758 126.109C121.181 126.082 121.589 125.943 121.939 125.706C122.136 125.552 121.841 124.866 121.504 125.034ZM99.1624 129.01C99.6264 128.772 100.568 128.366 100.667 129.164C100.602 129.686 100.376 130.176 100.02 130.564C99.2069 131.655 98.2625 132.642 97.2081 133.504C96.1342 134.49 94.9717 135.376 93.7353 136.15C94.0981 134.652 94.7673 133.245 95.7011 132.016C96.6349 130.788 97.8133 129.764 99.1624 129.01Z" fill="black"/>
<path d="M184.632 161.966L187.486 163.604L258.84 122.584L255.985 120.946L184.632 161.966Z" fill="#455A64"/>
<path d="M255.986 120.946L187.486 160.328V101.206L255.986 61.824V120.946Z" fill="#28CC9E"/>
<g opacity="0.8">
<path d="M255.986 120.946L187.486 160.328V101.206L255.986 61.824V120.946Z" fill="white"/>
</g>
<path d="M261.694 55.258L184.688 99.554V168.532L261.75 124.222L261.694 55.258ZM258.882 122.584L187.5 163.604V101.206L258.84 60.2L258.882 122.584Z" fill="#37474F"/>
<path d="M258.84 122.584L255.986 120.946V61.824L258.84 60.172V122.584Z" fill="#263238"/>
<path d="M261.694 55.258L258.84 53.62L181.778 97.916L184.632 99.554L261.694 55.258Z" fill="#455A64"/>
<path d="M181.778 97.916L184.632 99.554V168.532L181.778 166.894V97.916Z" fill="#263238"/>
<path d="M242.558 111.006C245.216 109.466 247.367 110.712 247.367 113.806C247.277 115.469 246.794 117.087 245.959 118.529C245.123 119.972 243.958 121.198 242.558 122.108C239.887 123.634 237.736 122.402 237.736 119.308C237.825 117.644 238.309 116.024 239.147 114.581C239.985 113.138 241.154 111.913 242.558 111.006Z" fill="#28CC9E"/>
<path opacity="0.2" d="M203.613 98.504L239.901 77.644C240.899 77.056 241.715 77.532 241.715 78.68V78.792C241.682 79.4219 241.501 80.0354 241.186 80.5826C240.87 81.1299 240.43 81.5956 239.901 81.942L203.613 102.83C202.614 103.418 201.799 102.942 201.799 101.78V101.654C201.835 101.025 202.018 100.413 202.332 99.8658C202.647 99.3191 203.085 98.8528 203.613 98.504Z" fill="black"/>
<g opacity="0.2">
<path d="M197.876 114.94L245.68 87.5C246.692 86.912 247.508 87.178 247.508 88.088C247.435 88.647 247.232 89.1812 246.914 89.648C246.597 90.1147 246.174 90.501 245.68 90.776L197.876 118.244C196.878 118.832 196.063 118.566 196.077 117.642C196.15 117.085 196.35 116.551 196.662 116.083C196.974 115.615 197.389 115.224 197.876 114.94Z" fill="black"/>
<path d="M197.876 121.506L245.68 94.052C246.692 93.478 247.508 93.744 247.508 94.64C247.434 95.2004 247.23 95.7362 246.913 96.205C246.596 96.6739 246.174 97.0631 245.68 97.342L197.876 124.81C196.878 125.384 196.063 125.118 196.077 124.208C196.148 123.65 196.347 123.116 196.659 122.647C196.971 122.179 197.388 121.788 197.876 121.506Z" fill="black"/>
<path d="M197.876 128.058L245.68 100.604C246.692 100.03 247.508 100.296 247.508 101.206C247.435 101.765 247.232 102.299 246.914 102.766C246.597 103.233 246.174 103.619 245.68 103.894L197.876 131.362C196.878 131.95 196.063 131.67 196.077 130.76C196.15 130.203 196.35 129.67 196.662 129.201C196.974 128.733 197.389 128.342 197.876 128.058Z" fill="black"/>
</g>
<path opacity="0.3" d="M233.982 125.034C233.614 125.232 233.205 125.342 232.787 125.356C231.775 125.356 231.859 124.32 231.887 123.606C231.887 123.284 231.451 122.78 231.226 123.214C230.608 124.32 229.82 125.356 229.146 126.434C228.752 127.092 227.965 128.59 226.994 128.38C226.587 128.296 226.446 127.862 226.446 127.316C226.943 126.409 227.163 125.378 227.079 124.348C227.079 124.04 226.531 123.662 226.362 124.082C226.006 124.976 225.797 125.922 225.743 126.882C225.287 127.681 224.77 128.444 224.197 129.164C223.873 129.598 223.578 130.088 223.212 130.564C223.128 130.662 222.945 130.914 222.805 130.928C222.664 130.942 222.509 130.788 222.467 130.564C222.45 130.235 222.502 129.906 222.622 129.598C222.628 129.57 222.628 129.542 222.622 129.514C222.622 129.192 222.2 128.716 222.031 129.122C221.401 130.836 220.446 132.414 219.219 133.77L219.037 133.924C219.037 133.728 219.037 133.546 219.037 133.35C219.019 132.913 218.943 132.48 218.812 132.062C218.727 131.852 218.362 131.53 218.165 131.81C217.297 133.395 216.229 134.863 214.987 136.178C214.782 136.352 214.56 136.506 214.327 136.64C214.116 136.528 214.453 135.366 214.495 135.24C214.622 134.722 214.791 134.218 214.959 133.714C215.134 133.31 215.262 132.887 215.339 132.454C215.339 132.062 214.734 131.46 214.608 131.992C214.608 132.202 214.369 132.72 214.172 133.392C213.361 134.898 212.435 136.339 211.402 137.704C210.479 139.185 209.198 140.413 207.676 141.274C207.254 141.498 206.453 141.834 205.989 141.498C205.525 141.162 205.581 140.588 205.553 140.098C205.549 138.986 205.7 137.879 206.003 136.808C207.501 136.019 208.891 135.04 210.137 133.896C211.363 132.926 212.422 131.763 213.272 130.452C213.694 129.682 213.947 128.436 212.921 128.002C212.204 127.694 211.29 128.198 210.685 128.534C209.844 129.003 209.076 129.593 208.407 130.284C207.085 131.78 206.124 133.556 205.595 135.478C205.511 135.772 205.385 136.164 205.272 136.598C203.652 137.425 201.816 137.733 200.014 137.48C199.915 137.48 199.873 137.69 200.014 137.704C201.739 138.072 203.536 137.901 205.16 137.214C204.696 139.202 204.443 141.834 206.298 142.352C208.154 142.87 210.404 140.546 211.402 139.202C212.167 138.198 212.835 137.124 213.399 135.996C213.45 135.913 213.506 135.834 213.567 135.758C213.567 136.682 213.75 137.354 214.664 137.158C215.578 136.962 216.407 135.758 216.928 135.016C217.448 134.274 217.827 133.616 218.334 132.958C218.418 133.798 218.573 134.736 219.36 134.582C220.147 134.428 220.766 133.042 221.188 132.482C221.61 131.922 221.82 131.502 222.088 130.998C222.144 131.09 222.205 131.179 222.27 131.264C222.931 131.964 223.676 131.264 224.154 130.648C224.759 129.864 225.434 129.024 226.01 128.128C226.147 128.513 226.43 128.829 226.798 129.01C227.824 129.486 228.78 128.646 229.371 127.904C230.088 126.929 230.727 125.899 231.283 124.824C231.325 125.027 231.409 125.219 231.53 125.388C231.651 125.557 231.806 125.699 231.986 125.804C232.364 125.994 232.786 126.08 233.209 126.053C233.632 126.026 234.039 125.887 234.39 125.65C234.629 125.552 234.32 124.866 233.982 125.034ZM211.641 129.01C212.119 128.772 213.047 128.366 213.146 129.164C213.08 129.683 212.86 130.171 212.513 130.564C211.695 131.651 210.751 132.638 209.701 133.504C208.627 134.49 207.464 135.376 206.228 136.15C206.589 134.653 207.256 133.247 208.188 132.018C209.119 130.79 210.295 129.766 211.641 129.01Z" fill="black"/>
</svg>
