<svg width="593" height="563" viewBox="0 0 593 563" fill="none" xmlns="http://www.w3.org/2000/svg">
<path fill-rule="evenodd" clip-rule="evenodd" d="M261.376 58.6156C322.587 63.7979 365.536 2.37344 426.796 7.00004C489.929 11.768 559.307 46.4661 584.596 101.24C610.256 156.818 570.75 219.408 551.576 277.267C536.874 321.631 505.065 356.704 485.763 399.47C463.216 449.428 470.018 477.14 426.796 513C383.201 549.17 317.663 572.289 261.376 558.857C206.475 545.757 189.449 500.562 136.918 480.609C70.7375 455.473 38.759 487.691 11.5 425.5C-17.9016 358.42 19.1533 344.64 47.7913 277.267C62.9748 241.547 49.3606 202.209 53.2049 163.896C59.5695 100.466 18.467 32.8254 80.2136 7.00001C145.807 -20.4344 189.911 52.5651 261.376 58.6156Z" fill="#132F2B"/>
<g clip-path="url(#clip0_4215_2252)">
<path d="M130.65 126.527C130.049 124.707 129.192 122.978 128.104 121.387C127.563 120.596 126.863 119.919 126.047 119.397C125.231 118.875 124.315 118.519 123.354 118.35C122.38 118.206 121.384 118.383 120.523 118.853C119.663 119.322 118.988 120.058 118.604 120.943C118.319 116.878 117.73 112.692 115.64 109.155C113.55 105.617 109.646 102.849 105.466 103.099C101.523 103.33 98.1509 106.182 96.2794 109.581C94.4079 112.979 93.7619 116.85 93.1444 120.693C91.6529 118.906 88.4989 119.461 86.9314 121.193C85.3639 122.924 84.9839 125.35 84.6514 127.675H131.6L130.65 126.527Z" fill="#F5F5F5"/>
<path d="M447.096 82.0591C446.532 80.3485 445.729 78.7217 444.71 77.2246C444.205 76.4762 443.552 75.8344 442.788 75.3371C442.024 74.8399 441.166 74.4973 440.265 74.3297C439.352 74.197 438.421 74.3638 437.616 74.8039C436.812 75.244 436.179 75.9325 435.819 76.7614C435.766 72.916 434.812 69.1333 433.032 65.7028C431.076 62.3882 427.431 59.7827 423.518 60.0143C421.678 60.2476 419.927 60.9257 418.424 61.9873C416.92 63.049 415.712 64.4604 414.908 66.0937C413.331 69.3664 412.329 72.8747 411.944 76.472C410.551 74.8074 407.587 75.3285 406.135 76.9496C404.835 78.7205 404.094 80.8233 404 83H448L447.096 82.0591Z" fill="#F5F5F5"/>
<path d="M182.919 282.835H198.262V231.433H182.919V282.835Z" fill="#EBEBEB"/>
<path d="M282.691 229.678C282.691 229.678 281.94 229.196 283.641 227.066C285.341 224.937 282.691 223.807 282.691 223.807C275.442 227.891 265.325 223.807 265.325 223.807C265.325 223.807 277.257 220.214 278.767 216.788C279.888 214.232 277.903 213.945 276.867 214.01C278.083 213.889 280.715 213.473 281.522 212.102C282.577 210.306 278.425 208.185 278.425 208.185C278.645 207.754 278.76 207.278 278.76 206.796C278.76 206.314 278.645 205.839 278.425 205.407C277.751 203.611 262.19 201 262.19 201C266.721 201.49 268.384 197.083 268.384 197.083C268.384 197.083 276.088 197.249 277.884 194.305C279.679 191.36 276.677 190.545 271.547 188.1C266.417 185.656 255.084 176.516 255.084 176.516C255.084 176.516 262.18 175.859 264.147 174.229C266.113 172.599 264.289 172.275 264.289 172.275C272.754 173.09 269.885 168.682 269.885 168.682C263.163 166.682 257.146 162.895 252.509 157.746C252.509 157.746 257.801 156.607 260.518 154.162C263.235 151.718 258.257 151.06 258.257 151.06C258.257 151.06 268.222 149.755 262.484 146.162C258.114 143.439 251.141 139.763 248.966 138.661C251.35 139.513 256.746 138.495 256.746 138.495C263.083 135.717 256.746 131.642 256.746 131.642C249.346 127.558 238.468 117.28 238.468 117.28C238.468 117.28 243.902 120.058 246.619 119.243C249.336 118.428 243.598 115.159 243.598 115.159C243.598 115.159 246.448 115.974 247.683 115.159C248.918 114.344 244.51 110.594 244.51 110.594C237.993 106.464 229.975 95.6485 226.612 91C223.259 95.63 215.212 106.464 208.714 110.594C208.714 110.594 204.335 114.298 205.551 115.159C206.767 116.021 209.626 115.159 209.626 115.159C209.626 115.159 203.926 118.428 206.605 119.243C209.284 120.058 214.756 117.28 214.756 117.28C214.756 117.28 203.888 127.558 196.488 131.642C196.488 131.642 190.142 135.717 196.488 138.495C196.488 138.495 201.874 139.513 204.259 138.661C202.083 139.763 195.11 143.439 190.75 146.162C185.05 149.755 194.977 151.06 194.977 151.06C194.977 151.06 189.99 151.709 192.707 154.162C195.424 156.616 200.715 157.746 200.715 157.746C196.079 162.895 190.062 166.682 183.34 168.682C183.34 168.682 180.49 173.09 188.935 172.275C188.935 172.275 187.121 172.599 189.087 174.229C191.054 175.859 198.15 176.516 198.15 176.516C198.15 176.516 186.817 185.656 181.687 188.1C176.557 190.545 173.526 191.36 175.341 194.305C177.155 197.249 184.841 197.083 184.841 197.083C184.841 197.083 186.503 201.49 191.035 201C191.035 201 175.483 203.611 174.799 205.407C174.582 205.84 174.469 206.315 174.469 206.796C174.469 207.278 174.582 207.753 174.799 208.185C174.799 208.185 170.648 210.306 171.702 212.102C172.51 213.473 175.151 213.889 176.367 214.01C175.284 214.01 173.298 214.278 174.467 216.788C175.977 220.214 187.909 223.807 187.909 223.807C187.909 223.807 177.792 227.891 170.543 223.807C170.543 223.807 167.978 224.946 169.641 227.066C171.303 229.187 170.543 229.678 170.543 229.678C170.543 229.678 166.743 226.9 168.434 231.15C170.125 235.4 178.884 238.003 178.884 238.003C178.884 238.003 173.897 238.817 175.407 241.429C176.918 244.04 183.264 247.142 190.208 247.79C197.153 248.439 206.52 246.003 206.52 246.003C206.52 246.003 200.174 249.263 204.553 251.059C208.933 252.856 213.92 248.772 213.92 248.772C213.92 248.772 212.97 252.948 216.637 251.55C219.071 250.506 221.316 249.086 223.287 247.346C223.287 247.346 224.418 253.494 226.679 252.022C228.94 253.494 230.07 247.346 230.07 247.346C232.041 249.086 234.286 250.506 236.72 251.55C240.349 252.985 239.437 248.772 239.437 248.772C239.437 248.772 244.425 252.856 248.804 251.059C253.184 249.263 246.838 246.003 246.838 246.003C246.838 246.003 256.205 248.448 263.149 247.79C270.094 247.133 276.449 244.04 277.95 241.429C279.451 238.817 274.483 238.003 274.483 238.003C274.483 238.003 283.242 235.391 284.933 231.15C286.624 226.909 282.691 229.678 282.691 229.678Z" fill="#EBEBEB"/>
<path d="M214.725 133.685L214.488 133.583C214.573 133.601 214.654 133.636 214.725 133.685Z" fill="black"/>
<path d="M352 133.685L351.763 133.583C351.847 133.603 351.928 133.638 352 133.685Z" fill="black"/>
<path d="M411.014 282.835H422.262V245.147H411.014V282.835Z" fill="#EBEBEB"/>
<path d="M459.293 245.026C459.293 245.026 458.742 244.665 459.958 243.109C460.12 242.923 460.233 242.701 460.288 242.462C460.342 242.224 460.337 241.976 460.271 241.74C460.206 241.504 460.083 241.287 459.912 241.108C459.742 240.929 459.529 240.793 459.293 240.711C453.983 243.702 446.563 240.711 446.563 240.711C446.563 240.711 455.313 238.081 456.415 235.572C457.241 233.72 455.788 233.488 454.99 233.498C455.883 233.414 457.84 233.099 458.41 232.099C459.179 230.784 456.139 229.229 456.139 229.229C456.297 228.913 456.379 228.566 456.379 228.215C456.379 227.863 456.297 227.517 456.139 227.201C455.645 225.877 444.236 223.969 444.236 223.969C447.561 224.321 448.777 221.098 448.777 221.098C448.777 221.098 454.42 221.219 455.75 219.061C457.08 216.904 454.866 216.283 451.104 214.515C447.342 212.746 439.03 206.023 439.03 206.023C439.03 206.023 444.236 205.542 445.68 204.347C447.124 203.153 445.794 202.912 445.794 202.912C451.997 203.504 449.888 200.282 449.888 200.282C444.964 198.812 440.556 196.035 437.158 192.263C437.158 192.263 441.034 191.429 443.029 189.633C445.024 187.837 441.367 187.355 441.367 187.355C441.367 187.355 448.672 186.429 444.464 183.771C441.262 181.771 436.151 179.077 434.555 178.271C436.303 178.891 440.255 178.151 440.255 178.151C444.91 176.113 440.255 173.122 440.255 173.122C434.831 170.131 426.86 162.594 426.86 162.594C426.86 162.594 430.841 164.631 432.836 164.029C434.831 163.427 430.622 161.038 430.622 161.038C430.622 161.038 432.731 161.64 433.615 161.038C434.498 160.436 431.287 157.686 431.287 157.686C426.537 154.667 420.628 146.731 418.168 143.324C415.707 146.731 409.827 154.667 405.048 157.686C405.048 157.686 401.837 160.464 402.721 161.038C403.604 161.612 405.713 161.038 405.713 161.038C405.713 161.038 401.505 163.427 403.5 164.029C405.495 164.631 409.475 162.594 409.475 162.594C409.475 162.594 401.505 170.131 396.08 173.122C396.08 173.122 391.425 176.113 396.08 178.151C396.08 178.151 400.032 178.891 401.78 178.271C400.184 179.077 395.073 181.771 391.872 183.771C387.663 186.401 394.969 187.355 394.969 187.355C394.969 187.355 391.321 187.837 393.306 189.633C395.292 191.429 399.177 192.263 399.177 192.263C395.779 196.035 391.372 198.812 386.447 200.282C386.447 200.282 384.338 203.504 390.542 202.912C390.542 202.912 389.212 203.153 390.656 204.347C392.1 205.542 397.306 206.023 397.306 206.023C397.306 206.023 389.003 212.718 385.241 214.515C381.479 216.311 379.256 216.904 380.586 219.061C381.916 221.219 387.559 221.098 387.559 221.098C387.559 221.098 388.784 224.321 392.1 223.969C392.1 223.969 380.7 225.877 380.196 227.201C380.038 227.517 379.956 227.863 379.956 228.215C379.956 228.566 380.038 228.913 380.196 229.229C380.196 229.229 377.156 230.784 377.926 232.099C378.515 233.099 380.453 233.414 381.346 233.498C380.548 233.498 379.094 233.692 379.921 235.572C381.032 238.081 389.772 240.711 389.772 240.711C389.772 240.711 382.362 243.702 377.042 240.711C376.806 240.793 376.593 240.929 376.423 241.108C376.253 241.287 376.129 241.504 376.064 241.74C375.999 241.976 375.993 242.224 376.047 242.462C376.102 242.701 376.215 242.923 376.377 243.109C377.593 244.665 377.042 245.026 377.042 245.026C377.042 245.026 374.278 242.989 375.494 246.1C376.71 249.212 383.094 251.119 383.094 251.119C383.094 251.119 379.436 251.721 380.548 253.638C381.659 255.555 386.305 257.824 391.397 258.268C396.489 258.713 403.376 257.018 403.376 257.018C403.376 257.018 398.731 259.416 401.942 260.722C405.153 262.028 408.801 259.046 408.801 259.046C408.801 259.046 408.136 262.111 410.796 261.055C412.574 260.278 414.213 259.228 415.65 257.944C415.65 257.944 416.477 262.454 418.139 261.379C419.802 262.454 420.628 257.944 420.628 257.944C422.073 259.219 423.718 260.261 425.502 261.028C428.162 262.083 427.497 259.018 427.497 259.018C427.497 259.018 431.145 262.009 434.356 260.694C437.567 259.379 432.921 256.99 432.921 256.99C432.921 256.99 439.79 258.787 444.882 258.314C449.974 257.842 454.629 255.536 455.731 253.684C456.833 251.832 453.185 251.166 453.185 251.166C453.185 251.166 459.607 249.258 460.785 246.147C461.963 243.035 459.293 245.026 459.293 245.026Z" fill="#EBEBEB"/>
<path d="M434.337 173.484L434.166 173.41C434.227 173.423 434.285 173.448 434.337 173.484Z" fill="black"/>
<path d="M455.065 282.835H466.313V245.147H455.065V282.835Z" fill="#E0E0E0"/>
<path d="M503.344 245.026C503.344 245.026 502.784 244.665 504.01 243.109C504.172 242.923 504.285 242.701 504.339 242.462C504.394 242.224 504.388 241.976 504.323 241.74C504.257 241.504 504.134 241.287 503.964 241.108C503.793 240.929 503.581 240.793 503.344 240.711C498.024 243.702 490.605 240.711 490.605 240.711C490.605 240.711 499.354 238.081 500.466 235.572C501.292 233.72 499.829 233.488 499.041 233.498C499.934 233.414 501.891 233.099 502.451 232.099C503.23 230.784 500.19 229.229 500.19 229.229C500.348 228.913 500.43 228.566 500.43 228.215C500.43 227.863 500.348 227.517 500.19 227.201C499.687 225.877 488.278 223.969 488.278 223.969C491.603 224.321 492.819 221.098 492.819 221.098C492.819 221.098 498.471 221.219 499.801 219.061C501.131 216.904 498.908 216.283 495.146 214.515C491.384 212.746 483.081 206.023 483.081 206.023C483.081 206.023 488.278 205.542 489.731 204.347C491.185 203.153 489.845 202.912 489.845 202.912C496.039 203.504 493.939 200.282 493.939 200.282C489.013 198.81 484.603 196.034 481.2 192.263C481.2 192.263 485.076 191.429 487.071 189.633C489.066 187.837 485.408 187.355 485.408 187.355C485.408 187.355 492.724 186.429 488.515 183.771C485.314 181.771 480.193 179.077 478.606 178.271C480.354 178.891 484.306 178.151 484.306 178.151C488.952 176.113 484.306 173.122 484.306 173.122C478.882 170.131 470.902 162.594 470.902 162.594C470.902 162.594 474.892 164.631 476.887 164.029C478.882 163.427 474.673 161.038 474.673 161.038C474.673 161.038 476.773 161.64 477.656 161.038C478.54 160.436 475.338 157.686 475.338 157.686C470.588 154.667 464.679 146.731 462.219 143.324C459.758 146.731 453.868 154.667 449.099 157.686C449.099 157.686 445.889 160.464 446.772 161.038C447.656 161.612 449.764 161.038 449.764 161.038C449.764 161.038 445.556 163.427 447.542 164.029C449.527 164.631 453.526 162.594 453.526 162.594C453.526 162.594 445.556 170.131 440.122 173.122C440.122 173.122 435.477 176.113 440.122 178.151C440.122 178.151 444.084 178.891 445.822 178.271C444.236 179.077 439.115 181.771 435.923 183.771C431.714 186.401 439.02 187.355 439.02 187.355C439.02 187.355 435.362 187.837 437.358 189.633C439.352 191.429 443.228 192.263 443.228 192.263C439.828 196.037 435.417 198.813 430.489 200.282C430.489 200.282 428.389 203.504 434.593 202.912C434.593 202.912 433.263 203.153 434.697 204.347C436.132 205.542 441.347 206.023 441.347 206.023C441.347 206.023 433.035 212.718 429.273 214.515C425.511 216.311 423.298 216.904 424.628 219.061C425.958 221.219 431.601 221.098 431.601 221.098C431.601 221.098 432.816 224.321 436.142 223.969C436.142 223.969 424.741 225.877 424.238 227.201C424.077 227.516 423.994 227.863 423.994 228.215C423.994 228.567 424.077 228.914 424.238 229.229C424.238 229.229 421.188 230.784 421.967 232.099C422.556 233.099 424.485 233.414 425.378 233.498C424.589 233.498 423.136 233.692 423.962 235.572C425.064 238.081 433.814 240.711 433.814 240.711C433.814 240.711 426.394 243.702 421.084 240.711C420.843 240.789 420.625 240.924 420.45 241.104C420.275 241.284 420.148 241.503 420.081 241.742C420.013 241.981 420.007 242.232 420.063 242.474C420.118 242.716 420.234 242.94 420.4 243.128C421.616 244.684 421.065 245.045 421.065 245.045C421.065 245.045 418.291 243.008 419.507 246.119C420.723 249.23 427.154 251.138 427.154 251.138C427.154 251.138 423.497 251.74 424.608 253.657C425.72 255.573 430.365 257.842 435.457 258.287C440.549 258.731 447.428 257.018 447.428 257.018C447.428 257.018 442.772 259.416 445.983 260.722C449.194 262.028 452.852 259.046 452.852 259.046C452.852 259.046 452.187 262.111 454.847 261.055C456.629 260.286 458.274 259.245 459.721 257.972C459.721 257.972 460.547 262.481 462.21 261.407C463.863 262.481 464.698 257.972 464.698 257.972C466.143 259.247 467.789 260.288 469.572 261.055C472.223 262.111 471.557 259.046 471.557 259.046C471.557 259.046 475.215 262.037 478.426 260.722C481.637 259.407 476.992 257.018 476.992 257.018C476.992 257.018 483.85 258.814 488.942 258.342C494.034 257.87 498.689 255.564 499.801 253.712C500.912 251.86 497.255 251.193 497.255 251.193C497.255 251.193 503.677 249.286 504.855 246.175C506.033 243.063 503.344 245.026 503.344 245.026Z" fill="#E0E0E0"/>
<path d="M478.35 173.484L478.179 173.41C478.239 173.427 478.297 173.452 478.35 173.484Z" fill="#E0E0E0"/>
<path d="M115.222 188.495H115.07C115.121 188.486 115.172 188.486 115.222 188.495Z" fill="black"/>
<path d="M230.523 273.566C232.222 274.386 233.635 275.674 234.589 277.27C235.681 278.789 236.283 280.592 236.318 282.446C235.439 278.939 233.403 275.809 230.523 273.538V273.566Z" fill="#E0E0E0"/>
<path d="M239.663 267.991C239.815 267.991 239.131 271.177 239.045 275.14C238.96 279.103 239.463 282.279 239.311 282.307C239.055 281.641 238.898 280.943 238.846 280.233C238.368 276.846 238.454 273.407 239.102 270.047C239.193 269.34 239.382 268.649 239.663 267.991Z" fill="#E0E0E0"/>
<path d="M248.944 271.279C247.804 273.005 246.77 274.795 245.847 276.64C245.092 278.555 244.457 280.512 243.947 282.502C243.885 281.881 243.936 281.254 244.099 280.65C244.664 277.735 245.902 274.983 247.719 272.603C248.055 272.103 248.469 271.657 248.944 271.279Z" fill="#E0E0E0"/>
<path d="M258.729 306.383C260.383 307.278 261.781 308.564 262.793 310.122C263.806 311.68 264.401 313.46 264.524 315.301C264.009 313.585 263.288 311.935 262.377 310.384C261.325 308.917 260.1 307.574 258.729 306.383Z" fill="#E0E0E0"/>
<path d="M267.868 300.809C268.02 300.809 267.336 304.003 267.251 307.957C267.165 311.911 267.669 315.106 267.517 315.125C267.26 314.459 267.103 313.76 267.051 313.05C266.813 311.36 266.714 309.654 266.757 307.948C266.802 306.239 266.986 304.536 267.308 302.855C267.396 302.151 267.584 301.462 267.868 300.809Z" fill="#E0E0E0"/>
<path d="M277.15 304.105C276.009 305.831 274.975 307.622 274.053 309.467C273.298 311.378 272.664 313.333 272.153 315.319C272.09 314.698 272.142 314.071 272.305 313.467C272.584 312.016 273.03 310.599 273.635 309.245C274.25 307.891 275.018 306.609 275.924 305.42C276.256 304.92 276.67 304.475 277.15 304.105Z" fill="#E0E0E0"/>
<path d="M123.373 328.755C125.025 329.651 126.421 330.935 127.433 332.491C128.445 334.047 129.042 335.825 129.168 337.663C128.648 335.948 127.925 334.298 127.012 332.746C125.962 331.282 124.741 329.943 123.373 328.755Z" fill="#E0E0E0"/>
<path d="M132.55 323.181C132.693 323.181 132.018 326.366 131.933 330.32C131.847 334.274 132.341 337.469 132.189 337.497C131.944 336.828 131.791 336.13 131.733 335.422C131.495 333.729 131.397 332.02 131.439 330.311C131.476 328.605 131.658 326.904 131.98 325.227C132.066 324.521 132.258 323.832 132.55 323.181Z" fill="#E0E0E0"/>
<path d="M141.794 326.468C140.654 328.194 139.619 329.984 138.697 331.83C137.95 333.747 137.315 335.704 136.797 337.691C136.741 337.07 136.796 336.443 136.958 335.839C137.514 332.923 138.749 330.17 140.568 327.792C140.901 327.29 141.315 326.842 141.794 326.468Z" fill="#E0E0E0"/>
<path d="M335.499 356.1C337.154 356.992 338.552 358.275 339.565 359.832C340.578 361.388 341.172 363.169 341.294 365.008C340.775 363.294 340.055 361.644 339.147 360.091C338.096 358.626 336.871 357.286 335.499 356.1Z" fill="#E0E0E0"/>
<path d="M344.638 350.544C344.79 350.544 344.106 353.739 344.02 357.693C343.935 361.647 344.438 364.841 344.286 364.86C344.027 364.198 343.87 363.502 343.821 362.795C343.583 361.101 343.484 359.392 343.526 357.683C343.563 355.977 343.744 354.277 344.068 352.6C344.157 351.892 344.349 351.199 344.638 350.544Z" fill="#E0E0E0"/>
<path d="M353.9 353.794C352.76 355.52 351.726 357.311 350.803 359.156C350.04 361.072 349.389 363.029 348.856 365.018C348.806 364.396 348.861 363.77 349.017 363.166C349.29 361.709 349.737 360.289 350.347 358.934C350.957 357.582 351.722 356.303 352.627 355.119C352.974 354.612 353.404 354.165 353.9 353.794Z" fill="#E0E0E0"/>
<path d="M206.166 414.059C207.817 414.954 209.213 416.238 210.225 417.794C211.238 419.35 211.834 421.128 211.961 422.967C211.069 419.464 209.036 416.338 206.166 414.059Z" fill="#E0E0E0"/>
<path d="M215.295 408.484C215.447 408.484 214.773 411.669 214.687 415.623C214.602 419.577 215.096 422.772 214.944 422.791C214.696 422.126 214.543 421.431 214.488 420.726C214.013 417.339 214.096 413.9 214.735 410.54C214.826 409.833 215.014 409.141 215.295 408.484Z" fill="#E0E0E0"/>
<path d="M224.586 411.771C223.442 413.495 222.407 415.285 221.489 417.133C220.72 419.047 220.07 421.005 219.542 422.995C219.486 422.373 219.541 421.746 219.703 421.143C220.254 418.225 221.489 415.471 223.313 413.096C223.656 412.586 224.087 412.138 224.586 411.771Z" fill="#E0E0E0"/>
<path d="M279.202 464.887C280.855 465.781 282.251 467.065 283.264 468.621C284.276 470.177 284.872 471.956 284.997 473.795C284.478 472.081 283.758 470.431 282.85 468.878C281.799 467.412 280.574 466.073 279.202 464.887Z" fill="#E0E0E0"/>
<path d="M288.35 459.312C288.502 459.312 287.818 462.497 287.732 466.461C287.647 470.424 288.15 473.6 287.998 473.628C287.742 472.962 287.585 472.263 287.533 471.554C287.055 468.167 287.142 464.727 287.789 461.368C287.875 460.66 288.064 459.968 288.35 459.312Z" fill="#E0E0E0"/>
<path d="M297.622 462.59C296.483 464.32 295.449 466.113 294.525 467.961C293.771 469.873 293.136 471.827 292.625 473.813C292.563 473.192 292.614 472.565 292.777 471.961C293.331 469.043 294.57 466.289 296.397 463.915C296.731 463.412 297.144 462.965 297.622 462.59Z" fill="#E0E0E0"/>
<path d="M483.147 459.998C484.796 460.899 486.189 462.186 487.201 463.743C488.212 465.299 488.811 467.077 488.942 468.915C488.42 467.201 487.696 465.551 486.786 463.998C485.732 462.535 484.511 461.193 483.147 459.998Z" fill="#E0E0E0"/>
<path d="M492.277 454.423C492.429 454.423 491.755 457.618 491.669 461.572C491.584 465.526 492.078 468.72 491.926 468.739C491.679 468.07 491.522 467.373 491.46 466.665C491.221 464.974 491.126 463.268 491.175 461.562C491.213 459.853 491.394 458.15 491.717 456.469C491.811 455.766 491.999 455.078 492.277 454.423Z" fill="#E0E0E0"/>
<path d="M501.568 457.719C500.424 459.443 499.389 461.233 498.471 463.081C497.701 464.995 497.051 466.952 496.523 468.942C496.468 468.321 496.52 467.695 496.675 467.09C496.959 465.638 497.408 464.222 498.015 462.868C498.622 461.515 499.387 460.234 500.295 459.053C500.637 458.54 501.068 458.089 501.568 457.719Z" fill="#E0E0E0"/>
<path d="M73.6504 452.256C75.3488 453.076 76.7627 454.364 77.7164 455.96C78.8029 457.482 79.4044 459.282 79.4454 461.136C78.9286 459.421 78.2081 457.771 77.2984 456.219C76.2437 454.765 75.0195 453.435 73.6504 452.256Z" fill="#E0E0E0"/>
<path d="M82.77 446.682C82.922 446.682 82.238 449.876 82.1525 453.83C82.067 457.784 82.5705 460.979 82.4185 460.998C82.1601 460.332 82.0033 459.633 81.953 458.923C81.7146 457.233 81.6161 455.527 81.6585 453.821C81.699 452.103 81.8801 450.39 82.2 448.7C82.2939 448.005 82.4857 447.326 82.77 446.682Z" fill="#E0E0E0"/>
<path d="M92.0518 449.978C90.9115 451.704 89.8774 453.494 88.9548 455.34C88.198 457.253 87.5634 459.211 87.0548 461.201C86.9935 460.58 87.045 459.953 87.2068 459.349C87.7491 456.449 88.9608 453.707 90.7503 451.33C91.1009 450.81 91.5412 450.352 92.0518 449.978Z" fill="#E0E0E0"/>
<path d="M460.3 335.515C461.948 336.416 463.34 337.701 464.351 339.256C465.363 340.811 465.962 342.587 466.095 344.423C465.577 342.712 464.857 341.065 463.948 339.515C462.899 338.046 461.675 336.703 460.3 335.515Z" fill="#E0E0E0"/>
<path d="M469.439 329.941C469.591 329.941 468.907 333.136 468.822 337.09C468.736 341.044 469.24 344.238 469.088 344.257C468.831 343.591 468.674 342.892 468.622 342.183C468.384 340.492 468.286 338.786 468.328 337.08C468.361 335.384 468.536 333.693 468.85 332.024C468.941 331.306 469.14 330.604 469.439 329.941Z" fill="#E0E0E0"/>
<path d="M478.721 333.237C477.58 334.963 476.546 336.753 475.624 338.599C474.861 340.512 474.211 342.466 473.676 344.451C473.621 343.829 473.675 343.203 473.838 342.599C474.113 341.146 474.559 339.729 475.168 338.377C475.777 337.022 476.542 335.739 477.448 334.552C477.789 334.044 478.22 333.599 478.721 333.237Z" fill="#E0E0E0"/>
<path d="M71.2847 342.081C72.9792 342.902 74.3895 344.19 75.3412 345.785C76.4275 347.307 77.032 349.107 77.0797 350.961C76.5601 349.246 75.8363 347.595 74.9232 346.044C73.8639 344.596 72.6437 343.267 71.2847 342.081Z" fill="#E0E0E0"/>
<path d="M80.4236 336.506C80.5661 336.506 79.8916 339.701 79.8061 343.655C79.7206 347.609 80.2146 350.803 80.0626 350.822C79.8169 350.156 79.6635 349.462 79.6066 348.757C79.3638 347.064 79.2653 345.354 79.3121 343.645C79.35 341.936 79.5311 340.233 79.8536 338.552C79.9436 337.847 80.1355 337.158 80.4236 336.506Z" fill="#E0E0E0"/>
<path d="M89.705 339.803C88.5647 341.529 87.5306 343.319 86.608 345.164C85.8542 347.079 85.2197 349.036 84.708 351.026C84.6525 350.404 84.7072 349.778 84.8695 349.174C85.4204 346.256 86.6559 343.502 88.4795 341.127C88.8086 340.621 89.2229 340.174 89.705 339.803Z" fill="#E0E0E0"/>
<path d="M479.006 273.242C480.66 274.137 482.058 275.422 483.07 276.98C484.083 278.538 484.678 280.319 484.801 282.159C483.918 278.65 481.883 275.519 479.006 273.242Z" fill="#E0E0E0"/>
<path d="M488.145 267.667C488.297 267.667 487.613 270.862 487.527 274.816C487.442 278.77 487.945 281.964 487.793 281.983C487.536 281.32 487.379 280.625 487.328 279.918C487.09 278.225 486.991 276.515 487.033 274.806C487.076 273.098 487.257 271.395 487.575 269.713C487.663 269.008 487.855 268.319 488.145 267.667Z" fill="#E0E0E0"/>
<path d="M497.426 270.964C496.286 272.69 495.252 274.48 494.329 276.325C493.572 278.239 492.938 280.197 492.429 282.187C492.368 281.566 492.42 280.939 492.581 280.335C493.133 277.419 494.372 274.667 496.201 272.297C496.53 271.789 496.945 271.339 497.426 270.964Z" fill="#E0E0E0"/>
<path d="M499.649 282.501C499.649 282.631 402.065 282.742 281.709 282.742C161.354 282.742 63.751 282.631 63.751 282.501C63.751 282.372 161.316 282.261 281.709 282.261C402.103 282.261 499.649 282.372 499.649 282.501Z" fill="#196B69"/>
<path d="M334.302 417.485C336 418.305 337.414 419.593 338.368 421.189C339.459 422.708 340.061 424.511 340.097 426.365C339.583 424.649 338.862 422.999 337.95 421.448C336.892 419.996 335.668 418.667 334.302 417.485Z" fill="#196B69"/>
<path d="M343.45 411.91C343.602 411.91 342.918 415.105 342.833 419.059C342.747 423.013 343.251 426.208 343.099 426.226C342.847 425.562 342.69 424.867 342.633 424.161C342.157 420.774 342.243 417.335 342.89 413.975C342.984 413.266 343.172 412.572 343.45 411.91Z" fill="#196B69"/>
<path d="M352.722 415.207C351.586 416.935 350.552 418.725 349.625 420.568C348.869 422.482 348.234 424.439 347.725 426.43C347.663 425.808 347.714 425.181 347.877 424.578C348.438 421.661 349.676 418.909 351.497 416.531C351.83 416.028 352.244 415.581 352.722 415.207Z" fill="#196B69"/>
<path d="M356.978 131.017L351.753 131.36C347.682 134.614 342.51 136.267 337.253 135.993C331.995 135.72 327.033 133.539 323.342 129.88C319.65 126.221 317.496 121.349 317.302 116.221C317.109 111.092 318.89 106.079 322.296 102.166C325.702 98.2527 330.487 95.7229 335.709 95.0735C340.932 94.4241 346.215 95.7022 350.519 98.6566C354.824 101.611 357.84 106.028 358.973 111.039C360.107 116.051 359.277 121.294 356.645 125.739L356.978 131.017Z" fill="white"/>
<path d="M356.978 131.017V130.684C356.978 130.434 356.978 130.101 356.978 129.675C356.931 128.749 356.874 127.415 356.788 125.721C356.788 125.696 356.778 125.673 356.76 125.655C356.742 125.638 356.718 125.628 356.693 125.628C356.671 125.621 356.648 125.621 356.627 125.628L356.779 125.748C358.875 122.259 359.872 118.245 359.644 114.208C359.416 110.17 357.973 106.287 355.496 103.043C353.777 100.798 351.617 98.909 349.141 97.4869C346.47 95.9284 343.472 94.9787 340.372 94.7089C337.067 94.4263 333.739 94.8856 330.644 96.0516C327.395 97.2792 324.514 99.2819 322.265 101.876C319.972 104.465 318.373 107.567 317.61 110.905C316.899 114.113 316.964 117.439 317.8 120.618C318.563 123.578 320.005 126.329 322.018 128.665C323.862 130.815 326.121 132.589 328.668 133.888C330.969 135.054 333.472 135.795 336.05 136.073C338.302 136.302 340.578 136.187 342.795 135.731C346.125 135.035 349.232 133.561 351.848 131.434H351.791L355.686 131.129L356.636 131.036H356.959C356.839 131.024 356.718 131.024 356.598 131.036H355.582L351.725 131.24H351.677C349.06 133.3 345.975 134.719 342.681 135.379C340.492 135.807 338.249 135.903 336.031 135.666C333.504 135.372 331.054 134.632 328.801 133.481C326.308 132.195 324.097 130.446 322.294 128.332C320.333 126.041 318.929 123.347 318.19 120.452C317.395 117.37 317.337 114.151 318.019 111.044C318.77 107.783 320.333 104.752 322.569 102.219C324.768 99.6897 327.579 97.7354 330.749 96.5332C333.769 95.3877 337.02 94.9346 340.249 95.209C343.269 95.4703 346.19 96.3879 348.799 97.8944C351.25 99.2689 353.395 101.108 355.107 103.302C357.565 106.483 359.013 110.297 359.271 114.271C359.529 118.246 358.587 122.207 356.56 125.665C356.542 125.684 356.532 125.709 356.532 125.735C356.532 125.76 356.542 125.785 356.56 125.804C356.579 125.815 356.6 125.82 356.622 125.82C356.643 125.82 356.665 125.815 356.684 125.804L356.522 125.739C356.646 127.415 356.741 128.712 356.807 129.638C356.845 130.064 356.874 130.406 356.893 130.666C356.915 130.784 356.943 130.902 356.978 131.017Z" fill="#196B69"/>
<path d="M328.25 112.859C328.425 111.577 329.002 110.38 329.903 109.432C330.746 108.466 331.879 107.783 333.143 107.479C333.815 107.343 334.508 107.339 335.182 107.468C335.856 107.597 336.496 107.855 337.066 108.229C337.75 108.68 338.311 109.287 338.7 109.997C339.07 109.367 339.579 108.826 340.192 108.414C340.76 108.04 341.399 107.782 342.071 107.653C342.743 107.524 343.435 107.528 344.106 107.664C345.368 107.965 346.501 108.645 347.345 109.608C348.25 110.553 348.834 111.746 349.017 113.025C349.223 114.658 348.89 116.312 348.067 117.748C347.104 119.195 345.801 120.398 344.267 121.257C341.769 122.73 338.463 124.573 338.463 124.573C338.463 124.573 335.67 122.545 333.162 121.072C331.628 120.216 330.325 119.016 329.362 117.572C328.478 116.159 328.088 114.506 328.25 112.859Z" fill="#28CC9E"/>
<path d="M359.6 199.032L355.924 237.637L355.306 254.851L355.439 277.353L362.84 279.529C366.051 267.546 368.654 256.379 370.316 246.397L376.339 207.606L375.152 203.421L359.6 199.032Z" fill="#FFBF9D"/>
<path d="M352.085 286.928C352.085 286.928 349.577 289.039 347.905 290.752C346.233 292.465 344.875 297.466 344.875 297.466L338.358 302.318L346.034 309.346L354.498 301.383L356.455 295.41L352.085 286.928Z" fill="#FFBF9D"/>
<path d="M366.934 263.371L363.552 280.326C364.872 282.78 364.587 287.372 364.587 287.372C364.587 287.372 363.58 295.707 363.124 298.401C362.668 301.096 361.956 303.439 360.008 302.337C358.061 301.235 357.918 299.503 359.058 294.679L358.621 291.827L356.883 293.391L354.27 300.874C354.27 300.874 357.966 307.411 357.12 308.717C356.275 310.022 355.372 309.495 355.372 309.495L354.261 310.032L347.981 301.957L348.19 291.076L355.477 277.316L355.344 255.546" fill="#FFBF9D"/>
<path d="M358.432 295.021C360.218 294.595 358.869 291.049 357.71 289.539C357.32 289.03 356.712 288.549 356.095 288.724C355.841 288.821 355.627 288.995 355.483 289.22C355.339 289.446 355.274 289.71 355.297 289.975C355.297 290.502 355.848 290.901 356.095 291.354C355.971 290.984 355.553 290.725 355.297 290.428C355.176 290.273 355.014 290.153 354.827 290.083C354.641 290.013 354.438 289.994 354.242 290.03C353.653 290.188 353.454 290.956 353.463 291.512C353.465 292.419 353.655 293.317 354.024 294.151C353.919 293.743 354.024 294.151 353.767 293.808C353.671 293.62 353.514 293.467 353.322 293.371C353.129 293.276 352.91 293.244 352.697 293.279C352.484 293.314 352.289 293.415 352.139 293.567C351.99 293.719 351.894 293.914 351.867 294.123C351.777 294.513 351.777 294.918 351.867 295.308C352.261 297.559 353.181 299.692 354.556 301.54C355.072 301.324 355.517 300.974 355.844 300.528C356.17 300.083 356.365 299.558 356.408 299.012C356.847 298.938 357.263 298.765 357.621 298.506C357.979 298.247 358.269 297.91 358.47 297.521C358.663 297.131 358.757 296.701 358.746 296.268C358.734 295.835 358.617 295.411 358.403 295.031" fill="#FFBF9D"/>
<path d="M358.432 295.021C358.432 295.021 358.536 295.104 358.65 295.317C358.801 295.641 358.885 295.99 358.897 296.345C358.914 296.924 358.744 297.494 358.413 297.975C357.971 298.614 357.288 299.057 356.513 299.206L356.693 299.012C356.658 299.606 356.455 300.179 356.109 300.669C355.762 301.159 355.284 301.547 354.727 301.79L354.537 301.864L354.413 301.697C353.411 300.378 352.638 298.908 352.124 297.345C351.825 296.472 351.631 295.567 351.544 294.651C351.521 294.368 351.572 294.084 351.694 293.826C351.815 293.568 352.002 293.345 352.238 293.178C352.376 293.089 352.532 293.03 352.696 293.004C352.86 292.979 353.027 292.988 353.188 293.03C353.482 293.108 353.747 293.269 353.948 293.493C354.043 293.586 354.119 293.706 354.128 293.706C354.138 293.706 354.128 293.706 353.938 293.706C353.834 293.706 353.891 293.706 353.938 293.706C354.299 293.706 354.28 293.919 354.299 293.891C354.302 293.919 354.302 293.947 354.299 293.975L354.347 294.132L353.739 294.299C353.518 293.714 353.347 293.113 353.226 292.502C353.226 292.187 353.226 291.882 353.169 291.576C353.169 291.26 353.227 290.947 353.34 290.65C353.399 290.474 353.496 290.312 353.626 290.176C353.755 290.04 353.914 289.933 354.09 289.863C354.27 289.805 354.461 289.788 354.649 289.814C354.837 289.84 355.016 289.907 355.173 290.011C355.317 290.099 355.445 290.208 355.553 290.335C355.629 290.428 355.724 290.511 355.819 290.613C356.07 290.809 356.266 291.064 356.389 291.354L355.867 291.576C355.705 291.261 355.382 290.984 355.164 290.558C355.071 290.337 355.032 290.098 355.05 289.86C355.068 289.622 355.143 289.392 355.268 289.187C355.382 288.982 355.553 288.813 355.761 288.698C355.97 288.583 356.207 288.528 356.446 288.539C356.868 288.587 357.259 288.781 357.548 289.085C358.361 290.022 358.942 291.127 359.249 292.317C359.541 293.079 359.521 293.921 359.192 294.669C359.118 294.799 359.011 294.908 358.881 294.986C358.751 295.064 358.603 295.108 358.451 295.114C358.451 295.058 358.783 295.021 359.03 294.586C359.263 293.871 359.223 293.098 358.916 292.41C358.572 291.307 357.993 290.287 357.216 289.419C357.003 289.204 356.721 289.067 356.418 289.03C356.274 289.026 356.133 289.064 356.011 289.138C355.89 289.212 355.793 289.319 355.734 289.446C355.654 289.578 355.606 289.726 355.594 289.879C355.583 290.031 355.608 290.184 355.667 290.326C355.8 290.613 356.133 290.891 356.37 291.317L355.848 291.53C355.743 291.333 355.597 291.16 355.42 291.021C355.309 290.926 355.204 290.824 355.107 290.715C355.035 290.63 354.948 290.558 354.85 290.502C354.769 290.442 354.673 290.403 354.571 290.389C354.47 290.376 354.367 290.388 354.271 290.424C354.176 290.46 354.092 290.519 354.027 290.596C353.962 290.673 353.918 290.765 353.9 290.863C353.764 291.381 353.745 291.921 353.843 292.447C353.961 293.023 354.126 293.59 354.337 294.141L353.739 294.299V294.16C353.739 294.16 353.739 294.16 353.824 294.16H353.929H354.005L354.071 294.447C354.011 294.456 353.949 294.45 353.891 294.431C353.833 294.412 353.781 294.379 353.739 294.336C353.596 294.188 353.568 294.132 353.511 294.076C353.415 293.939 353.271 293.841 353.106 293.802C352.941 293.763 352.767 293.784 352.618 293.863C352.476 293.974 352.365 294.115 352.292 294.276C352.219 294.438 352.187 294.614 352.2 294.789C352.281 295.649 352.46 296.496 352.732 297.317C353.217 298.774 353.932 300.149 354.85 301.392L354.537 301.308C355.013 301.112 355.426 300.793 355.731 300.385C356.035 299.977 356.22 299.496 356.266 298.993V298.827H356.427C356.771 298.779 357.101 298.665 357.4 298.492C357.698 298.318 357.958 298.089 358.166 297.817C358.481 297.4 358.663 296.9 358.688 296.382C358.681 295.918 358.595 295.457 358.432 295.021Z" fill="#FF9A6C"/>
<path d="M353.824 293.854C353.938 293.743 355.021 294.651 355.781 296.179C356.541 297.707 356.617 299.105 356.456 299.114C356.294 299.123 355.943 297.873 355.221 296.447C354.499 295.021 353.691 293.984 353.824 293.854Z" fill="#FF9A6C"/>
<path d="M355.582 290.419C355.705 290.308 356.693 291.178 357.539 292.53C358.384 293.882 358.764 295.123 358.612 295.178C358.46 295.234 357.833 294.141 357.007 292.845C356.18 291.548 355.449 290.53 355.582 290.419Z" fill="#FF9A6C"/>
<path d="M349.758 305.096L348.523 303.549L347.868 302.707C347.635 302.373 347.479 301.994 347.412 301.596C347.412 298.595 347.526 296.04 347.602 294.141C347.592 293.113 347.684 292.087 347.877 291.076C348.036 292.093 348.09 293.123 348.039 294.15C348.039 296.243 348.039 298.781 348.039 301.503C348.089 301.812 348.209 302.106 348.39 302.364L349.017 303.188L350.224 304.762L352.238 307.457C352.906 308.251 353.482 309.115 353.957 310.031C353.193 309.325 352.5 308.55 351.886 307.716" fill="#FF9A6C"/>
<path d="M451.75 275.825C451.524 277.321 450.796 278.702 449.679 279.751C448.388 281.359 447.421 283.191 446.829 285.15C446.829 285.15 445.167 292.715 444.749 295.169C444.331 297.623 444.236 299.883 446.259 299.484C448.283 299.086 448.938 297.632 449.432 293.104L450.686 290.752L451.712 292.604V299.873C451.712 299.873 446.516 304.503 446.829 305.865C447.143 307.226 448.112 307.041 448.112 307.041L448.91 307.828L456.823 302.624L459.949 293.095L459.426 280.724L459.797 266.658L450.8 268.926L451.75 275.825Z" fill="#FFBF9D"/>
<path d="M438.868 178.938C438.868 178.938 446.468 176.475 448.083 184.966C449.698 193.458 453.004 215.191 453.45 218.728C454.263 225.445 455.681 232.079 457.687 238.554C460.661 248.536 459.663 274.881 459.663 274.881H451.655C451.655 274.881 443.77 252.351 442.155 240.758C440.54 229.164 437.519 224.192 438.26 219.46C439.001 214.728 436.36 202.792 436.36 202.792L438.868 178.938Z" fill="#FFBF9D"/>
<path d="M382.4 418.068L383.454 435.986C383.454 435.986 364.255 442.996 364.112 446.33L401.476 445.672L401.067 417.688L382.4 418.068Z" fill="black"/>
<path d="M394.95 434.301C395.305 434.385 395.615 434.597 395.818 434.893C396.02 435.19 396.1 435.551 396.042 435.903C395.942 436.25 395.711 436.547 395.396 436.736C395.081 436.925 394.705 436.991 394.342 436.921C394.148 436.891 393.963 436.822 393.8 436.717C393.636 436.612 393.496 436.475 393.391 436.314C393.286 436.153 393.216 435.972 393.188 435.783C393.159 435.594 393.172 435.402 393.225 435.218C393.279 435.034 393.371 434.864 393.497 434.717C393.623 434.571 393.78 434.452 393.956 434.369C394.132 434.286 394.325 434.24 394.521 434.235C394.717 434.23 394.911 434.265 395.092 434.338" fill="#E0E0E0"/>
<path d="M401.447 445.7L401.286 442.922L365.518 444.607C365.518 444.607 363.865 445.311 364.084 446.404L401.447 445.7Z" fill="#455A64"/>
<path d="M382.818 435.847C382.818 436.014 383.768 436.078 384.651 436.606C385.535 437.134 386.048 437.838 386.219 437.773C386.39 437.708 386.095 436.727 384.984 436.097C383.872 435.467 382.78 435.662 382.818 435.847Z" fill="white"/>
<path d="M378.933 437.421C378.933 437.588 379.683 437.866 380.32 438.57C380.956 439.273 381.146 440.033 381.336 440.023C381.526 440.014 381.612 439.097 380.804 438.171C379.997 437.245 378.933 437.264 378.933 437.421Z" fill="white"/>
<path d="M376.795 441.829C376.957 441.829 377.194 441.014 376.71 440.088C376.225 439.162 375.361 438.81 375.285 438.949C375.209 439.088 375.75 439.588 376.14 440.347C376.529 441.107 376.615 441.82 376.795 441.829Z" fill="white"/>
<path d="M383.065 431.736C383.141 431.893 384.015 431.643 385.012 431.69C386.01 431.736 386.855 432.023 386.912 431.875C386.969 431.727 386.219 431.134 385.012 431.097C383.806 431.06 382.97 431.606 383.065 431.736Z" fill="white"/>
<path d="M429.368 416.151L429.966 437.857L435.752 454.849C435.847 455.146 435.878 455.459 435.843 455.768C435.807 456.077 435.705 456.375 435.544 456.644C435.383 456.912 435.166 457.145 434.908 457.327C434.649 457.509 434.354 457.637 434.042 457.701C433.677 457.79 433.296 457.795 432.928 457.716C432.561 457.637 432.217 457.477 431.923 457.247C428.209 454.266 414.595 443.255 414.643 441.663C414.7 439.811 412.382 418.818 412.382 418.818L429.368 416.151Z" fill="black"/>
<path d="M434.042 457.701L414.567 440.199L414.614 441.125C414.653 441.922 414.991 442.677 415.564 443.246C417.122 444.783 421.54 448.931 431.828 457.256C432.131 457.497 432.488 457.663 432.869 457.742C433.251 457.821 433.646 457.81 434.023 457.71L434.042 457.701Z" fill="#455A64"/>
<path d="M428.228 448.524C428.37 448.57 428.836 447.403 430.185 446.718C431.022 446.354 431.92 446.144 432.835 446.098C432.835 446.042 432.55 445.885 431.999 445.848C431.288 445.809 430.58 445.961 429.952 446.287C429.324 446.614 428.8 447.103 428.437 447.7C428.19 448.181 428.171 448.505 428.228 448.524Z" fill="white"/>
<path d="M430.043 451.33C430.694 450.946 431.367 450.597 432.057 450.283C432.8 450.114 433.551 449.981 434.308 449.885C433.935 449.697 433.522 449.595 433.102 449.587C432.682 449.579 432.266 449.665 431.886 449.839C430.537 450.283 429.9 451.283 430.043 451.33Z" fill="white"/>
<path d="M424.951 444.969C425.904 444.3 426.904 443.696 427.943 443.163C429.057 442.779 430.197 442.47 431.354 442.237C430.123 441.998 428.845 442.178 427.734 442.746C426.569 443.148 425.584 443.934 424.951 444.969Z" fill="white"/>
<path d="M424.2 438.44C424.267 438.56 425.521 437.995 427.193 437.838C428.865 437.681 430.214 437.995 430.252 437.838C429.303 437.335 428.208 437.162 427.145 437.347C426.064 437.369 425.023 437.755 424.2 438.44Z" fill="white"/>
<path d="M423.829 432.023C424.825 431.657 425.867 431.424 426.926 431.328C427.988 431.381 429.038 431.565 430.052 431.875C430.052 431.828 429.824 431.569 429.273 431.319C428.539 430.986 427.736 430.824 426.926 430.847C426.113 430.864 425.314 431.06 424.589 431.421C424.048 431.708 423.791 431.958 423.829 432.023Z" fill="white"/>
<path d="M429.672 137.99C428.256 120.822 419.659 110.284 419.659 110.284L377.222 116.396C373.631 124.109 375.322 141.129 374.258 148.574C373.194 156.019 369.176 159.686 369.176 159.686H379.759C379.759 159.686 380.471 154.491 381.127 154.13C381.782 153.769 382.656 159.733 382.656 159.733L430.774 158.732C430.774 158.732 430.061 142.676 429.672 137.99Z" fill="black"/>
<path d="M419.659 110.284C417.131 107.314 413.95 104.936 410.352 103.326C406.755 101.715 402.832 100.912 398.873 100.978C394.218 101.043 392.328 102.043 389.003 103.034C385.677 103.921 382.778 105.921 380.814 108.682C378.543 112.034 376.672 115.775 376.349 119.794C376.04 123.62 376.39 127.47 377.384 131.184C378.855 135.947 381.124 140.44 384.101 144.481L391.264 145.111C397.192 145.111 403.215 145.111 408.943 143.639C414.672 142.166 420.191 138.944 423.127 133.916C427.202 126.906 425.074 116.34 419.659 110.284Z" fill="black"/>
<path d="M410.102 110.507L395.615 105.395L391.891 105.932C383.474 106.219 377.964 115.442 378.125 122.091C378.306 129.499 378.819 138.472 380.196 143.87C382.97 154.732 392.546 155.343 392.546 155.343C392.546 155.343 392.489 167.928 392.546 171.604L414.396 169.391L413.997 114.136C413.931 113.166 413.494 112.256 412.773 111.584C412.052 110.912 411.099 110.528 410.102 110.507Z" fill="#FFBF9D"/>
<path d="M396.935 140.796C396.834 140.239 396.526 139.739 396.071 139.389C395.653 139.059 395.134 138.873 394.597 138.859C394.059 138.846 393.532 139.006 393.097 139.314C392.648 139.675 392.305 140.145 392.105 140.677C391.904 141.21 391.853 141.785 391.957 142.342C392.214 142.672 392.54 142.944 392.914 143.141C393.287 143.337 393.7 143.453 394.123 143.481H394.522C395.189 143.456 395.823 143.189 396.299 142.731C396.548 142.477 396.735 142.17 396.845 141.835C396.956 141.5 396.986 141.145 396.935 140.796Z" fill="#FF9A6C"/>
<path d="M382.656 131.119C382.686 131.489 382.862 131.832 383.148 132.076C383.434 132.32 383.806 132.445 384.186 132.425C384.371 132.424 384.554 132.386 384.725 132.315C384.895 132.244 385.049 132.14 385.178 132.009C385.306 131.879 385.406 131.725 385.473 131.556C385.539 131.387 385.57 131.207 385.563 131.027C385.534 130.659 385.359 130.317 385.075 130.073C384.791 129.829 384.421 129.703 384.043 129.721C383.857 129.722 383.674 129.759 383.503 129.831C383.332 129.902 383.177 130.006 383.048 130.136C382.919 130.266 382.818 130.42 382.751 130.589C382.683 130.758 382.651 130.938 382.656 131.119Z" fill="black"/>
<path d="M381.317 126.443C381.469 126.591 382.628 126.35 384.167 126.683C385.706 127.017 386.732 127.72 386.912 127.609C387.093 127.498 386.855 127.341 386.409 127.026C385.754 126.58 385.014 126.265 384.233 126.1C383.483 125.926 382.703 125.908 381.944 126.044C381.45 126.211 381.231 126.378 381.317 126.443Z" fill="black"/>
<path d="M391.226 137.323C390.383 137.145 389.522 137.067 388.661 137.092C388.262 137.092 387.872 137.092 387.787 136.786C387.715 136.387 387.771 135.977 387.948 135.61C388.233 134.684 388.537 133.629 388.898 132.554C390.162 128.211 391.036 124.656 390.855 124.609C390.675 124.563 389.506 128.045 388.252 132.388C387.948 133.453 387.654 134.481 387.388 135.453C387.175 135.94 387.148 136.485 387.312 136.99C387.381 137.123 387.48 137.238 387.602 137.328C387.724 137.418 387.865 137.48 388.015 137.509C388.241 137.54 388.472 137.54 388.699 137.509C389.546 137.556 390.395 137.494 391.226 137.323Z" fill="black"/>
<path d="M392.546 155.334C397.873 154.969 402.991 153.167 407.328 150.13C407.328 150.13 403.974 158.103 392.574 158.019L392.546 155.334Z" fill="#FF9A6C"/>
<path d="M395.909 137.99C395.652 137.99 395.804 139.647 394.455 140.944C393.106 142.24 391.292 142.203 391.301 142.435C391.311 142.666 391.729 142.722 392.489 142.675C393.483 142.607 394.421 142.201 395.139 141.527C395.82 140.875 396.218 139.994 396.251 139.064C396.251 138.416 396.023 137.971 395.909 137.99Z" fill="black"/>
<path d="M381.165 120.35C381.46 120.701 382.638 120.35 384.015 120.35C385.393 120.35 386.609 120.609 386.865 120.248C386.989 120.072 386.799 119.729 386.286 119.396C385.581 118.993 384.777 118.788 383.96 118.803C383.144 118.818 382.348 119.052 381.659 119.479C381.203 119.822 381.042 120.174 381.165 120.35Z" fill="black"/>
<path d="M399.31 130.665C399.331 131.035 399.204 131.398 398.956 131.677C398.708 131.957 398.358 132.132 397.98 132.165C397.796 132.187 397.609 132.174 397.43 132.125C397.252 132.076 397.085 131.993 396.939 131.882C396.793 131.77 396.672 131.631 396.581 131.473C396.491 131.315 396.434 131.141 396.412 130.962C396.391 130.592 396.518 130.229 396.766 129.949C397.014 129.669 397.364 129.494 397.742 129.461C397.927 129.438 398.114 129.451 398.293 129.499C398.472 129.547 398.64 129.63 398.786 129.742C398.932 129.854 399.053 129.994 399.143 130.152C399.233 130.311 399.29 130.485 399.31 130.665Z" fill="black"/>
<path d="M401.571 125.35C401.438 125.517 400.279 125.517 398.835 126.11C397.391 126.702 396.469 127.508 396.279 127.471C396.089 127.434 396.279 127.23 396.697 126.86C397.288 126.344 397.966 125.934 398.702 125.647C399.401 125.349 400.153 125.186 400.915 125.165C401.4 125.165 401.637 125.276 401.571 125.35Z" fill="black"/>
<path d="M400.83 119.609C400.536 119.97 399.31 119.674 397.866 119.72C396.422 119.767 395.197 120.081 394.893 119.72C394.76 119.554 394.94 119.202 395.463 118.85C396.176 118.428 396.99 118.196 397.824 118.178C398.657 118.16 399.481 118.357 400.213 118.748C400.773 119.091 400.954 119.433 400.83 119.609Z" fill="black"/>
<path d="M412.658 132.731C412.591 131.906 413.389 129.897 414.206 129.703C416.401 129.175 420.41 129.008 420.932 134.499C421.654 142 413.779 141.157 413.741 140.981C413.703 140.805 412.905 135.564 412.658 132.731Z" fill="#FFBF9D"/>
<path d="M415.65 138.009C415.65 138.009 415.792 138.092 416.03 138.166C416.194 138.221 416.367 138.243 416.54 138.232C416.713 138.221 416.882 138.176 417.037 138.101C417.825 137.731 418.386 136.416 418.291 135.055C418.249 134.405 418.061 133.773 417.74 133.203C417.646 132.973 417.497 132.77 417.305 132.608C417.113 132.447 416.884 132.333 416.638 132.277C416.479 132.252 416.317 132.282 416.178 132.361C416.039 132.441 415.933 132.565 415.878 132.712C415.792 132.925 415.878 133.073 415.821 133.092C415.764 133.11 415.64 132.98 415.669 132.666C415.698 132.475 415.792 132.299 415.935 132.166C416.122 132.016 416.357 131.934 416.6 131.934C416.922 131.967 417.229 132.08 417.493 132.262C417.758 132.443 417.97 132.687 418.11 132.971C418.499 133.594 418.727 134.299 418.776 135.027C418.871 136.536 418.215 138.027 417.132 138.444C416.929 138.52 416.711 138.552 416.494 138.536C416.277 138.52 416.067 138.457 415.878 138.351C415.65 138.194 415.583 138.027 415.65 138.009Z" fill="#FF9A6C"/>
<path d="M414.52 129.712L412.62 131.749C403.899 124.119 386.723 104.895 387.682 106.006C391.495 104.479 395.64 103.909 399.738 104.348C406.065 105.2 418.092 107.904 418.149 115.146C418.206 122.387 414.52 129.712 414.52 129.712Z" fill="black"/>
<path d="M375.066 249.536C375.066 249.536 363.039 267.13 364.93 289.354C366.82 311.578 376.007 354.267 376.007 354.267C377.706 366.548 378.657 378.916 378.857 391.307L381.963 434.143H401.913C401.913 434.143 403.177 386.343 401.913 376.296C400.65 366.249 402.436 353.6 402.711 345.285L404.127 293.188L405.732 251.388L375.066 249.536Z" fill="#196B69"/>
<path d="M437.804 248.054C442.875 260.507 445.184 273.866 444.577 287.252C443.58 309.578 435.866 352.646 435.866 352.646C435.866 352.646 436.113 387.741 434.042 406.798C432.322 422.698 431.353 433.421 431.353 433.421L412.059 433.356C412.059 433.356 408.857 385.639 409.722 375.546C410.396 367.619 410.539 363.739 409.446 358.267C408.616 354.207 408.054 350.099 407.765 345.969L404.155 292.586L404.715 250.258L437.804 248.054Z" fill="#196B69"/>
<path d="M383.948 163.529L393.619 162.863L415.754 162.733L436.445 167.224L425.036 187.114L405.751 193.772L390.76 190.318L382.172 180.225L383.948 163.529Z" fill="#FFBF9D"/>
<path d="M435.391 211.57L436.446 166.196L424.257 164.344C424.257 164.344 417.826 173.697 409.561 175.521C404.668 176.604 396.612 174.845 394.209 173.196C385.896 167.483 387.35 163.186 387.35 163.186C387.35 163.186 375.76 162.557 371.029 163.918C366.298 165.279 361.918 171.132 361.348 174.585L365.861 182.669L370.25 208.542L374.211 224.821C374.211 224.821 366.716 258.157 367.466 260.185C368.008 261.685 390.504 272.677 442.326 260.398C444.587 259.861 435.847 230.581 433.662 225.506L435.391 211.57Z" fill="#28CC9E"/>
<path d="M456.034 211.357L449.289 178.234C446.088 170.279 438.839 166.196 435.039 166.196L433.301 210.644L435.201 215.552L456.034 211.357Z" fill="#28CC9E"/>
<path d="M361.348 175.419L354.347 211.487L375.256 213.672L367.666 175.419H361.348Z" fill="#28CC9E"/>
<path d="M420.904 235.526C420.374 235.418 419.856 235.263 419.355 235.063C418.405 234.739 416.942 234.22 415.213 233.526C406.19 229.888 397.75 225.004 390.152 219.024C388.699 217.876 387.549 216.913 386.78 216.246C386.366 215.907 385.979 215.539 385.621 215.145C386.083 215.413 386.519 215.723 386.922 216.071C387.73 216.719 388.908 217.635 390.39 218.737C398.079 224.53 406.467 229.384 415.365 233.192C417.075 233.924 418.462 234.498 419.431 234.878C419.942 235.048 420.435 235.265 420.904 235.526Z" fill="#196B69"/>
<path d="M366.25 185.642C366.313 185.777 366.354 185.921 366.374 186.068C366.45 186.411 366.535 186.818 366.64 187.309C366.858 188.457 367.162 190.004 367.533 191.874C368.293 195.81 369.309 201.134 370.44 206.959C371.57 212.783 372.549 218.191 373.204 222.071C373.537 224.006 373.793 225.58 373.945 226.701C374.021 227.201 374.078 227.627 374.126 227.96C374.148 228.108 374.148 228.257 374.126 228.405C374.07 228.264 374.028 228.118 374.002 227.97L373.736 226.738C373.518 225.58 373.214 224.034 372.843 222.164C372.083 218.237 371.067 212.904 369.936 207.079C368.806 201.254 367.827 195.847 367.172 191.976C366.839 190.031 366.583 188.466 366.431 187.346C366.355 186.846 366.307 186.42 366.26 186.096C366.23 185.946 366.227 185.793 366.25 185.642Z" fill="#196B69"/>
<path d="M438.944 181.614C439.077 181.614 437.994 191.17 436.588 202.912C435.182 214.653 433.881 224.21 433.738 224.21C433.596 224.21 434.688 214.653 436.094 202.912C437.5 191.17 438.811 181.595 438.944 181.614Z" fill="#196B69"/>
<path d="M163.9 150.195L163.33 104.21C162.798 92.7737 169.192 82.9118 180.934 82.7451H182.017C187.29 82.9531 192.289 85.0899 196.018 88.7299C199.746 92.3698 201.932 97.2455 202.138 102.386C202.537 112.294 202.841 123.258 202.556 128.554C201.948 139.527 190.614 140.778 190.614 140.778C190.614 140.778 190.548 147.454 190.548 150.676L193.198 158.205L175.405 162.492L163.9 150.195Z" fill="#FFBF9D"/>
<path d="M190.595 140.823C185.396 140.602 180.371 138.93 176.117 136.008C176.117 136.008 179.29 144.398 190.567 143.87L190.595 140.823Z" fill="#FF9A6C"/>
<path d="M198.015 112.812C198.002 113.221 197.826 113.608 197.525 113.892C197.223 114.176 196.819 114.333 196.4 114.331C196.194 114.338 195.99 114.306 195.798 114.235C195.606 114.164 195.43 114.056 195.281 113.918C195.132 113.78 195.014 113.614 194.932 113.431C194.85 113.247 194.806 113.049 194.804 112.849C194.816 112.441 194.992 112.053 195.294 111.769C195.596 111.485 195.999 111.328 196.419 111.331C196.624 111.323 196.829 111.356 197.021 111.427C197.213 111.498 197.388 111.605 197.537 111.743C197.686 111.881 197.805 112.047 197.887 112.231C197.969 112.414 198.012 112.612 198.015 112.812Z" fill="black"/>
<path d="M199.411 105.932C199.259 106.099 198.005 106.163 196.409 106.858C194.813 107.552 193.768 108.358 193.559 108.33C193.35 108.302 193.559 108.089 194.043 107.71C194.722 107.176 195.477 106.742 196.285 106.423C197.057 106.097 197.879 105.896 198.717 105.83C199.268 105.756 199.487 105.858 199.411 105.932Z" fill="black"/>
<path d="M182.596 112.812C182.584 113.218 182.411 113.604 182.113 113.889C181.816 114.174 181.417 114.335 181 114.34C180.795 114.347 180.59 114.315 180.398 114.244C180.206 114.173 180.03 114.065 179.881 113.927C179.733 113.789 179.614 113.623 179.532 113.44C179.45 113.256 179.406 113.058 179.404 112.858C179.419 112.45 179.595 112.064 179.897 111.781C180.198 111.498 180.6 111.339 181.019 111.34C181.428 111.332 181.823 111.483 182.119 111.759C182.414 112.035 182.586 112.413 182.596 112.812Z" fill="black"/>
<path d="M182.672 108.525C182.444 108.525 181.437 107.802 179.822 107.312C178.207 106.821 176.801 106.867 176.658 106.719C176.516 106.571 176.848 106.524 177.447 106.497C178.323 106.48 179.195 106.602 180.031 106.858C180.841 107.088 181.603 107.455 182.282 107.941C182.672 108.284 182.776 108.506 182.672 108.525Z" fill="black"/>
<path d="M188.192 120.1C189.12 119.85 190.078 119.722 191.042 119.72C191.488 119.72 191.916 119.618 191.992 119.331C192.044 118.887 191.954 118.437 191.735 118.044C191.365 116.979 190.975 115.868 190.576 114.71C188.952 109.969 187.802 106.071 188.001 106.015C188.201 105.96 189.664 109.719 191.279 114.488C191.669 115.655 192.039 116.766 192.391 117.84C192.652 118.368 192.71 118.97 192.552 119.535C192.481 119.684 192.377 119.815 192.247 119.919C192.117 120.023 191.965 120.098 191.801 120.137C191.552 120.19 191.297 120.215 191.042 120.211C190.09 120.287 189.133 120.25 188.192 120.1Z" fill="black"/>
<path d="M183.318 101.635C183.071 102.052 181.418 101.533 179.366 101.413C177.314 101.293 175.566 101.524 175.423 101.07C175.338 100.857 175.699 100.487 176.43 100.144C177.402 99.7655 178.449 99.6069 179.492 99.6807C180.536 99.7545 181.548 100.059 182.453 100.57C183.137 101.015 183.432 101.432 183.318 101.635Z" fill="black"/>
<path d="M199.801 102.228C199.43 102.599 198.034 102.163 196.343 102.098C194.652 102.034 193.208 102.284 192.885 101.867C192.742 101.673 192.98 101.293 193.616 100.941C194.495 100.526 195.467 100.335 196.442 100.385C197.417 100.435 198.364 100.725 199.193 101.228C199.782 101.645 200 102.043 199.801 102.228Z" fill="black"/>
<path d="M163.9 112.367C163.71 112.284 156.3 109.83 156.186 117.34C156.072 124.85 163.871 123.368 163.881 123.155C163.89 122.942 163.9 112.367 163.9 112.367Z" fill="#FFBF9D"/>
<path d="M161.534 120.294C161.534 120.294 161.401 120.378 161.173 120.479C160.85 120.603 160.49 120.603 160.166 120.479C159.359 120.183 158.684 118.914 158.665 117.563C158.649 116.924 158.782 116.291 159.055 115.711C159.131 115.472 159.266 115.255 159.448 115.079C159.63 114.903 159.854 114.773 160.1 114.701C160.255 114.663 160.419 114.68 160.563 114.747C160.707 114.815 160.822 114.93 160.888 115.072C160.993 115.285 160.945 115.433 160.983 115.442C161.021 115.451 161.154 115.322 161.088 115.007C161.048 114.821 160.944 114.654 160.793 114.535C160.582 114.377 160.316 114.307 160.052 114.34C159.736 114.399 159.44 114.535 159.192 114.736C158.945 114.937 158.754 115.196 158.637 115.488C158.3 116.136 158.134 116.855 158.152 117.581C158.152 119.09 158.969 120.516 160.052 120.841C160.257 120.903 160.475 120.919 160.687 120.887C160.9 120.855 161.102 120.776 161.278 120.655C161.525 120.47 161.563 120.303 161.534 120.294Z" fill="#FF9A6C"/>
<path d="M206.736 99.0611C201.9 99.7927 196.941 99.4408 193.084 96.5146C191.964 95.6623 190.927 94.7107 189.987 93.6718C188.277 91.7735 186.938 89.4122 184.639 88.2732C181.665 86.7916 178.084 87.8102 174.92 88.8381L175.053 88.727C173.4 89.4465 171.907 90.4717 170.655 91.7457C171.416 99.027 170.244 106.377 167.254 113.09C167.14 113.369 166.971 113.623 166.756 113.838C166.54 114.053 166.283 114.223 166 114.34C164.195 115.035 164.746 112.701 163.406 112.257C162.38 111.905 161.877 112.118 159.834 112.062C159.122 110.21 158.704 105.034 158.105 102.247C156.202 100.162 155.039 97.5351 154.79 94.7552C154.897 92.7772 155.363 90.8334 156.167 89.014C158.124 85.4026 159.255 83.5506 162.257 82.532H162.323C165.012 81.5134 168.318 81.532 170.493 83.3747C171.082 79.4577 174.645 76.3927 178.578 75.4389C182.511 74.4851 188.8 75.1426 192.543 76.6612C195.098 77.6983 197.578 79.6707 200.437 82.5043C200.827 82.8839 201.207 83.2728 201.606 83.6803L201.701 83.7821C202.593 84.2849 203.589 84.5856 204.617 84.6618C205.359 84.7701 206.117 84.681 206.811 84.4039C207.505 84.1268 208.109 83.672 208.56 83.0876C208.911 82.708 209.358 82.2357 209.852 82.3931C210.003 82.4587 210.136 82.5584 210.24 82.6839C210.344 82.8095 210.416 82.9574 210.45 83.1154C210.67 83.9491 210.652 84.8257 210.398 85.6501C210.143 86.4745 209.662 87.2151 209.006 87.7917C208.387 88.3589 207.682 88.8304 206.916 89.19C207.729 90.0748 208.823 90.6683 210.023 90.8753C210.547 90.9592 211.047 91.1461 211.495 91.4247C211.942 91.7033 212.327 92.0677 212.626 92.4958C212.939 92.9232 213.111 93.4336 213.12 93.9589C213.12 97.1443 209.88 98.5981 206.736 99.0611Z" fill="black"/>
<path d="M208.797 95.8198L208.712 95.8939L208.427 96.0976C208.271 96.203 208.109 96.2988 207.942 96.3846C207.721 96.5174 207.489 96.632 207.249 96.7273C205.731 97.3862 204.068 97.6601 202.413 97.5236C199.949 97.3387 197.592 96.4605 195.63 94.9956C193.267 93.1887 191.306 90.9331 189.864 88.3655C189.056 87.0228 188.401 85.6523 187.679 84.3837C187.022 83.1473 186.187 82.009 185.199 81.0038C184.308 80.0985 183.197 79.4266 181.969 79.0499C181.415 78.8888 180.837 78.8168 180.259 78.8369C179.726 78.8606 179.199 78.954 178.692 79.1147C177.133 79.6116 175.823 80.6631 175.025 82.0594C174.76 82.5842 174.559 83.1374 174.426 83.7077C174.424 83.6676 174.424 83.6274 174.426 83.5873C174.426 83.4947 174.445 83.3836 174.483 83.254C174.581 82.8246 174.731 82.4081 174.93 82.0131C175.265 81.3776 175.712 80.8042 176.25 80.3185C176.94 79.6804 177.763 79.1941 178.663 78.8925C179.186 78.7248 179.729 78.6251 180.278 78.5962C180.881 78.5688 181.484 78.6376 182.064 78.7999C183.331 79.176 184.479 79.8613 185.399 80.7908C186.409 81.8076 187.264 82.9617 187.935 84.217C188.667 85.4949 189.322 86.8561 190.12 88.1895C191.551 90.7302 193.489 92.9657 195.82 94.7641C197.743 96.211 200.05 97.0914 202.47 97.3014C204.088 97.4351 205.716 97.194 207.22 96.5976C207.761 96.369 208.288 96.1092 208.797 95.8198Z" fill="#455A64"/>
<path d="M209.88 90.9583C209.763 91.0498 209.636 91.1275 209.5 91.1898C209.114 91.414 208.71 91.609 208.294 91.7732C207.678 92.0178 207.042 92.2129 206.394 92.3566C205.593 92.5198 204.779 92.6159 203.962 92.6436C203.146 92.6529 202.332 92.5878 201.53 92.4492C200.881 92.3386 200.245 92.168 199.63 91.9399C199.203 91.7992 198.79 91.6226 198.395 91.4121C198.246 91.3439 198.106 91.2601 197.977 91.162C197.977 91.1157 198.623 91.4398 199.687 91.7732C200.308 91.9648 200.943 92.1134 201.587 92.2177C202.378 92.3374 203.179 92.3931 203.981 92.3844C204.781 92.3637 205.579 92.277 206.365 92.1251C207.012 91.9978 207.647 91.8213 208.265 91.5973C209.253 91.2546 209.861 90.912 209.88 90.9583Z" fill="#455A64"/>
<path d="M166.75 96.6719C166.828 96.9017 166.863 97.1431 166.855 97.3849C166.904 98.0384 166.904 98.6945 166.855 99.348C166.827 99.8149 166.747 100.278 166.617 100.728C166.568 100.889 166.466 101.03 166.327 101.131C166.189 101.231 166.02 101.284 165.848 101.283C165.524 101.239 165.223 101.093 164.993 100.867L162.238 98.385L162.646 98.1535L163.036 99.7647C163.406 101.283 163.748 102.719 164.062 104.043L164.233 104.756L163.691 104.256C162.503 103.163 161.473 101.917 160.632 100.552C160.277 100.047 159.999 99.4949 159.806 98.9128C160.996 100.731 162.402 102.407 163.995 103.904L163.625 104.117C163.292 102.802 162.941 101.339 162.561 99.8481C162.428 99.3017 162.295 98.7554 162.162 98.2368L161.972 97.4497L162.57 98.0053L165.278 100.524C165.433 100.693 165.639 100.81 165.867 100.857C165.957 100.855 166.044 100.825 166.115 100.772C166.187 100.719 166.24 100.645 166.266 100.561C166.394 100.144 166.483 99.7162 166.532 99.2832C166.75 97.672 166.684 96.6719 166.75 96.6719Z" fill="#455A64"/>
<path d="M187.849 124.415C187.726 124.415 181.95 122.211 181.95 122.211C181.95 122.211 180.287 125.461 182.301 126.961C184.315 128.461 186.785 127.508 187.175 126.619C187.459 125.903 187.685 125.166 187.849 124.415Z" fill="#FF9A6C"/>
<path d="M186.558 127.239C186.292 127.342 186.019 127.425 185.741 127.489C184.989 127.594 184.223 127.55 183.489 127.359C182.807 127.141 182.217 126.712 181.808 126.137C181.42 125.405 181.345 124.553 181.599 123.767C181.722 123.265 181.907 122.78 182.15 122.322L181.855 122.424C183.613 123.063 185.152 123.609 186.254 123.98C186.835 124.213 187.44 124.383 188.059 124.489C187.529 124.16 186.962 123.892 186.368 123.692C185.294 123.248 183.774 122.646 182.036 121.989L181.836 121.915L181.741 122.09C181.46 122.581 181.252 123.108 181.124 123.655C180.966 124.065 180.901 124.503 180.931 124.94C180.962 125.377 181.088 125.802 181.301 126.187C181.515 126.572 181.81 126.908 182.168 127.173C182.526 127.437 182.937 127.624 183.375 127.721C184.166 127.903 184.988 127.903 185.779 127.721C186.368 127.545 186.577 127.304 186.558 127.239Z" fill="black"/>
<path d="M218.582 179.827C218.582 179.827 222.6 219.506 222.847 223.617C223.094 227.729 223.75 253.36 224.814 268.917L214.487 267.806C214.487 267.806 205.605 226.136 205.624 225.321C205.643 224.506 202.65 184.716 202.65 184.716L218.582 179.827Z" fill="#FFBF9D"/>
<path d="M226.762 291.771C226.762 291.771 238.485 315.319 241.382 316.264C244.28 317.208 265.132 307.698 265.132 307.698L268.6 291.03C268.6 291.03 265.75 292.076 261.313 293.808C256.877 295.54 244.878 301.022 244.878 301.022L232.956 286.761L226.762 291.771Z" fill="#FFBF9D"/>
<path d="M225.935 276.779C225.935 276.779 228.434 278.89 230.106 280.603C231.778 282.316 232.956 286.678 232.956 286.678L237.43 292.4L230.78 299.67L228.7 294.984L223.465 291.28L221.518 285.307L225.935 276.779Z" fill="#FFBF9D"/>
<path d="M213.233 256.814C213.385 257.092 215.133 269.908 214.383 271.26C213.062 273.705 213.433 277.742 213.433 277.742C213.433 277.742 214.44 286.076 214.896 288.771C215.352 291.465 216.064 293.808 218.012 292.706C219.959 291.604 220.102 289.873 218.962 285.048L219.399 282.196L221.137 283.761L223.75 291.252C223.75 291.252 220.064 297.781 220.9 299.086C221.736 300.392 222.638 299.864 222.638 299.864L223.75 300.466L230.029 292.391L229.82 281.511L224.823 268.945L224.063 250.231L211.713 243.749L213.233 256.814Z" fill="#FFBF9D"/>
<path d="M219.58 284.872C217.794 284.446 219.143 280.9 220.302 279.39C220.691 278.89 221.252 278.4 221.917 278.576C222.17 278.672 222.385 278.846 222.528 279.072C222.672 279.297 222.737 279.561 222.715 279.826C222.715 280.353 222.164 280.752 221.917 281.205C222.04 280.835 222.458 280.576 222.715 280.279C222.835 280.123 222.997 280.002 223.183 279.93C223.369 279.858 223.572 279.838 223.769 279.872C224.368 280.029 224.558 280.798 224.548 281.363C224.545 282.267 224.355 283.162 223.988 283.993C224.092 283.585 223.988 283.993 224.244 283.65C224.358 283.473 224.521 283.331 224.714 283.241C224.908 283.151 225.124 283.116 225.337 283.141C225.533 283.196 225.711 283.301 225.851 283.446C225.992 283.591 226.09 283.77 226.135 283.965C226.22 284.356 226.22 284.759 226.135 285.15C225.733 287.4 224.81 289.532 223.437 291.382C222.92 291.167 222.474 290.817 222.147 290.371C221.821 289.925 221.626 289.401 221.584 288.854C221.145 288.78 220.729 288.607 220.371 288.348C220.013 288.089 219.723 287.752 219.523 287.363C219.329 286.973 219.235 286.543 219.246 286.11C219.258 285.677 219.375 285.252 219.589 284.872" fill="#FFBF9D"/>
<path d="M219.58 284.872C219.58 284.872 219.475 284.955 219.361 285.168C219.209 285.494 219.128 285.847 219.124 286.205C219.106 286.781 219.272 287.347 219.599 287.826C219.824 288.146 220.112 288.42 220.446 288.631C220.78 288.843 221.154 288.988 221.546 289.057L221.356 288.863C221.392 289.457 221.594 290.03 221.94 290.52C222.287 291.01 222.765 291.398 223.323 291.641L223.513 291.715L223.636 291.558C224.638 290.235 225.411 288.762 225.926 287.196C226.225 286.323 226.419 285.419 226.505 284.502C226.528 284.219 226.477 283.935 226.355 283.677C226.234 283.419 226.047 283.196 225.812 283.029C225.673 282.94 225.517 282.881 225.353 282.855C225.189 282.83 225.022 282.839 224.862 282.881C224.567 282.959 224.303 283.12 224.102 283.344C224.007 283.437 223.931 283.557 223.921 283.557C223.912 283.557 223.921 283.557 224.111 283.557C223.75 283.557 223.769 283.761 223.75 283.733C223.747 283.761 223.747 283.789 223.75 283.816V283.974L224.358 284.14C224.583 283.557 224.754 282.956 224.871 282.344C224.909 282.037 224.928 281.728 224.928 281.418C224.928 281.102 224.87 280.788 224.757 280.492C224.699 280.317 224.602 280.156 224.474 280.02C224.346 279.884 224.19 279.777 224.016 279.705C223.836 279.646 223.645 279.629 223.457 279.655C223.269 279.68 223.09 279.748 222.933 279.853C222.785 279.941 222.653 280.054 222.544 280.186L222.278 280.455C222.026 280.651 221.83 280.906 221.708 281.196L222.24 281.418C222.392 281.112 222.715 280.825 222.933 280.399C223.026 280.179 223.065 279.94 223.047 279.702C223.029 279.464 222.954 279.234 222.829 279.029C222.715 278.824 222.544 278.654 222.335 278.54C222.127 278.425 221.89 278.37 221.651 278.381C221.229 278.433 220.84 278.626 220.549 278.927C219.741 279.867 219.16 280.971 218.848 282.159C218.556 282.921 218.576 283.763 218.905 284.511C218.979 284.641 219.086 284.75 219.216 284.828C219.345 284.906 219.494 284.95 219.646 284.955C219.646 284.9 219.314 284.863 219.067 284.427C218.838 283.712 218.878 282.94 219.181 282.251C219.525 281.149 220.104 280.129 220.881 279.26C221.095 279.048 221.376 278.911 221.679 278.871C221.822 278.87 221.962 278.909 222.083 278.983C222.205 279.056 222.302 279.162 222.363 279.288C222.443 279.42 222.491 279.568 222.502 279.72C222.514 279.873 222.489 280.026 222.43 280.168C222.297 280.464 221.964 280.733 221.727 281.159L222.249 281.381C222.351 281.18 222.497 281.003 222.677 280.862C222.788 280.768 222.893 280.666 222.99 280.557C223.062 280.472 223.149 280.399 223.247 280.344C223.328 280.284 223.424 280.245 223.525 280.231C223.627 280.218 223.73 280.229 223.825 280.266C223.92 280.302 224.005 280.361 224.07 280.438C224.135 280.515 224.178 280.607 224.197 280.705C224.332 281.226 224.351 281.769 224.254 282.298C224.134 282.871 223.969 283.435 223.76 283.983L224.358 284.15V284.002H224.273H224.168H224.092L224.026 284.289C224.311 284.289 224.311 284.196 224.358 284.177C224.406 284.159 224.529 283.974 224.586 283.918C224.683 283.783 224.827 283.686 224.991 283.647C225.156 283.608 225.329 283.628 225.479 283.705C225.62 283.815 225.732 283.957 225.805 284.118C225.877 284.279 225.909 284.455 225.897 284.631C225.815 285.49 225.637 286.338 225.365 287.159C224.886 288.673 224.161 290.101 223.218 291.391L223.532 291.308C223.055 291.111 222.642 290.792 222.338 290.384C222.033 289.976 221.848 289.495 221.803 288.993V288.826H221.641C221.297 288.778 220.967 288.664 220.668 288.491C220.37 288.317 220.11 288.088 219.903 287.817C219.587 287.399 219.405 286.9 219.38 286.381C219.351 285.871 219.418 285.359 219.58 284.872Z" fill="#FF9A6C"/>
<path d="M224.187 283.705C224.073 283.594 222.99 284.502 222.23 286.03C221.47 287.558 221.394 288.956 221.565 288.974C221.736 288.993 222.069 287.724 222.791 286.298C223.513 284.872 224.32 283.798 224.187 283.705Z" fill="#FF9A6C"/>
<path d="M222.43 280.27C222.306 280.159 221.328 281.029 220.473 282.381C219.618 283.733 219.247 284.974 219.409 285.029C219.57 285.085 220.178 283.992 221.005 282.705C221.831 281.418 222.563 280.381 222.43 280.27Z" fill="#FF9A6C"/>
<path d="M228.253 295.595C228.652 295.095 229.07 294.577 229.488 294.04L230.144 293.197C230.381 292.869 230.537 292.492 230.6 292.095C230.6 289.095 230.486 286.539 230.41 284.631C230.42 283.607 230.328 282.583 230.134 281.576C229.975 282.589 229.921 283.616 229.973 284.641C229.973 286.734 229.973 289.271 229.973 291.993C229.926 292.303 229.806 292.598 229.621 292.854L228.994 293.679L227.788 295.253L225.774 297.947C225.117 298.749 224.541 299.611 224.054 300.522C224.823 299.817 225.52 299.042 226.135 298.207" fill="#FF9A6C"/>
<path d="M123.582 267.537C123.833 269.197 124.65 270.727 125.9 271.88C127.857 273.945 129.006 277.853 129.006 277.853C129.006 277.853 130.85 286.187 131.306 288.965C131.762 291.743 131.875 294.178 129.634 293.743C127.392 293.308 126.669 291.678 126.128 286.687L124.741 284.076L123.61 286.141V294.178C123.61 294.178 129.31 299.28 129.006 300.799C128.702 302.318 127.591 302.096 127.591 302.096L126.698 302.966L117.948 297.215L114.5 286.65L115.07 272.964L114.661 257.416L124.656 259.916L123.582 267.537Z" fill="#FFBF9D"/>
<path d="M137.86 160.418C137.86 160.418 129.481 157.686 127.676 167.085C125.871 176.484 122.233 200.458 121.739 204.412C120.842 211.838 119.275 219.173 117.055 226.331C113.768 237.369 114.87 266.491 114.87 266.491H123.724C123.724 266.491 132.445 241.582 134.174 228.775C135.903 215.969 139.295 210.45 138.478 205.255C137.661 200.06 140.615 186.8 140.615 186.8L137.86 160.418Z" fill="#FFBF9D"/>
<path d="M190.234 412.429L189.198 433.514C189.198 433.514 210.507 441.644 210.697 445.552L169.315 445.024L169.571 412.114L190.234 412.429Z" fill="black"/>
<path d="M176.421 431.578C176.028 431.696 175.691 431.948 175.473 432.288C175.255 432.629 175.17 433.034 175.234 433.43C175.329 433.831 175.581 434.179 175.936 434.4C176.291 434.621 176.721 434.699 177.134 434.616C177.56 434.491 177.924 434.216 178.156 433.845C178.387 433.474 178.47 433.033 178.388 432.606C178.245 432.202 177.945 431.869 177.552 431.678C177.159 431.488 176.705 431.455 176.288 431.588" fill="#E0E0E0"/>
<path d="M169.315 445.024L169.467 441.709L209.082 443.459C209.082 443.459 210.915 444.274 210.697 445.552L169.315 445.024Z" fill="#455A64"/>
<path d="M189.873 433.31C189.873 433.514 188.847 433.588 187.849 434.236C186.852 434.884 186.301 435.699 186.12 435.625C185.94 435.551 186.253 434.384 187.479 433.643C188.704 432.903 189.92 433.134 189.873 433.31Z" fill="white"/>
<path d="M194.186 435.143C194.234 435.338 193.35 435.671 192.657 436.505C191.963 437.338 191.707 438.236 191.545 438.218C191.384 438.199 191.232 437.079 192.115 436.051C192.999 435.023 194.186 434.958 194.186 435.143Z" fill="white"/>
<path d="M196.59 440.292C196.4 440.292 196.134 439.366 196.666 438.236C197.198 437.106 198.148 436.727 198.233 436.893C198.319 437.06 197.72 437.634 197.283 438.542C196.846 439.449 196.789 440.292 196.59 440.292Z" fill="white"/>
<path d="M189.55 428.485C189.465 428.661 188.543 428.374 187.394 428.439C186.244 428.504 185.361 428.847 185.256 428.671C185.152 428.495 186.016 427.8 187.365 427.745C188.714 427.689 189.674 428.328 189.55 428.485Z" fill="white"/>
<path d="M141.48 419.476L139.2 444.922L143.285 465.553C143.358 465.897 143.358 466.251 143.287 466.595C143.215 466.939 143.073 467.265 142.869 467.554C142.665 467.843 142.403 468.088 142.099 468.276C141.795 468.464 141.455 468.59 141.1 468.646C140.682 468.7 140.257 468.653 139.862 468.512C139.466 468.37 139.112 468.136 138.83 467.831C135.144 463.85 121.644 449.145 121.92 447.293C122.224 445.144 122.48 420.3 122.48 420.3L141.48 419.476Z" fill="black"/>
<path d="M141.1 468.646L121.986 445.57L121.92 446.654C121.858 447.583 122.134 448.504 122.699 449.256C124.209 451.265 128.503 456.71 138.716 467.822C139.004 468.141 139.37 468.384 139.78 468.528C140.19 468.672 140.631 468.713 141.062 468.646H141.1Z" fill="#455A64"/>
<g opacity="0.6">
<path d="M127.8 437.681C128.101 437.935 128.297 438.287 128.353 438.672C128.409 439.056 128.321 439.448 128.104 439.774C127.864 440.081 127.511 440.286 127.119 440.344C126.728 440.403 126.328 440.311 126.004 440.089C125.686 439.819 125.479 439.446 125.423 439.038C125.367 438.63 125.465 438.217 125.7 437.875C125.984 437.582 126.374 437.407 126.788 437.39C127.201 437.373 127.606 437.514 127.914 437.783" fill="white"/>
</g>
<path d="M135.904 457.136C136.573 456.379 137.381 455.75 138.288 455.284C139.254 454.969 140.274 454.843 141.29 454.913C141.29 454.849 141.005 454.626 140.407 454.506C139.616 454.373 138.803 454.464 138.064 454.768C137.325 455.072 136.691 455.575 136.236 456.219C135.904 456.738 135.837 457.117 135.904 457.136Z" fill="white"/>
<path d="M137.509 460.664C138.274 460.31 139.061 460 139.865 459.738C140.706 459.635 141.553 459.579 142.401 459.571C142.487 459.451 141.28 458.831 139.741 459.192C138.202 459.553 137.385 460.59 137.509 460.664Z" fill="white"/>
<path d="M132.769 452.552C132.883 452.682 134.232 451.478 136.303 450.839C138.374 450.2 140.16 450.367 140.179 450.2C138.858 449.758 137.418 449.794 136.122 450.302C134.765 450.639 133.576 451.437 132.769 452.552Z" fill="white"/>
<path d="M132.797 444.755C132.854 444.913 134.317 444.422 136.169 444.468C138.022 444.514 139.466 445.051 139.532 444.903C138.575 444.194 137.389 443.842 136.188 443.912C134.991 443.793 133.789 444.092 132.797 444.755Z" fill="white"/>
<path d="M133.263 437.273C134.407 436.985 135.586 436.851 136.768 436.875C137.941 437.077 139.08 437.439 140.15 437.949C140.15 437.894 139.932 437.56 139.362 437.181C138.604 436.704 137.742 436.41 136.845 436.321C135.948 436.233 135.043 436.353 134.203 436.671C133.548 436.931 133.234 437.218 133.263 437.273Z" fill="white"/>
<path d="M136.815 435.449C136.92 435.151 136.952 434.834 136.91 434.523C136.903 433.64 136.713 432.767 136.35 431.958C136.133 431.342 135.712 430.815 135.153 430.458C134.961 430.356 134.74 430.317 134.523 430.345C134.307 430.374 134.105 430.468 133.946 430.615C133.652 430.92 133.48 431.317 133.462 431.736C133.464 432.589 133.769 433.416 134.325 434.075C134.881 434.735 135.653 435.188 136.511 435.356C137.362 435.494 138.235 435.38 139.019 435.031C139.803 434.681 140.461 434.111 140.91 433.393C141.023 433.21 141.094 433.005 141.119 432.792C141.143 432.58 141.121 432.365 141.052 432.162C140.97 431.962 140.823 431.795 140.635 431.683C140.447 431.571 140.227 431.521 140.007 431.541C139.361 431.638 138.754 431.904 138.25 432.31C137.509 432.812 136.865 433.439 136.35 434.162C136.135 434.41 135.98 434.7 135.894 435.014C136.62 434.099 137.481 433.294 138.449 432.625C138.902 432.289 139.435 432.072 139.998 431.995C140.117 431.983 140.237 432.007 140.341 432.065C140.446 432.124 140.528 432.212 140.577 432.319C140.61 432.456 140.613 432.599 140.587 432.737C140.561 432.876 140.506 433.008 140.425 433.125C140.022 433.728 139.45 434.206 138.776 434.501C138.103 434.797 137.356 434.897 136.625 434.791C135.899 434.649 135.244 434.272 134.766 433.72C134.288 433.169 134.016 432.476 133.994 431.754C133.998 431.46 134.105 431.175 134.298 430.948C134.385 430.868 134.496 430.815 134.615 430.799C134.734 430.782 134.856 430.802 134.963 430.856C135.43 431.161 135.791 431.597 135.998 432.106C136.47 433.165 136.746 434.296 136.815 435.449Z" fill="white"/>
<path d="M209.671 239.989C210.526 249.227 210.622 258.516 209.956 267.769C209.51 273.436 191.906 429.161 191.906 429.161H165.8L173.134 281.788L170.997 282.251C170.997 282.251 156.747 345.099 155.588 355.276C154.543 364.425 141.756 436.319 141.756 436.319L117.141 436.051L126.299 343.247L136.873 259.537L140.483 236.127L209.671 239.989Z" fill="#196B69"/>
<path d="M211.524 157.797C214.716 160.103 217.319 163.353 218.174 169.224L223.123 197.93L209.025 201.819L204.142 169.141L211.524 157.797Z" fill="#28CC9E"/>
<path d="M195.725 149.417L211.524 158.316C212.844 167.215 210.849 217.496 210.849 217.496L211.59 265.704C189.455 276.816 162.361 273.177 135.296 264.259C135.115 262.176 136.179 261 136.882 259.509L141.784 215.987C141.784 215.987 140.663 183.327 140.663 182.716C140.663 182.105 138.25 151.76 138.25 151.76L164.233 143.917C164.233 143.917 175.253 153.176 184.04 153.602C191.64 153.982 191.222 147.12 191.222 147.12L195.725 149.417Z" fill="#28CC9E"/>
<path d="M211.98 170.196C211.903 170.68 211.871 171.17 211.885 171.659C211.885 172.687 211.885 174.021 211.799 175.632C211.799 179.077 211.704 183.67 211.647 188.753C211.59 193.837 211.467 198.504 211.343 201.856C211.296 203.467 211.248 204.81 211.21 205.829C211.171 206.316 211.171 206.805 211.21 207.292C211.321 206.814 211.385 206.327 211.4 205.838C211.495 204.912 211.6 203.551 211.695 201.875C211.904 198.523 212.065 193.883 212.132 188.753C212.198 183.623 212.189 178.993 212.132 175.632C212.132 174.021 212.075 172.687 212.056 171.659C212.066 171.171 212.04 170.682 211.98 170.196Z" fill="#196B69"/>
<path d="M138.25 151.482C137.642 151.676 130.65 153.695 126.774 163.52C122.898 173.345 117.882 199.041 117.882 199.041L141.907 203.773L145.508 171.937L138.25 151.482Z" fill="#28CC9E"/>
<path d="M146.971 174.53C146.855 174.901 146.778 175.282 146.743 175.669C146.62 176.502 146.468 177.521 146.287 178.789C145.898 181.428 145.337 185.068 144.634 189.077C143.931 193.087 143.171 196.689 142.62 199.263C142.364 200.495 142.145 201.532 141.965 202.356C141.862 202.731 141.802 203.116 141.784 203.504C141.943 203.15 142.064 202.781 142.145 202.402C142.354 201.68 142.63 200.634 142.953 199.337C143.589 196.745 144.387 193.133 145.1 189.151C145.812 185.17 146.325 181.484 146.62 178.836C146.772 177.511 146.876 176.428 146.933 175.687C146.986 175.304 146.998 174.916 146.971 174.53Z" fill="#196B69"/>
<path d="M138.934 154.158C141.003 155.456 142.839 157.077 144.368 158.955C145.776 160.93 146.836 163.121 147.503 165.437C147.513 164.717 147.387 164.001 147.133 163.326C146.109 159.967 143.902 157.068 140.901 155.14C140.309 154.703 139.643 154.371 138.934 154.158Z" fill="#196B69"/>
<path d="M169.144 263.482C169.337 262.554 169.69 261.664 170.189 260.852C170.546 259.972 171.05 259.155 171.681 258.435C171.483 259.362 171.129 260.25 170.636 261.065C170.285 261.948 169.78 262.766 169.144 263.482Z" fill="#196B69"/>
<path d="M283.03 431.18L282.831 424.754C282.831 424.754 295.931 424.615 295.884 424.754C295.836 424.893 294.991 432.162 294.991 432.162L288.274 435.486L283.03 431.18Z" fill="#E0E0E0"/>
<path d="M282.878 436.366C283.163 437.292 296.558 445.014 300.292 447.052C300.587 447.209 300.914 447.303 301.25 447.327C301.586 447.351 301.923 447.304 302.239 447.19C302.498 447.116 302.736 446.987 302.937 446.813C303.138 446.638 303.297 446.422 303.403 446.18C303.508 445.938 303.557 445.677 303.547 445.415C303.536 445.152 303.466 444.895 303.341 444.662L295.884 431.328C295.884 431.328 295.314 429.763 295.314 429.735C293.537 430.559 289.927 433.125 282.964 430.347V431.273L282.432 434.977C282.528 435.454 282.678 435.92 282.878 436.366Z" fill="black"/>
<path d="M295.285 438.44C295.758 437.952 296.266 437.497 296.805 437.079C297.417 436.73 298.051 436.42 298.705 436.153C298.331 436.105 297.952 436.132 297.589 436.232C297.226 436.333 296.888 436.504 296.596 436.736C295.532 437.514 295.181 438.44 295.285 438.44Z" fill="#196B69"/>
<path d="M294.192 436.643C294.297 436.69 294.762 435.893 295.712 435.273C296.326 434.941 296.961 434.647 297.612 434.393C297.239 434.345 296.859 434.372 296.496 434.472C296.133 434.573 295.796 434.744 295.503 434.977C294.439 435.662 294.05 436.588 294.192 436.643Z" fill="#196B69"/>
<path d="M302.695 446.968C302.337 447.217 301.913 447.358 301.474 447.375C301.035 447.391 300.601 447.282 300.225 447.061C289.889 441.366 283.723 437.856 282.175 436.245L282.545 434.477L302.695 446.968Z" fill="#E0E0E0"/>
<path d="M293.024 434.819C293.498 434.33 294.006 433.872 294.544 433.449C295.16 433.108 295.795 432.799 296.444 432.523C296.07 432.481 295.691 432.511 295.329 432.613C294.967 432.715 294.629 432.886 294.335 433.115C293.271 433.81 292.919 434.791 293.024 434.819Z" fill="#196B69"/>
<path d="M260.971 408.076L262.871 404.317C262.871 404.317 274.594 409.206 274.471 409.308C274.347 409.41 270.576 414.734 270.576 414.734L262.976 414.308L260.971 408.076Z" fill="#E0E0E0"/>
<path d="M257.95 412.429C257.674 413.355 264.79 426.458 266.832 430.023C267.004 430.291 267.232 430.52 267.503 430.695C267.774 430.869 268.079 430.984 268.4 431.032C268.666 431.098 268.944 431.106 269.214 431.056C269.484 431.007 269.739 430.901 269.963 430.747C270.187 430.592 270.374 430.391 270.511 430.159C270.648 429.927 270.731 429.669 270.756 429.402L271.858 414.41C271.858 414.41 272.247 412.79 272.266 412.771C270.281 412.614 265.768 413.049 261.36 407.29L260.857 408.095L258.339 410.994C258.151 411.443 258.017 411.912 257.94 412.392" fill="black"/>
<path d="M267.355 420.244C268.033 420.062 268.721 419.92 269.416 419.818C270.119 419.833 270.82 419.885 271.516 419.975C270.881 419.59 270.138 419.408 269.391 419.456C268.645 419.505 267.932 419.78 267.355 420.244Z" fill="#196B69"/>
<path d="M267.45 418.161C268.128 417.979 268.816 417.837 269.512 417.735C270.217 417.744 270.922 417.796 271.621 417.892C271.318 417.672 270.972 417.513 270.605 417.424C270.238 417.335 269.857 417.318 269.483 417.374C269.107 417.362 268.733 417.426 268.383 417.561C268.033 417.697 267.716 417.901 267.45 418.161Z" fill="#196B69"/>
<path d="M268.913 431.097C268.48 431.14 268.044 431.056 267.66 430.856C267.276 430.657 266.962 430.351 266.757 429.976C261.133 420.105 257.836 414.114 257.371 411.966L258.682 410.632L268.913 431.097Z" fill="#E0E0E0"/>
<path d="M267.45 416.031C268.128 415.849 268.816 415.707 269.512 415.605C270.214 415.62 270.915 415.672 271.611 415.762C271.311 415.54 270.967 415.38 270.602 415.291C270.236 415.202 269.855 415.186 269.483 415.244C269.107 415.233 268.733 415.297 268.383 415.433C268.034 415.568 267.716 415.772 267.45 416.031Z" fill="#196B69"/>
<path d="M262.225 346.071C262.225 346.071 257.637 352.155 260.04 361.582C262.444 371.008 270.718 382.972 270.718 382.972C270.718 382.972 262.007 399.64 261.57 402.613C261.133 405.585 274.48 411.947 274.48 411.947C274.48 411.947 290.849 393.427 294.345 385.371C297.841 377.315 285.044 354.878 285.044 354.878L262.225 346.071Z" fill="#196B69"/>
<path d="M309.592 345.738C309.592 345.284 309.592 345.025 309.592 345.025L282.897 352.387L281.092 386.112C281.092 386.112 281.786 397.761 281.178 405.095C280.57 412.428 281.092 428.828 281.092 428.828H298.002C299.237 421.735 301.726 404.909 301.726 404.909C301.726 404.909 309.155 365.48 309.592 358.535C309.821 354.272 309.821 350.001 309.592 345.738Z" fill="#196B69"/>
<path d="M289.86 361.906C289.967 362.075 290.053 362.255 290.117 362.443C290.259 362.795 290.478 363.323 290.734 363.999C291.257 365.369 291.979 367.351 292.777 369.833C293.74 372.741 294.52 375.703 295.114 378.704C295.247 379.556 295.408 380.426 295.465 381.343C295.518 381.801 295.537 382.262 295.522 382.723C295.537 383.203 295.486 383.682 295.371 384.149C294.759 386.014 293.89 387.79 292.786 389.427C290.731 392.582 288.511 395.632 286.136 398.567C283.97 401.28 281.947 403.669 280.227 405.66C278.508 407.651 277.073 409.225 276.076 410.29L274.917 411.586C274.651 411.864 274.499 412.012 274.48 411.994C274.586 411.829 274.707 411.675 274.841 411.531L275.933 410.234L279.952 405.484C281.643 403.474 283.628 401.067 285.775 398.335C287.922 395.603 290.231 392.575 292.368 389.214C293.445 387.622 294.298 385.897 294.905 384.084C295.016 383.651 295.061 383.205 295.038 382.76C295.056 382.312 295.04 381.863 294.99 381.417C294.925 380.548 294.814 379.682 294.658 378.824C294.093 375.838 293.354 372.885 292.444 369.981C291.694 367.49 291.019 365.49 290.544 364.11C290.326 363.462 290.145 362.934 290.012 362.517C289.933 362.322 289.882 362.116 289.86 361.906Z" fill="#455A64"/>
<path d="M277.9 284.557C277.9 284.557 267.678 285.094 263.973 286.585C260.876 287.835 247.044 294.715 247.044 294.715C247.044 294.715 255.432 312.569 255.594 312.263L265.027 307.513L277.9 284.557Z" fill="#28CC9E"/>
<path d="M293.461 231.016C294.577 231.38 295.555 232.065 296.265 232.981C296.976 233.896 297.386 234.999 297.441 236.146C297.441 236.146 297.27 235.785 298.895 235.683C299.591 235.604 300.296 235.666 300.967 235.865C301.637 236.064 302.258 236.396 302.79 236.84C303.74 237.766 305.706 240.544 304.291 242.887C306.704 244.415 304.291 251.777 303.502 253.582C302.4 256.175 301.897 255.999 299.265 257.147C295.028 258.999 294.135 256.509 289.765 255.064C281.643 252.388 273.036 251.517 264.514 250.656C262.614 246.174 265.113 239.859 269.597 237.692C274.081 235.525 278.346 237.09 283.932 234.164C283.913 234.164 289.357 229.979 293.461 231.016Z" fill="black"/>
<path d="M306.923 267.556C306.296 262.296 303.873 255.666 301.498 249.036C299.361 243.072 290.915 238.85 284.892 241.183L268.666 249.471L268.932 252.592L276.086 274.705L278.936 291.937L298.8 289.854L298.506 280.594C301.305 279.806 303.71 278.042 305.262 275.638C306.814 273.234 307.405 270.357 306.923 267.556Z" fill="#FFBF9D"/>
<path d="M301.308 258.62C301.412 258.956 301.375 259.319 301.206 259.63C301.037 259.94 300.749 260.173 300.405 260.277C300.24 260.337 300.064 260.365 299.888 260.357C299.712 260.35 299.539 260.309 299.38 260.235C299.221 260.162 299.078 260.058 298.96 259.93C298.843 259.802 298.753 259.653 298.695 259.49C298.594 259.153 298.631 258.79 298.8 258.478C298.968 258.167 299.254 257.932 299.598 257.823C299.764 257.765 299.94 257.739 300.116 257.748C300.292 257.756 300.465 257.799 300.624 257.873C300.783 257.947 300.925 258.051 301.043 258.179C301.16 258.308 301.25 258.457 301.308 258.62Z" fill="black"/>
<path d="M301.365 254.536C301.27 254.703 300.206 254.944 298.971 255.74C297.736 256.537 297.014 257.453 296.834 257.463C296.653 257.472 296.834 257.24 297.119 256.833C297.585 256.258 298.143 255.761 298.772 255.361C299.37 254.963 300.036 254.671 300.738 254.499C301.204 254.398 301.413 254.453 301.365 254.536Z" fill="black"/>
<path d="M289.727 261.954C289.824 262.296 289.779 262.662 289.601 262.972C289.423 263.282 289.128 263.512 288.777 263.611C288.612 263.67 288.436 263.695 288.259 263.687C288.083 263.679 287.911 263.636 287.751 263.562C287.592 263.488 287.45 263.384 287.332 263.255C287.215 263.127 287.125 262.977 287.067 262.815C286.971 262.472 287.016 262.106 287.194 261.796C287.372 261.486 287.667 261.256 288.017 261.157C288.183 261.097 288.36 261.071 288.536 261.078C288.713 261.086 288.886 261.129 289.045 261.203C289.205 261.277 289.347 261.382 289.464 261.511C289.582 261.64 289.671 261.79 289.727 261.954Z" fill="black"/>
<path d="M288.35 259.13C288.179 259.241 287.124 258.907 285.642 259.018C284.16 259.13 283.087 259.602 282.925 259.518C282.764 259.435 283.011 259.296 283.486 259.083C284.173 258.783 284.91 258.607 285.661 258.565C286.384 258.496 287.113 258.565 287.808 258.768C288.293 258.917 288.445 259.083 288.35 259.13Z" fill="black"/>
<path d="M295.884 266.769C295.884 266.704 295.941 266.63 297.337 266.074C297.698 265.945 298.021 265.797 298.031 265.584C298.04 265.371 297.831 265.102 297.565 264.834L295.912 262.982C294.981 261.989 294.139 260.92 293.395 259.787C293.537 259.704 294.126 260.065 296.444 262.658L298.059 264.51C298.278 264.787 298.62 265.084 298.544 265.547C298.509 265.671 298.448 265.788 298.365 265.888C298.281 265.989 298.177 266.071 298.059 266.13C297.864 266.228 297.661 266.308 297.451 266.371C296.026 266.852 295.884 266.769 295.884 266.769Z" fill="black"/>
<path d="M298.524 280.567C298.524 280.567 293.052 282.511 284.968 280.354C284.968 280.354 287.485 285.567 298.619 283.733L298.524 280.567Z" fill="#FF9A6C"/>
<path d="M286.289 254.212C286.289 254.694 284.921 254.703 283.439 255.212C281.957 255.722 280.864 256.472 280.589 256.138C280.465 255.962 280.589 255.499 281.007 254.971C281.515 254.332 282.206 253.852 282.992 253.592C283.749 253.332 284.57 253.313 285.339 253.536C285.956 253.684 286.308 253.99 286.289 254.212Z" fill="black"/>
<path d="M299.883 250.119C299.76 250.573 298.61 250.545 297.385 250.962C296.159 251.379 295.228 251.999 294.848 251.694C294.677 251.545 294.706 251.119 295.029 250.619C295.452 249.991 296.087 249.527 296.824 249.305C297.556 249.055 298.353 249.055 299.085 249.305C299.646 249.536 299.931 249.897 299.883 250.119Z" fill="black"/>
<path d="M264.78 246.416C264.78 246.416 258.358 248.11 259.413 255.592C259.855 258.702 260.992 261.68 262.746 264.314C264.499 266.948 266.825 269.174 269.559 270.834C273.663 273.084 275.952 272.964 275.952 272.964L276.085 259.722L264.78 246.416Z" fill="black"/>
<path d="M298.952 243.554C297.467 242.123 295.704 240.996 293.766 240.239C291.827 239.483 289.754 239.111 287.666 239.146C283.485 239.241 279.39 240.324 275.734 242.304C272.092 244.274 268.619 246.528 265.35 249.045C264.452 249.535 263.775 250.334 263.45 251.286C263.376 251.952 263.481 252.626 263.754 253.24C265.578 258.586 267.399 263.929 269.217 269.269L271.649 272.205C273.454 271.742 274.622 270.056 275.449 268.408C278.255 262.584 278.667 255.934 276.598 249.823C277.255 250.433 277.809 251.139 278.242 251.916C278.461 252.306 278.773 252.639 279.151 252.887C279.53 253.135 279.964 253.291 280.417 253.342C281.928 253.342 282.678 251.49 282.507 249.999C282.336 248.508 281.652 247.064 282.013 245.628C284.018 247.273 286.38 248.454 288.92 249.082C290.107 249.379 291.599 249.443 292.33 248.48C292.561 248.119 292.683 247.702 292.683 247.277C292.683 246.851 292.561 246.434 292.33 246.073C291.857 245.351 291.247 244.723 290.535 244.221C292.771 245.594 295.369 246.302 298.011 246.258C298.297 246.286 298.586 246.251 298.856 246.155C299.126 246.059 299.37 245.904 299.569 245.702C300.063 245.064 299.531 244.147 298.952 243.554Z" fill="black"/>
<path d="M273.473 265.713C273.292 265.713 266.576 265.667 268.599 271.769C270.623 277.872 276.494 274.631 276.446 274.455C276.399 274.279 273.473 265.713 273.473 265.713Z" fill="#FFBF9D"/>
<path d="M270.832 271.649C270.775 271.535 270.727 271.418 270.69 271.297C270.495 270.779 270.427 270.224 270.49 269.676C270.484 269.467 270.531 269.259 270.627 269.072C270.723 268.884 270.865 268.723 271.041 268.602C271.155 268.532 271.291 268.504 271.424 268.52C271.557 268.537 271.681 268.599 271.773 268.695C271.915 268.843 271.915 268.973 271.953 268.973C271.991 268.973 272.058 268.824 271.953 268.593C271.865 268.453 271.731 268.345 271.573 268.287C271.47 268.244 271.358 268.222 271.245 268.222C271.133 268.222 271.021 268.244 270.918 268.287C270.678 268.419 270.476 268.608 270.331 268.836C270.187 269.065 270.104 269.325 270.091 269.593C269.995 270.216 270.06 270.853 270.281 271.445C270.429 271.998 270.742 272.497 271.179 272.877C271.617 273.258 272.161 273.504 272.742 273.584C272.926 273.58 273.107 273.535 273.272 273.453C273.436 273.371 273.58 273.255 273.692 273.112C273.834 272.899 273.825 272.751 273.796 272.741C273.768 272.732 273.711 272.853 273.559 272.991C273.334 273.185 273.041 273.285 272.742 273.269C272.312 273.173 271.914 272.975 271.583 272.692C271.251 272.409 270.997 272.051 270.842 271.649" fill="#FF9A6C"/>
<path d="M296.045 269.64L291.143 268.464C291.079 268.436 291.009 268.421 290.939 268.421C290.868 268.421 290.799 268.436 290.735 268.464C290.659 268.525 290.608 268.61 290.592 268.704C290.442 269.226 290.442 269.779 290.591 270.301C290.74 270.823 291.033 271.296 291.438 271.668C291.821 272.012 292.299 272.241 292.813 272.327C293.327 272.412 293.856 272.35 294.335 272.149C294.83 271.917 295.25 271.559 295.551 271.112C295.853 270.665 296.023 270.146 296.045 269.612V269.64Z" fill="#FF9A6C"/>
<path d="M273.787 245.878C273.787 245.878 273.787 245.878 273.834 245.943L273.948 246.156L274.347 246.971C274.814 247.99 275.18 249.051 275.44 250.138C275.844 251.757 275.911 253.438 275.639 255.083C275.506 256.07 275.109 257.005 274.49 257.796C274.141 258.205 273.694 258.523 273.188 258.722C272.664 258.935 272.084 258.974 271.535 258.833C270.907 258.638 270.343 258.283 269.901 257.805C269.481 257.37 269.106 256.895 268.78 256.389H268.932C268.438 257.092 268.105 257.861 267.697 258.555C267.337 259.244 266.809 259.836 266.158 260.278C265.863 260.48 265.526 260.614 265.171 260.672C264.816 260.73 264.452 260.709 264.106 260.611C263.52 260.431 263.006 260.078 262.633 259.602C262.334 259.213 262.126 258.763 262.025 258.287C261.947 257.937 261.915 257.579 261.931 257.222C261.931 256.926 261.931 256.703 261.988 256.555C261.994 256.476 262.013 256.398 262.045 256.324C262.045 256.324 262.045 256.407 262.045 256.555C262.031 256.777 262.031 257 262.045 257.222C262.044 257.575 262.088 257.926 262.178 258.268C262.282 258.727 262.49 259.157 262.786 259.528C263.149 259.974 263.648 260.298 264.211 260.454C264.532 260.538 264.869 260.553 265.197 260.497C265.526 260.441 265.837 260.316 266.111 260.13C266.736 259.691 267.244 259.113 267.592 258.444C267.982 257.759 268.315 256.981 268.818 256.259C268.826 256.251 268.836 256.244 268.846 256.24C268.857 256.235 268.868 256.233 268.88 256.233C268.891 256.233 268.903 256.235 268.913 256.24C268.924 256.244 268.934 256.251 268.942 256.259C269.264 256.754 269.633 257.219 270.043 257.648C270.464 258.098 270.998 258.433 271.592 258.62C272.103 258.749 272.643 258.713 273.131 258.518C273.605 258.324 274.025 258.022 274.357 257.639C274.958 256.872 275.345 255.965 275.478 255.009C275.761 253.388 275.706 251.728 275.316 250.129C275.072 249.042 274.728 247.979 274.29 246.953C274.129 246.591 274.015 246.314 273.92 246.128L273.825 245.906L273.787 245.878Z" fill="#455A64"/>
<path d="M289.975 237.313C289.975 237.313 289.975 237.406 289.975 237.572C290.038 237.804 290.174 238.012 290.364 238.165C290.602 238.387 290.944 238.591 291.314 238.906C291.508 239.072 291.658 239.282 291.751 239.517C291.843 239.792 291.819 240.092 291.685 240.35C291.546 240.635 291.32 240.871 291.039 241.026C290.743 241.192 290.422 241.31 290.089 241.378C289.365 241.526 288.632 241.622 287.894 241.665C286.198 241.757 284.499 241.566 282.869 241.1C282.186 240.905 281.519 240.661 280.874 240.369L281.007 240.285C281.06 241.017 281.04 241.752 280.95 242.48C280.848 243.156 280.566 243.795 280.133 244.332C279.739 244.834 279.159 245.166 278.518 245.258C277.974 245.305 277.428 245.202 276.941 244.962C276.544 244.765 276.182 244.509 275.867 244.202C275.631 243.98 275.412 243.742 275.212 243.489L274.832 243.017C274.746 242.906 274.708 242.841 274.718 242.841L274.86 242.999L275.259 243.452C275.732 244.028 276.321 244.503 276.988 244.851C277.457 245.073 277.98 245.166 278.499 245.119C279.097 245.033 279.638 244.724 280.009 244.258C280.425 243.737 280.688 243.116 280.769 242.462C280.846 241.744 280.846 241.021 280.769 240.304C280.769 240.279 280.779 240.256 280.797 240.238C280.815 240.221 280.839 240.211 280.864 240.211C283.039 241.169 285.416 241.61 287.799 241.499C288.53 241.456 289.256 241.366 289.975 241.23C290.308 241.174 290.629 241.064 290.925 240.906C291.183 240.766 291.392 240.553 291.523 240.295C291.588 240.183 291.628 240.06 291.641 239.932C291.654 239.805 291.64 239.676 291.599 239.554C291.515 239.334 291.378 239.137 291.2 238.98C290.877 238.665 290.535 238.452 290.25 238.211C290.054 238.045 289.921 237.82 289.87 237.572C289.86 237.508 289.86 237.442 289.87 237.378C289.898 237.347 289.934 237.325 289.975 237.313Z" fill="#455A64"/>
<path d="M257.342 245.137C257.295 244.823 257.656 244.452 258.359 244.211C259.273 243.971 260.238 243.98 261.148 244.238C262.058 244.496 262.877 244.993 263.517 245.674C263.983 246.23 264.087 246.739 263.869 246.98C263.384 247.48 262.026 246.98 260.458 246.554C258.891 246.128 257.475 245.832 257.342 245.137Z" fill="black"/>
<path d="M264.23 247.582C263.65 247.915 262.33 246.776 261.779 244.869C261.228 242.961 261.674 241.322 262.349 241.294C263.023 241.267 263.669 242.6 264.154 244.193C264.638 245.785 264.828 247.249 264.23 247.582Z" fill="black"/>
<path d="M295.589 271.51C295.404 271.793 295.156 272.032 294.863 272.208C294.57 272.385 294.24 272.494 293.898 272.528C293.143 272.675 292.359 272.529 291.713 272.121C291.32 271.876 290.987 271.552 290.734 271.17C290.482 270.788 290.317 270.357 290.25 269.908C290.196 269.654 290.203 269.392 290.27 269.141C290.338 268.89 290.464 268.658 290.639 268.463C290.749 268.381 290.875 268.322 291.008 268.289C291.142 268.255 291.282 268.248 291.418 268.269C291.634 268.293 291.847 268.336 292.055 268.398C292.843 268.593 293.537 268.797 294.107 268.991C294.747 269.16 295.358 269.419 295.921 269.76C295.274 269.675 294.637 269.526 294.021 269.315C293.432 269.167 292.739 269 291.96 268.824C291.57 268.741 291.162 268.639 290.962 268.824C290.855 268.972 290.781 269.139 290.745 269.317C290.709 269.494 290.712 269.676 290.753 269.852C290.807 270.24 290.942 270.612 291.15 270.946C291.358 271.281 291.633 271.57 291.96 271.797C292.518 272.161 293.193 272.315 293.86 272.232C294.48 272.106 295.068 271.861 295.589 271.51Z" fill="black"/>
<path d="M317.468 295.179L329.533 309.374L338.358 302.346L347.003 308.458C347.003 308.458 333.399 323.024 325.904 324.542C317.705 326.209 307.141 302.077 307.141 302.077L317.468 295.179Z" fill="#FFBF9D"/>
<path d="M264.002 297.577L259.85 347.192C259.85 347.192 274.043 358.674 290.393 356.452C306.742 354.229 311.701 344.34 311.701 344.34C311.701 344.34 310.523 324.357 310.238 317.004C309.896 308.078 310.4 288.9 310.4 288.9L298.696 284.465C298.696 284.465 293.509 290.447 286.963 289.567C285.134 289.382 283.367 288.819 281.78 287.915C280.192 287.011 278.821 285.787 277.758 284.326L270.253 285.863L264.002 297.577Z" fill="#28CC9E"/>
<path d="M306.172 288.234C306.172 288.234 311.245 287.845 316.251 292.299C317.781 293.66 329.019 308.18 329.019 308.18L314.228 317.301L302.191 299.049L306.172 288.234Z" fill="#28CC9E"/>
<path d="M263.356 296.642C263.498 296.642 263.356 301.753 263.042 308.05C262.729 314.347 262.377 319.449 262.235 319.44C262.092 319.43 262.235 314.328 262.548 308.031C262.862 301.735 263.223 296.632 263.356 296.642Z" fill="#196B69"/>
<path d="M309.744 297.919C310.058 300.953 310.204 304.001 310.181 307.05C310.33 310.098 310.311 313.152 310.124 316.199C309.816 313.162 309.67 310.111 309.687 307.059C309.544 304.014 309.563 300.963 309.744 297.919Z" fill="#196B69"/>
</g>
<defs>
<clipPath id="clip0_4215_2252">
<rect width="475" height="463" fill="white" transform="translate(48 32)"/>
</clipPath>
</defs>
</svg>
