<svg width="750" height="750" viewBox="0 0 750 750" fill="none" xmlns="http://www.w3.org/2000/svg">
<path d="M750 573.6H0V573.975H750V573.6Z" fill="#EBEBEB"/>
<path d="M473.505 583.815H435.315V584.19H473.505V583.815Z" fill="#EBEBEB"/>
<path d="M683.16 591.93H592.665V592.305H683.16V591.93Z" fill="#EBEBEB"/>
<path d="M427.185 583.995H333.69V584.37H427.185V583.995Z" fill="#EBEBEB"/>
<path d="M273.06 595.215H253.5V595.59H273.06V595.215Z" fill="#EBEBEB"/>
<path d="M381.135 595.215H292.065V595.59H381.135V595.215Z" fill="#EBEBEB"/>
<path d="M136.365 588.885H78.6904V589.26H136.365V588.885Z" fill="#EBEBEB"/>
<path d="M355.5 506.7H65.8654C63.5965 506.696 61.4218 505.792 59.8188 504.186C58.2157 502.58 57.3154 500.404 57.3154 498.135V90.99C57.3352 88.734 58.2442 86.577 59.8451 84.9873C61.446 83.3977 63.6094 82.5039 65.8654 82.5H355.5C357.772 82.5 359.951 83.4024 361.557 85.0086C363.163 86.6149 364.065 88.7934 364.065 91.065V498.135C364.065 500.407 363.163 502.585 361.557 504.191C359.951 505.798 357.772 506.7 355.5 506.7ZM65.8654 82.8C63.6959 82.804 61.6166 83.6686 60.0839 85.2041C58.5512 86.7396 57.6904 88.8205 57.6904 90.99V498.135C57.6904 500.305 58.5512 502.385 60.0839 503.921C61.6166 505.456 63.6959 506.321 65.8654 506.325H355.5C357.671 506.321 359.752 505.457 361.287 503.922C362.822 502.387 363.686 500.306 363.69 498.135V90.99C363.686 88.8191 362.822 86.7382 361.287 85.2032C359.752 83.6681 357.671 82.804 355.5 82.8H65.8654Z" fill="#EBEBEB"/>
<path d="M679.965 506.7H390.315C388.045 506.696 385.868 505.792 384.263 504.187C382.658 502.582 381.754 500.405 381.75 498.135V90.99C381.774 88.7327 382.686 86.5756 384.289 84.9864C385.893 83.3972 388.058 82.5038 390.315 82.5H679.965C682.218 82.5078 684.378 83.4034 685.976 84.9926C687.573 86.5818 688.48 88.7366 688.5 90.99V498.135C688.5 500.401 687.602 502.575 686.002 504.181C684.402 505.786 682.231 506.692 679.965 506.7ZM390.315 82.8C388.144 82.804 386.063 83.6681 384.528 85.2032C382.993 86.7382 382.129 88.8191 382.125 90.99V498.135C382.129 500.306 382.993 502.387 384.528 503.922C386.063 505.457 388.144 506.321 390.315 506.325H679.965C682.136 506.321 684.217 505.457 685.752 503.922C687.287 502.387 688.151 500.306 688.155 498.135V90.99C688.151 88.8191 687.287 86.7382 685.752 85.2032C684.217 83.6681 682.136 82.804 679.965 82.8H390.315Z" fill="#EBEBEB"/>
<path d="M293.94 443.505H194.34L188.295 373.755H287.895L293.94 443.505Z" fill="#E6E6E6"/>
<path d="M299.1 443.505H199.5L193.455 373.755H293.055L299.1 443.505Z" fill="#F0F0F0"/>
<path d="M213.12 428.52L209.79 388.725H279.435L282.765 428.52H213.12Z" fill="white"/>
<path d="M316.335 443.505H304.65V573.6H316.335V443.505Z" fill="#E6E6E6"/>
<path d="M320.025 443.505H311.91V573.6H320.025V443.505Z" fill="#F0F0F0"/>
<path d="M206.91 457.86H320.025V443.505H206.91V457.86Z" fill="#F0F0F0"/>
<path d="M210.9 457.86H199.215V573.6H210.9V457.86Z" fill="#E6E6E6"/>
<path d="M214.59 457.86H206.475V573.6H214.59V457.86Z" fill="#F0F0F0"/>
<path d="M127.725 457.86H116.04V573.6H127.725V457.86Z" fill="#E6E6E6"/>
<path d="M131.415 457.86H123.3V573.6H131.415V457.86Z" fill="#F0F0F0"/>
<path d="M242.385 457.86H230.7V573.6H242.385V457.86Z" fill="#E6E6E6"/>
<path d="M246.06 457.86H237.945V573.6H246.06V457.86Z" fill="#F0F0F0"/>
<path d="M206.91 443.505H116.04V457.86H206.91V443.505Z" fill="#E6E6E6"/>
<path d="M545.76 119.115H194.265V314.805H545.76V119.115Z" fill="#E0E0E0"/>
<path d="M565.065 119.115H196.035V314.805H565.065V119.115Z" fill="#F5F5F5"/>
<path d="M559.035 308.775V125.145L202.065 125.145V308.775H559.035Z" fill="white"/>
<path d="M346.605 308.775L414 125.145H302.775L235.38 308.775H346.605Z" fill="#F5F5F5"/>
<path d="M453.66 308.775L521.055 125.145H437.145L369.75 308.775H453.66Z" fill="#F5F5F5"/>
<path d="M657.165 386.7H627.285V573.6H657.165V386.7Z" fill="#E6E6E6"/>
<path d="M649.305 573.6H657.165V559.215H641.07L649.305 573.6Z" fill="#FAFAFA"/>
<path d="M381.675 386.7H351.795V573.6H381.675V386.7Z" fill="#E6E6E6"/>
<path d="M657.165 386.7H374.82V569.715H657.165V386.7Z" fill="#FAFAFA"/>
<path d="M651.825 445.755H380.175V394.065H651.825V445.755ZM381.675 444.255H650.325V395.565H381.675V444.255Z" fill="#E6E6E6"/>
<path d="M604.005 419.16H433.26C425.34 419.16 417.705 412.77 412.26 401.61L411.75 400.545H625.5L624.99 401.61C619.5 412.77 612 419.16 604.005 419.16ZM414.21 402C419.28 411.945 426.21 417.615 433.26 417.615H604.005C611.085 417.615 617.985 411.945 623.055 402H414.21Z" fill="#E6E6E6"/>
<path d="M382.68 573.6H374.82V559.215H390.915L382.68 573.6Z" fill="#FAFAFA"/>
<path d="M651.825 504H380.175V452.37H651.825V504ZM381.675 502.5H650.325V453.87H381.675V502.5Z" fill="#E6E6E6"/>
<path d="M604.005 477.465H433.26C425.34 477.465 417.705 471.06 412.26 459.915L411.75 458.835H625.5L624.99 459.915C619.5 471 612 477.465 604.005 477.465ZM414.21 460.335C419.28 470.28 426.21 475.965 433.26 475.965H604.005C611.085 475.965 617.985 470.28 623.055 460.335H414.21Z" fill="#E6E6E6"/>
<path d="M651.825 562.35H380.175V510.66H651.825V562.35ZM381.675 560.85H650.325V512.16H381.675V560.85Z" fill="#E6E6E6"/>
<path d="M604.005 535.755H433.26C425.34 535.755 417.705 529.365 412.26 518.22L411.75 517.14H625.5L624.99 518.22C619.5 529.365 612 535.755 604.005 535.755ZM414.21 518.64C419.28 528.585 426.21 534.255 433.26 534.255H604.005C611.085 534.255 617.985 528.585 623.055 518.64H414.21Z" fill="#E6E6E6"/>
<path d="M181.47 411.42V415.05H179.16L177.24 443.505H148.98L147.075 415.05H144.75V411.42H181.47Z" fill="#E6E6E6"/>
<path d="M172.17 340.815C169.86 323.865 146.985 319.035 117.96 318.405C90.3451 317.82 81.4951 308.055 81.4951 308.055C81.4951 308.055 81.5851 347.61 121.38 361.95C159.165 375.54 174.495 357.795 172.17 340.815Z" fill="#E6E6E6"/>
<path d="M158.07 379.23C158.55 372.27 169.68 359.46 196.455 365.28C215.805 369.495 223.005 359.46 223.005 359.46C223.005 359.46 221.205 387.78 192.105 396.285C164.46 404.37 157.215 391.5 158.07 379.23Z" fill="#E6E6E6"/>
<path d="M164.175 422.1C164.326 422.102 164.475 422.07 164.612 422.008C164.75 421.946 164.872 421.854 164.97 421.74C166.905 419.445 165.315 413.955 163.125 406.35C160.305 396.6 156.795 384.45 159.765 375.645C161.411 370.994 163.335 366.446 165.525 362.025C169.725 353.145 173.355 345.525 170.325 337.455C170.278 337.327 170.206 337.209 170.112 337.109C170.019 337.008 169.907 336.927 169.783 336.871C169.658 336.814 169.524 336.783 169.387 336.778C169.25 336.774 169.114 336.796 168.986 336.845C168.858 336.894 168.741 336.967 168.642 337.061C168.543 337.155 168.463 337.268 168.408 337.393C168.352 337.518 168.322 337.653 168.319 337.79C168.316 337.927 168.34 338.063 168.39 338.19C171.105 345.375 167.82 352.335 163.65 361.155C161.432 365.647 159.479 370.265 157.8 374.985C154.635 384.405 158.235 396.9 161.13 406.92C162.84 412.92 164.61 418.92 163.395 420.42C163.299 420.524 163.225 420.646 163.178 420.78C163.132 420.913 163.114 421.055 163.125 421.196C163.136 421.338 163.177 421.475 163.244 421.599C163.311 421.724 163.403 421.833 163.515 421.92C163.707 422.057 163.941 422.12 164.175 422.1Z" fill="#E6E6E6"/>
<path d="M375 641.34C535.624 641.34 665.835 633.738 665.835 624.36C665.835 614.982 535.624 607.38 375 607.38C214.376 607.38 84.165 614.982 84.165 624.36C84.165 633.738 214.376 641.34 375 641.34Z" fill="#F5F5F5"/>
<path d="M374.94 541.575H161.94L150.285 199.02H363.285L374.94 541.575Z" fill="#196B69"/>
<path d="M385.575 530.94H172.575L160.905 188.385H373.905L385.575 530.94Z" fill="#196B69"/>
<path opacity="0.3" d="M385.575 530.94H172.575L160.905 188.385H373.905L385.575 530.94Z" fill="white"/>
<path d="M314.209 329.346C337.015 306.146 336.045 268.211 312.042 244.615C288.038 221.018 250.092 220.697 227.286 243.897C204.479 267.097 205.45 305.032 229.453 328.628C253.456 352.224 291.403 352.546 314.209 329.346Z" fill="#196B69"/>
<path d="M320.206 286.635C320.512 294.797 318.731 302.903 315.031 310.185C311.036 318.032 304.935 324.612 297.41 329.185C289.886 333.758 281.236 336.144 272.431 336.075C263.419 336.026 254.578 333.609 246.795 329.064C239.013 324.52 232.562 318.009 228.091 310.185C223.921 303.015 221.592 294.924 221.311 286.635C221.034 280.208 222.067 273.791 224.347 267.775C226.626 261.759 230.105 256.27 234.572 251.64C239.039 247.01 244.401 243.337 250.331 240.844C256.262 238.35 262.637 237.088 269.071 237.135C282.323 237.229 295.031 242.424 304.553 251.642C314.076 260.86 319.681 273.392 320.206 286.635Z" fill="white"/>
<path opacity="0.6" d="M315.001 310.185C311.007 318.032 304.905 324.612 297.38 329.185C289.856 333.758 281.206 336.144 272.401 336.075C263.389 336.026 254.548 333.609 246.765 329.064C238.983 324.52 232.532 318.009 228.061 310.185C240.746 301.536 255.757 296.939 271.111 297C286.711 297.034 301.964 301.616 315.001 310.185Z" fill="#196B69"/>
<path opacity="0.6" d="M286.158 285.402C294.544 276.871 294.187 262.921 285.361 254.245C276.535 245.569 262.581 245.45 254.195 253.981C245.809 262.512 246.166 276.461 254.992 285.138C263.818 293.814 277.771 293.932 286.158 285.402Z" fill="#196B69"/>
<path d="M342.78 406.89H206.91L205.995 379.89H341.865L342.78 406.89Z" fill="white"/>
<path d="M344.43 455.145H208.545L207.63 428.145H343.515L344.43 455.145Z" fill="white"/>
<path d="M291.99 431.865L259.245 436.365C258.933 436.401 258.631 436.5 258.359 436.658C258.087 436.816 257.851 437.028 257.665 437.282C257.479 437.536 257.348 437.825 257.279 438.132C257.21 438.439 257.206 438.756 257.265 439.065L261.57 461.01C261.711 461.654 262.088 462.222 262.627 462.602C263.165 462.983 263.826 463.148 264.48 463.065L297.225 458.565C297.537 458.526 297.837 458.423 298.108 458.262C298.378 458.102 298.613 457.888 298.797 457.634C298.981 457.379 299.111 457.09 299.179 456.783C299.246 456.476 299.25 456.158 299.19 455.85L294.9 433.905C294.76 433.262 294.382 432.696 293.843 432.318C293.304 431.94 292.643 431.778 291.99 431.865ZM282.585 454.095L276.585 454.89L276 447.81C275.382 447.543 274.837 447.131 274.412 446.608C273.986 446.086 273.693 445.469 273.555 444.81C273.445 444.299 273.443 443.771 273.55 443.259C273.657 442.748 273.87 442.264 274.175 441.84C274.481 441.416 274.872 441.06 275.323 440.797C275.774 440.533 276.276 440.368 276.795 440.31C277.861 440.173 278.939 440.44 279.817 441.06C280.694 441.679 281.308 442.605 281.535 443.655C281.665 444.289 281.626 444.946 281.42 445.56C281.215 446.174 280.851 446.722 280.365 447.15L282.585 454.095Z" fill="#196B69"/>
<path d="M288.75 430.68C288.171 430.754 287.586 430.608 287.108 430.273C286.631 429.937 286.296 429.435 286.17 428.865L285.75 426.72C285.151 423.793 283.51 421.182 281.132 419.373C278.755 417.563 275.801 416.678 272.82 416.88C271.316 416.966 269.848 417.374 268.515 418.078C267.183 418.781 266.017 419.763 265.098 420.957C264.179 422.151 263.527 423.529 263.188 424.997C262.848 426.465 262.829 427.989 263.13 429.465L263.61 431.94C263.666 432.214 263.664 432.497 263.604 432.771C263.545 433.044 263.428 433.302 263.263 433.528C263.098 433.754 262.887 433.943 262.645 434.083C262.402 434.222 262.133 434.31 261.855 434.34C261.275 434.421 260.686 434.278 260.207 433.941C259.728 433.605 259.395 433.098 259.275 432.525L258.87 430.44C258.458 428.491 258.445 426.48 258.83 424.526C259.215 422.572 259.992 420.716 261.113 419.069C262.234 417.423 263.676 416.02 265.353 414.945C267.029 413.871 268.906 413.146 270.87 412.815C275.129 412.1 279.499 413.052 283.074 415.474C286.649 417.895 289.154 421.6 290.07 425.82L290.55 428.28C290.606 428.558 290.603 428.844 290.54 429.12C290.478 429.397 290.358 429.657 290.188 429.883C290.018 430.11 289.802 430.298 289.554 430.435C289.306 430.573 289.032 430.656 288.75 430.68Z" fill="#196B69"/>
<path d="M322.005 492.96H233.55L232.965 475.38H321.405L322.005 492.96Z" fill="#196B69"/>
<path d="M279.33 393.39C279.357 394.031 279.253 394.671 279.025 395.271C278.796 395.871 278.449 396.418 278.003 396.879C277.557 397.341 277.022 397.707 276.43 397.955C275.838 398.204 275.202 398.33 274.56 398.325C273.238 398.315 271.97 397.797 271.018 396.879C270.066 395.96 269.503 394.711 269.445 393.39C269.419 392.749 269.523 392.109 269.751 391.509C269.98 390.909 270.327 390.362 270.773 389.901C271.219 389.439 271.754 389.073 272.346 388.825C272.938 388.576 273.574 388.45 274.215 388.455C275.539 388.462 276.809 388.978 277.762 389.897C278.715 390.816 279.276 392.067 279.33 393.39Z" fill="#263238"/>
<path d="M258 393.39C258.029 394.032 257.926 394.673 257.699 395.273C257.471 395.874 257.124 396.422 256.677 396.884C256.231 397.346 255.695 397.712 255.102 397.96C254.509 398.207 253.872 398.332 253.23 398.325C251.909 398.315 250.642 397.796 249.693 396.878C248.744 395.959 248.184 394.71 248.13 393.39C248.104 392.749 248.208 392.109 248.436 391.509C248.664 390.909 249.012 390.362 249.458 389.901C249.904 389.439 250.439 389.073 251.031 388.825C251.622 388.576 252.258 388.45 252.9 388.455C254.222 388.462 255.491 388.979 256.441 389.898C257.391 390.818 257.95 392.069 258 393.39Z" fill="#263238"/>
<path d="M236.805 393.39C236.831 394.031 236.727 394.671 236.499 395.271C236.271 395.871 235.923 396.418 235.477 396.879C235.031 397.341 234.496 397.707 233.904 397.955C233.312 398.204 232.676 398.33 232.035 398.325C230.712 398.318 229.444 397.801 228.494 396.882C227.543 395.962 226.985 394.711 226.935 393.39C226.908 392.749 227.012 392.109 227.241 391.509C227.469 390.909 227.816 390.362 228.262 389.901C228.709 389.439 229.244 389.073 229.835 388.825C230.427 388.576 231.063 388.45 231.705 388.455C233.027 388.462 234.295 388.979 235.246 389.898C236.196 390.818 236.754 392.069 236.805 393.39Z" fill="#263238"/>
<path d="M300.585 393.39C300.611 394.031 300.507 394.671 300.279 395.271C300.051 395.871 299.703 396.418 299.257 396.879C298.811 397.341 298.276 397.707 297.684 397.955C297.093 398.204 296.457 398.33 295.815 398.325C294.493 398.318 293.224 397.801 292.274 396.882C291.324 395.962 290.765 394.711 290.715 393.39C290.692 392.751 290.8 392.113 291.031 391.517C291.262 390.921 291.612 390.377 292.06 389.92C292.507 389.463 293.043 389.101 293.634 388.857C294.225 388.613 294.86 388.492 295.5 388.5C296.812 388.51 298.07 389.023 299.016 389.932C299.962 390.842 300.523 392.079 300.585 393.39Z" fill="#263238"/>
<path d="M321.84 393.39C321.868 394.032 321.766 394.673 321.538 395.273C321.311 395.874 320.963 396.422 320.517 396.884C320.07 397.346 319.535 397.712 318.942 397.96C318.349 398.207 317.712 398.332 317.07 398.325C315.749 398.315 314.482 397.796 313.533 396.878C312.583 395.959 312.024 394.71 311.97 393.39C311.943 392.749 312.047 392.109 312.276 391.509C312.504 390.909 312.852 390.362 313.298 389.901C313.744 389.439 314.279 389.073 314.87 388.825C315.462 388.576 316.098 388.45 316.74 388.455C318.062 388.462 319.331 388.979 320.281 389.898C321.231 390.818 321.79 392.069 321.84 393.39Z" fill="#263238"/>
<path d="M500.865 261.42C502.86 264.63 504.525 267.69 506.235 270.885C507.945 274.08 509.49 277.29 511.005 280.575C514.096 287.227 516.654 294.113 518.655 301.17C518.925 302.055 519.12 303 519.345 303.915L519.675 305.31L519.84 306L520.035 307.14C520.373 309.726 520.215 312.353 519.57 314.88C518.534 318.804 516.959 322.564 514.89 326.055C511.188 332.398 506.714 338.258 501.57 343.5L495.255 338.73C498.425 332.903 501.245 326.892 503.7 320.73C504.794 318.015 505.564 315.18 505.995 312.285C506.133 311.401 506.092 310.498 505.875 309.63L505.275 307.8C505.035 307.05 504.81 306.3 504.525 305.535C502.243 299.347 499.604 293.297 496.62 287.415C493.62 281.415 490.395 275.415 487.17 269.685L500.865 261.42Z" fill="#FF8B7B"/>
<path d="M496.86 336.645L489.96 340.29L497.88 349.56C497.88 349.56 502.83 346.215 503.055 341.115L496.86 336.645Z" fill="#FF8B7B"/>
<path d="M480.705 346.005L489.18 352.74L497.88 349.56L489.96 340.29L480.705 346.005Z" fill="#FF8B7B"/>
<path d="M451.725 212.34C451.56 213.18 450.975 213.765 450.435 213.66C449.895 213.555 449.58 212.775 449.745 211.95C449.91 211.125 450.495 210.45 451.05 210.63C451.605 210.81 451.89 211.5 451.725 212.34Z" fill="#263238"/>
<path d="M451.05 213.78C449.54 216.13 447.712 218.26 445.62 220.11C446.114 220.622 446.713 221.021 447.376 221.28C448.039 221.539 448.75 221.652 449.46 221.61L451.05 213.78Z" fill="#FF5652"/>
<path d="M448.351 243.21V233.37L461.371 234.87C461.371 234.87 461.161 243.33 453.871 245.82L448.351 243.21Z" fill="#FF8B7B"/>
<path d="M452.1 226.29L461.265 228.93L461.43 234.945L448.41 233.37L452.1 226.29Z" fill="#FF8B7B"/>
<path opacity="0.2" d="M461.265 228.93L452.1 226.29L450.315 229.71C450.413 232.405 451.255 235.02 452.748 237.265C454.242 239.511 456.328 241.298 458.775 242.43C460.35 240.23 461.271 237.63 461.43 234.93L461.265 228.93Z" fill="black"/>
<path d="M455.716 208.335C455.812 208.332 455.905 208.303 455.985 208.249C456.065 208.196 456.129 208.121 456.168 208.033C456.207 207.945 456.221 207.848 456.207 207.753C456.193 207.658 456.153 207.568 456.091 207.495C455.564 206.9 454.902 206.44 454.161 206.153C453.42 205.866 452.621 205.76 451.831 205.845C451.702 205.867 451.586 205.939 451.51 206.046C451.435 206.153 451.404 206.286 451.426 206.415C451.448 206.545 451.52 206.662 451.626 206.74C451.732 206.818 451.865 206.852 451.996 206.835C452.622 206.774 453.253 206.863 453.838 207.095C454.422 207.327 454.943 207.696 455.356 208.17C455.402 208.22 455.457 208.261 455.519 208.289C455.581 208.317 455.648 208.333 455.716 208.335Z" fill="#263238"/>
<path d="M474.885 227.52C473.385 235.245 472.455 245.94 477.885 251.085C477.885 251.085 475.785 258.915 461.385 258.915C445.62 258.915 453.81 252.045 453.81 252.045C460.365 250.005 460.305 242.55 458.805 236.55L474.885 227.52Z" fill="#FF8B7B"/>
<path d="M480.811 256.245C482.221 254.265 482.161 247.98 480.661 246.87C478.246 245.085 467.881 244.665 453.946 247.875C455.446 253.965 452.221 257.145 452.221 257.145L480.811 256.245Z" fill="#196B69"/>
<path d="M527.701 612.36C527.272 612.511 526.819 612.575 526.366 612.549C525.912 612.524 525.469 612.408 525.061 612.21C524.906 612.066 524.8 611.878 524.757 611.671C524.714 611.464 524.736 611.249 524.821 611.055C524.868 610.893 524.95 610.743 525.061 610.616C525.173 610.489 525.311 610.388 525.466 610.32C526.891 609.63 530.161 610.965 530.311 611.025C530.355 611.043 530.394 611.074 530.42 611.114C530.447 611.155 530.461 611.202 530.461 611.25C530.46 611.298 530.448 611.345 530.424 611.387C530.4 611.429 530.367 611.465 530.326 611.49C529.48 611.862 528.601 612.153 527.701 612.36ZM525.976 610.665C525.877 610.688 525.781 610.724 525.691 610.77C525.597 610.804 525.513 610.86 525.445 610.933C525.377 611.006 525.328 611.094 525.301 611.19C525.166 611.64 525.301 611.79 525.391 611.835C525.961 612.315 528.061 611.835 529.546 611.28C528.416 610.813 527.196 610.602 525.976 610.665Z" fill="#196B69"/>
<path d="M530.265 611.505H530.145C528.945 611.16 526.395 609.345 526.365 608.16C526.364 607.972 526.427 607.789 526.545 607.641C526.662 607.494 526.826 607.391 527.01 607.35C527.188 607.283 527.379 607.257 527.568 607.273C527.757 607.288 527.941 607.345 528.105 607.44C529.515 608.16 530.415 611.07 530.445 611.205C530.466 611.241 530.477 611.283 530.477 611.325C530.477 611.367 530.466 611.408 530.445 611.445C530.422 611.468 530.394 611.486 530.362 611.496C530.331 611.507 530.298 611.51 530.265 611.505ZM527.265 607.77H527.145C526.845 607.875 526.845 608.025 526.845 608.1C526.845 608.805 528.555 610.23 529.845 610.8C529.53 609.96 528.84 608.295 527.925 607.8C527.722 607.708 527.491 607.697 527.28 607.77H527.265Z" fill="#196B69"/>
<path d="M449.79 614.13C448.44 614.13 447.135 613.935 446.7 613.335C446.586 613.175 446.525 612.984 446.525 612.787C446.525 612.591 446.586 612.4 446.7 612.24C446.786 612.093 446.9 611.966 447.037 611.865C447.174 611.765 447.33 611.693 447.495 611.655C449.25 611.175 452.94 613.275 453.09 613.365C453.136 613.387 453.173 613.425 453.195 613.471C453.217 613.518 453.222 613.57 453.21 613.62C453.205 613.671 453.183 613.719 453.147 613.757C453.112 613.795 453.066 613.821 453.015 613.83C451.951 614.025 450.872 614.126 449.79 614.13ZM448.125 612.075C447.966 612.049 447.804 612.049 447.645 612.075C447.544 612.096 447.447 612.137 447.362 612.197C447.277 612.256 447.205 612.332 447.15 612.42C446.97 612.735 447.045 612.885 447.15 612.975C447.645 613.665 450.3 613.68 452.265 613.395C450.982 612.694 449.577 612.246 448.125 612.075Z" fill="#196B69"/>
<path d="M453 613.83H452.895C451.62 613.26 449.1 610.98 449.295 609.78C449.295 609.495 449.535 609.15 450.225 609.09C450.471 609.061 450.721 609.083 450.959 609.156C451.196 609.228 451.416 609.349 451.605 609.51C452.566 610.659 453.143 612.081 453.255 613.575C453.254 613.618 453.245 613.66 453.227 613.699C453.209 613.738 453.182 613.772 453.15 613.8C453.104 613.824 453.052 613.834 453 613.83ZM450.42 609.555H450.27C449.82 609.555 449.79 609.765 449.79 609.825C449.67 610.545 451.38 612.345 452.685 613.125C452.57 611.921 452.083 610.783 451.29 609.87C451.043 609.66 450.729 609.548 450.405 609.555H450.42Z" fill="#196B69"/>
<path d="M464.58 613.59H454.035L452.985 589.155H463.53L464.58 613.59Z" fill="#FF8B7B"/>
<path d="M542.025 608.7L531.72 610.935L521.355 588.18L531.675 585.945L542.025 608.7Z" fill="#FF8B7B"/>
<path d="M530.716 609.9L542.311 607.395C542.513 607.352 542.725 607.379 542.91 607.472C543.095 607.564 543.243 607.717 543.331 607.905L547.351 616.635C547.458 616.846 547.513 617.08 547.512 617.317C547.512 617.554 547.455 617.787 547.347 617.998C547.238 618.209 547.082 618.391 546.889 618.529C546.697 618.668 546.475 618.759 546.241 618.795C542.191 619.59 540.166 619.785 535.081 620.88C531.946 621.57 524.866 623.295 520.531 624.225C516.196 625.155 514.711 621 516.406 620.235C523.981 616.77 527.131 613.725 529.186 610.89C529.557 610.384 530.102 610.032 530.716 609.9Z" fill="#263238"/>
<path d="M454.111 612.36H465.631C465.84 612.361 466.042 612.433 466.206 612.564C466.369 612.694 466.483 612.876 466.531 613.08L468.616 622.455C468.677 622.682 468.684 622.919 468.636 623.149C468.589 623.379 468.488 623.595 468.342 623.778C468.196 623.962 468.009 624.109 467.796 624.208C467.583 624.306 467.35 624.353 467.116 624.345C462.961 624.27 456.961 624.03 451.741 624.03C445.621 624.03 440.356 624.36 433.186 624.36C428.851 624.36 427.651 619.98 429.466 619.575C437.716 617.775 444.466 617.58 451.591 613.185C452.339 612.684 453.211 612.398 454.111 612.36Z" fill="#263238"/>
<path d="M496.755 253.5C506.64 255.765 514.755 281.01 514.755 281.01L495 296.115C489.872 290.633 486.255 283.914 484.5 276.615C481.005 263.385 486.645 251.16 496.755 253.5Z" fill="#196B69"/>
<path opacity="0.4" d="M496.755 253.5C506.64 255.765 514.755 281.01 514.755 281.01L495 296.115C489.872 290.633 486.255 283.914 484.5 276.615C481.005 263.385 486.645 251.16 496.755 253.5Z" fill="black"/>
<path d="M444.75 283.605C442.29 286.26 439.83 288.63 437.25 291.105C435.975 292.305 434.685 293.505 433.365 294.66L431.37 296.415L430.875 296.85L430.02 297.54C429.14 298.243 428.166 298.819 427.125 299.25C425.968 299.741 424.723 299.996 423.465 300C422.391 300.005 421.324 299.817 420.315 299.445C419.197 299.019 418.177 298.371 417.315 297.54C416.217 296.466 415.411 295.129 414.975 293.655C414.748 292.929 414.602 292.179 414.54 291.42C414.462 290.532 414.462 289.638 414.54 288.75C414.615 288.03 414.705 287.4 414.825 286.815C415.236 284.77 415.818 282.763 416.565 280.815C417.24 278.964 418.016 277.151 418.89 275.385C419.85 273.48 420.765 272.085 421.68 270.495C425.397 264.407 429.638 258.655 434.355 253.305C439.025 247.987 444.172 243.106 449.73 238.725L455.25 244.41C451.38 249.6 447.57 255.165 444.045 260.64C440.537 266.084 437.332 271.718 434.445 277.515C433.8 278.925 432.945 280.515 432.54 281.655C432.004 282.979 431.538 284.331 431.145 285.705C430.767 286.942 430.482 288.206 430.29 289.485C430.28 289.685 430.28 289.885 430.29 290.085C430.29 290.205 430.29 290.265 430.29 289.95C430.266 289.613 430.2 289.281 430.095 288.96C429.771 287.897 429.177 286.935 428.37 286.17C427.653 285.511 426.812 285.001 425.895 284.67C425.09 284.365 424.237 284.207 423.375 284.205C422.547 284.195 421.726 284.353 420.96 284.67C420.701 284.776 420.451 284.901 420.21 285.045L420.78 284.52L422.595 282.87L426.18 279.51C428.55 277.275 430.935 274.89 433.185 272.67L444.75 283.605Z" fill="#FF8B7B"/>
<path opacity="0.2" d="M488.28 272.04C493.65 277.35 495.405 287.04 495.78 295.44L494.91 296.115C489.783 290.633 486.165 283.914 484.41 276.615C484.215 275.835 484.035 275.115 483.9 274.26L488.28 272.04Z" fill="black"/>
<path d="M434.265 264C432.105 275.4 430.755 298.815 437.01 345.165H493.5C493.89 336.51 488.445 294.24 496.8 253.425C490.558 252.226 484.245 251.43 477.9 251.04C469.907 250.582 461.894 250.582 453.9 251.04C451.26 251.28 448.65 251.67 446.4 252.075C443.408 252.6 440.645 254.021 438.479 256.151C436.312 258.28 434.842 261.017 434.265 264Z" fill="#196B69"/>
<path opacity="0.4" d="M434.265 264C432.105 275.4 430.755 298.815 437.01 345.165H493.5C493.89 336.51 488.445 294.24 496.8 253.425C490.558 252.226 484.245 251.43 477.9 251.04C469.907 250.582 461.894 250.582 453.9 251.04C451.26 251.28 448.65 251.67 446.4 252.075C443.408 252.6 440.645 254.021 438.479 256.151C436.312 258.28 434.842 261.017 434.265 264Z" fill="black"/>
<path opacity="0.2" d="M442.906 280.905L432.706 278.46C432.391 284.64 432.361 292.29 432.811 301.755C437.506 296.415 443.506 288.075 442.906 280.905Z" fill="black"/>
<path opacity="0.2" d="M452.985 589.155L453.525 601.755H464.085L463.545 589.155H452.985Z" fill="black"/>
<path opacity="0.2" d="M531.675 585.945L521.355 588.18L526.695 599.91L537.015 597.675L531.675 585.945Z" fill="black"/>
<path d="M479.895 216.24C477.195 226.35 476.115 232.41 469.875 236.61C460.5 243 448.8 235.68 448.5 225C448.17 215.355 452.655 200.43 463.5 198.39C465.884 197.943 468.341 198.11 470.642 198.875C472.943 199.641 475.011 200.979 476.651 202.765C478.292 204.551 479.45 206.725 480.018 209.083C480.585 211.44 480.543 213.903 479.895 216.24Z" fill="#FF8B7B"/>
<path d="M456.226 216.615C455.716 215.265 453.391 204.81 455.581 202.095C457.771 199.38 482.746 201.345 486.436 204.975C492.571 210.975 488.311 216.375 481.606 223.32C476.566 228.54 476.371 234.42 473.821 235.32C469.321 236.82 462.451 235.41 461.071 230.655C459.691 225.9 456.226 216.615 456.226 216.615Z" fill="#263238"/>
<path d="M483.405 193.08C474.585 189.33 458.04 193.485 449.1 191.325C448.986 194.649 450.079 197.902 452.178 200.483C454.276 203.064 457.237 204.798 460.515 205.365C467.931 206.778 475.465 207.477 483.015 207.45C492.825 207 490.905 196.275 483.405 193.08Z" fill="#263238"/>
<path d="M484.785 205.29C488.007 205.607 491.252 204.987 494.13 203.505C495.78 207.495 486.705 208.59 484.785 205.29Z" fill="#263238"/>
<path d="M461.025 217.035C460.822 219.636 459.768 222.098 458.025 224.04C455.715 226.575 453.315 224.985 452.91 221.91C452.55 219.12 453.3 214.41 456.12 213.06C458.94 211.71 461.22 213.9 461.025 217.035Z" fill="#FF8B7B"/>
<path d="M457.035 345.21C457.035 345.21 469.035 425.835 475.59 456.045C482.775 489.12 521.385 598.545 521.385 598.545L540.27 594.45C540.27 594.45 513.27 505.26 507.27 459.015C502.62 423.495 493.485 345.18 493.485 345.18L457.035 345.21Z" fill="#196B69"/>
<path d="M516.856 592.26C516.781 592.26 520.381 599.1 520.381 599.1L541.621 594.495L539.836 588.105L516.856 592.26Z" fill="#263238"/>
<path opacity="0.3" d="M464.61 373.935C478.455 376.65 476.985 428.28 475.32 454.845C471.33 436.065 465.48 399.945 461.49 374.31C462.457 373.833 463.558 373.7 464.61 373.935Z" fill="black"/>
<path d="M437.01 345.21C437.01 345.21 435.51 424.095 436.71 456.21C437.91 489.675 449.595 599.25 449.595 599.25H467.475C467.475 599.25 468.12 491.625 468.975 458.76C469.845 422.94 474.165 345.15 474.165 345.15L437.01 345.21Z" fill="#196B69"/>
<path d="M446.161 592.2C446.071 592.2 447.166 599.61 447.166 599.61H468.901L469.501 592.995L446.161 592.2Z" fill="#263238"/>
<path d="M456.376 267.51C461.431 281.145 431.716 297.21 431.716 297.21L418.846 280.71C418.846 280.71 427.501 263.58 438.001 255.87C450.976 246.36 452.521 257.13 456.376 267.51Z" fill="#196B69"/>
<path opacity="0.4" d="M456.376 267.51C461.431 281.145 431.716 297.21 431.716 297.21L418.846 280.71C418.846 280.71 427.501 263.58 438.001 255.87C450.976 246.36 452.521 257.13 456.376 267.51Z" fill="black"/>
<path d="M572.805 163.995C602.703 163.995 626.94 148.549 626.94 129.495C626.94 110.441 602.703 94.995 572.805 94.995C542.907 94.995 518.67 110.441 518.67 129.495C518.67 148.549 542.907 163.995 572.805 163.995Z" fill="#196B69"/>
<path d="M553.274 146.865C549.708 146.853 546.26 145.586 543.536 143.284C540.812 140.982 538.986 137.794 538.379 134.28C537.783 130.473 538.641 126.582 540.784 123.38C542.927 120.177 546.198 117.9 549.944 117C553.019 116.292 556.238 116.565 559.149 117.781C562.061 118.997 564.517 121.095 566.174 123.78L600.929 116.61C602.265 116.317 603.662 116.54 604.841 117.232C606.02 117.924 606.894 119.036 607.289 120.345C607.471 121.033 607.511 121.751 607.406 122.455C607.301 123.159 607.053 123.834 606.678 124.44C606.303 125.045 605.809 125.567 605.226 125.975C604.642 126.382 603.981 126.666 603.284 126.81L602.384 126.99C602.251 127.014 602.124 127.068 602.015 127.149C601.906 127.23 601.817 127.334 601.754 127.455C601.699 127.578 601.67 127.71 601.67 127.845C601.67 127.98 601.699 128.112 601.754 128.235L602.369 129.825C602.575 130.34 602.595 130.911 602.425 131.44C602.256 131.968 601.907 132.421 601.439 132.72C601.071 132.948 600.759 133.257 600.527 133.623C600.296 133.99 600.151 134.404 600.104 134.835C600.06 135.329 599.861 135.797 599.535 136.172C599.209 136.546 598.773 136.808 598.289 136.92L597.584 137.07C597.096 137.16 596.591 137.093 596.143 136.877C595.695 136.661 595.328 136.309 595.094 135.87C594.783 135.347 594.316 134.934 593.759 134.689C593.202 134.443 592.582 134.378 591.986 134.502C591.39 134.626 590.847 134.933 590.434 135.379C590.02 135.826 589.756 136.391 589.679 136.995C589.638 137.486 589.441 137.952 589.117 138.324C588.794 138.696 588.36 138.955 587.879 139.065L587.174 139.215C586.686 139.303 586.182 139.234 585.735 139.019C585.288 138.803 584.92 138.452 584.684 138.015C584.46 137.643 584.157 137.324 583.797 137.081C583.437 136.837 583.028 136.675 582.599 136.605C582.022 136.536 581.491 136.258 581.104 135.824C580.718 135.391 580.502 134.831 580.499 134.25V132.54C580.493 132.406 580.458 132.275 580.397 132.156C580.336 132.037 580.249 131.933 580.144 131.85C580.039 131.768 579.917 131.709 579.786 131.678C579.656 131.647 579.521 131.644 579.389 131.67L568.304 133.95C567.852 137.021 566.465 139.878 564.331 142.133C562.197 144.387 559.421 145.93 556.379 146.55C555.357 146.759 554.317 146.864 553.274 146.865ZM550.274 118.365C546.872 119.16 543.897 121.214 541.949 124.114C540.001 127.014 539.224 130.545 539.774 133.995C540.364 137.205 542.083 140.097 544.621 142.15C547.158 144.202 550.347 145.279 553.609 145.184C556.871 145.09 559.992 143.831 562.407 141.636C564.821 139.441 566.371 136.453 566.774 133.215V132.675L578.999 130.2C579.35 130.115 579.715 130.109 580.068 130.183C580.421 130.257 580.754 130.409 581.041 130.627C581.328 130.846 581.563 131.125 581.729 131.446C581.895 131.766 581.987 132.119 581.999 132.48V134.19C582.003 134.394 582.076 134.59 582.207 134.746C582.338 134.901 582.519 135.007 582.719 135.045C583.375 135.139 584.001 135.381 584.549 135.753C585.097 136.124 585.554 136.616 585.884 137.19C585.964 137.352 586.092 137.485 586.25 137.571C586.409 137.657 586.59 137.692 586.769 137.67L587.459 137.52C587.634 137.475 587.79 137.375 587.903 137.234C588.017 137.094 588.082 136.92 588.089 136.74C588.184 135.806 588.573 134.927 589.2 134.229C589.827 133.53 590.66 133.05 591.579 132.856C592.497 132.662 593.453 132.766 594.309 133.151C595.165 133.536 595.876 134.184 596.339 135C596.416 135.161 596.541 135.293 596.697 135.379C596.853 135.465 597.032 135.501 597.209 135.48L597.929 135.33C598.101 135.282 598.254 135.181 598.364 135.041C598.475 134.9 598.538 134.728 598.544 134.55C598.619 133.891 598.842 133.258 599.198 132.7C599.555 132.141 600.034 131.67 600.599 131.325C600.765 131.206 600.885 131.035 600.942 130.839C600.999 130.643 600.99 130.434 600.914 130.245L600.299 128.655C600.172 128.327 600.118 127.976 600.141 127.625C600.164 127.274 600.263 126.932 600.431 126.624C600.6 126.315 600.834 126.047 601.117 125.838C601.4 125.63 601.725 125.485 602.069 125.415L602.984 125.22C603.479 125.114 603.948 124.91 604.363 124.619C604.777 124.328 605.128 123.957 605.396 123.527C605.663 123.097 605.841 122.617 605.919 122.117C605.997 121.617 605.973 121.106 605.849 120.615C605.557 119.671 604.918 118.873 604.061 118.38C603.204 117.888 602.192 117.738 601.229 117.96L565.499 125.385L565.229 124.92C563.794 122.364 561.565 120.346 558.881 119.168C556.196 117.991 553.202 117.72 550.349 118.395L550.274 118.365ZM553.274 141.285C551.411 141.306 549.582 140.785 548.009 139.785C546.149 138.564 544.77 136.735 544.108 134.611C543.445 132.487 543.539 130.199 544.375 128.137C545.21 126.074 546.735 124.366 548.69 123.302C550.644 122.238 552.907 121.886 555.092 122.304C557.278 122.722 559.251 123.885 560.675 125.594C562.099 127.304 562.885 129.455 562.901 131.68C562.916 133.905 562.16 136.067 560.76 137.796C559.36 139.526 557.404 140.716 555.224 141.165C554.586 141.281 553.938 141.331 553.289 141.315L553.274 141.285ZM553.274 123.57C552.715 123.573 552.158 123.628 551.609 123.735C550.564 123.958 549.573 124.384 548.693 124.989C547.813 125.595 547.06 126.368 546.479 127.264C545.897 128.161 545.498 129.163 545.304 130.213C545.11 131.264 545.124 132.343 545.347 133.387C545.569 134.432 545.996 135.423 546.601 136.304C547.207 137.184 547.98 137.936 548.876 138.518C549.772 139.099 550.774 139.499 551.825 139.693C552.876 139.887 553.954 139.873 554.999 139.65C556.568 139.323 558.005 138.54 559.129 137.398C560.253 136.256 561.014 134.806 561.315 133.233C561.617 131.659 561.446 130.031 560.824 128.554C560.202 127.078 559.156 125.818 557.819 124.935C556.491 124.052 554.929 123.587 553.334 123.6L553.274 123.57Z" fill="white"/>
<path opacity="0.6" d="M528.75 184.23C538.575 184.23 546.54 179.153 546.54 172.89C546.54 166.627 538.575 161.55 528.75 161.55C518.925 161.55 510.96 166.627 510.96 172.89C510.96 179.153 518.925 184.23 528.75 184.23Z" fill="#196B69"/>
<path opacity="0.3" d="M500.445 188.88C504.479 188.88 507.75 186.798 507.75 184.23C507.75 181.662 504.479 179.58 500.445 179.58C496.41 179.58 493.14 181.662 493.14 184.23C493.14 186.798 496.41 188.88 500.445 188.88Z" fill="#196B69"/>
</svg>
