<svg width="89" height="38" viewBox="0 0 89 38" fill="none" xmlns="http://www.w3.org/2000/svg">
<path d="M0.474731 14.7096C0.474731 13.7318 1.26741 12.9391 2.24523 12.9391C3.22305 12.9391 4.01573 13.7318 4.01573 14.7096V24.1095C4.01573 25.0873 3.22305 25.88 2.24523 25.88C1.26741 25.88 0.474731 25.0873 0.474731 24.1095V14.7096Z" fill="#F7F9FB"/>
<path d="M11.0981 11.84C11.0981 10.8621 11.8908 10.0695 12.8686 10.0695C13.8465 10.0695 14.6391 10.8621 14.6391 11.84V26.9914C14.6391 27.9692 13.8465 28.7619 12.8686 28.7619C11.8908 28.7619 11.0981 27.9692 11.0981 26.9914V11.84Z" fill="#F7F9FB"/>
<path d="M21.7235 4.64428C21.7235 3.66646 22.5162 2.87378 23.494 2.87378C24.4718 2.87378 25.2645 3.66646 25.2645 4.64428V34.1744C25.2645 35.1523 24.4718 35.9449 23.494 35.9449C22.5162 35.9449 21.7235 35.1523 21.7235 34.1744V4.64428Z" fill="#F7F9FB"/>
<path d="M32.3457 8.95556C32.3457 7.97774 33.1384 7.18506 34.1162 7.18506C35.094 7.18506 35.8867 7.97774 35.8867 8.95556V29.8585C35.8867 30.8363 35.094 31.629 34.1162 31.629C33.1384 31.629 32.3457 30.8363 32.3457 29.8585V8.95556Z" fill="#F7F9FB"/>
<path d="M42.969 7.5244C42.969 6.54658 43.7617 5.75391 44.7395 5.75391C45.7173 5.75391 46.51 6.54659 46.51 7.52441V31.3031C46.51 32.2809 45.7173 33.0736 44.7395 33.0736C43.7617 33.0736 42.969 32.2809 42.969 31.3031V7.5244Z" fill="#F7F9FB"/>
<path d="M53.5919 1.7705C53.5919 0.792677 54.3846 0 55.3624 0C56.3402 0 57.1329 0.79268 57.1329 1.7705V35.6143C57.1329 36.5922 56.3402 37.3848 55.3624 37.3848C54.3846 37.3848 53.5919 36.5922 53.5919 35.6143V1.7705Z" fill="#F7F9FB"/>
<path d="M64.2133 8.95556C64.2133 7.97774 65.0059 7.18506 65.9838 7.18506C66.9616 7.18506 67.7543 7.97774 67.7543 8.95556V29.8585C67.7543 30.8363 66.9616 31.629 65.9838 31.629C65.0059 31.629 64.2133 30.8363 64.2133 29.8585V8.95556Z" fill="#F7F9FB"/>
<path d="M74.8359 14.7096C74.8359 13.7318 75.6286 12.9391 76.6064 12.9391C77.5843 12.9391 78.3769 13.7318 78.3769 14.7096V24.1095C78.3769 25.0873 77.5843 25.88 76.6064 25.88C75.6286 25.88 74.8359 25.0873 74.8359 24.1095V14.7096Z" fill="#F7F9FB"/>
<path d="M85.4589 11.84C85.4589 10.8621 86.2515 10.0695 87.2294 10.0695C88.2072 10.0695 88.9999 10.8621 88.9999 11.84V26.9914C88.9999 27.9692 88.2072 28.7619 87.2294 28.7619C86.2515 28.7619 85.4589 27.9692 85.4589 26.9914V11.84Z" fill="#F7F9FB"/>
</svg>
