<svg width="34" height="34" viewBox="0 0 34 34" fill="none" xmlns="http://www.w3.org/2000/svg">
<path d="M10.0002 0.333496H24.0002C29.3335 0.333496 33.6668 4.66683 33.6668 10.0002V24.0002C33.6668 26.5639 32.6484 29.0227 30.8355 30.8355C29.0227 32.6484 26.5639 33.6668 24.0002 33.6668H10.0002C4.66683 33.6668 0.333496 29.3335 0.333496 24.0002V10.0002C0.333496 7.4364 1.35195 4.97765 3.1648 3.1648C4.97765 1.35195 7.4364 0.333496 10.0002 0.333496ZM9.66683 3.66683C8.07553 3.66683 6.54941 4.29897 5.42419 5.42419C4.29897 6.54941 3.66683 8.07553 3.66683 9.66683V24.3335C3.66683 27.6502 6.35016 30.3335 9.66683 30.3335H24.3335C25.9248 30.3335 27.4509 29.7014 28.5761 28.5761C29.7014 27.4509 30.3335 25.9248 30.3335 24.3335V9.66683C30.3335 6.35016 27.6502 3.66683 24.3335 3.66683H9.66683ZM25.7502 6.16683C26.3027 6.16683 26.8326 6.38632 27.2233 6.77702C27.614 7.16772 27.8335 7.69763 27.8335 8.25016C27.8335 8.8027 27.614 9.3326 27.2233 9.7233C26.8326 10.114 26.3027 10.3335 25.7502 10.3335C25.1976 10.3335 24.6677 10.114 24.277 9.7233C23.8863 9.3326 23.6668 8.8027 23.6668 8.25016C23.6668 7.69763 23.8863 7.16772 24.277 6.77702C24.6677 6.38632 25.1976 6.16683 25.7502 6.16683ZM17.0002 8.66683C19.2103 8.66683 21.3299 9.5448 22.8927 11.1076C24.4555 12.6704 25.3335 14.79 25.3335 17.0002C25.3335 19.2103 24.4555 21.3299 22.8927 22.8927C21.3299 24.4555 19.2103 25.3335 17.0002 25.3335C14.79 25.3335 12.6704 24.4555 11.1076 22.8927C9.5448 21.3299 8.66683 19.2103 8.66683 17.0002C8.66683 14.79 9.5448 12.6704 11.1076 11.1076C12.6704 9.5448 14.79 8.66683 17.0002 8.66683ZM17.0002 12.0002C15.6741 12.0002 14.4023 12.5269 13.4646 13.4646C12.5269 14.4023 12.0002 15.6741 12.0002 17.0002C12.0002 18.3262 12.5269 19.598 13.4646 20.5357C14.4023 21.4734 15.6741 22.0002 17.0002 22.0002C18.3262 22.0002 19.598 21.4734 20.5357 20.5357C21.4734 19.598 22.0002 18.3262 22.0002 17.0002C22.0002 15.6741 21.4734 14.4023 20.5357 13.4646C19.598 12.5269 18.3262 12.0002 17.0002 12.0002Z" fill="#196B69"/>
</svg>
