<svg width="750" height="500" viewBox="0 0 750 500" fill="none" xmlns="http://www.w3.org/2000/svg">
<path d="M173.74 237.187L137.701 340.968L291.672 394.435L327.711 290.655L173.74 237.187Z" fill="#EBEBEB"/>
<path d="M327.7 290.63C327.093 290.986 326.453 291.284 325.79 291.52L320.2 293.78L299.52 301.87L230.94 328.12L230.37 328.33L230.05 327.82L229.26 326.58L189.74 263.52L177.9 244.32L174.75 239.06C174.36 238.462 174.025 237.829 173.75 237.17C174.222 237.704 174.641 238.284 175 238.9L178.39 244.01L190.62 263L230.52 325.83C230.78 326.26 231.05 326.68 231.3 327.07L230.41 326.77L299.15 300.94L320 293.25L325.69 291.25C326.338 290.978 327.011 290.771 327.7 290.63Z" fill="#E0E0E0"/>
<path d="M137.7 341C137.49 340.65 154.01 330.45 174.59 318.21C195.17 305.97 212.03 296.34 212.24 296.69C212.45 297.04 195.93 307.24 175.34 319.48C154.75 331.72 137.91 341.3 137.7 341Z" fill="#E0E0E0"/>
<path d="M263.87 313.11C264.25 312.98 270.79 331.11 278.47 353.52C286.15 375.93 292.06 394.28 291.67 394.41C291.28 394.54 284.75 376.41 277.07 354C269.39 331.59 263.48 313.24 263.87 313.11Z" fill="#E0E0E0"/>
<path d="M628.105 210.175L475.748 235.999L493.154 338.694L645.511 312.87L628.105 210.175Z" fill="#E0E0E0"/>
<path d="M628.09 210.22C627.748 210.792 627.353 211.331 626.91 211.83L623.3 216.26L609.8 232.42C598.21 246.09 582.35 264.8 564.8 285.52L564.43 285.96L563.93 285.68L562.71 285.01L501.09 250.63L482.5 240.07L477.5 237.14C476.897 236.829 476.327 236.457 475.8 236.03C476.437 236.263 477.053 236.551 477.64 236.89L482.79 239.6L501.6 249.76L563.42 283.76L564.64 284.43L563.77 284.59L609.11 231.76L622.94 215.89C624.53 214.12 625.79 212.7 626.75 211.62C627.159 211.118 627.607 210.65 628.09 210.22Z" fill="#EBEBEB"/>
<path d="M493.14 338.73C492.81 338.53 501.88 322.51 513.4 302.95C524.92 283.39 534.54 267.69 534.87 267.89C535.2 268.09 526.13 284.1 514.61 303.67C503.09 323.24 493.47 338.92 493.14 338.73Z" fill="#EBEBEB"/>
<path d="M585.3 258C585.56 257.72 599.3 269.77 615.87 284.93C632.44 300.09 645.76 312.61 645.49 312.93C645.22 313.25 631.55 301.14 614.92 286C598.29 270.86 585 258.31 585.3 258Z" fill="#EBEBEB"/>
<path d="M475.812 46.9371L448.365 116.724L551.904 157.446L579.352 87.6598L475.812 46.9371Z" fill="#EBEBEB"/>
<path d="M579.32 88.59C578.9 88.8244 578.454 89.009 577.99 89.14L574.12 90.54L559.79 95.49L512.28 111.49L511.89 111.62L511.69 111.26L511.19 110.4L486 66.29C482.85 60.7 480.29 56.14 478.46 52.87L476.46 49.2C476.206 48.781 475.992 48.339 475.82 47.88C476.13 48.2573 476.405 48.6623 476.64 49.09C477.18 50 477.9 51.19 478.81 52.67L486.63 65.94C493.19 77.27 502.18 92.77 512.1 109.94L512.6 110.81L512.01 110.58L559.6 94.86L574 90.17L577.93 89C578.382 88.8266 578.847 88.6895 579.32 88.59Z" fill="#E0E0E0"/>
<path d="M448.34 117.67C448.2 117.43 459.75 110.92 474.13 103.14C488.51 95.36 500.27 89.26 500.4 89.5C500.53 89.74 489 96.25 474.61 104C460.22 111.75 448.47 117.92 448.34 117.67Z" fill="#E0E0E0"/>
<path d="M535.16 102.16C535.43 102.08 539.39 114.61 544 130.16C548.61 145.71 552.15 158.34 551.88 158.42C551.61 158.5 547.65 145.98 543.04 130.42C538.43 114.86 534.89 102.24 535.16 102.16Z" fill="#E0E0E0"/>
<path d="M661.58 457.08C661.58 457.22 533.26 457.34 375.01 457.34C216.76 457.34 88.4199 457.22 88.4199 457.08C88.4199 456.94 216.71 456.82 375.01 456.82C533.31 456.82 661.58 456.93 661.58 457.08Z" fill="#263238"/>
<path d="M116.7 184.46L131 179.39L124.85 171.18C124.545 169.366 124.398 167.529 124.41 165.69C124.413 164.743 124.575 163.803 124.89 162.91C125.237 161.786 125.738 160.716 126.38 159.73C126.539 159.562 126.641 159.348 126.67 159.119C126.7 158.89 126.656 158.657 126.544 158.455C126.433 158.252 126.26 158.09 126.051 157.992C125.842 157.894 125.607 157.866 125.38 157.91C124.38 158.16 122.5 160.44 121.65 163.82C120.8 167.2 118.48 162.22 117.65 160.43C116.82 158.64 113.8 153.2 113.03 153.03C111.91 152.78 111.44 153.94 112.36 155.71C113.28 157.48 115.65 163 114.67 163.42C113.69 163.84 109.38 154.62 109.38 154.62C109.38 154.62 108.78 152.5 107.64 152.95C105.58 153.75 110.91 163.2 111.44 164.08C111.81 164.7 110.77 165.19 110.44 164.51C110.11 163.83 106.33 155.22 104.23 156.02C102.62 156.63 108.54 163.83 108.33 166.02C108.12 168.21 104.4 160.11 102.88 160.75C102.32 160.99 101.88 161.25 104.74 165.61C106.14 167.65 107.646 169.616 109.25 171.5L116.72 184.44" fill="#FFBE9D"/>
<path d="M245.41 201.94C245.41 201.94 238.35 185.46 233.48 177.45C228.89 169.91 222.81 168.69 219.57 168.45C218.227 168.037 216.847 167.752 215.45 167.6L189 167.39C183.219 167.443 177.634 169.492 173.19 173.19C171.96 174.19 162.81 184.81 150.66 199.93L129.41 176.93L116.74 184.43C116.74 184.43 130.5 231.94 147.74 228.68C158 226.77 166 219.65 166 219.65L179.45 208.81L179.76 210.61C180.03 212.8 180.71 216.34 181.23 218.48C182.85 225.27 183.76 234.21 180.23 240.13C180.23 240.13 175.44 243.8 179.23 247.83H229.08C229.08 247.83 236.14 243.04 229.69 237.72L225.69 227.61L228.3 215.27L229.3 210.33L233.69 217.85C233.69 217.85 242.37 228.77 251.4 227.43C262.25 225.81 268.54 206.04 258.75 179.9L246.95 183.49L245.41 201.94Z" fill="#28CC9E"/>
<g opacity="0.4">
<path d="M116.7 184.46L117.95 188.42L132.03 179.83L129.37 176.96L116.7 184.46Z" fill="black"/>
</g>
<g opacity="0.2">
<path d="M180.219 240.13C182.315 239.816 184.325 239.082 186.129 237.972C187.934 236.862 189.495 235.399 190.719 233.67C192.002 231.929 192.928 229.951 193.443 227.85C193.958 225.749 194.052 223.567 193.719 221.43C193.665 220.671 193.452 219.931 193.093 219.259C192.735 218.587 192.24 217.998 191.639 217.53C190.069 216.53 187.919 217.05 186.289 216.18C184.949 215.47 184.239 214.01 183.289 212.81C182.339 211.61 181.069 209.75 179.689 210.35C179.689 210.35 181.359 219.15 182.089 223.07C182.819 226.99 183.089 232.62 181.679 236.73C181.318 237.913 180.828 239.053 180.219 240.13Z" fill="black"/>
</g>
<path d="M148.62 208C148.634 206.592 148.885 205.196 149.36 203.87C149.666 202.503 150.087 201.165 150.62 199.87C150.618 201.279 150.367 202.677 149.88 204C149.574 205.367 149.153 206.705 148.62 208Z" fill="#263238"/>
<path d="M151.78 205.85C151.023 203.963 150.617 201.953 150.58 199.92C151.037 200.831 151.329 201.817 151.44 202.83C151.724 203.81 151.839 204.831 151.78 205.85Z" fill="#263238"/>
<path d="M246.84 147.64L228.74 176.96L242.98 180.93L258.78 156.56L246.84 147.64Z" fill="#455A64"/>
<path d="M245.709 172.62L246.319 176.91L248.849 180.16L249.099 182.82L258.179 180.06L254.509 167.06C254.803 165.309 254.924 163.534 254.869 161.76L252.369 165.07L251.679 159.67L246.569 155.56C246.437 155.463 246.286 155.392 246.127 155.353C245.967 155.314 245.801 155.307 245.638 155.332C245.476 155.357 245.32 155.414 245.179 155.499C245.039 155.585 244.916 155.697 244.819 155.83C244.647 156.07 244.566 156.364 244.589 156.659C244.613 156.954 244.741 157.23 244.949 157.44L249.059 161.06L249.329 165.53L246.329 162.77C246.036 162.496 245.673 162.309 245.279 162.23L241.149 161.4C241.002 161.371 240.851 161.374 240.704 161.407C240.558 161.44 240.421 161.504 240.3 161.593C240.18 161.682 240.079 161.796 240.005 161.926C239.931 162.056 239.885 162.201 239.869 162.35C239.844 162.597 239.905 162.846 240.042 163.053C240.178 163.261 240.382 163.415 240.619 163.49L244.379 164.64L248.179 168.48L244.459 167.06L239.409 167.77C239.173 167.808 238.958 167.93 238.804 168.114C238.649 168.297 238.566 168.53 238.569 168.77C238.569 169.035 238.675 169.29 238.862 169.477C239.05 169.665 239.304 169.77 239.569 169.77L242.779 169.59L244.669 170.18L240.329 171.33C240.134 171.379 239.962 171.495 239.843 171.657C239.724 171.82 239.666 172.019 239.679 172.22C239.684 172.337 239.713 172.452 239.763 172.557C239.814 172.663 239.885 172.758 239.973 172.835C240.061 172.913 240.163 172.972 240.274 173.008C240.385 173.045 240.503 173.06 240.619 173.05L245.709 172.62Z" fill="#FFBE9D"/>
<g opacity="0.4">
<path d="M246.9 183.49L246.51 188.29L260.28 184.5L258.7 179.9L246.9 183.49Z" fill="black"/>
</g>
<path d="M228.74 177C228.74 177 227.52 175.35 227.62 175.07C227.72 174.79 244.84 146.6 244.84 146.6L246.84 147.68L228.74 177Z" fill="#263238"/>
<path d="M251.37 155C251.448 154.923 251.544 154.866 251.649 154.837C251.755 154.808 251.866 154.807 251.972 154.834C252.078 154.861 252.175 154.916 252.254 154.992C252.333 155.068 252.39 155.163 252.421 155.268C252.452 155.373 252.455 155.484 252.429 155.591C252.404 155.697 252.351 155.795 252.276 155.875C252.202 155.955 252.107 156.014 252.003 156.047C251.898 156.079 251.787 156.084 251.68 156.06C251.582 156.029 251.492 155.976 251.418 155.905C251.344 155.833 251.288 155.745 251.254 155.648C251.22 155.551 251.209 155.447 251.222 155.345C251.236 155.243 251.273 155.145 251.33 155.06" fill="#263238"/>
<path d="M240 191.19C239.872 191.457 239.696 191.698 239.48 191.9C238.856 192.483 238.085 192.884 237.25 193.06C235.93 193.329 234.569 193.329 233.25 193.06C231.569 192.661 229.829 192.583 228.12 192.83C226.115 193.414 224.267 194.439 222.71 195.83C220.92 197.2 219.03 198.9 216.49 199.7C215.19 200.069 213.83 200.175 212.49 200.01C211.117 199.8 209.774 199.427 208.49 198.9C205.87 197.9 203.36 196.42 200.6 195.42C197.94 194.383 195.027 194.181 192.25 194.84C189.54 195.4 187 196.34 184.47 196.84C179.948 197.815 175.228 197.163 171.14 195C168.371 193.572 165.974 191.518 164.14 189C163.472 188.091 162.911 187.108 162.47 186.07C162.54 186.07 163.02 187.15 164.31 188.88C166.184 191.299 168.576 193.267 171.31 194.64C175.341 196.718 179.972 197.319 184.4 196.34C186.89 195.8 189.4 194.85 192.18 194.27C195.053 193.581 198.067 193.787 200.82 194.86C203.64 195.86 206.16 197.34 208.73 198.36C209.976 198.873 211.278 199.239 212.61 199.45C213.883 199.605 215.173 199.51 216.41 199.17C218.81 198.43 220.69 196.79 222.49 195.42C224.11 194.011 226.028 192.985 228.1 192.42C229.856 192.18 231.642 192.282 233.36 192.72C234.634 193.009 235.952 193.043 237.24 192.82C238.047 192.682 238.805 192.338 239.44 191.82C239.638 191.621 239.825 191.41 240 191.19Z" fill="#FAFAFA"/>
<path d="M245.7 210.24C245.386 208.785 245.249 207.298 245.29 205.81C245.151 204.327 245.195 202.832 245.42 201.36C245.734 202.815 245.871 204.302 245.83 205.79C245.968 207.273 245.924 208.767 245.7 210.24Z" fill="#263238"/>
<path d="M214.51 394.11C214.94 395.85 225.14 453.04 225.14 453.04L240.77 451.87L237.91 393.47L214.51 394.11Z" fill="#FFBE9D"/>
<path d="M241.24 452.78L241.19 451.13L224.54 451.48L224.64 456.9H225.64C230.22 457.05 248.94 457.36 251.97 456.45C255.39 455.46 241.24 452.78 241.24 452.78Z" fill="#28CC9E"/>
<g opacity="0.3">
<path d="M230.65 456.66C230.354 455.343 229.572 454.186 228.46 453.42C227.323 452.624 225.942 452.252 224.56 452.37L224.65 456.68L230.65 456.66Z" fill="black"/>
</g>
<g opacity="0.3">
<path d="M248.16 454.32C248.16 454.32 253.16 455.55 252.53 456.32C251.9 457.09 233 457.44 224.64 456.91V456.56L246.72 456.34C246.72 456.34 247.2 454.37 248.16 454.32Z" fill="black"/>
</g>
<path d="M224.399 456.55H224.679H225.499L228.499 456.62C231.049 456.62 234.559 456.67 238.449 456.62C242.339 456.57 245.849 456.42 248.399 456.29L251.399 456.12L252.209 456.06H251.389L248.389 456.17C245.849 456.26 242.329 456.38 238.449 456.44C234.569 456.5 231.049 456.52 228.499 456.52H224.399V456.55Z" fill="#263238"/>
<path d="M246.74 456.57C246.857 456.099 247.035 455.645 247.27 455.22C247.557 454.817 247.893 454.451 248.27 454.13C247.764 454.303 247.343 454.66 247.09 455.13C246.793 455.547 246.668 456.063 246.74 456.57Z" fill="#263238"/>
<path d="M241.8 454.35C241.8 454.35 242.07 454.11 242.31 453.75C242.55 453.39 242.69 453.08 242.64 453.05C242.59 453.02 242.37 453.29 242.14 453.65C241.91 454.01 241.75 454.32 241.8 454.35Z" fill="#263238"/>
<path d="M240.44 453.71C240.44 453.71 240.74 453.58 241.02 453.34C241.3 453.1 241.49 452.87 241.46 452.83C241.43 452.79 241.16 452.96 240.88 453.2C240.6 453.44 240.4 453.68 240.44 453.71Z" fill="#263238"/>
<path d="M239.56 452.27C239.839 452.364 240.136 452.395 240.43 452.36C240.72 452.39 241.014 452.356 241.29 452.26C241.009 452.172 240.713 452.141 240.42 452.17C240.129 452.148 239.837 452.182 239.56 452.27Z" fill="#263238"/>
<path d="M239.25 451.25C239.549 451.435 239.899 451.523 240.25 451.5C240.591 451.551 240.939 451.498 241.25 451.35C240.917 451.325 240.583 451.325 240.25 451.35C239.92 451.287 239.586 451.254 239.25 451.25Z" fill="#263238"/>
<path d="M242.33 453C242.685 453.056 243.046 453.056 243.4 453C243.781 452.951 244.156 452.864 244.52 452.74C244.747 452.682 244.966 452.595 245.17 452.48C245.231 452.448 245.284 452.404 245.327 452.351C245.37 452.298 245.402 452.236 245.42 452.17C245.439 452.095 245.432 452.017 245.401 451.946C245.37 451.876 245.317 451.817 245.25 451.78C244.844 451.593 244.387 451.548 243.952 451.651C243.517 451.754 243.129 452 242.85 452.35C242.694 452.547 242.581 452.776 242.52 453.02C242.52 453.19 242.52 453.29 242.52 453.29C242.615 452.979 242.772 452.69 242.98 452.44C243.22 452.169 243.532 451.971 243.88 451.87C244.296 451.729 244.749 451.751 245.15 451.93C245.32 452.04 245.26 452.23 245.08 452.33C244.889 452.434 244.688 452.517 244.48 452.58C244.125 452.704 243.76 452.801 243.39 452.87C242.74 453 242.33 453 242.33 453Z" fill="#263238"/>
<path d="M242.61 453C242.725 452.789 242.76 452.545 242.71 452.31C242.672 452.049 242.569 451.801 242.41 451.59C242.312 451.44 242.179 451.317 242.022 451.231C241.865 451.146 241.689 451.101 241.51 451.1C241.458 451.108 241.409 451.127 241.365 451.155C241.32 451.183 241.282 451.219 241.252 451.262C241.223 451.305 241.202 451.354 241.191 451.405C241.18 451.456 241.18 451.509 241.19 451.56C241.217 451.72 241.282 451.871 241.38 452C241.528 452.218 241.702 452.416 241.9 452.59C242.071 452.769 242.284 452.903 242.52 452.98C242.52 452.98 242.3 452.81 242 452.5C241.825 452.321 241.671 452.123 241.54 451.91C241.39 451.71 241.28 451.33 241.54 451.28C241.68 451.294 241.816 451.338 241.939 451.409C242.061 451.48 242.167 451.575 242.25 451.69C242.403 451.876 242.509 452.095 242.56 452.33C242.599 452.551 242.616 452.776 242.61 453Z" fill="#263238"/>
<path d="M224.64 452.33C224.64 452.33 225.12 452.28 225.87 452.33C226.837 452.427 227.764 452.771 228.56 453.33C229.324 453.874 229.92 454.623 230.28 455.49C230.55 456.15 230.58 456.59 230.62 456.59C230.642 456.488 230.642 456.382 230.62 456.28C230.585 455.998 230.521 455.72 230.43 455.45C230.093 454.535 229.486 453.743 228.69 453.18C227.868 452.592 226.898 452.246 225.89 452.18C225.587 452.15 225.282 452.15 224.98 452.18C224.75 452.28 224.64 452.31 224.64 452.33Z" fill="#263238"/>
<path d="M232.7 455.12C233.499 455.282 234.316 455.343 235.13 455.3C235.943 455.323 236.755 455.249 237.55 455.08C237.55 455.02 236.46 455.08 235.12 455.08C233.78 455.08 232.71 455.07 232.7 455.12Z" fill="#263238"/>
<path d="M229.45 455.18C229.45 455.18 229.54 455.39 229.66 455.62C229.78 455.85 229.84 456.05 229.9 456.05C229.96 456.05 229.98 455.8 229.84 455.54C229.7 455.28 229.49 455.14 229.45 455.18Z" fill="#263238"/>
<path d="M228.2 453.78C228.2 453.78 228.27 453.98 228.44 454.14C228.61 454.3 228.79 454.4 228.83 454.36C228.87 454.32 228.76 454.16 228.58 454C228.4 453.84 228.23 453.75 228.2 453.78Z" fill="#263238"/>
<path d="M226.43 453.17C226.43 453.22 226.66 453.22 226.91 453.29C227.16 453.36 227.33 453.48 227.37 453.45C227.41 453.42 227.27 453.2 226.97 453.11C226.67 453.02 226.41 453.12 226.43 453.17Z" fill="#263238"/>
<path d="M225.17 452.89C225.17 452.89 225.25 453.01 225.39 453.06C225.53 453.11 225.66 453.11 225.68 453.06C225.7 453.01 225.6 452.93 225.46 452.88C225.32 452.83 225.19 452.84 225.17 452.89Z" fill="#263238"/>
<path d="M174.75 389.34C174.67 391.13 168.18 446.82 168.18 446.82L183.47 450.21L197.58 393.47L174.75 389.34Z" fill="#FFBE9D"/>
<path d="M184.16 451.69L184.51 450.09L168.25 446.46L167.06 451.75L168.06 452.03C172.47 453.27 190.58 458.03 193.75 457.86C197.27 457.67 184.16 451.69 184.16 451.69Z" fill="#28CC9E"/>
<g opacity="0.3">
<path d="M173 453C173.031 451.65 172.549 450.338 171.65 449.33C170.736 448.284 169.482 447.594 168.11 447.38L167.17 451.59L173 453Z" fill="black"/>
</g>
<g opacity="0.3">
<path d="M190.52 454.84C190.52 454.84 195.05 457.22 194.29 457.84C193.53 458.46 175.06 454.27 167.06 451.77L167.16 451.44L188.66 456.44C188.66 456.44 189.57 454.66 190.52 454.84Z" fill="black"/>
</g>
<path d="M166.91 451.35L167.18 451.44L167.97 451.67L170.88 452.45C173.35 453.09 176.76 453.94 180.55 454.8C184.34 455.66 187.79 456.37 190.29 456.85L193.29 457.4L194.1 457.53H194.39L194.11 457.46L193.31 457.29L190.31 456.68C187.81 456.16 184.37 455.44 180.58 454.58C176.79 453.72 173.38 452.89 170.9 452.28L168 451.6L167.2 451.41C167.107 451.376 167.009 451.355 166.91 451.35Z" fill="#263238"/>
<path d="M188.6 456.69C188.83 456.261 189.112 455.861 189.44 455.5C189.821 455.181 190.237 454.906 190.68 454.68C190.152 454.738 189.663 454.983 189.3 455.37C188.905 455.703 188.654 456.176 188.6 456.69Z" fill="#263238"/>
<path d="M184.33 453.36C184.33 453.36 184.66 453.19 184.97 452.89C185.28 452.59 185.5 452.33 185.46 452.3C185.42 452.27 185.14 452.47 184.83 452.76C184.52 453.05 184.29 453.32 184.33 453.36Z" fill="#263238"/>
<path d="M183.159 452.42C183.392 452.399 183.615 452.32 183.809 452.19C184.139 452.02 184.389 451.84 184.359 451.8C184.329 451.76 184.039 451.85 183.709 452.02C183.379 452.19 183.139 452.37 183.159 452.42Z" fill="#263238"/>
<path d="M182.649 450.81C181.603 450.791 180.589 451.174 179.816 451.879C179.043 452.585 178.57 453.561 178.495 454.605C178.42 455.649 178.747 456.682 179.411 457.492C180.074 458.301 181.023 458.826 182.061 458.957C183.1 459.088 184.149 458.816 184.993 458.197C185.837 457.578 186.412 456.659 186.599 455.629C186.786 454.599 186.57 453.537 185.998 452.661C185.425 451.785 184.538 451.162 183.519 450.92C183.24 450.824 182.944 450.786 182.649 450.81Z" fill="#263238"/>
<path d="M182.59 449.74C182.83 449.98 183.137 450.144 183.47 450.21C183.787 450.336 184.134 450.371 184.47 450.31C184.166 450.187 183.851 450.093 183.53 450.03C183.224 449.911 182.91 449.814 182.59 449.74Z" fill="#263238"/>
<path d="M185.17 452.17C185.49 452.295 185.827 452.369 186.17 452.39C186.556 452.427 186.944 452.427 187.33 452.39C187.559 452.38 187.787 452.346 188.01 452.29C188.146 452.254 188.264 452.169 188.34 452.05C188.371 451.979 188.381 451.901 188.369 451.825C188.356 451.748 188.322 451.677 188.27 451.62C187.918 451.343 187.483 451.193 187.035 451.193C186.587 451.193 186.152 451.343 185.8 451.62C185.596 451.771 185.428 451.966 185.31 452.19C185.23 452.34 185.22 452.44 185.23 452.44C185.399 452.164 185.62 451.923 185.88 451.73C186.174 451.524 186.521 451.407 186.88 451.39C187.318 451.351 187.754 451.479 188.1 451.75C188.24 451.9 188.1 452.06 187.93 452.12C187.724 452.177 187.513 452.214 187.3 452.23C186.924 452.255 186.546 452.255 186.17 452.23C185.57 452.22 185.18 452.14 185.17 452.17Z" fill="#263238"/>
<path d="M185.43 452.27C185.43 452.27 185.65 452.08 185.7 451.63C185.721 451.367 185.676 451.102 185.57 450.86C185.51 450.691 185.409 450.54 185.276 450.42C185.144 450.3 184.984 450.214 184.81 450.17C184.758 450.167 184.706 450.175 184.657 450.193C184.608 450.211 184.563 450.238 184.525 450.273C184.487 450.309 184.456 450.352 184.434 450.399C184.413 450.447 184.401 450.498 184.4 450.55C184.388 450.711 184.416 450.872 184.48 451.02C184.57 451.265 184.691 451.497 184.84 451.71C184.967 451.923 185.142 452.105 185.35 452.24C185.35 452.24 185.18 452.02 184.96 451.65C184.835 451.434 184.732 451.206 184.65 450.97C184.55 450.73 184.54 450.34 184.81 450.36C185.08 450.38 185.29 450.69 185.4 450.92C185.505 451.139 185.559 451.378 185.56 451.62C185.541 451.841 185.497 452.059 185.43 452.27Z" fill="#263238"/>
<path d="M168.149 447.31C168.149 447.31 168.619 447.37 169.339 447.62C170.256 447.931 171.077 448.476 171.719 449.2C172.333 449.916 172.735 450.788 172.879 451.72C172.92 452.099 172.94 452.479 172.939 452.86C172.939 452.86 172.989 452.75 173.009 452.56C173.041 452.274 173.041 451.986 173.009 451.7C172.9 450.735 172.503 449.826 171.869 449.09C171.2 448.336 170.335 447.782 169.369 447.49C169.076 447.401 168.775 447.34 168.469 447.31C168.364 447.292 168.255 447.292 168.149 447.31Z" fill="#263238"/>
<path d="M175.31 451.94C176.044 452.288 176.821 452.54 177.62 452.69C178.405 452.907 179.215 453.028 180.03 453.05C180.03 453 178.96 452.82 177.67 452.51C176.38 452.2 175.33 451.89 175.31 451.94Z" fill="#263238"/>
<path d="M172.14 451.22C172.14 451.22 172.14 451.45 172.24 451.7C172.34 451.95 172.31 452.16 172.37 452.17C172.43 452.18 172.51 451.95 172.44 451.67C172.37 451.39 172.18 451.19 172.14 451.22Z" fill="#263238"/>
<path d="M171.25 449.57C171.25 449.57 171.25 449.78 171.41 449.97C171.57 450.16 171.69 450.3 171.73 450.28C171.77 450.26 171.73 450.07 171.58 449.88C171.43 449.69 171.3 449.54 171.25 449.57Z" fill="#263238"/>
<path d="M169.68 448.55C169.68 448.61 169.9 448.65 170.12 448.78C170.34 448.91 170.49 449.07 170.54 449.05C170.59 449.03 170.54 448.78 170.22 448.62C169.9 448.46 169.68 448.5 169.68 448.55Z" fill="#263238"/>
<path d="M168.529 448C168.529 448 168.579 448.14 168.699 448.22C168.819 448.3 168.949 448.33 168.979 448.28C169.009 448.23 168.979 448.14 168.809 448.06C168.639 447.98 168.559 447.94 168.529 448Z" fill="#263238"/>
<path d="M232.15 141.32C231.74 140.13 230.73 139.24 230.24 138.08C229.51 136.34 230.05 134.37 230.24 132.5C230.43 130.63 230.04 128.35 228.33 127.58C227.581 127.385 226.847 127.141 226.13 126.85C224.79 126.01 224.86 124.11 224.74 122.54C224.659 121.502 224.395 120.486 223.96 119.54L224.24 119.45C225.253 119.205 226.32 119.324 227.255 119.786C228.189 120.249 228.931 121.025 229.35 121.98C229.535 122.379 229.615 122.819 229.584 123.258C229.552 123.697 229.41 124.121 229.17 124.49C228.964 124.797 228.661 125.026 228.309 125.141C227.957 125.255 227.577 125.248 227.23 125.12C226.961 124.98 226.746 124.755 226.617 124.48C226.489 124.205 226.455 123.896 226.52 123.6C226.604 123.386 226.759 123.207 226.96 123.094C227.16 122.981 227.393 122.941 227.62 122.98C227.771 122.993 227.918 123.038 228.051 123.112C228.184 123.186 228.299 123.288 228.39 123.41C228.51 123.59 228.52 123.72 228.54 123.71C228.56 123.7 228.54 123.58 228.54 123.36C228.455 123.199 228.334 123.061 228.187 122.955C228.039 122.849 227.869 122.779 227.69 122.75C227.432 122.702 227.167 122.723 226.92 122.81C226.765 122.868 226.625 122.958 226.51 123.076C226.394 123.193 226.305 123.335 226.25 123.49C226.134 123.868 226.154 124.274 226.305 124.639C226.457 125.004 226.731 125.305 227.08 125.49C227.516 125.681 228.005 125.716 228.464 125.588C228.924 125.461 229.325 125.179 229.6 124.79C229.904 124.358 230.091 123.855 230.144 123.329C230.196 122.804 230.112 122.274 229.9 121.79C229.48 120.777 228.736 119.933 227.783 119.39C226.831 118.846 225.725 118.635 224.64 118.79C224.875 118.393 225.024 117.951 225.078 117.493C225.131 117.035 225.088 116.57 224.95 116.13C224.766 115.593 224.462 115.106 224.062 114.704C223.662 114.302 223.176 113.996 222.64 113.81C221.701 113.465 220.681 113.409 219.71 113.65C218.889 113.849 218.107 114.188 217.4 114.65C216.75 115.07 216.25 115.53 215.77 115.84C215.372 116.127 214.907 116.306 214.42 116.36C214.001 116.399 213.579 116.312 213.21 116.11C213.21 116.11 213.52 116.59 214.43 116.59C214.967 116.575 215.489 116.413 215.94 116.12C216.47 115.82 217 115.37 217.62 115C218.314 114.519 219.111 114.204 219.947 114.081C220.783 113.958 221.636 114.029 222.44 114.29C222.904 114.449 223.325 114.712 223.671 115.059C224.018 115.405 224.281 115.826 224.44 116.29C224.588 116.755 224.602 117.252 224.48 117.724C224.358 118.197 224.105 118.625 223.75 118.96C223.243 118.039 222.497 117.272 221.59 116.74C219.59 115.61 216.59 116.16 215.59 118.22L199.18 112.58C198.151 111.715 196.921 111.124 195.603 110.86C194.285 110.596 192.922 110.668 191.64 111.07L191.3 111.01C190.352 110.921 189.398 111.08 188.53 111.47C187.441 112.081 186.491 112.912 185.74 113.91C185.29 114.428 184.76 114.87 184.17 115.22C184.066 115.266 183.959 115.306 183.85 115.34C183.123 115.422 182.391 115.449 181.66 115.42C180.28 115.1 178.85 114.31 177.15 114.14C176.2 114.011 175.233 114.079 174.31 114.34C173.329 114.629 172.45 115.187 171.77 115.95C171.055 116.75 170.663 117.787 170.67 118.86C170.683 119.63 170.804 120.394 171.03 121.13C170.661 122.12 170.498 123.175 170.55 124.23C170.62 125.62 171.02 127.08 171.04 128.44C170.638 128.754 170.18 128.988 169.69 129.13C168.83 129.4 167.9 129.53 167.02 129.87C166.196 130.206 165.454 130.714 164.843 131.361C164.232 132.008 163.767 132.778 163.48 133.62C163.205 134.293 163.101 135.023 163.178 135.745C163.255 136.468 163.51 137.16 163.92 137.76C163.71 138.673 163.705 139.621 163.906 140.535C164.106 141.45 164.507 142.309 165.08 143.05C165.99 143.915 166.848 144.833 167.65 145.8C168.73 147.47 168.57 149.62 168.85 151.59C169.13 153.56 170.26 155.8 172.25 155.93C173.85 156.03 175.25 154.69 176.89 154.82C179.13 155 180.05 157.69 181.35 159.53C182.189 160.686 183.323 161.596 184.633 162.166C185.943 162.736 187.382 162.944 188.8 162.77C190.8 162.5 192.86 161.42 194.85 161.92C197.36 162.56 198.85 165.5 201.44 165.87C203.34 166.14 205.11 164.87 206.53 163.57C207.95 162.27 209.38 160.77 211.28 160.43C213.56 160.02 215.76 161.43 218.06 161.71C219.553 161.889 221.065 161.625 222.409 160.951C223.754 160.277 224.87 159.223 225.62 157.92C226.88 155.63 226.87 152.82 228.06 150.49C228.97 149.006 229.972 147.58 231.06 146.22C232 144.81 232.73 143 232.15 141.32ZM166.35 133.94C166.165 133.901 165.974 133.901 165.79 133.94C165.79 133.94 165.96 133.94 166.24 134.05L165.93 134.28C164.994 135.06 164.317 136.106 163.99 137.28C163.742 136.748 163.605 136.172 163.588 135.585C163.571 134.999 163.674 134.415 163.89 133.87C164.165 133.103 164.599 132.404 165.165 131.818C165.73 131.231 166.414 130.772 167.17 130.47C167.97 130.17 168.88 130.04 169.81 129.76C170.213 129.646 170.597 129.475 170.95 129.25C170.907 129.795 170.747 130.323 170.48 130.8C169.62 132.29 167.8 132.92 166.35 133.94ZM177.55 115.54C176.221 115.791 174.969 116.351 173.895 117.174C172.822 117.997 171.957 119.061 171.37 120.28C171.268 119.83 171.214 119.371 171.21 118.91C171.205 117.976 171.543 117.072 172.16 116.37C172.778 115.719 173.545 115.228 174.396 114.941C175.246 114.653 176.154 114.577 177.04 114.72C177.961 114.841 178.864 115.073 179.73 115.41C179.001 115.398 178.272 115.442 177.55 115.54ZM185.78 114.85C185.58 114.94 185.37 115 185.17 115.07C185.462 114.805 185.739 114.525 186 114.23C186.708 113.261 187.598 112.439 188.62 111.81C189.375 111.439 190.209 111.261 191.05 111.29C190.616 111.449 190.2 111.653 189.81 111.9C188.41 112.8 187.3 114.15 185.78 114.85Z" fill="#263238"/>
<path d="M221.349 149.2C222.129 144.28 221.889 136.2 221.469 129.59C221.381 128.181 221.009 126.805 220.375 125.544C219.741 124.283 218.859 123.163 217.78 122.252C216.702 121.341 215.451 120.658 214.102 120.243C212.752 119.829 211.333 119.691 209.929 119.84L192.739 121.66C191.872 121.75 191.071 122.163 190.495 122.817C189.919 123.472 189.61 124.318 189.629 125.19L191.399 167.42H187.399V175.07C187.399 179.271 189.068 183.3 192.039 186.271C195.009 189.241 199.038 190.91 203.239 190.91C207.44 190.91 211.469 189.241 214.44 186.271C217.411 183.3 219.079 179.271 219.079 175.07V168.45C219.079 168.45 214.959 167.1 212.459 167.24H211.849C211.849 163.37 212.169 160.34 212.169 160.34C212.169 160.34 219.779 159.11 221.349 149.2Z" fill="#FFBE9D"/>
<path d="M218.899 136C218.9 136.331 218.772 136.649 218.542 136.888C218.313 137.127 218 137.267 217.669 137.28C217.507 137.294 217.344 137.274 217.189 137.223C217.035 137.173 216.892 137.091 216.77 136.984C216.648 136.876 216.548 136.745 216.478 136.599C216.407 136.452 216.367 136.293 216.359 136.13C216.359 135.799 216.487 135.481 216.716 135.242C216.946 135.003 217.259 134.863 217.589 134.85C217.751 134.838 217.914 134.858 218.068 134.909C218.222 134.961 218.364 135.043 218.486 135.15C218.608 135.257 218.707 135.387 218.778 135.533C218.849 135.679 218.891 135.838 218.899 136Z" fill="#263238"/>
<path d="M219.72 133.8C219.56 133.96 218.6 133.25 217.23 133.25C215.86 133.25 214.86 133.94 214.71 133.77C214.56 133.6 214.8 133.4 215.24 133.08C215.829 132.677 216.526 132.461 217.24 132.46C217.958 132.455 218.658 132.679 219.24 133.1C219.65 133.42 219.8 133.72 219.72 133.8Z" fill="#263238"/>
<path d="M205.53 136C205.533 136.33 205.407 136.648 205.18 136.887C204.952 137.126 204.64 137.267 204.31 137.28C204.148 137.294 203.985 137.274 203.83 137.223C203.676 137.173 203.533 137.091 203.411 136.984C203.288 136.876 203.189 136.745 203.118 136.599C203.048 136.452 203.008 136.293 203 136.13C202.995 135.799 203.12 135.48 203.348 135.24C203.576 135.001 203.889 134.86 204.22 134.85C204.382 134.838 204.545 134.858 204.699 134.909C204.853 134.961 204.995 135.043 205.117 135.15C205.239 135.257 205.338 135.387 205.409 135.533C205.48 135.679 205.521 135.838 205.53 136Z" fill="#263238"/>
<path d="M206.279 134.05C206.119 134.22 205.159 133.51 203.789 133.51C202.419 133.51 201.419 134.2 201.269 134.03C201.119 133.86 201.359 133.66 201.799 133.34C202.384 132.928 203.084 132.711 203.799 132.72C204.518 132.71 205.22 132.935 205.799 133.36C206.209 133.68 206.359 134 206.279 134.05Z" fill="#263238"/>
<path d="M211.24 144.19C211.96 143.965 212.706 143.83 213.46 143.79C213.81 143.79 214.14 143.69 214.2 143.45C214.221 143.101 214.141 142.754 213.97 142.45C213.64 141.61 213.3 140.72 212.97 139.79C211.54 136.01 210.5 132.9 210.66 132.84C211.79 135.012 212.749 137.269 213.53 139.59C213.87 140.53 214.2 141.41 214.53 142.27C214.751 142.691 214.814 143.176 214.71 143.64C214.658 143.763 214.578 143.873 214.478 143.961C214.378 144.049 214.259 144.114 214.13 144.15C213.938 144.203 213.739 144.23 213.54 144.23C212.775 144.315 212.002 144.302 211.24 144.19Z" fill="#263238"/>
<path d="M212.19 160.37C207.524 160.441 202.93 159.216 198.92 156.83C198.92 156.83 202.14 163.64 212.05 162.71L212.19 160.37Z" fill="#EB996E"/>
<path d="M210.66 147.49C210.4 147.162 210.061 146.905 209.674 146.744C209.287 146.583 208.866 146.523 208.45 146.57C208.148 146.598 207.856 146.688 207.589 146.832C207.323 146.976 207.089 147.173 206.9 147.41C206.716 147.637 206.607 147.916 206.587 148.208C206.568 148.499 206.638 148.79 206.79 149.04C207.012 149.282 207.3 149.453 207.618 149.533C207.936 149.613 208.27 149.598 208.58 149.49C209.222 149.272 209.816 148.933 210.33 148.49C210.485 148.379 210.617 148.24 210.72 148.08C210.772 148.005 210.799 147.916 210.799 147.825C210.799 147.734 210.772 147.645 210.72 147.57" fill="#EB996E"/>
<path d="M207.22 145.14C207.44 145.14 207.44 146.61 208.71 147.66C209.98 148.71 211.56 148.55 211.57 148.76C211.58 148.97 211.22 149.05 210.57 149.07C209.702 149.081 208.859 148.783 208.19 148.23C207.541 147.707 207.124 146.948 207.03 146.12C207 145.5 207.12 145.13 207.22 145.14Z" fill="#263238"/>
<path d="M206.89 131.66C206.76 132.03 205.39 131.85 203.79 132.05C202.19 132.25 200.89 132.68 200.68 132.34C200.58 132.19 200.81 131.84 201.33 131.48C202.023 131.026 202.816 130.748 203.64 130.67C204.461 130.571 205.293 130.667 206.07 130.95C206.66 131.19 207 131.48 206.89 131.66Z" fill="#263238"/>
<path d="M219.22 131C218.98 131.31 218.03 131 216.9 131C215.77 131 214.81 131.21 214.59 130.88C214.49 130.72 214.59 130.41 215.06 130.12C215.62 129.762 216.276 129.584 216.94 129.61C217.606 129.62 218.252 129.837 218.79 130.23C219.19 130.53 219.32 130.85 219.22 131Z" fill="#263238"/>
<path d="M225.159 120.75C224.479 118.11 222.479 115.67 219.799 115.17C218.049 114.85 216.259 115.36 214.489 115.25C213.019 115.16 212.489 113.99 211.099 113.53C208.779 112.77 206.999 110.19 201.989 110.73C200.649 110.88 198.929 112.43 197.699 114.19C195.779 113.36 193.249 114.25 191.869 114.86C188.999 116.11 187.209 119.34 186.639 122.62C186.069 125.9 186.539 129.27 186.999 132.57C187.209 134.07 187.419 135.57 187.639 137.09C187.721 138.091 187.989 139.068 188.429 139.97L186.149 161.17C187.291 161.535 188.494 161.664 189.687 161.548C190.88 161.432 192.036 161.075 193.086 160.498C194.136 159.92 195.057 159.135 195.794 158.19C196.53 157.245 197.066 156.159 197.369 155C198.249 150.83 195.929 146.59 196.299 142.34C196.519 139.81 197.949 137.46 197.939 134.92C197.923 134.085 197.802 133.255 197.579 132.45C201.579 129.18 202.639 126.55 202.469 123.45C203.704 124.313 205.164 124.796 206.669 124.84C208.789 124.84 210.999 124.04 212.979 124.84C214.342 125.537 215.545 126.511 216.509 127.7C217.599 128.78 219.009 129.77 220.509 129.56C221.226 129.39 221.924 129.146 222.589 128.83C222.924 128.672 223.289 128.589 223.659 128.589C224.029 128.589 224.395 128.672 224.729 128.83C225.539 126.214 225.687 123.437 225.159 120.75Z" fill="#263238"/>
<path d="M165.92 142.46C166.945 143.204 168.049 143.834 169.21 144.34C170.572 144.914 172.032 145.223 173.51 145.25C175.469 145.302 177.394 144.724 179 143.6C179.963 142.935 180.776 142.075 181.386 141.076C181.996 140.077 182.389 138.961 182.54 137.8C182.695 136.512 182.432 135.207 181.79 134.08C181.458 133.502 180.986 133.017 180.419 132.667C179.851 132.318 179.205 132.116 178.54 132.08C177.86 132.062 177.196 132.281 176.66 132.7C176.116 133.154 175.714 133.755 175.5 134.43C175.264 135.126 175.21 135.871 175.343 136.594C175.476 137.317 175.792 137.993 176.26 138.56C177.279 139.744 178.654 140.565 180.18 140.9C181.756 141.272 183.393 141.299 184.98 140.98C186.573 140.663 188.069 139.978 189.35 138.98C190.59 138.02 191.53 136.726 192.06 135.25C192.58 133.83 192.705 132.295 192.42 130.81C192.284 130.107 192.034 129.432 191.68 128.81C191.356 128.187 190.895 127.647 190.33 127.23C189.807 126.815 189.167 126.574 188.5 126.54C188.191 126.529 187.884 126.604 187.615 126.756C187.345 126.907 187.122 127.13 186.97 127.4C186.679 127.95 186.611 128.591 186.78 129.19C186.973 129.785 187.317 130.319 187.78 130.74C189.426 132.132 191.533 132.858 193.687 132.775C195.841 132.692 197.887 131.805 199.42 130.29C200.449 129.229 201.201 127.931 201.61 126.51C201.947 125.294 202.052 124.025 201.92 122.77C202.012 123.096 202.066 123.432 202.08 123.77C202.151 124.721 202.063 125.678 201.82 126.6C201.424 128.068 200.675 129.417 199.64 130.53C198.231 132.001 196.346 132.926 194.32 133.14C193.098 133.298 191.857 133.197 190.677 132.844C189.497 132.491 188.404 131.893 187.47 131.09C186.952 130.617 186.572 130.012 186.37 129.34C186.167 128.62 186.249 127.85 186.6 127.19C186.793 126.847 187.075 126.563 187.417 126.367C187.758 126.172 188.146 126.073 188.54 126.08C189.314 126.112 190.058 126.385 190.67 126.86C191.292 127.316 191.801 127.908 192.16 128.59C192.546 129.272 192.819 130.011 192.97 130.78C193.281 132.357 193.153 133.99 192.6 135.5C192.04 137.077 191.045 138.464 189.73 139.5C188.379 140.541 186.804 141.253 185.13 141.58C183.476 141.91 181.771 141.879 180.13 141.49C178.492 141.125 177.015 140.242 175.92 138.97C175.403 138.323 175.059 137.556 174.92 136.74C174.796 135.936 174.862 135.114 175.11 134.34C175.352 133.559 175.814 132.865 176.44 132.34C177.075 131.852 177.859 131.597 178.66 131.62C179.41 131.66 180.138 131.89 180.775 132.289C181.411 132.688 181.936 133.242 182.3 133.9C182.98 135.116 183.257 136.517 183.09 137.9C182.923 139.118 182.501 140.288 181.852 141.332C181.202 142.377 180.339 143.272 179.32 143.96C177.65 145.113 175.648 145.689 173.62 145.6C172.108 145.557 170.62 145.217 169.24 144.6C168.365 144.225 167.539 143.745 166.78 143.17C166.52 142.98 166.34 142.81 166.21 142.71L165.92 142.46Z" fill="#455A64"/>
<path d="M225.74 125.23C225.598 125.364 225.436 125.476 225.26 125.56C224.77 125.833 224.24 126.029 223.69 126.14C222.812 126.318 221.908 126.318 221.03 126.14C219.869 125.866 218.794 125.309 217.9 124.52C216.823 123.561 215.981 122.367 215.44 121.03C215.26 120.645 215.161 120.228 215.147 119.803C215.133 119.379 215.206 118.956 215.36 118.56C215.551 118.133 215.878 117.782 216.29 117.56C216.512 117.444 216.759 117.384 217.01 117.384C217.261 117.384 217.508 117.444 217.73 117.56C218.158 117.809 218.49 118.195 218.672 118.656C218.853 119.117 218.874 119.626 218.73 120.1C218.556 120.565 218.289 120.989 217.945 121.347C217.601 121.704 217.188 121.988 216.73 122.18C214.888 122.975 212.806 123.007 210.94 122.27C210.008 121.934 209.113 121.501 208.27 120.98C207.428 120.492 206.663 119.882 206 119.17C205.645 118.793 205.429 118.307 205.387 117.79C205.345 117.274 205.48 116.759 205.77 116.33C205.941 116.122 206.165 115.965 206.419 115.875C206.673 115.785 206.946 115.766 207.21 115.82C207.694 115.927 208.125 116.199 208.43 116.59C208.734 116.974 208.874 117.463 208.82 117.95C208.757 118.406 208.563 118.833 208.26 119.18C207.704 119.822 206.917 120.217 206.07 120.28C205.308 120.334 204.543 120.236 203.82 119.99C203.169 119.783 202.531 119.536 201.91 119.25C200.81 118.791 199.849 118.053 199.12 117.11C198.588 116.367 198.334 115.461 198.4 114.55C198.435 113.981 198.637 113.435 198.98 112.98C199.1 112.822 199.249 112.69 199.42 112.59C198.916 113.136 198.628 113.847 198.61 114.59C198.584 115.439 198.849 116.272 199.36 116.95C200.074 117.841 201.008 118.531 202.07 118.95C203.31 119.576 204.681 119.899 206.07 119.89C206.434 119.856 206.787 119.749 207.11 119.578C207.433 119.406 207.718 119.172 207.95 118.89C208.208 118.628 208.364 118.283 208.39 117.916C208.416 117.549 208.309 117.185 208.09 116.89C207.64 116.3 206.68 116.04 206.23 116.65C206.115 116.803 206.032 116.977 205.986 117.163C205.939 117.348 205.931 117.541 205.96 117.73C206.019 118.137 206.192 118.518 206.46 118.83C207.089 119.489 207.81 120.055 208.6 120.51C209.41 121.011 210.271 121.424 211.17 121.74C212.022 122.095 212.937 122.277 213.86 122.277C214.783 122.277 215.698 122.095 216.55 121.74C216.936 121.578 217.285 121.34 217.575 121.039C217.866 120.738 218.092 120.381 218.24 119.99C218.363 119.619 218.353 119.217 218.213 118.852C218.072 118.488 217.81 118.183 217.47 117.99C217.311 117.918 217.138 117.88 216.964 117.879C216.789 117.878 216.616 117.913 216.456 117.983C216.296 118.052 216.152 118.155 216.034 118.284C215.916 118.412 215.826 118.564 215.77 118.73C215.643 119.067 215.584 119.427 215.596 119.787C215.608 120.147 215.691 120.502 215.84 120.83C216.342 122.11 217.129 123.259 218.14 124.19C218.974 124.96 219.983 125.516 221.08 125.81C221.913 126.022 222.78 126.066 223.63 125.94C224.362 125.798 225.071 125.559 225.74 125.23Z" fill="#455A64"/>
<path d="M196.86 148.49C196.741 148.627 196.599 148.742 196.44 148.83C195.996 149.118 195.5 149.315 194.98 149.41C194.157 149.58 193.304 149.524 192.51 149.25C191.963 149.091 191.455 148.817 191.023 148.446C190.59 148.076 190.241 147.616 190 147.1C189.837 146.771 189.786 146.397 189.855 146.036C189.924 145.675 190.108 145.347 190.38 145.1C190.688 144.862 191.066 144.734 191.455 144.734C191.844 144.734 192.222 144.862 192.53 145.1C193.15 145.605 193.62 146.269 193.892 147.022C194.163 147.774 194.224 148.585 194.07 149.37C193.968 150.239 193.65 151.068 193.145 151.783C192.64 152.497 191.965 153.074 191.18 153.46C190.316 153.825 189.377 153.979 188.442 153.91C187.506 153.84 186.601 153.549 185.8 153.06C184.972 152.595 184.266 151.941 183.74 151.15C183.473 150.754 183.291 150.307 183.207 149.837C183.122 149.367 183.137 148.884 183.25 148.42C183.37 147.956 183.616 147.534 183.96 147.2C184.135 147.029 184.344 146.896 184.572 146.808C184.801 146.72 185.045 146.68 185.29 146.69C185.74 146.724 186.173 146.874 186.548 147.124C186.923 147.375 187.226 147.718 187.43 148.12C187.801 148.845 188.002 149.645 188.02 150.46C188.049 151.21 187.975 151.96 187.8 152.69C187.485 154.017 186.79 155.223 185.8 156.16C185.091 156.845 184.196 157.306 183.226 157.484C182.256 157.662 181.256 157.549 180.35 157.16C179.866 156.949 179.425 156.651 179.05 156.28C178.914 156.16 178.799 156.018 178.71 155.86C179.223 156.314 179.803 156.685 180.43 156.96C181.174 157.248 181.978 157.347 182.77 157.25C183.812 157.124 184.782 156.656 185.53 155.92C186.434 155.019 187.059 153.877 187.33 152.63C187.491 151.939 187.552 151.228 187.51 150.52C187.488 149.784 187.3 149.063 186.96 148.41C186.799 148.083 186.556 147.803 186.254 147.598C185.953 147.393 185.603 147.27 185.24 147.24C184.873 147.263 184.524 147.41 184.251 147.657C183.979 147.904 183.798 148.237 183.74 148.6C183.645 148.992 183.635 149.4 183.709 149.796C183.783 150.192 183.94 150.569 184.17 150.9C184.65 151.617 185.29 152.212 186.04 152.64C186.779 153.089 187.614 153.356 188.477 153.419C189.339 153.481 190.204 153.338 191 153C191.707 152.649 192.317 152.129 192.774 151.485C193.232 150.841 193.522 150.094 193.62 149.31C193.761 148.615 193.715 147.895 193.487 147.224C193.259 146.553 192.856 145.954 192.32 145.49C192.087 145.308 191.8 145.208 191.505 145.208C191.209 145.208 190.922 145.308 190.69 145.49C190.488 145.677 190.351 145.923 190.299 146.192C190.247 146.462 190.282 146.742 190.4 146.99C190.61 147.46 190.916 147.88 191.298 148.225C191.681 148.569 192.131 148.83 192.62 148.99C193.367 149.267 194.172 149.349 194.96 149.23C195.631 149.094 196.273 148.843 196.86 148.49Z" fill="#455A64"/>
<path d="M155.55 391.58C155.55 391.58 162.24 404.58 179.68 398.26C179.68 398.26 196.76 407.54 213.1 397.15C213.1 397.15 234.25 399.98 245.76 394.41L231 266.77L229.12 247.17H182.41C182.41 247.17 168.55 253.48 166.32 284.29C164.09 315.1 159.32 357.42 159.32 357.42L155.55 391.58Z" fill="#263238"/>
<path d="M212.1 397.54C212.1 397.54 212.1 397.41 212.1 397.15C212.1 396.89 212.04 396.5 212 396.02C211.92 395.02 211.81 393.53 211.66 391.66C211.38 387.88 211.01 382.4 210.61 375.66C209.8 362.12 208.94 343.38 208.49 322.66C208.04 301.94 208.09 283.19 208.31 269.66C208.42 262.87 208.54 257.38 208.67 253.59C208.73 251.71 208.78 250.25 208.82 249.22C208.82 248.74 208.82 248.36 208.82 248.08C208.807 247.954 208.807 247.826 208.82 247.7C208.835 247.826 208.835 247.954 208.82 248.08V249.22C208.82 250.22 208.82 251.72 208.77 253.59C208.77 257.41 208.66 262.9 208.58 269.66C208.46 283.23 208.46 301.98 208.91 322.66C209.36 343.34 210.17 362.09 210.91 375.66C211.28 382.42 211.58 387.89 211.8 391.66C211.9 393.53 211.98 395 212.04 396.02C212.04 396.5 212.04 396.88 212.09 397.16C212.104 397.286 212.107 397.413 212.1 397.54Z" fill="#455A64"/>
<path d="M216.2 361C216.2 361 216.3 360.86 216.56 360.79C216.945 360.706 217.347 360.756 217.7 360.93C217.968 361.061 218.203 361.25 218.388 361.484C218.573 361.717 218.703 361.989 218.77 362.28C218.808 362.654 218.737 363.03 218.565 363.365C218.394 363.699 218.129 363.976 217.803 364.162C217.476 364.348 217.103 364.436 216.728 364.414C216.353 364.393 215.992 364.263 215.69 364.04C215.473 363.833 215.306 363.58 215.201 363.299C215.095 363.019 215.054 362.718 215.08 362.42C215.109 362.028 215.271 361.657 215.54 361.37C215.73 361.18 215.89 361.14 215.9 361.16C215.633 361.536 215.477 361.98 215.45 362.44C215.451 362.672 215.5 362.901 215.594 363.113C215.689 363.325 215.827 363.515 216 363.67C216.23 363.815 216.495 363.895 216.767 363.901C217.038 363.907 217.307 363.839 217.543 363.705C217.779 363.57 217.974 363.374 218.108 363.137C218.241 362.9 218.307 362.632 218.3 362.36C218.258 362.131 218.166 361.914 218.031 361.724C217.897 361.534 217.722 361.376 217.52 361.26C217.117 361.041 216.656 360.95 216.2 361Z" fill="#455A64"/>
<path d="M215.16 323.1C215.16 323.1 215.26 322.97 215.52 322.9C215.904 322.81 216.308 322.86 216.66 323.04C216.932 323.165 217.17 323.352 217.356 323.587C217.542 323.821 217.67 324.097 217.73 324.39C217.764 324.761 217.691 325.134 217.519 325.465C217.346 325.796 217.083 326.07 216.759 326.254C216.435 326.439 216.065 326.526 215.692 326.506C215.32 326.486 214.962 326.359 214.66 326.14C214.439 325.938 214.269 325.687 214.163 325.408C214.057 325.128 214.018 324.827 214.05 324.53C214.082 324.155 214.241 323.803 214.5 323.53C214.7 323.33 214.85 323.3 214.86 323.32C214.594 323.693 214.438 324.133 214.41 324.59C214.41 324.822 214.459 325.052 214.553 325.264C214.648 325.476 214.787 325.665 214.96 325.82C215.188 325.968 215.453 326.051 215.725 326.059C215.997 326.068 216.267 326.001 216.504 325.867C216.741 325.733 216.937 325.537 217.07 325.299C217.203 325.062 217.269 324.792 217.26 324.52C217.216 324.291 217.125 324.074 216.993 323.883C216.86 323.692 216.689 323.531 216.49 323.41C216.084 323.185 215.623 323.077 215.16 323.1Z" fill="#455A64"/>
<path d="M214.55 289.58C214.55 289.58 214.65 289.45 214.92 289.38C215.301 289.291 215.702 289.341 216.05 289.52C216.322 289.646 216.562 289.833 216.75 290.067C216.937 290.302 217.067 290.576 217.13 290.87C217.166 291.243 217.093 291.618 216.921 291.951C216.748 292.283 216.483 292.559 216.157 292.744C215.832 292.929 215.459 293.015 215.085 292.994C214.711 292.972 214.352 292.842 214.05 292.62C213.831 292.417 213.662 292.166 213.557 291.886C213.451 291.607 213.411 291.307 213.44 291.01C213.467 290.619 213.626 290.249 213.89 289.96C214.09 289.77 214.24 289.73 214.26 289.75C213.988 290.121 213.828 290.561 213.8 291.02C213.799 291.253 213.848 291.484 213.945 291.697C214.041 291.909 214.183 292.098 214.36 292.25C214.588 292.395 214.852 292.476 215.123 292.483C215.393 292.49 215.661 292.423 215.896 292.289C216.132 292.155 216.326 291.96 216.459 291.724C216.592 291.488 216.658 291.221 216.65 290.95C216.607 290.721 216.516 290.504 216.383 290.313C216.25 290.122 216.079 289.961 215.88 289.84C215.469 289.632 215.009 289.541 214.55 289.58Z" fill="#455A64"/>
<path d="M213.36 253.72C213.36 253.72 213.46 253.58 213.72 253.51C214.106 253.425 214.509 253.478 214.86 253.66C215.131 253.787 215.368 253.975 215.554 254.209C215.739 254.443 215.868 254.717 215.93 255.01C215.981 255.387 215.912 255.771 215.732 256.107C215.553 256.442 215.272 256.713 214.93 256.88C214.608 257.079 214.233 257.175 213.856 257.153C213.478 257.132 213.117 256.994 212.82 256.76C212.603 256.553 212.436 256.3 212.33 256.019C212.225 255.739 212.184 255.438 212.21 255.14C212.249 254.765 212.411 254.414 212.67 254.14C212.87 253.95 213.02 253.91 213.03 253.93C212.763 254.306 212.607 254.75 212.58 255.21C212.58 255.442 212.63 255.671 212.724 255.883C212.819 256.095 212.957 256.285 213.13 256.44C213.36 256.585 213.625 256.665 213.896 256.671C214.168 256.677 214.437 256.609 214.673 256.475C214.909 256.34 215.104 256.144 215.237 255.907C215.371 255.67 215.437 255.402 215.43 255.13C215.388 254.901 215.296 254.684 215.161 254.494C215.027 254.304 214.852 254.145 214.65 254.03C214.261 253.799 213.811 253.691 213.36 253.72Z" fill="#455A64"/>
<path d="M274.239 214.9L510.109 213.19L516.679 373.55L272.439 371.29L274.239 214.9Z" fill="#28CC9E"/>
<path d="M274.229 214.9L385.869 124.57C388.163 122.716 391.026 121.71 393.975 121.721C396.924 121.732 399.78 122.759 402.059 124.63L510.109 213.19" fill="#28CC9E"/>
<g opacity="0.3">
<path d="M274.229 214.9L385.869 124.57C388.163 122.716 391.026 121.71 393.975 121.721C396.924 121.732 399.78 122.759 402.059 124.63L510.109 213.19" fill="black"/>
</g>
<path d="M272.44 371.29C272.15 371.01 291.03 350.39 314.62 325.24C338.21 300.09 357.56 279.92 357.86 280.19C358.16 280.46 339.27 301.08 315.68 326.24C292.09 351.4 272.74 371.56 272.44 371.29Z" fill="#263238"/>
<path d="M516.68 373.55C516.38 373.82 497.99 353.62 475.61 328.44C453.23 303.26 435.33 282.62 435.61 282.35C435.89 282.08 454.3 302.28 476.68 327.47C499.06 352.66 517 373.28 516.68 373.55Z" fill="#263238"/>
<g opacity="0.5">
<path d="M510.11 213.19L391.66 307.81L274.24 214.9" fill="black"/>
</g>
<path d="M286.11 223.66L285.75 150L492.28 147.55L494.61 225.06L391.65 306.57L286.11 223.66Z" fill="#FAFAFA"/>
<path d="M286.11 223.66C286.11 223.66 286.78 224.16 288.05 225.15L293.65 229.51L315 246.18L391.81 306.4H391.55L494.48 224.86L494.38 225.07C493.94 210.29 493.47 194.77 492.99 178.99C492.68 168.36 492.36 157.86 492.05 147.56L492.31 147.81L285.78 150.16L285.94 150C286.02 173.17 286.09 191.58 286.13 204.2C286.13 210.51 286.13 215.37 286.13 218.66V222.39C286.13 223.23 286.13 223.66 286.13 223.66C286.13 223.66 286.13 223.24 286.13 222.41C286.13 221.58 286.13 220.33 286.13 218.7C286.13 215.41 286.06 210.56 286.01 204.26C285.93 191.62 285.81 173.2 285.66 150V149.83H285.82L492.36 147.3H492.61V147.56C492.92 157.85 493.23 168.35 493.55 178.98C494.03 194.77 494.49 210.28 494.94 225.07V225.2L494.84 225.28L391.84 306.75L391.71 306.85L391.58 306.75L314.82 246.33L293.6 229.58L288 225.18C286.74 224.18 286.11 223.66 286.11 223.66Z" fill="#263238"/>
<path d="M459.64 184.65C459.64 184.79 428.05 185.1 389.1 185.33C350.15 185.56 318.55 185.65 318.55 185.5C318.55 185.35 350.13 185.05 389.1 184.81C428.07 184.57 459.64 184.5 459.64 184.65Z" fill="#263238"/>
<path d="M459.64 205.45C459.64 205.6 428.05 205.91 389.1 206.14C350.15 206.37 318.55 206.45 318.55 206.31C318.55 206.17 350.13 205.86 389.1 205.62C428.07 205.38 459.64 205.31 459.64 205.45Z" fill="#263238"/>
<path d="M459.64 229.44C459.64 229.58 428.05 229.89 389.1 230.13C350.15 230.37 318.55 230.44 318.55 230.29C318.55 230.14 350.13 229.84 389.1 229.61C428.07 229.38 459.64 229.29 459.64 229.44Z" fill="#263238"/>
<path d="M459.64 253.42C459.64 253.57 429.51 253.86 392.34 254.09C355.17 254.32 325.04 254.38 325.03 254.24C325.02 254.1 355.16 253.8 392.34 253.57C429.52 253.34 459.64 253.28 459.64 253.42Z" fill="#263238"/>
<path d="M433.22 274.47C432.949 274.516 432.675 274.536 432.4 274.53L430.02 274.6L421.3 274.74L392.51 275.15C381.27 275.34 371.08 275.4 363.71 275.41H354.99H352.61C352.336 275.415 352.062 275.398 351.79 275.36C352.061 275.314 352.335 275.294 352.61 275.3L354.99 275.24L363.71 275.09L392.5 274.68C403.74 274.49 413.93 274.43 421.29 274.42H430.02H432.4C432.674 274.419 432.948 274.436 433.22 274.47Z" fill="#263238"/>
<path d="M406.63 294.71C406.63 294.85 399.9 294.97 391.63 294.97C383.36 294.97 376.63 294.85 376.63 294.71C376.63 294.57 383.37 294.45 391.63 294.45C399.89 294.45 406.63 294.56 406.63 294.71Z" fill="#263238"/>
<path d="M476.15 278.37C489.929 278.37 501.1 267.2 501.1 253.42C501.1 239.641 489.929 228.47 476.15 228.47C462.37 228.47 451.2 239.641 451.2 253.42C451.2 267.2 462.37 278.37 476.15 278.37Z" fill="#263238"/>
<path d="M469.66 278.37C483.439 278.37 494.61 267.2 494.61 253.42C494.61 239.641 483.439 228.47 469.66 228.47C455.88 228.47 444.71 239.641 444.71 253.42C444.71 267.2 455.88 278.37 469.66 278.37Z" fill="#455A64"/>
<path d="M472.83 241.81V262.55H469V245H464.61V241.77L472.83 241.81Z" fill="#EBEBEB"/>
<path d="M287.73 116.35H310.55L307.46 112.81V104.32C307.46 102.113 306.584 99.9972 305.024 98.4369C303.463 96.8766 301.347 96 299.14 96C298.048 96 296.967 96.2153 295.958 96.6335C294.949 97.0518 294.033 97.6648 293.261 98.4375C292.489 99.2102 291.877 100.127 291.46 101.137C291.043 102.146 290.829 103.228 290.83 104.32V112.39L287.73 116.35Z" fill="#28CC9E"/>
<path d="M296 115.23C296.025 115.727 296.155 116.213 296.382 116.656C296.609 117.098 296.927 117.488 297.315 117.799C297.704 118.11 298.153 118.335 298.635 118.46C299.117 118.584 299.619 118.605 300.11 118.521C300.6 118.437 301.067 118.25 301.48 117.972C301.893 117.695 302.242 117.333 302.505 116.91C302.767 116.488 302.938 116.015 303.004 115.522C303.07 115.028 303.032 114.527 302.89 114.05" fill="#28CC9E"/>
<path d="M300.411 92.54H298.171V97.3H300.411V92.54Z" fill="#28CC9E"/>
<path d="M332.41 100.74C332.343 100.544 332.289 100.344 332.25 100.14C332.15 99.71 332.02 99.14 331.85 98.38C331.642 97.4235 331.371 96.4815 331.04 95.56C330.84 95.02 330.7 94.41 330.43 93.8L329.58 91.86C328.042 88.5828 326.001 85.5664 323.53 82.92C320.286 79.4997 316.357 76.8011 312 75C309.519 73.9556 306.92 73.2168 304.26 72.8C301.392 72.382 298.481 72.3349 295.6 72.66C294.085 72.8195 292.581 73.08 291.1 73.44C290.35 73.6 289.62 73.89 288.86 74.12C288.097 74.3318 287.352 74.6026 286.63 74.93C283.567 76.1691 280.716 77.8797 278.18 80C272.554 84.639 268.588 90.9809 266.88 98.07C265.981 101.868 265.761 105.795 266.23 109.67C266.642 113.678 267.806 117.573 269.66 121.15L270.24 122.24L270.31 122.38V122.53C268.46 128.53 266.66 134.53 264.9 140.26L264.43 139.83L278.72 132.38L278.89 132.29L279.05 132.41C285.025 137.017 292.388 139.455 299.932 139.325C307.475 139.194 314.749 136.502 320.56 131.69C323.54 129.199 326.079 126.224 328.07 122.89C329.663 120.106 330.889 117.128 331.72 114.03C332.281 111.677 332.616 109.276 332.72 106.86C332.72 105.86 332.72 105 332.72 104.23C332.72 103.46 332.6 102.85 332.56 102.32C332.52 101.79 332.48 101.44 332.46 101.15C332.445 101.017 332.445 100.883 332.46 100.75C332.496 100.878 332.519 101.008 332.53 101.14C332.53 101.433 332.58 101.823 332.68 102.31C332.74 102.84 332.81 103.47 332.9 104.23C332.99 104.99 332.9 105.88 332.9 106.87C332.845 109.307 332.543 111.733 332 114.11C331.202 117.255 329.992 120.282 328.4 123.11C326.409 126.517 323.852 129.56 320.84 132.11C317.153 135.188 312.852 137.446 308.224 138.732C303.596 140.018 298.747 140.304 294 139.57C288.413 138.683 283.133 136.425 278.63 133H278.97L264.7 140.47L263.98 140.85L264.22 140.04L269.62 122.31V122.6L269.03 121.49C267.139 117.834 265.951 113.855 265.53 109.76C265.041 105.795 265.271 101.774 266.21 97.89C267.96 90.6622 272.014 84.2001 277.76 79.48C280.354 77.3339 283.266 75.6033 286.39 74.35C287.124 74.0176 287.883 73.7435 288.66 73.53C289.43 73.31 290.17 73.02 290.94 72.86C292.443 72.4903 293.97 72.2296 295.51 72.08C298.439 71.7576 301.397 71.8181 304.31 72.26C307.005 72.7067 309.637 73.4721 312.15 74.54C316.555 76.3943 320.515 79.1619 323.77 82.66C326.241 85.3552 328.267 88.4271 329.77 91.76C330.06 92.46 330.34 93.11 330.59 93.76C330.84 94.41 330.99 95 331.18 95.55C331.505 96.4789 331.756 97.4318 331.93 98.4C332.07 99.15 332.19 99.74 332.27 100.18C332.329 100.363 332.376 100.55 332.41 100.74Z" fill="#263238"/>
<path d="M608.31 338.21C611.58 349.26 609.1 363.47 605.14 374.29C601.116 385.216 593.71 394.574 584 401C582.92 401.71 581.53 402.4 580.39 401.79C579.969 401.455 579.625 401.032 579.385 400.549C579.145 400.067 579.014 399.538 579 399C576.661 387.052 578.257 374.668 583.548 363.703C588.84 352.738 597.542 343.783 608.35 338.18" fill="#28CC9E"/>
<g opacity="0.2">
<path d="M608.31 338.21C611.58 349.26 609.1 363.47 605.14 374.29C601.116 385.216 593.71 394.574 584 401C582.92 401.71 581.53 402.4 580.39 401.79C579.969 401.455 579.625 401.032 579.385 400.549C579.145 400.067 579.014 399.538 579 399C576.661 387.052 578.257 374.668 583.548 363.703C588.84 352.738 597.542 343.783 608.35 338.18" fill="black"/>
</g>
<path d="M559.19 285.76C566.07 285.57 570.61 293.22 571.3 300.08C571.99 306.94 570.47 314.08 572.48 320.64C575 329 582.86 335 585.22 343.43C588.02 353.36 582.57 363.67 582.31 373.98C582.18 378.98 583.31 384.07 582.36 388.98C581.569 393.18 579.346 396.976 576.069 399.72C572.793 402.464 568.666 403.987 564.393 404.03C560.119 404.072 555.963 402.631 552.633 399.953C549.303 397.274 547.005 393.523 546.13 389.34C544.52 381.62 547.93 373.41 545.89 365.78C544.38 360.15 540 355.36 539.64 349.54C539.22 342.61 544.58 336.62 545.58 329.75C546.58 322.88 543.1 316.17 542.58 309.24C541.65 296.82 546.79 287.07 559.18 285.74" fill="#28CC9E"/>
<path d="M574.27 427.21C574.364 426.988 574.434 426.757 574.48 426.52C574.6 426 574.75 425.33 574.93 424.52C575.3 422.79 575.93 420.28 576.63 417.19C580.537 401.092 586.111 385.444 593.26 370.5C594.63 367.63 595.77 365.33 596.58 363.74L597.49 361.91C597.607 361.701 597.7 361.479 597.77 361.25C597.617 361.431 597.486 361.629 597.38 361.84L596.38 363.62C595.5 365.17 594.29 367.45 592.87 370.3C585.472 385.175 579.876 400.879 576.2 417.08C575.51 420.19 575 422.72 574.7 424.48C574.57 425.29 574.46 425.96 574.37 426.48C574.31 426.719 574.277 426.964 574.27 427.21Z" fill="#263238"/>
<path d="M559.47 319.64C559.475 320.009 559.508 320.377 559.57 320.74C559.66 321.51 559.79 322.56 559.95 323.88L561.48 335.43C562.77 345.18 564.55 358.64 566.42 373.53C568.29 388.42 569.9 401.91 571.05 411.68C571.63 416.51 572.1 420.45 572.44 423.24C572.61 424.56 572.74 425.61 572.84 426.38C572.875 426.747 572.935 427.111 573.02 427.47C573.051 427.104 573.051 426.736 573.02 426.37C572.95 425.59 572.86 424.54 572.74 423.21C572.45 420.41 572.05 416.47 571.56 411.62C570.56 401.84 568.99 388.34 567.12 373.45C565.25 358.56 563.4 345.1 561.98 335.36C561.26 330.55 560.67 326.63 560.26 323.85C560.04 322.53 559.87 321.49 559.75 320.72C559.691 320.352 559.597 319.99 559.47 319.64Z" fill="#263238"/>
<path d="M598.29 413.7H546.03V419.8H598.29V413.7Z" fill="#263238"/>
<path d="M550.88 419.8L557.01 456.82H589.43L593.67 419.8H550.88Z" fill="#263238"/>
<path d="M593.84 419.55C593.84 419.7 584.19 419.93 572.28 420.08C560.37 420.23 550.72 420.23 550.72 420.08C550.72 419.93 560.37 419.7 572.28 419.55C584.19 419.4 593.84 419.41 593.84 419.55Z" fill="#455A64"/>
<path d="M592.06 438.08H591.77H590.9C589.785 438.12 588.669 438.077 587.56 437.95C585.779 437.774 584.075 437.133 582.62 436.09C581.708 435.431 580.97 434.559 580.47 433.55C579.89 432.397 579.779 431.064 580.16 429.83C580.379 429.139 580.814 428.537 581.401 428.112C581.987 427.687 582.695 427.462 583.42 427.47C584.191 427.533 584.907 427.891 585.42 428.47C585.921 429.077 586.265 429.798 586.42 430.57C587.05 433.73 584.83 437.25 581.42 438.35C578.01 439.45 573.85 437.55 572.15 434.1C571.706 433.229 571.447 432.276 571.39 431.3C571.322 430.283 571.589 429.271 572.15 428.42C572.446 427.988 572.831 427.626 573.28 427.356C573.729 427.087 574.23 426.918 574.75 426.86C575.287 426.831 575.822 426.94 576.304 427.179C576.786 427.417 577.198 427.776 577.5 428.22C578.105 429.075 578.418 430.103 578.39 431.15C578.37 432.162 578.113 433.155 577.64 434.05C576.72 435.781 575.259 437.165 573.48 437.99C571.798 438.783 569.998 439.293 568.15 439.5C566.372 439.757 564.558 439.599 562.85 439.04C561.2 438.487 559.788 437.386 558.85 435.92C558.414 435.223 558.141 434.437 558.051 433.619C557.961 432.802 558.056 431.975 558.33 431.2C558.561 430.459 558.99 429.795 559.569 429.279C560.149 428.763 560.858 428.414 561.62 428.27C562.325 428.162 563.046 428.236 563.714 428.484C564.383 428.733 564.977 429.148 565.44 429.69C565.822 430.216 566.055 430.836 566.115 431.483C566.175 432.131 566.059 432.783 565.78 433.37C565.316 434.406 564.549 435.278 563.58 435.87C562.768 436.388 561.899 436.811 560.99 437.13C560.16 437.45 559.39 437.7 558.69 437.9C557.623 438.212 556.537 438.459 555.44 438.64L554.58 438.77H554.29C554.29 438.77 554.38 438.77 554.57 438.69L555.42 438.52C556.16 438.36 557.26 438.11 558.64 437.68C559.32 437.47 560.08 437.2 560.9 436.88C561.786 436.554 562.631 436.128 563.42 435.61C564.306 435.026 565.002 434.195 565.42 433.22C565.673 432.69 565.776 432.1 565.72 431.516C565.664 430.931 565.449 430.372 565.1 429.9C564.676 429.413 564.135 429.042 563.528 428.822C562.921 428.601 562.268 428.539 561.63 428.64C560.944 428.781 560.309 429.104 559.792 429.576C559.274 430.047 558.894 430.65 558.69 431.32C558.44 432.034 558.354 432.796 558.441 433.548C558.528 434.299 558.784 435.022 559.19 435.66C560.076 437.025 561.398 438.05 562.94 438.57C564.58 439.093 566.317 439.237 568.02 438.99C569.808 438.781 571.551 438.285 573.18 437.52C574.86 436.736 576.239 435.427 577.11 433.79C577.578 432.985 577.816 432.067 577.798 431.136C577.781 430.205 577.508 429.297 577.01 428.51C576.762 428.135 576.42 427.831 576.019 427.629C575.617 427.427 575.169 427.335 574.72 427.36C574.277 427.413 573.851 427.559 573.47 427.79C573.089 428.022 572.761 428.332 572.51 428.7C572.01 429.456 571.774 430.356 571.84 431.26C571.893 432.164 572.128 433.049 572.53 433.86C574.12 437.09 578.03 438.95 581.2 437.86C584.37 436.77 586.47 433.53 585.89 430.63C585.763 429.925 585.452 429.267 584.99 428.72C584.777 428.465 584.515 428.255 584.219 428.102C583.924 427.95 583.601 427.857 583.27 427.83C582.631 427.822 582.005 428.018 581.485 428.391C580.966 428.763 580.578 429.292 580.38 429.9C580.015 431.043 580.108 432.284 580.64 433.36C581.1 434.326 581.786 435.166 582.64 435.81C584.049 436.839 585.698 437.49 587.43 437.7C588.528 437.843 589.633 437.916 590.74 437.92H591.61L592.06 438.08Z" fill="#455A64"/>
</svg>
