<svg width="25" height="25" viewBox="0 0 25 25" fill="none" xmlns="http://www.w3.org/2000/svg">
<path d="M16.1457 12.5C16.1457 12.9787 16.0514 13.4528 15.8681 13.8952C15.6849 14.3375 15.4164 14.7394 15.0778 15.078C14.7393 15.4165 14.3374 15.6851 13.895 15.8683C13.4527 16.0515 12.9786 16.1458 12.4998 16.1458C12.0211 16.1458 11.547 16.0515 11.1046 15.8683C10.6623 15.6851 10.2604 15.4165 9.92184 15.078C9.5833 14.7394 9.31475 14.3375 9.13153 13.8952C8.94831 13.4528 8.854 12.9787 8.854 12.5C8.854 11.533 9.23812 10.6057 9.92184 9.92197C10.6056 9.23824 11.5329 8.85413 12.4998 8.85413C13.4668 8.85413 14.3941 9.23824 15.0778 9.92197C15.7616 10.6057 16.1457 11.533 16.1457 12.5Z" fill="#132F2B" fill-opacity="0.8"/>
<path d="M12.5 3.64587C16.075 3.64587 18.8792 5.24379 20.8896 7.02192C22.8959 8.79587 24.1521 10.7823 24.6563 11.6677C24.8022 11.9209 24.879 12.2079 24.879 12.5C24.879 12.7922 24.8022 13.0792 24.6563 13.3323C24.1521 14.2177 22.8959 16.2042 20.8896 17.9792C18.8802 19.7563 16.075 21.3542 12.5 21.3542C8.92503 21.3542 6.12087 19.7563 4.11045 17.9792C2.1042 16.2063 0.84795 14.2188 0.343784 13.3334C0.19789 13.0803 0.121094 12.7932 0.121094 12.5011C0.121094 12.2089 0.19789 11.9219 0.343784 11.6688C0.84795 10.7834 2.1042 8.79692 4.11045 7.02087C6.11983 5.24379 8.92503 3.64587 12.5 3.64587ZM1.70108 12.4427C1.69041 12.46 1.68432 12.4798 1.68337 12.5C1.68441 12.5209 1.68962 12.5407 1.70108 12.5584C2.16045 13.3646 3.3167 15.1907 5.14587 16.8084C6.96983 18.4219 9.42191 19.7917 12.5 19.7917C15.5782 19.7917 18.0313 18.4219 19.8542 16.8084C21.6834 15.1907 22.8396 13.3646 23.299 12.5584C23.31 12.5409 23.3161 12.5207 23.3167 12.5C23.3161 12.4794 23.31 12.4592 23.299 12.4417C22.8396 11.6365 21.6834 9.80942 19.8542 8.19171C18.0302 6.57817 15.5782 5.20837 12.5 5.20837C9.42191 5.20837 6.96878 6.57712 5.14587 8.19275C3.3167 9.80942 2.16045 11.6365 1.70108 12.4427Z" fill="#132F2B" fill-opacity="0.8"/>
</svg>
