<svg width="60" height="60" viewBox="0 0 60 60" fill="none" xmlns="http://www.w3.org/2000/svg">
<path d="M6.66667 60C4.83333 60 3.26444 59.3478 1.96 58.0433C0.655556 56.7389 0.00222222 55.1689 0 53.3333V6.66667C0 4.83333 0.653334 3.26444 1.96 1.96C3.26667 0.655556 4.83556 0.00222222 6.66667 0H53.3333C55.1667 0 56.7367 0.653334 58.0433 1.96C59.35 3.26667 60.0022 4.83556 60 6.66667V53.3333C60 55.1667 59.3478 56.7367 58.0433 58.0433C56.7389 59.35 55.1689 60.0022 53.3333 60H6.66667ZM6.66667 53.3333H53.3333V6.66667H6.66667V53.3333ZM10 46.6667H50L37.5 30L27.5 43.3333L20 33.3333L10 46.6667Z" fill="black"/>
</svg>
