<svg width="65" height="65" viewBox="0 0 65 65" fill="none" xmlns="http://www.w3.org/2000/svg">
<path d="M32.4999 59.5833C26.7536 59.5833 21.2426 57.3006 17.1793 53.2373C13.116 49.174 10.8333 43.663 10.8333 37.9167C10.8333 28.4321 18.1728 20.846 24.6268 13.8937L32.4999 5.41666L40.373 13.8937C46.827 20.8487 54.1666 28.4348 54.1666 37.9167C54.1666 43.663 51.8839 49.174 47.8206 53.2373C43.7573 57.3006 38.2463 59.5833 32.4999 59.5833Z" stroke="#EA2B2B" stroke-width="2.5" stroke-linecap="round" stroke-linejoin="round"/>
<path d="M30.2559 33.3369L26.0195 45H24.2881L29.166 32.2031H30.2822L30.2559 33.3369ZM33.8066 45L29.5615 33.3369L29.5352 32.2031H30.6514L35.5469 45H33.8066ZM33.5869 40.2627V41.6514H26.3975V40.2627H33.5869ZM40.6484 38.8916V40.2275H36.3594V38.8916H40.6484Z" fill="#EA2B2B"/>
</svg>
