<svg width="65" height="65" viewBox="0 0 65 65" fill="none" xmlns="http://www.w3.org/2000/svg">
<path d="M32.4999 59.5833C26.7536 59.5833 21.2426 57.3006 17.1793 53.2373C13.116 49.174 10.8333 43.663 10.8333 37.9167C10.8333 28.4321 18.1728 20.846 24.6268 13.8937L32.4999 5.41666L40.373 13.8937C46.827 20.8487 54.1666 28.4348 54.1666 37.9167C54.1666 43.663 51.8839 49.174 47.8206 53.2373C43.7573 57.3006 38.2463 59.5833 32.4999 59.5833Z" stroke="#EA2B2B" stroke-width="2.5" stroke-linecap="round" stroke-linejoin="round"/>
<path d="M30.6074 39.0146H27.3643L27.3467 37.6523H30.291C30.7773 37.6523 31.2021 37.5703 31.5654 37.4062C31.9287 37.2422 32.21 37.0078 32.4092 36.7031C32.6143 36.3926 32.7168 36.0234 32.7168 35.5957C32.7168 35.127 32.626 34.7461 32.4443 34.4531C32.2686 34.1543 31.9961 33.9375 31.627 33.8027C31.2637 33.6621 30.8008 33.5918 30.2383 33.5918H27.7422V45H26.0459V32.2031H30.2383C30.8945 32.2031 31.4805 32.2705 31.9961 32.4053C32.5117 32.5342 32.9482 32.7393 33.3057 33.0205C33.6689 33.2959 33.9443 33.6475 34.1318 34.0752C34.3193 34.5029 34.4131 35.0156 34.4131 35.6133C34.4131 36.1406 34.2783 36.6182 34.0088 37.0459C33.7393 37.4678 33.3643 37.8135 32.8838 38.083C32.4092 38.3525 31.8525 38.5254 31.2139 38.6016L30.6074 39.0146ZM30.5283 45H26.6963L27.6543 43.6201H30.5283C31.0674 43.6201 31.5244 43.5264 31.8994 43.3389C32.2803 43.1514 32.5703 42.8877 32.7695 42.5479C32.9688 42.2021 33.0684 41.7949 33.0684 41.3262C33.0684 40.8516 32.9834 40.4414 32.8135 40.0957C32.6436 39.75 32.377 39.4834 32.0137 39.2959C31.6504 39.1084 31.1816 39.0146 30.6074 39.0146H28.1904L28.208 37.6523H31.5127L31.873 38.1445C32.4883 38.1973 33.0098 38.373 33.4375 38.6719C33.8652 38.9648 34.1904 39.3398 34.4131 39.7969C34.6416 40.2539 34.7559 40.7578 34.7559 41.3086C34.7559 42.1055 34.5801 42.7793 34.2285 43.3301C33.8828 43.875 33.3936 44.291 32.7607 44.5781C32.1279 44.8594 31.3838 45 30.5283 45ZM40.6484 38.8916V40.2275H36.3594V38.8916H40.6484Z" fill="#EA2B2B"/>
</svg>
