<svg width="41" height="49" viewBox="0 0 41 49" fill="none" xmlns="http://www.w3.org/2000/svg">
<path d="M15.75 24.0001H12.625V20.8751H15.75V24.0001ZM28.25 24.0001H25.125V20.8751H28.25V24.0001ZM40.75 20.8751V27.1251H37.625V34.9376C37.625 35.5886 37.5029 36.199 37.2588 36.7686C37.0146 37.3383 36.681 37.8347 36.2578 38.2579C35.8346 38.6811 35.3382 39.0147 34.7686 39.2589C34.1989 39.503 33.5885 39.6251 32.9375 39.6251H26.4922L15.75 48.8048V39.6251H7.9375C7.28646 39.6251 6.67611 39.503 6.10645 39.2589C5.53678 39.0147 5.04036 38.6811 4.61719 38.2579C4.19401 37.8347 3.86035 37.3383 3.61621 36.7686C3.37207 36.199 3.25 35.5886 3.25 34.9376V27.1251H0.125V20.8751H3.25V16.1876C3.25 15.5365 3.37207 14.9262 3.61621 14.3565C3.86035 13.7869 4.19401 13.2904 4.61719 12.8673C5.04036 12.4441 5.53678 12.1104 6.10645 11.8663C6.67611 11.6222 7.28646 11.5001 7.9375 11.5001H18.875V6.39754C18.403 6.12085 18.0286 5.73836 17.752 5.25008C17.4753 4.7618 17.3288 4.24097 17.3125 3.68758C17.3125 3.24813 17.3939 2.84123 17.5566 2.46688C17.7194 2.09253 17.9391 1.76701 18.2158 1.49032C18.4925 1.21362 18.8262 0.985758 19.2168 0.806722C19.6074 0.627686 20.0143 0.546305 20.4375 0.562581C20.877 0.562581 21.2839 0.643962 21.6582 0.806722C22.0326 0.969482 22.3581 1.18921 22.6348 1.4659C22.9115 1.74259 23.1393 2.07625 23.3184 2.46688C23.4974 2.8575 23.5788 3.2644 23.5625 3.68758C23.5625 4.24097 23.4242 4.7618 23.1475 5.25008C22.8708 5.73836 22.4883 6.12085 22 6.39754V11.5001H32.9375C33.5885 11.5001 34.1989 11.6222 34.7686 11.8663C35.3382 12.1104 35.8346 12.4441 36.2578 12.8673C36.681 13.2904 37.0146 13.7869 37.2588 14.3565C37.5029 14.9262 37.625 15.5365 37.625 16.1876V20.8751H40.75ZM34.5 16.1876C34.5 15.7644 34.3454 15.3982 34.0361 15.0889C33.7269 14.7797 33.3607 14.6251 32.9375 14.6251H7.9375C7.51432 14.6251 7.14811 14.7797 6.83887 15.0889C6.52962 15.3982 6.375 15.7644 6.375 16.1876V34.9376C6.375 35.3608 6.52962 35.727 6.83887 36.0362C7.14811 36.3455 7.51432 36.5001 7.9375 36.5001H18.875V42.0177L25.3203 36.5001H32.9375C33.3607 36.5001 33.7269 36.3455 34.0361 36.0362C34.3454 35.727 34.5 35.3608 34.5 34.9376V16.1876ZM13.7236 27.4669C14.6188 28.3621 15.6442 29.0457 16.7998 29.5177C17.9554 29.9897 19.168 30.2338 20.4375 30.2501C21.707 30.2501 22.9196 30.0141 24.0752 29.5421C25.2308 29.0701 26.2562 28.3783 27.1514 27.4669L29.3486 29.6886C28.1605 30.8767 26.8014 31.7882 25.2715 32.4229C23.7415 33.0577 22.1302 33.3751 20.4375 33.3751C18.7611 33.3751 17.1579 33.0577 15.6279 32.4229C14.098 31.7882 12.7308 30.8767 11.5264 29.6886L13.7236 27.4669Z" fill="white"/>
</svg>
