<svg width="65" height="65" viewBox="0 0 65 65" fill="none" xmlns="http://www.w3.org/2000/svg">
<path d="M32.4999 59.5833C26.7536 59.5833 21.2426 57.3006 17.1793 53.2373C13.116 49.174 10.8333 43.663 10.8333 37.9167C10.8333 28.4321 18.1728 20.846 24.6268 13.8938L32.4999 5.41667L40.373 13.8938C46.827 20.8488 54.1666 28.4348 54.1666 37.9167C54.1666 43.663 51.8839 49.174 47.8206 53.2373C43.7573 57.3006 38.2463 59.5833 32.4999 59.5833Z" fill="#EA2B2B" stroke="#EA2B2B" stroke-width="2.5" stroke-linecap="round" stroke-linejoin="round"/>
<path d="M27.3691 39.0146H24.126L24.1084 37.6523H27.0527C27.5391 37.6523 27.9639 37.5703 28.3271 37.4062C28.6904 37.2422 28.9717 37.0078 29.1709 36.7031C29.376 36.3926 29.4785 36.0234 29.4785 35.5957C29.4785 35.127 29.3877 34.7461 29.2061 34.4531C29.0303 34.1543 28.7578 33.9375 28.3887 33.8027C28.0254 33.6621 27.5625 33.5918 27 33.5918H24.5039V45H22.8076V32.2031H27C27.6562 32.2031 28.2422 32.2705 28.7578 32.4053C29.2734 32.5342 29.71 32.7393 30.0674 33.0205C30.4307 33.2959 30.7061 33.6475 30.8936 34.0752C31.0811 34.5029 31.1748 35.0156 31.1748 35.6133C31.1748 36.1406 31.04 36.6182 30.7705 37.0459C30.501 37.4678 30.126 37.8135 29.6455 38.083C29.1709 38.3525 28.6143 38.5254 27.9756 38.6016L27.3691 39.0146ZM27.29 45H23.458L24.416 43.6201H27.29C27.8291 43.6201 28.2861 43.5264 28.6611 43.3389C29.042 43.1514 29.332 42.8877 29.5312 42.5479C29.7305 42.2021 29.8301 41.7949 29.8301 41.3262C29.8301 40.8516 29.7451 40.4414 29.5752 40.0957C29.4053 39.75 29.1387 39.4834 28.7754 39.2959C28.4121 39.1084 27.9434 39.0146 27.3691 39.0146H24.9521L24.9697 37.6523H28.2744L28.6348 38.1445C29.25 38.1973 29.7715 38.373 30.1992 38.6719C30.627 38.9648 30.9521 39.3398 31.1748 39.7969C31.4033 40.2539 31.5176 40.7578 31.5176 41.3086C31.5176 42.1055 31.3418 42.7793 30.9902 43.3301C30.6445 43.875 30.1553 44.291 29.5225 44.5781C28.8896 44.8594 28.1455 45 27.29 45ZM42.2441 38.1357V39.665H33.4727V38.1357H42.2441ZM38.6758 34.4004V43.7168H37.0498V34.4004H38.6758Z" fill="white"/>
</svg>
