<svg width="273" height="307" viewBox="0 0 273 307" fill="none" xmlns="http://www.w3.org/2000/svg">
<path d="M213.879 299.549C240.769 299.549 262.567 287.503 262.567 272.643C262.567 257.784 240.769 245.738 213.879 245.738C186.99 245.738 165.191 257.784 165.191 272.643C165.191 287.503 186.99 299.549 213.879 299.549Z" fill="#E0E0E0"/>
<path d="M75.7799 85.5306C73.9224 84.2669 71.3173 84.4044 68.4366 86.2269C66.7859 87.2934 65.3052 88.6464 64.0527 90.2329C63.7221 90.6284 63.4152 91.041 63.124 91.4622C63.11 91.4866 63.0912 91.5072 63.0689 91.5224C61.4027 93.8825 60.1025 96.5253 59.2202 99.3453C58.5956 101.327 58.2635 103.405 58.2363 105.501C58.2363 108.939 59.3225 111.424 61.0855 112.619L64.4856 114.768C63.9548 114.403 63.4905 113.933 63.1161 113.384C62.0665 111.698 61.5472 109.686 61.6364 107.65C61.6364 100.549 66.2014 91.9179 71.8682 88.3589C73.4491 87.2535 75.3176 86.7433 77.1887 86.906C77.8821 86.9949 78.5501 87.244 79.1485 87.6367L75.7799 85.5306Z" fill="#239487"/>
<path opacity="0.7" d="M75.7799 85.5306C73.9224 84.2669 71.3173 84.4044 68.4366 86.2269C66.7859 87.2934 65.3052 88.6464 64.0527 90.2329C63.7221 90.6284 63.4152 91.041 63.124 91.4622C63.11 91.4866 63.0912 91.5072 63.0689 91.5224C61.4027 93.8825 60.1025 96.5253 59.2202 99.3453C58.5956 101.327 58.2635 103.405 58.2363 105.501C58.2363 108.939 59.3225 111.424 61.0855 112.619L64.4856 114.768C63.9548 114.403 63.4905 113.933 63.1161 113.384C62.0665 111.698 61.5472 109.686 61.6364 107.65C61.6364 100.549 66.2014 91.9179 71.8682 88.3589C73.4491 87.2535 75.3176 86.7433 77.1887 86.906C77.8821 86.9949 78.5501 87.244 79.1485 87.6367L75.7799 85.5306Z" fill="white"/>
<path d="M79.1089 87.6363C78.5105 87.2436 77.8424 86.9945 77.1491 86.9056C75.2779 86.7429 73.4094 87.2531 71.8285 88.3584C66.2011 91.9174 61.5968 100.548 61.5968 107.649C61.5075 109.685 62.0268 111.698 63.0764 113.383C63.4625 113.937 63.9404 114.406 64.4853 114.767L64.6506 114.862C65.5017 115.391 66.4744 115.642 67.4525 115.584C69.0037 115.485 70.5079 114.965 71.8285 114.071C77.456 110.529 82.0603 101.89 82.0603 94.7973C82.0288 91.2985 80.9112 88.8227 79.1089 87.6363Z" fill="#239487"/>
<path opacity="0.6" d="M79.1089 87.6363C78.5105 87.2436 77.8424 86.9945 77.1491 86.9056C75.2779 86.7429 73.4094 87.2531 71.8285 88.3584C66.2011 91.9174 61.5968 100.548 61.5968 107.649C61.5075 109.685 62.0268 111.698 63.0764 113.383C63.4625 113.937 63.9404 114.406 64.4853 114.767L64.6506 114.862C65.5017 115.391 66.4744 115.642 67.4525 115.584C69.0037 115.485 70.5079 114.965 71.8285 114.071C77.456 110.529 82.0603 101.89 82.0603 94.7973C82.0288 91.2985 80.9112 88.8227 79.1089 87.6363Z" fill="white"/>
<path d="M71.8282 96.0442C74.0949 94.6086 75.9366 95.7691 75.9366 98.6232C75.8537 100.174 75.4387 101.682 74.7252 103.026C74.0116 104.369 73.0194 105.511 71.8282 106.36C69.5614 107.787 67.7197 106.627 67.7197 103.781C67.8015 102.23 68.2159 100.722 68.9295 99.3778C69.6432 98.0338 70.6361 96.8919 71.8282 96.0442Z" fill="#455A64"/>
<path d="M131.983 136.199V103.652L147.882 103.704V136.259C147.882 137.549 147.095 138.838 145.521 139.801C143.776 140.759 141.849 141.254 139.897 141.247C137.944 141.239 136.02 140.729 134.282 139.758C132.755 138.778 131.983 137.489 131.983 136.199Z" fill="#263238"/>
<path d="M147.914 131.041C147.914 132.322 147.127 133.62 145.553 134.574C143.811 135.54 141.886 136.044 139.933 136.044C137.98 136.044 136.054 135.54 134.313 134.574C132.739 133.585 131.952 132.304 131.952 131.023V136.181C131.952 137.462 132.739 138.76 134.313 139.732C136.052 140.703 137.976 141.213 139.928 141.22C141.881 141.228 143.808 140.733 145.553 139.775C147.127 138.795 147.914 137.514 147.914 136.233V131.075V131.041Z" fill="#239487"/>
<path opacity="0.6" d="M147.914 131.041C147.914 132.322 147.127 133.62 145.553 134.574C143.811 135.54 141.886 136.044 139.933 136.044C137.98 136.044 136.054 135.54 134.313 134.574C132.739 133.585 131.952 132.304 131.952 131.023V136.181C131.952 137.462 132.739 138.76 134.313 139.732C136.052 140.703 137.976 141.213 139.928 141.22C141.881 141.228 143.808 140.733 145.553 139.775C147.127 138.795 147.914 137.514 147.914 136.233V131.075V131.041Z" fill="white"/>
<path d="M112.968 136.199V103.652L97.0693 103.704V136.259C97.0693 137.549 97.8564 138.838 99.4305 139.801C101.177 140.759 103.105 141.254 105.059 141.247C107.013 141.239 108.938 140.729 110.678 139.758C112.205 138.778 112.976 137.489 112.968 136.199Z" fill="#263238"/>
<path d="M97.0693 131.041C97.0693 132.322 97.8564 133.62 99.4305 134.574C101.173 135.54 103.1 136.044 105.054 136.044C107.008 136.044 108.935 135.54 110.678 134.574C112.252 133.585 113.039 132.304 112.992 131.023V136.181C112.992 137.462 112.205 138.76 110.678 139.732C108.938 140.703 107.013 141.213 105.059 141.22C103.105 141.228 101.177 140.733 99.4305 139.775C97.8564 138.795 97.0693 137.514 97.0693 136.233V131.075V131.041Z" fill="#239487"/>
<path opacity="0.15" d="M97.0693 131.041C97.0693 132.322 97.8564 133.62 99.4305 134.574C101.173 135.54 103.1 136.044 105.054 136.044C107.008 136.044 108.935 135.54 110.678 134.574C112.252 133.585 113.039 132.304 112.992 131.023V136.181C112.992 137.462 112.205 138.76 110.678 139.732C108.938 140.703 107.013 141.213 105.059 141.22C103.105 141.228 101.177 140.733 99.4305 139.775C97.8564 138.795 97.0693 137.514 97.0693 136.233V131.075V131.041Z" fill="black"/>
<path d="M114.511 147.211V114.647L130.409 114.707V147.263C130.409 148.543 129.622 149.842 128.048 150.796C126.307 151.762 124.382 152.266 122.429 152.266C120.476 152.266 118.55 151.762 116.809 150.796C115.274 149.773 114.503 148.492 114.511 147.211Z" fill="#37474F"/>
<path d="M130.41 142.053C130.41 143.343 129.622 144.632 128.048 145.595C126.304 146.553 124.377 147.048 122.424 147.04C120.471 147.033 118.548 146.523 116.809 145.552C115.235 144.572 114.487 143.282 114.495 142.001V147.211C114.495 148.492 115.282 149.79 116.809 150.761C118.55 151.728 120.476 152.232 122.429 152.232C124.382 152.232 126.307 151.728 128.048 150.761C129.622 149.79 130.41 148.509 130.41 147.228V142.019V142.053Z" fill="#239487"/>
<path d="M149.378 97.8836C149.7 102.319 147.174 106.833 141.806 110.237L123.42 121.842C113.259 128.29 96.7627 128.35 86.5703 121.971C81.4859 118.791 78.9358 114.613 78.9043 110.417C78.9043 108.311 78.9043 104.812 78.9043 101.322C78.9043 95.3734 78.9043 84.7652 78.9043 80.0284C78.9228 78.1044 79.4296 76.2236 80.3682 74.5954C81.4925 72.6495 83.0786 71.0727 84.9579 70.0328C86.8371 68.9929 88.9392 68.5286 91.0408 68.6895L91.9301 68.7497C98.8127 69.1135 105.704 68.263 112.339 66.2309C121.941 63.3854 133.747 64.4428 141.743 69.4202C146.851 72.6268 149.401 76.8391 149.401 81.0514C149.401 87.6021 149.401 91.0493 149.401 94.7029C149.401 94.9264 149.401 95.1585 149.401 95.3906L149.378 97.8836Z" fill="#37474F"/>
<path d="M149.401 81.0518C149.385 82.971 148.884 84.8481 147.953 86.4762C146.824 88.4174 145.235 89.9889 143.355 91.024C141.475 92.0592 139.373 92.5196 137.273 92.3563L136.383 92.2961C129.501 91.9327 122.61 92.7833 115.975 94.815C106.349 97.669 94.5353 96.6117 86.5703 91.6256C81.4622 88.4277 78.9043 84.2239 78.9043 80.003C78.9228 78.0789 79.4296 76.1982 80.3682 74.5699C81.4925 72.624 83.0786 71.0472 84.9579 70.0073C86.8371 68.9674 88.9392 68.5032 91.0408 68.664L91.9301 68.7242C98.8127 69.0881 105.704 68.2375 112.339 66.2054C121.941 63.3857 133.747 64.4431 141.743 69.4205C146.851 72.6271 149.401 76.8824 149.401 81.0518Z" fill="#455A64"/>
<path d="M127.97 110.744L121.61 114.758V110.744L127.97 106.738V110.744Z" fill="#239487"/>
<path d="M86.5703 118.49C96.802 124.877 113.259 124.817 123.42 118.37L141.806 106.764C146.883 103.54 149.417 99.3281 149.401 95.1157V98.5544C149.401 102.758 146.883 106.97 141.806 110.194L123.42 121.8C113.259 128.256 96.7627 128.307 86.5703 121.929C81.4859 118.748 78.9358 114.57 78.9043 110.375V106.936C78.9358 111.131 81.4859 115.309 86.5703 118.49Z" fill="#239487"/>
<path d="M131.023 79.8738V60.1016L78.9121 60.2735V80.0457C78.9121 84.2495 81.4779 88.4446 86.5781 91.6426C96.8098 98.0213 113.267 97.9611 123.42 91.5136C128.505 88.2985 131.031 84.0776 131.023 79.8738Z" fill="#37474F"/>
<path d="M78.8966 60.3082L131.008 60.1362C131.008 60.1362 131.008 60.3168 131.008 64.5205C131.008 68.7243 128.497 72.9452 123.413 76.1689C113.26 82.625 96.755 82.6766 86.5626 76.2979C81.4703 73.0999 78.9124 68.9048 78.8966 64.701C78.8809 60.4973 78.8966 60.3082 78.8966 60.3082Z" fill="#239487"/>
<path d="M86.523 48.6673C96.6761 42.2112 113.173 42.1597 123.365 48.5383C133.558 54.917 133.597 65.3275 123.436 71.7492C113.275 78.1709 96.7784 78.2569 86.586 71.8782C76.3936 65.4995 76.3385 55.1148 86.523 48.6673Z" fill="#239487"/>
<path opacity="0.5" d="M86.523 48.6673C96.6761 42.2112 113.173 42.1597 123.365 48.5383C133.558 54.917 133.597 65.3275 123.436 71.7492C113.275 78.1709 96.7784 78.2569 86.586 71.8782C76.3936 65.4995 76.3385 55.1148 86.523 48.6673Z" fill="white"/>
<path d="M116.227 58.5544V23.2051L93.7012 23.2824V58.6318C93.7012 60.4543 94.8109 62.2681 97.0147 63.6436C101.414 66.4031 108.545 66.3773 112.937 63.592C115.141 62.1994 116.235 60.3769 116.227 58.5544Z" fill="#37474F"/>
<path d="M93.7012 23.2824L116.227 23.2051C116.227 23.2051 116.227 26.5664 116.227 28.3631C116.227 30.1597 115.141 31.9994 112.945 33.3921C108.553 36.186 101.422 36.2032 97.0226 33.4437C94.8188 32.0682 93.709 30.2543 93.709 28.4404C93.709 26.6265 93.7012 23.2824 93.7012 23.2824Z" fill="#239487"/>
<path d="M96.9833 18.2531C101.375 15.4592 108.506 15.442 112.913 18.1929C117.321 20.9438 117.329 25.4484 112.913 28.2423C108.498 31.0362 101.399 31.0534 96.9912 28.2939C92.5836 25.5344 92.5915 21.004 96.9833 18.2531Z" fill="#239487"/>
<path opacity="0.15" d="M96.9833 18.2531C101.375 15.4592 108.506 15.442 112.913 18.1929C117.321 20.9438 117.329 25.4484 112.913 28.2423C108.498 31.0362 101.399 31.0534 96.9912 28.2939C92.5836 25.5344 92.5915 21.004 96.9833 18.2531Z" fill="black"/>
<path d="M99.2264 19.6539C101.001 18.6706 102.963 18.1582 104.952 18.1582C106.942 18.1582 108.904 18.6706 110.678 19.6539C113.826 21.6397 113.826 24.872 110.678 26.8836C108.902 27.8669 106.939 28.3794 104.948 28.3794C102.957 28.3794 100.994 27.8669 99.2186 26.8836C96.0782 24.8892 96.0703 21.6569 99.2264 19.6539Z" fill="#263238"/>
<path d="M110.678 24.7172C111.149 25.009 111.583 25.3674 111.969 25.7832C111.588 26.1922 111.163 26.5474 110.701 26.8406C108.926 27.8239 106.963 28.3364 104.972 28.3364C102.981 28.3364 101.018 27.8239 99.2419 26.8406C98.7747 26.5495 98.3435 26.1941 97.959 25.7832C98.336 25.3703 98.7622 25.0146 99.2262 24.7258C101.001 23.7433 102.962 23.2305 104.951 23.229C106.94 23.2275 108.902 23.7373 110.678 24.7172Z" fill="#455A64"/>
<path d="M107.506 25.2078C107.411 25.6892 107.828 26.1878 108.426 26.334C108.669 26.4315 108.937 26.4235 109.174 26.3115C109.411 26.1995 109.6 25.9921 109.701 25.7322C109.796 25.2594 109.379 24.7522 108.773 24.6061C108.531 24.511 108.265 24.5204 108.03 24.6323C107.794 24.7441 107.607 24.95 107.506 25.2078Z" fill="#FAFAFA"/>
<path d="M106.081 24.5372C106.058 24.6614 106.08 24.7907 106.144 24.8969C106.207 25.0031 106.306 25.0778 106.42 25.1046C106.476 25.1185 106.533 25.1202 106.59 25.1095C106.646 25.0989 106.7 25.0761 106.748 25.0425C106.797 25.009 106.839 24.9652 106.871 24.9139C106.904 24.8626 106.927 24.8047 106.939 24.7435C106.963 24.6183 106.941 24.4879 106.877 24.3803C106.814 24.2727 106.715 24.1964 106.601 24.1676C106.487 24.1421 106.369 24.1666 106.271 24.2358C106.174 24.305 106.106 24.4133 106.081 24.5372Z" fill="#FAFAFA"/>
<path d="M179.089 213.62V222.165L75.7793 287.276V278.757C75.7793 274.063 80.0766 267.538 85.3736 264.194L169.487 211.153C172.682 209.141 175.508 208.746 177.247 209.76C177.856 210.149 178.352 210.717 178.678 211.4C179.004 212.083 179.146 212.853 179.089 213.62Z" fill="#263238"/>
<path d="M120.839 174.187L120.705 174.11C118.958 173.018 116.093 173.397 112.834 175.443L28.7212 228.466C23.4243 231.811 19.127 238.335 19.127 243.029V251.548L75.7953 287.276V278.757C75.7953 274.063 80.0926 267.538 85.3896 264.194L169.503 211.153C172.698 209.141 175.524 208.746 177.263 209.76L120.839 174.187Z" fill="#455A64"/>
<path d="M142.278 191.518C130.858 184.314 112.37 184.314 100.942 191.518C94.3145 195.687 91.544 201.369 92.6066 206.811L57.0078 229.248L82.4456 245.29L118.005 222.844C126.663 223.523 135.651 221.786 142.286 217.608C153.69 210.379 153.69 198.713 142.278 191.518Z" fill="#37474F"/>
<path d="M92.3867 184.107V175.089C92.3867 170.37 95.228 165.633 100.942 162.048C112.354 154.853 130.85 154.853 142.278 162.048C147.985 165.65 150.834 170.37 150.826 175.081V184.107C150.905 188.887 148.063 193.675 142.286 197.32C130.866 204.524 112.378 204.524 100.95 197.32C95.165 193.675 92.2923 188.887 92.4025 184.107H92.3867Z" fill="#239487"/>
<path opacity="0.15" d="M92.3867 184.107V175.089C92.3867 170.37 95.228 165.633 100.942 162.048C112.354 154.853 130.85 154.853 142.278 162.048C147.985 165.65 150.834 170.37 150.826 175.081V184.107C150.905 188.887 148.063 193.675 142.286 197.32C130.866 204.524 112.378 204.524 100.95 197.32C95.165 193.675 92.2923 188.887 92.4025 184.107H92.3867Z" fill="black"/>
<path d="M121.61 193.512C137.754 193.512 150.842 185.26 150.842 175.081C150.842 164.902 137.754 156.65 121.61 156.65C105.466 156.65 92.3789 164.902 92.3789 175.081C92.3789 185.26 105.466 193.512 121.61 193.512Z" fill="#239487"/>
<path d="M82.4456 225.655V215.821L57.0078 199.788V209.614L82.4456 225.655Z" fill="#239487"/>
<path opacity="0.15" d="M82.4456 225.655V215.821L57.0078 199.788V209.614L82.4456 225.655Z" fill="black"/>
<path d="M82.4463 225.655L118.934 202.642L118.029 193.384L82.4463 215.821V225.655Z" fill="#239487"/>
<path opacity="0.15" d="M82.4463 225.655L118.934 202.642L118.029 193.384L82.4463 215.821V225.655Z" fill="black"/>
<path d="M57.0078 199.788L92.5908 177.342L118.029 193.383L82.4456 215.82L57.0078 199.788Z" fill="#239487"/>
<path d="M99.6982 174.591V167.834C99.6982 164.292 101.831 160.75 106.113 158.051C114.668 152.652 128.544 152.652 137.107 158.051C141.389 160.75 143.522 164.292 143.522 167.825V174.591C143.577 178.176 141.452 181.769 137.115 184.503C128.552 189.901 114.676 189.901 106.121 184.503C101.784 181.769 99.651 178.176 99.7061 174.591H99.6982Z" fill="#E0E0E0"/>
<path d="M121.61 181.649C133.716 181.649 143.53 175.46 143.53 167.825C143.53 160.191 133.716 154.002 121.61 154.002C109.504 154.002 99.6904 160.191 99.6904 167.825C99.6904 175.46 109.504 181.649 121.61 181.649Z" fill="#FAFAFA"/>
<path d="M121.611 180.858C133.025 180.858 142.279 175.024 142.279 167.826C142.279 160.628 133.025 154.793 121.611 154.793C110.196 154.793 100.942 160.628 100.942 167.826C100.942 175.024 110.196 180.858 121.611 180.858Z" fill="#E6E6E6"/>
<path d="M106.987 164.869C115.054 159.78 128.143 159.78 136.21 164.869C138.981 166.588 140.791 168.729 141.664 170.956C140.791 173.191 138.981 175.254 136.21 177.042C128.143 182.131 115.054 182.131 106.987 177.042C104.224 175.323 102.406 173.191 101.532 170.956C102.414 168.729 104.232 166.614 106.987 164.869Z" fill="#F0F0F0"/>
<path d="M125.089 168.522C123.939 167.882 122.668 167.548 121.378 167.548C120.088 167.548 118.816 167.882 117.667 168.522C115.62 169.811 115.62 171.909 117.667 173.198C118.817 173.834 120.088 174.166 121.378 174.166C122.667 174.166 123.938 173.834 125.089 173.198C127.135 171.909 127.135 169.811 125.089 168.522Z" fill="#239487"/>
<path d="M115.691 173.258C115.334 173.063 114.941 172.961 114.542 172.961C114.143 172.961 113.749 173.063 113.393 173.258C113.253 173.309 113.131 173.406 113.045 173.537C112.959 173.667 112.912 173.824 112.912 173.985C112.912 174.146 112.959 174.302 113.045 174.433C113.131 174.563 113.253 174.661 113.393 174.711C113.749 174.906 114.143 175.008 114.542 175.008C114.941 175.008 115.334 174.906 115.691 174.711C115.831 174.661 115.952 174.563 116.039 174.433C116.125 174.302 116.171 174.146 116.171 173.985C116.171 173.824 116.125 173.667 116.039 173.537C115.952 173.406 115.831 173.309 115.691 173.258Z" fill="#239487"/>
<path opacity="0.6" d="M117.777 169.725C117.777 170.335 118.564 170.843 119.58 170.843C120.595 170.843 121.374 170.335 121.374 169.725C121.374 169.115 120.587 168.607 119.58 168.607C118.572 168.607 117.777 169.123 117.777 169.725Z" fill="white"/>
<path opacity="0.6" d="M113.59 173.629C113.59 173.826 113.842 173.981 114.149 173.981C114.456 173.981 114.707 173.826 114.707 173.629C114.707 173.431 114.456 173.285 114.149 173.285C113.842 173.285 113.59 173.439 113.59 173.629Z" fill="white"/>
<path d="M92.6065 226.936V241.12L70.1045 255.322V241.12C70.1045 233.289 75.1417 223.755 81.3594 219.835C84.5077 217.849 87.3411 217.677 89.3796 218.975C91.4181 220.273 92.6065 223.067 92.6065 226.936Z" fill="#239487"/>
<path opacity="0.6" d="M92.6065 226.936V241.12L70.1045 255.322V241.12C70.1045 233.289 75.1417 223.755 81.3594 219.835C84.5077 217.849 87.3411 217.677 89.3796 218.975C91.4181 220.273 92.6065 223.067 92.6065 226.936Z" fill="white"/>
<path d="M62.4544 202.04L62.2812 201.92C60.2506 200.664 57.4487 200.854 54.3555 202.779C48.1378 206.699 43.1006 216.224 43.1006 224.064V238.266L70.1046 255.296V241.12C70.1046 233.289 75.1418 223.755 81.3596 219.835C84.3425 217.952 87.0421 217.703 89.0491 218.812L62.4544 202.04Z" fill="#239487"/>
<path opacity="0.7" d="M62.4544 202.04L62.2812 201.92C60.2506 200.664 57.4487 200.854 54.3555 202.779C48.1378 206.699 43.1006 216.224 43.1006 224.064V238.266L70.1046 255.296V241.12C70.1046 233.289 75.1418 223.755 81.3596 219.835C84.3425 217.952 87.0421 217.703 89.0491 218.812L62.4544 202.04Z" fill="white"/>
<path d="M81.3516 229.102C83.8387 227.529 85.8536 228.801 85.8536 231.939C85.7689 233.644 85.317 235.304 84.5348 236.782C83.7525 238.261 82.6619 239.518 81.3516 240.449C78.8645 242.023 76.8496 240.75 76.8496 237.613C76.9337 235.907 77.3853 234.247 78.1676 232.768C78.9499 231.29 80.0408 230.033 81.3516 229.102Z" fill="#455A64"/>
<path d="M96.5185 123.854C92.3865 127.559 86.3576 132.871 81.4463 140.797C74.8922 151.708 71.286 164.415 71.0414 177.462C71.0414 202.581 84.1302 215.562 84.5395 215.966C82.5404 214.857 79.8171 215.107 76.8578 216.981C70.64 220.909 65.6028 230.443 65.6028 238.275C65.3195 237.853 58.6373 228.088 54.7886 209.184C52.9785 200.099 52.0864 190.825 52.1284 181.528C52.1284 165.728 55.3789 152.3 59.7235 142.285C62.4625 135.975 64.7134 131.969 69.8136 124.791C74.9137 117.612 79.1088 111.612 86.5858 106.11C88.291 104.775 90.3283 104.041 92.4258 104.004C95.0704 108.844 100.336 120.441 96.5185 123.854Z" fill="#263238"/>
<path d="M95.8811 104.959C94.8125 104.357 93.6281 104.041 92.4259 104.039C92.0515 103.286 91.6029 102.579 91.0879 101.933L95.8811 104.959Z" fill="#37474F"/>
<path d="M78.2979 93.8775C77.4841 93.3163 76.5632 92.9663 75.6062 92.8545C74.5709 92.7123 73.5207 92.7734 72.5052 93.035C71.1188 93.3996 69.7916 93.994 68.5699 94.7973C59.1252 100.884 48.1614 116.289 43.2659 127.267C37.2546 140.615 34.1182 155.288 34.0967 170.164C34.0967 207.791 47.5948 226.902 47.5948 226.902L65.5948 238.232C65.3036 237.811 58.6215 228.036 54.7727 209.132C52.9622 200.048 52.0675 190.774 52.1046 181.477C52.1046 165.685 55.363 152.249 59.7076 142.242C62.4466 135.932 64.6975 131.926 69.7977 124.748C74.8978 117.57 79.1086 111.612 86.5778 106.11C90.2455 103.428 93.8502 103.531 96.3059 105.191L78.2979 93.8775Z" fill="#37474F"/>
<path d="M99.1158 100.239C97.2584 98.9754 94.6532 99.1129 91.7647 100.935C90.1196 102.007 88.6422 103.36 87.3886 104.941C87.0581 105.337 86.7511 105.75 86.4599 106.171C86.4436 106.193 86.4252 106.213 86.4048 106.231C84.7387 108.591 83.4385 111.234 82.5561 114.054C81.9315 116.036 81.5995 118.113 81.5723 120.209C81.5723 123.648 82.6584 126.132 84.4214 127.327L87.8215 129.476C87.2891 129.113 86.8244 128.644 86.452 128.092C85.3941 126.41 84.8664 124.397 84.9488 122.358C84.9488 115.257 89.5216 106.626 95.1805 103.076C96.7584 101.963 98.6293 101.452 100.501 101.623C101.196 101.705 101.865 101.955 102.461 102.354L99.1158 100.239Z" fill="#239487"/>
<path opacity="0.7" d="M99.1158 100.239C97.2584 98.9754 94.6532 99.1129 91.7647 100.935C90.1196 102.007 88.6422 103.36 87.3886 104.941C87.0581 105.337 86.7511 105.75 86.4599 106.171C86.4436 106.193 86.4252 106.213 86.4048 106.231C84.7387 108.591 83.4385 111.234 82.5561 114.054C81.9315 116.036 81.5995 118.113 81.5723 120.209C81.5723 123.648 82.6584 126.132 84.4214 127.327L87.8215 129.476C87.2891 129.113 86.8244 128.644 86.452 128.092C85.3941 126.41 84.8664 124.397 84.9488 122.358C84.9488 115.257 89.5216 106.626 95.1805 103.076C96.7584 101.963 98.6293 101.452 100.501 101.623C101.196 101.705 101.865 101.955 102.461 102.354L99.1158 100.239Z" fill="white"/>
<path d="M102.437 102.353C101.842 101.954 101.172 101.705 100.478 101.623C98.6059 101.452 96.735 101.962 95.1571 103.076C89.5297 106.626 84.9254 115.257 84.9254 122.358C84.8384 124.395 85.3605 126.407 86.4129 128.092C86.7852 128.643 87.2499 129.113 87.7824 129.476L87.9477 129.579C88.8016 130.101 89.7722 130.351 90.7496 130.301C92.3007 130.195 93.8038 129.672 95.1257 128.779C100.753 125.238 105.318 116.607 105.318 109.506C105.35 106.007 104.24 103.531 102.437 102.353Z" fill="#239487"/>
<path opacity="0.6" d="M102.437 102.353C101.842 101.954 101.172 101.705 100.478 101.623C98.6059 101.452 96.735 101.962 95.1571 103.076C89.5297 106.626 84.9254 115.257 84.9254 122.358C84.8384 124.395 85.3605 126.407 86.4129 128.092C86.7852 128.643 87.2499 129.113 87.7824 129.476L87.9477 129.579C88.8016 130.101 89.7722 130.351 90.7496 130.301C92.3007 130.195 93.8038 129.672 95.1257 128.779C100.753 125.238 105.318 116.607 105.318 109.506C105.35 106.007 104.24 103.531 102.437 102.353Z" fill="white"/>
<path d="M95.1807 110.753C97.4475 109.326 99.2892 110.478 99.2892 113.332C99.2074 114.883 98.793 116.391 98.0794 117.735C97.3657 119.079 96.3728 120.221 95.1807 121.069C92.914 122.496 91.0723 121.344 91.0723 118.49C91.154 116.939 91.5684 115.43 92.2821 114.086C92.9957 112.742 93.9887 111.601 95.1807 110.753Z" fill="#455A64"/>
<path d="M239.646 67.1235C241.134 80.102 244.036 92.9047 248.307 105.333H210.318C207.859 93.3308 206.541 80.998 210.318 67.1235H239.646Z" fill="#37474F"/>
<path d="M200.993 120.688C197.028 122.302 188.809 124.609 180.481 126.73C176.327 127.863 172.071 128.636 167.766 129.037C157.853 129.762 153.367 129.037 151.152 125.54C147.741 120.026 150.045 117.77 155.261 118.525C157.458 118.864 159.695 118.913 161.907 118.67C160.883 118.262 159.925 117.722 159.06 117.067C158.586 116.742 158.26 116.263 158.147 115.724C158.034 115.185 158.143 114.627 158.451 114.159C158.761 113.787 159.692 114.583 161.696 115.018C164.255 115.577 165.872 115.173 168.342 116.394C169.387 116.818 170.53 116.989 171.664 116.891C173.569 116.942 176.095 116.218 181.112 114.821C185.232 113.508 189.267 111.97 193.195 110.217" fill="#239487"/>
<path d="M212.644 81.4739C212.148 88.9924 211.216 96.4803 209.853 103.905C208.081 114.086 207.638 118.948 203.75 120.387C198.678 122.28 182.973 126.543 182.973 126.543C183.187 122.501 181.737 118.536 178.919 115.462L192.608 110.009C192.608 110.009 200.55 89.9993 202.1 86.5643C203.651 83.1293 208.447 80.3669 212.644 81.4739Z" fill="#EBEBEB"/>
<path d="M192.608 110.021C193.979 109.995 195.34 110.246 196.596 110.759C197.852 111.272 198.975 112.033 199.885 112.991C199.885 112.991 199.154 109.494 193.096 108.852L192.608 110.021Z" fill="#E0E0E0"/>
<path d="M217.152 81.5217C211.747 80.2491 209.399 83.0736 207.561 86.1568C204.681 91.092 201.846 100.569 199.808 118.893C198.623 129.736 198.091 145.793 197.305 156.988C196.12 173.873 195.555 186.992 195.555 186.992C206.244 185.7 217.018 185.108 227.796 185.223L217.152 81.5217Z" fill="#F5F5F5"/>
<path d="M248.297 253.286C248.297 253.286 251.542 232.593 250.191 220.405C249.028 209.986 247.389 205.62 247.145 203.251C247.145 203.251 245.273 178.771 245.783 158.037C246.026 148.208 245.495 137.345 238.03 125.788L237.753 125.333C237.088 129.13 230.819 131.54 225.226 132.171C219.844 132.73 213.139 131.733 205.113 129.181C203.33 139.021 201.303 157.748 199.232 178.171C198.213 188.145 198.39 196.546 198.213 203.003C197.947 211.683 198.778 245.826 198.778 245.826V247.264C198.778 248.858 198.301 249.965 197.116 252.437C195.619 255.684 193.54 258.669 190.969 261.263C190.172 262.018 184.645 266.239 183.903 267.15C181.511 269.592 186.229 271.154 189.795 270.823C193.55 270.471 199.409 269.323 201.137 267.243C202.244 265.867 203.285 260.921 204.46 259.514C208.436 254.786 210.075 252.748 210.152 251.237C210.307 248.433 209.311 247.295 209.045 245.702C209.477 242.412 216.632 225.185 217.108 215.573C217.106 211.322 216.818 207.075 216.244 202.858L222.535 169.439C223.93 178.844 226.589 200.012 227.541 206.748C228.87 216.06 233.777 231.734 236.867 244.057C237.806 247.246 238.483 250.497 238.894 253.782C238.894 253.782 238.96 254.817 238.96 254.869C238.96 256.235 239.115 270.844 239.58 273.937C240.566 280.404 246.713 279.783 247.876 274.61C248.862 270.212 248.308 256.493 248.341 254.807L248.297 253.286Z" fill="#FFA8A7"/>
<path d="M248.497 253.204C250.224 253.286 248.873 259.484 249.172 263.55C249.493 267.864 250.889 271.051 251.199 274.59C251.683 277.686 251.065 280.845 249.438 283.581C248.142 286.126 241.973 289.468 239.813 285.712C237.843 282.002 237.11 277.824 237.709 273.72C238.13 269.582 238.506 266.561 238.706 263.374C238.883 260.591 236.823 253.99 239.071 253.659L239.138 254.745C239.891 256.276 247.511 257.549 248.519 254.693L248.497 253.204Z" fill="#37474F"/>
<path d="M210.618 254.518C211.083 256.587 210.341 262.04 210.341 262.04C209.314 263.504 207.763 264.578 205.966 265.071L204.759 257.363L210.618 254.518Z" fill="#263238"/>
<path d="M205.977 265.072L198.733 262.609L197.183 256.484L205.268 260.623L205.977 265.072Z" fill="black"/>
<path d="M198.988 247.131V245.693C197.98 246.117 195.521 253.525 192.343 258.564C189.474 263.168 184.025 265.609 182.219 267.596C179.794 270.255 184.191 273.907 191.49 272.686C195.123 272.076 200.649 270.1 202.211 267.875C203.773 265.651 204.426 261.492 205.678 259.867C206.929 258.243 209.886 256.401 210.562 254.518C211.106 252.813 211.167 251.006 210.739 249.273C210.23 247.524 209.809 245.424 209.166 245.589L209.078 246.903C208.568 247.814 206.774 248.838 203.108 248.91C201.414 248.931 199.73 248.641 198.988 247.131Z" fill="#37474F"/>
<path d="M218.038 219.225C218.457 213.968 218.253 208.683 217.428 203.468L222.711 170.598C222.711 170.598 226.311 201.885 226.909 206.737C227.507 211.59 237.165 263.891 237.165 263.891C242.094 266.622 248.44 265.753 252.56 263.715C252.56 242.556 251.851 221.367 251.032 215.501C250.314 211.496 249.334 207.536 248.097 203.644C248.097 203.644 247.576 172.781 247.598 161.069C247.62 149.356 246.679 141.524 244.276 136.237C242.42 132.409 240.223 128.734 237.708 125.25C237.708 125.25 235.869 131.033 221.349 131.043C206.829 131.054 205.223 127.619 205.223 127.619C205.223 127.619 200.97 141.493 199.552 162.455C198.445 179.34 198.146 187.017 197.802 194.529C197.514 200.943 197.326 208.351 197.171 221.315C197.049 231.093 195.576 252.603 195.576 252.603C195.576 252.603 202.665 256.069 214.405 252.116C214.394 252.147 217.318 227.668 218.038 219.225Z" fill="#239487"/>
<path opacity="0.4" d="M218.038 219.225C218.457 213.968 218.253 208.683 217.428 203.468L222.711 170.598C222.711 170.598 226.311 201.885 226.909 206.737C227.507 211.59 237.165 263.891 237.165 263.891C242.094 266.622 248.44 265.753 252.56 263.715C252.56 242.556 251.851 221.367 251.032 215.501C250.314 211.496 249.334 207.536 248.097 203.644C248.097 203.644 247.576 172.781 247.598 161.069C247.62 149.356 246.679 141.524 244.276 136.237C242.42 132.409 240.223 128.734 237.708 125.25C237.708 125.25 235.869 131.033 221.349 131.043C206.829 131.054 205.223 127.619 205.223 127.619C205.223 127.619 200.97 141.493 199.552 162.455C198.445 179.34 198.146 187.017 197.802 194.529C197.514 200.943 197.326 208.351 197.171 221.315C197.049 231.093 195.576 252.603 195.576 252.603C195.576 252.603 202.665 256.069 214.405 252.116C214.394 252.147 217.318 227.668 218.038 219.225Z" fill="black"/>
<path opacity="0.2" d="M222.711 170.598L219.821 150.723C215.616 150.304 211.7 148.53 208.745 145.705C208.745 145.705 210.362 150.516 217.185 153.216L221.039 170.66L218.226 198.647L222.711 170.598Z" fill="black"/>
<path d="M229.501 82.8916L236.335 83.5745C240.876 84.6091 242.925 86.4818 243.39 90.2375C244.235 94.2908 244.156 98.4649 243.158 102.488C241.718 107.775 237.886 120.718 237.886 120.718C237.886 120.718 246.746 131.457 248.308 149.905C232.171 159.734 207.428 154.447 200.683 148.498C201.247 142.869 205.113 127.422 205.578 122.404C205.578 122.404 205.235 114.572 204.57 111.168C199.464 105.995 200.14 100.987 202.355 96.973C206.586 89.565 212.977 83.0571 215.037 83.0571L229.501 82.8916Z" fill="#239487"/>
<path opacity="0.6" d="M229.501 82.8916L236.335 83.5745C240.876 84.6091 242.925 86.4818 243.39 90.2375C244.235 94.2908 244.156 98.4649 243.158 102.488C241.718 107.775 237.886 120.718 237.886 120.718C237.886 120.718 246.746 131.457 248.308 149.905C232.171 159.734 207.428 154.447 200.683 148.498C201.247 142.869 205.113 127.422 205.578 122.404C205.578 122.404 205.235 114.572 204.57 111.168C199.464 105.995 200.14 100.987 202.355 96.973C206.586 89.565 212.977 83.0571 215.037 83.0571L229.501 82.8916Z" fill="white"/>
<path d="M217.075 78.4014C215.048 78.4014 214.86 78.7221 213.065 80.8948C212.035 82.1985 205.479 92.2758 205.479 92.2758C205.479 92.2758 210.695 85.8611 214.627 83.916C215.386 83.5039 216.208 83.2005 217.064 83.0158L217.075 78.4014Z" fill="#EBEBEB"/>
<path d="M229.889 82.8921C229.889 82.8921 224.251 96.7355 222.966 106.151C221.682 115.566 226.09 141.752 227.973 160.624C229.191 172.833 231.04 190.773 231.04 190.773C234.946 190.784 238.845 190.472 242.692 189.842C249.337 188.673 251.829 187.038 252.959 185.776C252.959 185.776 249.692 155.016 248.075 143.066C246.557 131.81 240.089 120.718 240.089 120.718L247.842 90.6208C247.842 90.6208 247.466 85.5511 242.304 84.1233C237.542 82.7472 229.889 82.8921 229.889 82.8921Z" fill="#FAFAFA"/>
<path d="M225.082 136.352L245.295 132.131C246.038 134.19 246.671 136.282 247.189 138.401C239.491 141.505 229.579 144.257 226.145 144.764C225.835 142.363 225.359 138.69 225.082 136.352Z" fill="#F0F0F0"/>
<path d="M236.911 100.874C237.055 93.6311 238.65 89.6685 239.801 87.4233L245.295 100.584L240.089 120.687C243.472 126.756 245.968 133.221 247.51 139.91C242.415 126.46 236.113 125.581 236.113 125.581C236.113 125.581 236.767 108.716 236.911 100.874Z" fill="#F0F0F0"/>
<path d="M241.385 49.0071L236.955 52.3386C236.718 52.0846 236.539 51.7881 236.429 51.4673C236.32 51.1465 236.281 50.8081 236.316 50.4729C236.352 50.1377 236.46 49.8127 236.634 49.518C236.809 49.2232 237.046 48.9649 237.331 48.7588C237.907 48.2964 238.654 48.0634 239.412 48.1098C240.17 48.1562 240.878 48.4784 241.385 49.0071Z" fill="#37474F"/>
<path d="M229.967 78.9085C229.967 76.3426 236.346 72.5145 239.647 67.124C242.947 61.7336 241.297 52.8978 236.778 51.5321C236.778 51.5321 236.623 50.4043 236.601 50.3216C236.364 49.2945 235.953 48.3094 235.383 47.4039C234.343 45.884 232.971 44.5873 231.356 43.5993C229.74 42.6113 227.919 41.9544 226.013 41.672C211.703 39.7269 205.135 44.9104 202.499 50.6216C201.648 52.5431 201.27 54.6186 201.391 56.6949C201.463 58.2192 202.067 59.6797 203.111 60.853C204.155 62.0264 205.582 62.848 207.173 63.1924L229.967 78.9085Z" fill="#37474F"/>
<path d="M210.14 48.7188C207.338 49.8568 204.669 53.8919 204.713 65.066C204.713 74.5639 207.859 76.9643 209.432 77.6678C211.004 78.3714 214.083 78.0196 217.074 77.5851V83.0479C217.074 83.0479 214.859 85.1172 215.612 86.4002C216.365 87.6831 219.311 88.7798 223.808 87.4348C228.925 85.9346 230.088 82.7479 230.088 82.7479L230.187 70.7979C230.187 70.7979 231.915 72.4947 234.939 70.0115C237.431 67.9423 238.328 64.4762 236.456 62.5518C234.584 60.6274 232.17 60.4825 229.999 62.6242L228.437 61.8483C225.657 61.5482 221.548 61.1137 218.569 59.6962C210.871 56.0647 210.085 52.0813 210.14 48.7188Z" fill="#FFA8A7"/>
<path d="M229.966 61.1021V66.3787C229.605 66.3873 229.246 66.327 228.912 66.2014C228.577 66.0757 228.273 65.8875 228.019 65.6481C227.765 65.4088 227.565 65.1234 227.434 64.8096C227.302 64.4958 227.24 64.1601 227.252 63.8231C227.251 63.1326 227.53 62.4673 228.034 61.962C228.538 61.4567 229.229 61.1493 229.966 61.1021Z" fill="#37474F"/>
<path d="M209.853 61.3518C209.853 61.5996 209.774 61.842 209.628 62.0486C209.481 62.2551 209.273 62.4168 209.028 62.5135C208.784 62.6101 208.515 62.6374 208.254 62.592C207.993 62.5465 207.752 62.4303 207.562 62.2579C207.371 62.0855 207.239 61.8645 207.182 61.6224C207.125 61.3804 207.145 61.128 207.241 60.8967C207.336 60.6655 207.503 60.4656 207.719 60.3221C207.935 60.1785 208.192 60.0977 208.457 60.0895C208.638 60.0868 208.817 60.1173 208.985 60.1792C209.152 60.2412 209.305 60.3334 209.435 60.4506C209.565 60.5678 209.668 60.7077 209.74 60.8624C209.812 61.017 209.85 61.1833 209.853 61.3518Z" fill="black"/>
<path d="M220.552 61.9196C220.564 62.1007 220.537 62.2821 220.473 62.4534C220.409 62.6247 220.309 62.7824 220.179 62.9173C220.049 63.0521 219.892 63.1614 219.716 63.2388C219.541 63.3162 219.35 63.3602 219.156 63.3681C218.857 63.3886 218.557 63.3248 218.296 63.1851C218.036 63.0453 217.826 62.8359 217.694 62.5838C217.561 62.3316 217.513 62.0483 217.554 61.7703C217.596 61.4922 217.726 61.2321 217.927 61.0234C218.128 60.8147 218.391 60.667 218.683 60.5992C218.974 60.5315 219.281 60.5467 219.563 60.6431C219.846 60.7395 220.091 60.9125 220.267 61.14C220.443 61.3675 220.542 61.639 220.552 61.9196Z" fill="black"/>
<path d="M206.22 59.0167L209.698 57.7234C209.622 57.502 209.497 57.2977 209.333 57.1236C209.168 56.9494 208.966 56.8093 208.74 56.712C208.514 56.6147 208.268 56.5623 208.02 56.5584C207.771 56.5544 207.524 56.5988 207.294 56.6888C206.825 56.8682 206.449 57.2125 206.248 57.6478C206.047 58.083 206.037 58.5745 206.22 59.0167Z" fill="black"/>
<path d="M213.165 60.8135L213.342 68.5939L208.867 67.6628L213.165 60.8135Z" fill="#F28F8F"/>
<path d="M218.437 70.1782L214.073 71.4405C214.131 71.7236 214.251 71.9925 214.425 72.2298C214.6 72.4671 214.827 72.6677 215.089 72.8187C215.352 72.9696 215.646 73.0677 215.951 73.1065C216.257 73.1453 216.568 73.1241 216.864 73.0442C217.47 72.8457 217.97 72.4378 218.263 71.9044C218.556 71.3711 218.618 70.7532 218.437 70.1782Z" fill="#B16668"/>
<path d="M216.022 73.0468C216.043 72.4914 216.293 71.9651 216.721 71.579C217.149 71.1929 217.72 70.9772 218.315 70.9775H218.503C218.489 71.4375 218.324 71.8822 218.031 72.2521C217.738 72.622 217.331 72.8993 216.864 73.0468C216.587 73.1025 216.3 73.1025 216.022 73.0468Z" fill="#F28F8F"/>
<path d="M217.075 77.5836C220.22 77.2421 226.71 75.5143 227.774 73.0933C227.341 74.3212 226.527 75.4015 225.437 76.1972C223.476 77.7698 217.063 79.4045 217.063 79.4045L217.075 77.5836Z" fill="#F28F8F"/>
<path d="M203.706 64.3215C204.115 64.7787 204.622 65.151 205.194 65.4146C205.766 65.6783 206.391 65.8275 207.028 65.8528H207.493C209.498 65.9563 210.528 64.8182 211.436 63.1421C211.691 62.6454 212.223 61.8177 212.832 61.8488C213.441 61.8798 213.884 62.7489 214.095 63.2662C214.44 64.136 215.049 64.8929 215.848 65.4442C216.646 65.9955 217.6 66.3173 218.591 66.3701L221.26 66.4943C221.88 66.5268 222.499 66.4375 223.079 66.2322C223.659 66.0269 224.186 65.7102 224.627 65.3025C225.067 64.8949 225.411 64.4054 225.636 63.8657C225.862 63.326 225.963 62.7481 225.934 62.1695C225.879 60.8762 225.813 59.2725 225.669 58.331C225.148 54.9374 220.906 54.1097 213.253 53.7579C205.6 53.4061 204.248 53.9855 203.373 57.3067C203.152 58.2069 202.919 59.7485 202.731 60.9797V61.0521C202.644 61.6304 202.685 62.2193 202.853 62.7818C203.021 63.3444 203.311 63.8686 203.706 64.3215ZM204.049 61.2176C204.226 60.0278 204.459 58.4448 204.68 57.5964C205.212 55.5271 204.946 54.6477 213.153 55.0305C221.36 55.4133 223.963 56.4066 224.229 58.4965C224.362 59.3863 224.428 61.0211 224.483 62.2419C224.499 62.6426 224.426 63.0419 224.268 63.4147C224.11 63.7875 223.871 64.1256 223.566 64.4076C223.261 64.6896 222.896 64.9094 222.496 65.0531C222.095 65.1968 221.667 65.2612 221.238 65.2424L218.569 65.1182C217.836 65.0894 217.129 64.8576 216.537 64.4523C215.945 64.047 215.496 63.4864 215.246 62.842C214.803 61.8074 214.05 60.6589 212.765 60.5969C211.481 60.5348 210.628 61.5591 210.074 62.604C209.41 63.856 208.911 64.6733 207.427 64.6112H206.962C206.524 64.5802 206.099 64.4653 205.711 64.2736C205.323 64.0819 204.982 63.8176 204.709 63.4972C204.435 63.1767 204.236 62.8071 204.122 62.4113C204.009 62.0155 203.984 61.6021 204.049 61.1969V61.2176Z" fill="#239487"/>
<path opacity="0.2" d="M203.706 64.3215C204.115 64.7787 204.622 65.151 205.194 65.4146C205.766 65.6783 206.391 65.8275 207.028 65.8528H207.493C209.498 65.9563 210.528 64.8182 211.436 63.1421C211.691 62.6454 212.223 61.8177 212.832 61.8488C213.441 61.8798 213.884 62.7489 214.095 63.2662C214.44 64.136 215.049 64.8929 215.848 65.4442C216.646 65.9955 217.6 66.3173 218.591 66.3701L221.26 66.4943C221.88 66.5268 222.499 66.4375 223.079 66.2322C223.659 66.0269 224.186 65.7102 224.627 65.3025C225.067 64.8949 225.411 64.4054 225.636 63.8657C225.862 63.326 225.963 62.7481 225.934 62.1695C225.879 60.8762 225.813 59.2725 225.669 58.331C225.148 54.9374 220.906 54.1097 213.253 53.7579C205.6 53.4061 204.248 53.9855 203.373 57.3067C203.152 58.2069 202.919 59.7485 202.731 60.9797V61.0521C202.644 61.6304 202.685 62.2193 202.853 62.7818C203.021 63.3444 203.311 63.8686 203.706 64.3215ZM204.049 61.2176C204.226 60.0278 204.459 58.4448 204.68 57.5964C205.212 55.5271 204.946 54.6477 213.153 55.0305C221.36 55.4133 223.963 56.4066 224.229 58.4965C224.362 59.3863 224.428 61.0211 224.483 62.2419C224.499 62.6426 224.426 63.0419 224.268 63.4147C224.11 63.7875 223.871 64.1256 223.566 64.4076C223.261 64.6896 222.896 64.9094 222.496 65.0531C222.095 65.1968 221.667 65.2612 221.238 65.2424L218.569 65.1182C217.836 65.0894 217.129 64.8576 216.537 64.4523C215.945 64.047 215.496 63.4864 215.246 62.842C214.803 61.8074 214.05 60.6589 212.765 60.5969C211.481 60.5348 210.628 61.5591 210.074 62.604C209.41 63.856 208.911 64.6733 207.427 64.6112H206.962C206.524 64.5802 206.099 64.4653 205.711 64.2736C205.323 64.0819 204.982 63.8176 204.709 63.4972C204.435 63.1767 204.236 62.8071 204.122 62.4113C204.009 62.0155 203.984 61.6021 204.049 61.1969V61.2176Z" fill="black"/>
<path opacity="0.5" d="M204.049 61.1963C203.989 61.6057 204.02 62.0223 204.142 62.4197C204.263 62.8172 204.471 63.1867 204.753 63.5049C205.036 63.8231 205.386 64.0829 205.781 64.2679C206.177 64.4529 206.609 64.5591 207.051 64.5796H207.516C209 64.652 209.499 63.8243 210.163 62.5724C210.717 61.5378 211.57 60.5031 212.855 60.5652C214.139 60.6273 214.892 61.7343 215.336 62.8104C215.585 63.4548 216.035 64.0153 216.626 64.4206C217.218 64.8259 217.925 65.0577 218.658 65.0866L221.327 65.2107C221.756 65.2296 222.184 65.1652 222.585 65.0215C222.986 64.8778 223.35 64.658 223.655 64.3759C223.96 64.0939 224.199 63.7558 224.357 63.383C224.515 63.0103 224.588 62.6109 224.573 62.2103C224.517 60.9894 224.451 59.3547 224.318 58.4649C224.008 56.3956 221.405 55.361 213.242 54.9989C205.079 54.6368 205.301 55.5162 204.769 57.5648C204.459 58.4235 204.227 60.0065 204.049 61.1963Z" fill="#37474F"/>
<path d="M230.121 78.4444C230.941 78.2892 231.672 78.6203 232.337 79.686C233.001 80.7516 234.485 82.9968 234.485 82.9968C234.485 82.9968 235.25 90.4565 234.485 92.3085C233.821 93.9122 226.533 99.9441 226.533 99.9441C226.533 99.9441 228.438 106.638 228.504 108.832C228.571 111.025 224.074 119.364 223.598 123.637C223.598 123.637 222.025 110.187 222.701 105.397C224.016 97.5738 226.495 89.9611 230.066 82.7795L230.121 78.4444Z" fill="#EBEBEB"/>
<path d="M153.622 131.694V123.21C153.622 118.772 156.745 114.333 163.025 110.95C175.574 104.183 195.92 104.183 208.435 110.95C214.715 114.333 217.839 118.772 217.839 123.2V131.694C217.927 136.185 214.804 140.685 208.446 144.11C195.898 150.876 175.552 150.876 163.036 144.11C156.679 140.675 153.556 136.174 153.633 131.694H153.622Z" fill="#E0E0E0"/>
<path d="M185.741 140.532C203.492 140.532 217.882 132.773 217.882 123.202C217.882 113.631 203.492 105.872 185.741 105.872C167.99 105.872 153.6 113.631 153.6 123.202C153.6 132.773 167.99 140.532 185.741 140.532Z" fill="#FAFAFA"/>
<path d="M185.741 139.554C202.477 139.554 216.044 132.235 216.044 123.207C216.044 114.178 202.477 106.859 185.741 106.859C169.006 106.859 155.438 114.178 155.438 123.207C155.438 132.235 169.006 139.554 185.741 139.554Z" fill="#E6E6E6"/>
<path d="M164.321 119.499C176.15 113.116 195.333 113.116 207.172 119.499C211.226 121.682 213.895 124.331 215.169 127.135C213.895 129.928 211.226 132.577 207.172 134.76C195.344 141.144 176.161 141.144 164.321 134.76C160.267 132.577 157.598 129.928 156.324 127.135C157.598 124.331 160.267 121.672 164.321 119.499Z" fill="#F0F0F0"/>
<path d="M190.847 124.071C189.161 123.275 187.298 122.861 185.409 122.861C183.52 122.861 181.657 123.275 179.971 124.071C176.969 125.695 176.969 128.323 179.971 129.937C181.656 130.738 183.519 131.155 185.409 131.155C187.299 131.155 189.162 130.738 190.847 129.937C193.849 128.323 193.849 125.695 190.847 124.071Z" fill="#239487"/>
<path d="M177.069 130.024C176.554 129.781 175.985 129.654 175.408 129.654C174.831 129.654 174.262 129.781 173.747 130.024C173.543 130.089 173.367 130.211 173.242 130.374C173.117 130.538 173.05 130.733 173.05 130.934C173.05 131.135 173.117 131.33 173.242 131.494C173.367 131.657 173.543 131.78 173.747 131.845C174.263 132.083 174.832 132.207 175.408 132.207C175.984 132.207 176.553 132.083 177.069 131.845C177.273 131.78 177.449 131.657 177.574 131.494C177.699 131.33 177.766 131.135 177.766 130.934C177.766 130.733 177.699 130.538 177.574 130.374C177.449 130.211 177.273 130.089 177.069 130.024Z" fill="#239487"/>
<path opacity="0.6" d="M182.774 126.997C184.23 126.997 185.41 126.372 185.41 125.6C185.41 124.829 184.23 124.204 182.774 124.204C181.318 124.204 180.138 124.829 180.138 125.6C180.138 126.372 181.318 126.997 182.774 126.997Z" fill="white"/>
<path opacity="0.6" d="M173.99 130.484C173.99 130.722 174.356 130.919 174.81 130.919C175.264 130.919 175.629 130.722 175.629 130.484C175.629 130.246 175.264 130.05 174.81 130.05C174.356 130.05 173.99 130.246 173.99 130.484Z" fill="white"/>
<path d="M245.671 135.235C241.895 137.222 234.009 140.305 225.924 143.212C221.911 144.73 217.759 145.904 213.519 146.72C203.739 148.386 199.121 148.055 196.651 144.816C192.664 139.643 194.646 137.201 199.973 137.45C202.202 137.572 204.439 137.405 206.619 136.953C205.554 136.649 204.54 136.206 203.606 135.639C203.098 135.363 202.72 134.917 202.549 134.391C202.379 133.864 202.428 133.298 202.687 132.804C202.953 132.401 203.972 133.104 206.01 133.342C208.612 133.652 210.185 133.104 212.821 134.077C213.914 134.397 215.076 134.454 216.199 134.242C218.093 134.108 220.629 133.145 225.37 131.262C230.11 129.379 237.963 124.33 237.963 124.33L240.975 102.251C240.975 102.251 236.545 88.6148 242.537 84.1865C248.662 85.3557 250.556 87.2077 252.682 92.9913C254.62 98.2576 251.63 122.458 250.777 127.134C250.124 130.838 249.98 133.052 245.671 135.235Z" fill="#239487"/>
<path d="M241.573 83.9463C245.051 84.1843 249.803 85.1879 252.56 89.7196C255.063 93.8581 253.358 105.653 252.56 117.655C251.874 128.001 252.007 132.719 247.189 135.13C241.906 137.778 227.253 142.714 227.253 142.714C227.394 138.823 225.922 135.031 223.144 132.129L237.187 124.152L238.295 101.939C238.295 101.939 237.852 88.0434 241.573 83.9463Z" fill="#EBEBEB"/>
<path d="M237.21 124.153C240.144 124.511 242.894 125.69 245.096 127.536C244.281 126.231 243.148 125.124 241.79 124.304C240.431 123.484 238.885 122.975 237.276 122.818L237.21 124.153Z" fill="#E0E0E0"/>
</svg>
