<svg width="40" height="40" viewBox="0 0 40 40" fill="none" xmlns="http://www.w3.org/2000/svg">
<path fill-rule="evenodd" clip-rule="evenodd" d="M6.66634 20.0002C6.66658 17.4342 7.4072 14.9229 8.79932 12.7675C10.1914 10.612 12.1759 8.90407 14.5147 7.84852C16.8534 6.79297 19.4471 6.43467 21.9844 6.81662C24.5217 7.19857 26.895 8.30453 28.8193 10.0018C30.7437 11.6991 32.1374 13.9156 32.8333 16.3853C33.5292 18.8551 33.4977 21.4732 32.7425 23.9255C31.9873 26.3777 30.5406 28.56 28.576 30.2105C26.6113 31.8609 24.2121 32.9094 21.6663 33.2302V23.3335H24.9997C25.4417 23.3335 25.8656 23.1579 26.1782 22.8453C26.4907 22.5328 26.6663 22.1089 26.6663 21.6668C26.6663 21.2248 26.4907 20.8009 26.1782 20.4883C25.8656 20.1758 25.4417 20.0002 24.9997 20.0002H21.6663V16.6668C21.6663 16.2248 21.8419 15.8009 22.1545 15.4883C22.4671 15.1758 22.891 15.0002 23.333 15.0002H24.1663C24.6084 15.0002 25.0323 14.8246 25.3449 14.512C25.6574 14.1994 25.833 13.7755 25.833 13.3335C25.833 12.8915 25.6574 12.4675 25.3449 12.155C25.0323 11.8424 24.6084 11.6668 24.1663 11.6668H23.333C22.0069 11.6668 20.7352 12.1936 19.7975 13.1313C18.8598 14.069 18.333 15.3407 18.333 16.6668V20.0002H14.9997C14.5576 20.0002 14.1337 20.1758 13.8212 20.4883C13.5086 20.8009 13.333 21.2248 13.333 21.6668C13.333 22.1089 13.5086 22.5328 13.8212 22.8453C14.1337 23.1579 14.5576 23.3335 14.9997 23.3335H18.333V33.2302C15.1108 32.8238 12.1477 31.2556 9.99968 28.8197C7.85165 26.3839 6.6664 23.2478 6.66634 20.0002ZM19.9997 36.6668C29.2047 36.6668 36.6663 29.2052 36.6663 20.0002C36.6663 10.7952 29.2047 3.3335 19.9997 3.3335C10.7947 3.3335 3.33301 10.7952 3.33301 20.0002C3.33301 29.2052 10.7947 36.6668 19.9997 36.6668Z" fill="#196B69"/>
</svg>
