<svg width="40" height="40" viewBox="0 0 40 40" fill="none" xmlns="http://www.w3.org/2000/svg">
<path d="M20.0009 0.952148C8.95038 0.952148 0 9.90253 0 20.953C0 29.8034 5.72524 37.2787 13.6756 39.9288C14.6756 40.1038 15.0506 39.5038 15.0506 38.9788C15.0506 38.5037 15.0256 36.9287 15.0256 35.2536C10.0004 36.1786 8.70037 34.0286 8.30035 32.9035C8.07534 32.3285 7.1003 30.5534 6.25027 30.0784C5.55024 29.7034 4.55019 28.7783 6.22527 28.7533C7.80033 28.7283 8.92538 30.2034 9.3004 30.8034C11.1005 33.8285 13.9756 32.9785 15.1256 32.4535C15.3007 31.1534 15.8257 30.2784 16.4007 29.7784C11.9505 29.2784 7.30031 27.5533 7.30031 19.903C7.30031 17.7279 8.07534 15.9278 9.3504 14.5277C9.15039 14.0277 8.45036 11.9776 9.55041 9.2275C9.55041 9.2275 11.2255 8.70248 15.0506 11.2776C16.6507 10.8276 18.3508 10.6026 20.0509 10.6026C21.7509 10.6026 23.451 10.8276 25.0511 11.2776C28.8762 8.67748 30.5513 9.2275 30.5513 9.2275C31.6514 11.9776 30.9513 14.0277 30.7513 14.5277C32.0264 15.9278 32.8014 17.7029 32.8014 19.903C32.8014 27.5783 28.1262 29.2784 23.676 29.7784C24.401 30.4034 25.0261 31.6035 25.0261 33.4785C25.0261 36.1536 25.0011 38.3037 25.0011 38.9788C25.0011 39.5038 25.3761 40.1288 26.3761 39.9288C30.3473 38.5894 33.7981 36.0378 36.2425 32.6336C38.687 29.2293 40.0018 25.144 40.0017 20.953C40.0017 9.90253 31.0513 0.952148 20.0009 0.952148Z" fill="black" fill-opacity="0.6"/>
</svg>
