<svg width="216" height="38" viewBox="0 0 216 38" fill="none" xmlns="http://www.w3.org/2000/svg">
<path d="M0 14.7095C0 13.7316 0.792679 12.939 1.7705 12.939C2.74832 12.939 3.541 13.7316 3.541 14.7095V24.1094C3.541 25.0872 2.74832 25.8799 1.7705 25.8799C0.792679 25.8799 0 25.0872 0 24.1094V14.7095Z" fill="#132F2B"/>
<path d="M10.6221 7.52441C10.6221 6.54659 11.4147 5.75391 12.3926 5.75391C13.3704 5.75391 14.1631 6.54659 14.1631 7.52441V32.741C14.1631 33.7188 13.3704 34.5115 12.3926 34.5115C11.4147 34.5115 10.6221 33.7188 10.6221 32.741V7.52441Z" fill="#132F2B"/>
<path d="M21.2448 13.2766C21.2448 12.2988 22.0374 11.5061 23.0152 11.5061C23.9931 11.5061 24.7857 12.2988 24.7857 13.2766V26.9901C24.7857 27.9679 23.9931 28.7606 23.0152 28.7606C22.0374 28.7606 21.2448 27.9679 21.2448 26.9901V13.2766Z" fill="#132F2B"/>
<path d="M31.8679 6.08031C31.8679 5.10249 32.6606 4.30981 33.6384 4.30981C34.6162 4.30981 35.4089 5.10249 35.4089 6.08031V34.1726C35.4089 35.1504 34.6162 35.9431 33.6384 35.9431C32.6606 35.9431 31.8679 35.1504 31.8679 34.1726V6.08031Z" fill="#132F2B"/>
<path d="M42.4904 3.20666C42.4904 2.22884 43.283 1.43616 44.2609 1.43616C45.2387 1.43616 46.0314 2.22884 46.0314 3.20666V35.6126C46.0314 36.5904 45.2387 37.3831 44.2609 37.3831C43.283 37.3831 42.4904 36.5904 42.4904 35.6126V3.20666Z" fill="#132F2B"/>
<path d="M53.1169 8.95556C53.1169 7.97774 53.9096 7.18506 54.8874 7.18506C55.8653 7.18506 56.6579 7.97774 56.6579 8.95556V29.8585C56.6579 30.8363 55.8653 31.629 54.8874 31.629C53.9096 31.629 53.1169 30.8363 53.1169 29.8585V8.95556Z" fill="#132F2B"/>
<path d="M63.7391 7.5244C63.7391 6.54658 64.5318 5.75391 65.5096 5.75391C66.4875 5.75391 67.2801 6.54659 67.2801 7.52441V31.3031C67.2801 32.2809 66.4875 33.0736 65.5096 33.0736C64.5318 33.0736 63.7391 32.2809 63.7391 31.3031V7.5244Z" fill="#132F2B"/>
<path d="M74.3623 4.64428C74.3623 3.66646 75.155 2.87378 76.1328 2.87378C77.1106 2.87378 77.9033 3.66646 77.9033 4.64428V34.1744C77.9033 35.1523 77.1106 35.9449 76.1328 35.9449C75.155 35.9449 74.3623 35.1523 74.3623 34.1744V4.64428Z" fill="#132F2B"/>
<path d="M84.9851 8.95556C84.9851 7.97774 85.7778 7.18506 86.7556 7.18506C87.7334 7.18506 88.5261 7.97774 88.5261 8.95556V29.8585C88.5261 30.8363 87.7334 31.629 86.7556 31.629C85.7778 31.629 84.9851 30.8363 84.9851 29.8585V8.95556Z" fill="#132F2B"/>
<path d="M95.6073 3.20666C95.6073 2.22884 96.4 1.43616 97.3778 1.43616C98.3556 1.43616 99.1483 2.22884 99.1483 3.20666V35.6126C99.1483 36.5904 98.3556 37.3831 97.3778 37.3831C96.4 37.3831 95.6073 36.5904 95.6073 35.6126V3.20666Z" fill="#132F2B"/>
<path d="M106.229 14.7095C106.229 13.7316 107.022 12.939 108 12.939C108.977 12.939 109.77 13.7316 109.77 14.7095V24.1094C109.77 25.0872 108.977 25.8799 108 25.8799C107.022 25.8799 106.229 25.0872 106.229 24.1094V14.7095Z" fill="#132F2B"/>
<path d="M116.851 11.8296C116.851 10.8518 117.644 10.0591 118.622 10.0591C119.6 10.0591 120.392 10.8518 120.392 11.8296V26.981C120.392 27.9588 119.6 28.7515 118.622 28.7515C117.644 28.7515 116.851 27.9588 116.851 26.981V11.8296Z" fill="#132F2B"/>
<path d="M127.475 14.7096C127.475 13.7318 128.267 12.9391 129.245 12.9391C130.223 12.9391 131.016 13.7318 131.016 14.7096V24.1095C131.016 25.0873 130.223 25.88 129.245 25.88C128.267 25.88 127.475 25.0873 127.475 24.1095V14.7096Z" fill="#F7F9FB"/>
<path d="M138.098 11.84C138.098 10.8621 138.891 10.0695 139.869 10.0695C140.846 10.0695 141.639 10.8621 141.639 11.84V26.9914C141.639 27.9692 140.846 28.7619 139.869 28.7619C138.891 28.7619 138.098 27.9692 138.098 26.9914V11.84Z" fill="#F7F9FB"/>
<path d="M148.724 4.64428C148.724 3.66646 149.516 2.87378 150.494 2.87378C151.472 2.87378 152.265 3.66646 152.265 4.64428V34.1744C152.265 35.1523 151.472 35.9449 150.494 35.9449C149.516 35.9449 148.724 35.1523 148.724 34.1744V4.64428Z" fill="#F7F9FB"/>
<path d="M159.346 8.95556C159.346 7.97774 160.138 7.18506 161.116 7.18506C162.094 7.18506 162.887 7.97774 162.887 8.95556V29.8585C162.887 30.8363 162.094 31.629 161.116 31.629C160.138 31.629 159.346 30.8363 159.346 29.8585V8.95556Z" fill="#F7F9FB"/>
<path d="M169.969 7.5244C169.969 6.54658 170.762 5.75391 171.739 5.75391C172.717 5.75391 173.51 6.54659 173.51 7.52441V31.3031C173.51 32.2809 172.717 33.0736 171.739 33.0736C170.762 33.0736 169.969 32.2809 169.969 31.3031V7.5244Z" fill="#F7F9FB"/>
<path d="M180.592 1.7705C180.592 0.792677 181.385 0 182.362 0C183.34 0 184.133 0.79268 184.133 1.7705V35.6143C184.133 36.5922 183.34 37.3848 182.362 37.3848C181.385 37.3848 180.592 36.5922 180.592 35.6143V1.7705Z" fill="#F7F9FB"/>
<path d="M191.213 8.95556C191.213 7.97774 192.006 7.18506 192.984 7.18506C193.962 7.18506 194.754 7.97774 194.754 8.95556V29.8585C194.754 30.8363 193.962 31.629 192.984 31.629C192.006 31.629 191.213 30.8363 191.213 29.8585V8.95556Z" fill="#F7F9FB"/>
<path d="M201.836 14.7096C201.836 13.7318 202.629 12.9391 203.606 12.9391C204.584 12.9391 205.377 13.7318 205.377 14.7096V24.1095C205.377 25.0873 204.584 25.88 203.606 25.88C202.629 25.88 201.836 25.0873 201.836 24.1095V14.7096Z" fill="#F7F9FB"/>
<path d="M212.459 11.84C212.459 10.8621 213.252 10.0695 214.229 10.0695C215.207 10.0695 216 10.8621 216 11.84V26.9914C216 27.9692 215.207 28.7619 214.229 28.7619C213.252 28.7619 212.459 27.9692 212.459 26.9914V11.84Z" fill="#F7F9FB"/>
</svg>
