<svg width="121" height="37" viewBox="0 0 121 37" fill="none" xmlns="http://www.w3.org/2000/svg">
<path d="M0 13.7095C0 12.7316 0.792679 11.939 1.7705 11.939C2.74832 11.939 3.541 12.7316 3.541 13.7095V23.1094C3.541 24.0872 2.74832 24.8799 1.7705 24.8799C0.792679 24.8799 0 24.0872 0 23.1094V13.7095Z" fill="#132F2B"/>
<path d="M10.6221 6.52441C10.6221 5.54659 11.4147 4.75391 12.3926 4.75391C13.3704 4.75391 14.1631 5.54659 14.1631 6.52441V31.741C14.1631 32.7188 13.3704 33.5115 12.3926 33.5115C11.4147 33.5115 10.6221 32.7188 10.6221 31.741V6.52441Z" fill="#132F2B"/>
<path d="M21.2448 12.2766C21.2448 11.2988 22.0374 10.5061 23.0152 10.5061C23.9931 10.5061 24.7857 11.2988 24.7857 12.2766V25.9901C24.7857 26.9679 23.9931 27.7606 23.0152 27.7606C22.0374 27.7606 21.2448 26.9679 21.2448 25.9901V12.2766Z" fill="#132F2B"/>
<path d="M31.8679 5.08031C31.8679 4.10249 32.6606 3.30981 33.6384 3.30981C34.6162 3.30981 35.4089 4.10249 35.4089 5.08031V33.1726C35.4089 34.1504 34.6162 34.9431 33.6384 34.9431C32.6606 34.9431 31.8679 34.1504 31.8679 33.1726V5.08031Z" fill="#132F2B"/>
<path d="M42.4904 2.20666C42.4904 1.22884 43.283 0.436157 44.2609 0.436157C45.2387 0.436157 46.0314 1.22884 46.0314 2.20666V34.6126C46.0314 35.5904 45.2387 36.3831 44.2609 36.3831C43.283 36.3831 42.4904 35.5904 42.4904 34.6126V2.20666Z" fill="#132F2B"/>
<path d="M53.1169 7.95556C53.1169 6.97774 53.9096 6.18506 54.8874 6.18506C55.8653 6.18506 56.6579 6.97774 56.6579 7.95556V28.8585C56.6579 29.8363 55.8653 30.629 54.8874 30.629C53.9096 30.629 53.1169 29.8363 53.1169 28.8585V7.95556Z" fill="#132F2B"/>
<path d="M63.7391 6.5244C63.7391 5.54658 64.5318 4.75391 65.5096 4.75391C66.4875 4.75391 67.2801 5.54659 67.2801 6.52441V30.3031C67.2801 31.2809 66.4875 32.0736 65.5096 32.0736C64.5318 32.0736 63.7391 31.2809 63.7391 30.3031V6.5244Z" fill="#132F2B"/>
<path d="M74.3623 3.64428C74.3623 2.66646 75.155 1.87378 76.1328 1.87378C77.1106 1.87378 77.9033 2.66646 77.9033 3.64428V33.1744C77.9033 34.1523 77.1106 34.9449 76.1328 34.9449C75.155 34.9449 74.3623 34.1523 74.3623 33.1744V3.64428Z" fill="#132F2B"/>
<path d="M84.9851 7.95556C84.9851 6.97774 85.7778 6.18506 86.7556 6.18506C87.7334 6.18506 88.5261 6.97774 88.5261 7.95556V28.8585C88.5261 29.8363 87.7334 30.629 86.7556 30.629C85.7778 30.629 84.9851 29.8363 84.9851 28.8585V7.95556Z" fill="#132F2B"/>
<path d="M95.6073 2.20666C95.6073 1.22884 96.4 0.436157 97.3778 0.436157C98.3556 0.436157 99.1483 1.22884 99.1483 2.20666V34.6126C99.1483 35.5904 98.3556 36.3831 97.3778 36.3831C96.4 36.3831 95.6073 35.5904 95.6073 34.6126V2.20666Z" fill="#132F2B"/>
<path d="M106.229 13.7095C106.229 12.7316 107.022 11.939 108 11.939C108.977 11.939 109.77 12.7316 109.77 13.7095V23.1094C109.77 24.0872 108.977 24.8799 108 24.8799C107.022 24.8799 106.229 24.0872 106.229 23.1094V13.7095Z" fill="#132F2B"/>
<path d="M116.851 10.8296C116.851 9.85176 117.644 9.05908 118.622 9.05908C119.6 9.05908 120.392 9.85176 120.392 10.8296V25.981C120.392 26.9588 119.6 27.7515 118.622 27.7515C117.644 27.7515 116.851 26.9588 116.851 25.981V10.8296Z" fill="#132F2B"/>
</svg>
