<svg width="125" height="123" viewBox="0 0 125 123" fill="none" xmlns="http://www.w3.org/2000/svg">
<path d="M47.8625 57.133C46.6856 55.9799 45.0894 55.3321 43.425 55.3321C41.7606 55.3321 40.1644 55.9799 38.9875 57.133C37.8106 58.2861 37.1494 59.85 37.1494 61.4807C37.1494 63.1114 37.8106 64.6753 38.9875 65.8284L57.7375 84.199C58.3215 84.7665 59.0141 85.2155 59.7756 85.5203C60.5371 85.825 61.3524 85.9795 62.175 85.9748C63.0306 85.9482 63.8715 85.7497 64.6456 85.3916C65.4197 85.0334 66.1104 84.5233 66.675 83.8928L110.425 34.9046C111.435 33.6758 111.922 32.1124 111.785 30.5403C111.647 28.9682 110.895 27.5088 109.686 26.4665C108.477 25.4241 106.904 24.8792 105.295 24.9453C103.686 25.0115 102.166 25.6836 101.05 26.8216L62.175 70.9109L47.8625 57.133Z" fill="#28CC9E"/>
<path d="M118.425 55.3588C116.768 55.3588 115.178 56.0039 114.006 57.1523C112.834 58.3007 112.175 59.8583 112.175 61.4823C112.175 74.4748 106.908 86.9351 97.5307 96.1222C88.1539 105.309 75.4362 110.471 62.1754 110.471C52.3009 110.466 42.6489 107.597 34.4364 102.225C26.2239 96.8537 19.8186 89.2198 16.0284 80.2863C12.2381 71.3527 11.2325 61.5196 13.1384 52.0269C15.0443 42.5342 19.7764 33.807 26.7378 26.9456C31.3672 22.3492 36.8858 18.7036 42.9707 16.2222C49.0556 13.7408 55.5845 12.4734 62.1754 12.4941C66.1719 12.5186 70.1538 12.9704 74.0504 13.8413C74.8658 14.0884 75.7242 14.1693 76.5727 14.0789C77.4213 13.9885 78.2419 13.7288 78.9841 13.3158C79.7262 12.9027 80.3742 12.3451 80.888 11.6774C81.4018 11.0096 81.7705 10.2458 81.9715 9.43305C82.1725 8.62031 82.2014 7.77584 82.0565 6.95172C81.9116 6.12759 81.596 5.34128 81.129 4.64126C80.6621 3.94124 80.0538 3.34233 79.3415 2.88148C78.6293 2.42063 77.8283 2.10758 76.9879 1.96166C72.1325 0.842538 67.1632 0.267323 62.1754 0.24707C49.8275 0.309919 37.7753 3.95499 27.5397 10.7223C17.3041 17.4896 9.34392 27.0758 4.66359 38.2713C-0.0167344 49.4667 -1.20741 61.7696 1.24181 73.6275C3.69104 85.4853 9.67041 96.3665 18.4253 104.898C30.0297 116.273 45.7607 122.68 62.1754 122.718C78.7514 122.718 94.6485 116.266 106.37 104.782C118.091 93.2983 124.675 77.7229 124.675 61.4823C124.675 59.8583 124.017 58.3007 122.845 57.1523C121.673 56.0039 120.083 55.3588 118.425 55.3588Z" fill="#28CC9E"/>
</svg>
