<svg width="25" height="25" viewBox="0 0 25 25" fill="none" xmlns="http://www.w3.org/2000/svg">
<path d="M11.25 18.75H13.75V11.25H11.25V18.75ZM12.5 8.75C12.8542 8.75 13.1513 8.63 13.3913 8.39C13.6313 8.15 13.7508 7.85333 13.75 7.5C13.75 7.14583 13.63 6.84917 13.39 6.61C13.15 6.37083 12.8533 6.25083 12.5 6.25C12.1458 6.25 11.8492 6.37 11.61 6.61C11.3708 6.85 11.2508 7.14667 11.25 7.5C11.25 7.85417 11.37 8.15125 11.61 8.39125C11.85 8.63125 12.1467 8.75083 12.5 8.75ZM12.5 25C10.7708 25 9.14583 24.6717 7.625 24.015C6.10417 23.3583 4.78125 22.4679 3.65625 21.3438C2.53125 20.2188 1.64083 18.8958 0.985 17.375C0.329167 15.8542 0.000833333 14.2292 0 12.5C0 10.7708 0.328333 9.14583 0.985 7.625C1.64167 6.10417 2.53208 4.78125 3.65625 3.65625C4.78125 2.53125 6.10417 1.64083 7.625 0.985C9.14583 0.329167 10.7708 0.000833333 12.5 0C14.2292 0 15.8542 0.328333 17.375 0.985C18.8958 1.64167 20.2188 2.53208 21.3438 3.65625C22.4688 4.78125 23.3596 6.10417 24.0162 7.625C24.6729 9.14583 25.0008 10.7708 25 12.5C25 14.2292 24.6717 15.8542 24.015 17.375C23.3583 18.8958 22.4679 20.2188 21.3438 21.3438C20.2188 22.4688 18.8958 23.3596 17.375 24.0162C15.8542 24.6729 14.2292 25.0008 12.5 25ZM12.5 22.5C15.2917 22.5 17.6562 21.5312 19.5938 19.5938C21.5312 17.6562 22.5 15.2917 22.5 12.5C22.5 9.70833 21.5312 7.34375 19.5938 5.40625C17.6562 3.46875 15.2917 2.5 12.5 2.5C9.70833 2.5 7.34375 3.46875 5.40625 5.40625C3.46875 7.34375 2.5 9.70833 2.5 12.5C2.5 15.2917 3.46875 17.6562 5.40625 19.5938C7.34375 21.5312 9.70833 22.5 12.5 22.5Z" fill="black" fill-opacity="0.7"/>
</svg>
