<svg width="36" height="36" viewBox="0 0 36 36" fill="none" xmlns="http://www.w3.org/2000/svg">
<path d="M4.71745 0.765137C3.68368 0.772501 2.69434 1.18643 1.96334 1.91744C1.23233 2.64844 0.818399 3.63778 0.811035 4.67155V31.2352C0.811035 33.3712 2.58142 35.1416 4.71745 35.1416H31.2811C33.4171 35.1416 35.1875 33.3712 35.1875 31.2352V4.67155C35.1875 2.53552 33.4171 0.765137 31.2811 0.765137H4.71745ZM4.71745 3.89027H31.2811C31.7264 3.89027 32.0624 4.22622 32.0624 4.67155V31.2352C32.0645 31.3384 32.0458 31.4409 32.0072 31.5367C31.9687 31.6324 31.9113 31.7194 31.8383 31.7924C31.7653 31.8654 31.6783 31.9228 31.5826 31.9613C31.4868 31.9998 31.3843 32.0186 31.2811 32.0165H4.71745C4.61421 32.0188 4.51156 32.0002 4.41571 31.9618C4.31986 31.9234 4.23279 31.8659 4.15977 31.7929C4.08675 31.7198 4.02929 31.6328 3.99085 31.5369C3.95242 31.4411 3.93382 31.3384 3.93617 31.2352V4.67155C3.93617 4.22622 4.27212 3.89027 4.71745 3.89027ZM9.30828 6.57632C8.95019 6.56768 8.594 6.63075 8.26065 6.76182C7.9273 6.89288 7.62353 7.0893 7.36721 7.3395C7.1109 7.58971 6.90722 7.88865 6.76815 8.21874C6.62908 8.54883 6.55744 8.9034 6.55744 9.26159C6.55744 9.61978 6.62908 9.97435 6.76815 10.3044C6.90722 10.6345 7.1109 10.9335 7.36721 11.1837C7.62353 11.4339 7.9273 11.6303 8.26065 11.7614C8.594 11.8924 8.95019 11.9555 9.30828 11.9469C10.0092 11.93 10.6758 11.6396 11.1656 11.1379C11.6554 10.6361 11.9296 9.96276 11.9296 9.26159C11.9296 8.56043 11.6554 7.88705 11.1656 7.38531C10.6758 6.88357 10.0092 6.59323 9.30828 6.57632ZM23.4183 13.7048C21.1791 13.7048 19.69 14.9314 19.0743 16.097H18.9759V14.047H14.5804V28.8913H19.1712V21.566C19.1712 19.6316 19.5556 17.758 21.9541 17.758C24.3167 17.758 24.348 19.9425 24.348 21.6645V28.8913H28.9373V20.7363C28.9373 16.7455 28.0872 13.7048 23.4183 13.7048ZM7.06131 14.047V28.8913H11.7006V14.047H7.06131Z" fill="black" fill-opacity="0.6"/>
</svg>
