<svg width="100" height="107" viewBox="0 0 100 107" fill="none" xmlns="http://www.w3.org/2000/svg">
<g clip-path="url(#clip0_798_131)">
<path d="M61.3859 19.4512C61.0321 17.3552 60.7538 15.2588 60.4955 13.1624L60.4012 12.3762L60.3549 11.9831L60.3437 11.8848C60.3398 11.8528 60.3368 11.816 60.3309 11.7947L60.3005 11.6473C60.2206 11.2573 60.0776 10.8969 59.8829 10.5814C59.6864 10.2673 59.4449 9.99353 59.1661 9.78381C58.8878 9.57432 58.5843 9.41918 58.2725 9.33189C57.9607 9.24445 57.6463 9.21491 57.3395 9.24564L55.9296 9.38L54.4181 9.51705C53.9143 9.56223 53.4104 9.60615 52.9066 9.6466C50.8912 9.8158 48.8757 9.96241 46.8601 10.0922C45.8523 10.1593 44.8445 10.2174 43.8366 10.2753L43.4587 10.2973L43.2697 10.3074L43.2225 10.3098L43.1994 10.3111L43.1905 10.3134L43.1552 10.322C43.1319 10.3272 43.1086 10.3315 43.0854 10.3349C43.0622 10.3382 43.0386 10.3388 43.0171 10.3495C42.9735 10.367 42.9287 10.3744 42.8859 10.3892C42.7147 10.4476 42.5647 10.5492 42.4308 10.6639C42.2975 10.7803 42.1858 10.9216 42.1045 11.0737C42.024 11.2267 41.9702 11.386 41.9452 11.5468C41.9294 11.6266 41.9306 11.7092 41.9284 11.7908C41.931 11.8119 41.9328 11.8327 41.9335 11.8534L41.9339 11.8844L41.9336 11.8998L41.9333 11.9076L41.9339 11.9286L41.9483 12.3218L41.9969 13.8949C42.0627 15.9922 42.1087 18.0897 42.1467 20.1873C42.1582 20.7116 42.1628 21.236 42.1704 21.7605L42.1707 21.785L42.17 21.8271L42.168 21.9121L42.1629 22.0824L42.1481 22.4227C42.1447 22.5361 42.1297 22.6494 42.1151 22.7626C42.1006 22.8759 42.0852 22.989 42.0685 23.1021C42.0413 23.3289 41.9813 23.5504 41.9299 23.7732C41.901 23.8837 41.879 23.9964 41.8414 24.1042C41.8062 24.2128 41.7701 24.3212 41.7329 24.4292C41.1303 26.1568 39.9064 27.616 38.3524 28.4819C38.1557 28.5852 37.9581 28.688 37.7558 28.7786C37.5504 28.8621 37.3429 28.9415 37.1345 29.0166C36.9227 29.0801 36.7086 29.1378 36.4944 29.1919C36.2793 29.2406 36.0608 29.2716 35.8432 29.3054C35.7343 29.3242 35.6253 29.3319 35.5161 29.3385L35.1883 29.3569C34.9283 29.37 34.8561 29.3644 34.7188 29.366L33.9627 29.3672L30.9384 29.3518C29.9303 29.3393 28.9222 29.3325 27.914 29.3151L25.1103 29.2637C24.9607 29.2629 24.8161 29.2876 24.6743 29.3414C24.5327 29.3939 24.3925 29.4738 24.2694 29.582C24.1457 29.6894 24.0408 29.8225 23.9591 29.9698C23.8791 30.1183 23.8247 30.2819 23.7997 30.4643L23.793 30.4984L23.7892 30.5155C23.7886 30.519 23.7877 30.5199 23.7872 30.5255L23.7864 30.55L23.7798 30.7467L23.765 31.1401L23.7341 31.9269L23.6707 33.5005C23.6232 34.5496 23.5785 35.5986 23.5228 36.6477C23.4722 37.6968 23.4102 38.746 23.3516 39.7952C23.2866 40.8443 23.2239 41.8935 23.1506 42.9427C23.1159 43.4673 23.0795 43.992 23.0401 44.5166L22.9445 45.85C22.9372 46.1508 22.9839 46.4581 23.088 46.7568C23.1918 47.0554 23.3552 47.3414 23.566 47.5966C23.7764 47.8528 24.0389 48.0712 24.3366 48.2407L24.4488 48.3062C24.4876 48.3246 24.5276 48.3398 24.5671 48.3576L24.6868 48.411C24.7263 48.4321 24.7693 48.438 24.8108 48.453L24.9369 48.4934C24.9581 48.4999 24.9791 48.5086 25.0007 48.5137L25.0661 48.5262L25.1979 48.5539L25.2645 48.5687C25.2769 48.571 25.2838 48.5743 25.3009 48.5758L25.3482 48.5809C26.3567 48.6891 27.3653 48.8058 28.374 48.9289C30.3913 49.1792 32.4086 49.4508 34.4263 49.8017C32.4119 50.1721 30.397 50.4632 28.382 50.7329C27.3746 50.8658 26.367 50.9923 25.3595 51.1101L25.3123 51.1157C25.2979 51.1178 25.2733 51.1182 25.2543 51.1194L25.132 51.1252L24.8862 51.1348L24.7628 51.1383C24.7216 51.1381 24.6806 51.134 24.6394 51.132L24.3916 51.1149C24.3091 51.1067 24.225 51.1066 24.1433 51.0902L23.8964 51.0475C23.8141 51.0322 23.7309 51.0185 23.6489 51.0004L23.4055 50.9324C22.7553 50.7478 22.1332 50.4295 21.5788 50.0033C21.0242 49.5767 20.5419 49.0355 20.1616 48.4137C19.7802 47.7922 19.5165 47.0822 19.3787 46.3441L19.351 46.2056C19.3418 46.1594 19.3384 46.1128 19.3321 46.0662L19.3 45.7858L19.2854 45.645L19.2737 45.518L19.2576 45.3214L19.193 44.5351C19.1489 44.0108 19.1077 43.4866 19.0684 42.9623C18.9856 41.9139 18.9137 40.8653 18.8393 39.8169C18.7713 38.7683 18.6999 37.7198 18.64 36.6713C18.5748 35.6227 18.5208 34.5741 18.4639 33.5256L18.3865 31.9526L18.3486 31.1662L18.3302 30.773L18.3219 30.5763L18.3208 30.5518V30.5126L18.3213 30.4315L18.3232 30.2691C18.3298 29.4041 18.4901 28.5256 18.7997 27.7061C19.1078 26.8851 19.5717 26.1308 20.1444 25.4811C20.7184 24.8321 21.4077 24.2874 22.1759 23.8899C22.9434 23.4926 23.7878 23.2427 24.6423 23.157L24.963 23.1329C25.0652 23.1261 25.1967 23.1187 25.2401 23.1181L25.618 23.1055L26.3739 23.0842L27.8859 23.0431C28.8938 23.016 29.9019 22.9995 30.9098 22.9772L33.9338 22.9325L34.6899 22.9265C34.8046 22.9252 34.9845 22.9261 34.9761 22.9187C34.9926 22.9166 35.0091 22.9155 35.0257 22.9155C35.0424 22.916 35.0594 22.9177 35.0744 22.9108C35.1051 22.9005 35.1378 22.9018 35.1685 22.8944C35.1979 22.8816 35.228 22.8742 35.2595 22.8694C35.2873 22.8532 35.3161 22.8414 35.3469 22.8336C35.375 22.8183 35.4011 22.7996 35.4318 22.79C35.5438 22.7285 35.6484 22.6435 35.7348 22.542C35.8221 22.4408 35.8873 22.3239 35.9354 22.203C35.9409 22.1877 35.9475 22.1726 35.9552 22.158C35.9654 22.144 35.962 22.1257 35.9676 22.1103C35.9724 22.0777 35.9941 22.0491 35.992 22.0141C35.9938 21.9974 35.9967 21.9809 36.0007 21.9644C36.0047 21.9481 36.0115 21.9319 36.0086 21.9138C36.0084 21.8963 36.0092 21.8788 36.0111 21.8613L36.0147 21.835L36.017 21.8218L36.0183 21.8148L36.0184 21.7902C36.0213 21.2658 36.0213 20.7414 36.028 20.2169C36.0473 18.1191 36.0746 16.0212 36.1216 13.9233L36.1562 12.3499L36.167 11.9565L36.1738 11.8042L36.1829 11.6387L36.2054 11.3083C36.2523 10.8689 36.3273 10.4308 36.45 10.0058C36.6878 9.15472 37.0761 8.35334 37.5878 7.65845C38.0981 6.96222 38.7267 6.36789 39.4357 5.90839C40.1442 5.44937 40.9356 5.12613 41.7522 4.96926C41.9557 4.93023 42.1618 4.9063 42.3665 4.88008C42.4689 4.86491 42.5715 4.86199 42.6741 4.85819L42.9817 4.84943L43.1352 4.84713L43.1735 4.84674L43.1977 4.84769L43.2449 4.84966L43.4339 4.85796L43.812 4.87628C44.8203 4.92447 45.8286 4.97281 46.8369 5.03016C48.8536 5.14043 50.8702 5.26753 52.8871 5.41722C53.3912 5.45277 53.8955 5.49179 54.3997 5.53207L55.9123 5.65451L56.6686 5.71857L57.0468 5.7508L57.2629 5.77158L57.526 5.80128C58.2248 5.89109 58.9055 6.11061 59.5137 6.45138C60.122 6.79112 60.6626 7.23996 61.099 7.77062C61.5368 8.29963 61.8728 8.90779 62.088 9.55023C62.3051 10.192 62.4014 10.8673 62.3779 11.5235L62.3683 11.7688C62.3673 11.8129 62.3629 11.8418 62.3597 11.8753L62.3493 11.9737L62.3065 12.3672L62.2192 13.1543C61.9805 15.2529 61.7209 17.3519 61.3859 19.4512Z" fill="#196B69"/>
<path d="M52.3096 34.7218C52.0327 34.8754 51.754 35.0207 51.481 35.1783C51.2055 35.329 50.9347 35.4887 50.6648 35.6471C50.1261 35.967 49.5976 36.2982 49.0838 36.6474C48.568 36.9924 48.0693 37.359 47.5847 37.7368C47.3415 37.9246 47.1066 38.1222 46.871 38.3163C46.6404 38.5174 46.4093 38.7158 46.1879 38.9245C45.7412 39.3363 45.3146 39.7651 44.9153 40.2133C44.5191 40.6612 44.1471 41.1142 43.818 41.5973L43.6928 41.7759C43.6515 41.8357 43.6144 41.8987 43.5751 41.9597C43.4985 42.0834 43.4176 42.2031 43.343 42.327L43.1269 42.7027C43.0899 42.7642 43.056 42.8279 43.0238 42.8926L42.925 43.0847L42.8261 43.2761C42.7945 43.3406 42.7658 43.407 42.7355 43.472C42.6762 43.6033 42.6118 43.7305 42.5566 43.8634L42.3928 44.2614C42.3386 44.3939 42.2938 44.5316 42.2438 44.6658C42.055 45.2088 41.8859 45.7578 41.7622 46.3261C41.6365 46.8929 41.526 47.4646 41.4542 48.0514L41.4244 48.2699L41.4012 48.4913L41.3542 48.9347C41.3285 49.2417 41.2972 49.5476 41.2759 49.8539C41.2575 50.1604 41.2304 50.4654 41.2199 50.7715L41.1973 51.2296C41.1894 51.3821 41.1874 51.5353 41.1821 51.6879C41.1467 52.9097 41.1641 54.131 41.2257 55.3734C41.252 55.9928 41.2906 56.6209 41.3307 57.251L41.4612 59.164C41.5046 59.8065 41.552 60.4554 41.5904 61.108L41.7133 62.9953L41.7516 63.4528L41.7711 63.6641L41.7812 63.7654L41.7922 63.8599C41.8216 64.1105 41.8584 64.3166 41.9007 64.4738C41.9432 64.6318 41.9883 64.7396 42.0344 64.8163C42.0478 64.8338 42.0568 64.8542 42.0692 64.8708C42.0832 64.8862 42.0915 64.9047 42.1054 64.9197C42.1123 64.9271 42.1189 64.9348 42.1249 64.9427C42.131 64.9508 42.1351 64.9585 42.1457 64.9689C42.1641 64.9882 42.1795 65.0093 42.1967 65.0292C42.3385 65.1856 42.5226 65.3119 42.7193 65.3916C42.9165 65.471 43.1218 65.5048 43.3068 65.4877L45.1113 65.4286L46.9724 65.3763C49.4536 65.3057 51.9351 65.2555 54.4165 65.2138L56.2777 65.1875L57.2082 65.1758L57.3203 65.174C57.3307 65.1717 57.3409 65.1698 57.3512 65.1683C57.3717 65.1652 57.3922 65.1638 57.4129 65.164C57.4343 65.1679 57.4524 65.1559 57.4721 65.1529C57.4915 65.1484 57.511 65.1457 57.5309 65.1445C57.6831 65.1079 57.8241 65.0356 57.9509 64.9343C58.0757 64.8325 58.1888 64.7038 58.2526 64.5554C58.3208 64.4092 58.3619 64.258 58.3683 64.087C58.3695 64.0764 58.3711 64.0658 58.373 64.0552L58.3732 63.9394L58.3727 63.6973L58.3717 63.2131L58.3697 62.2448L58.3812 58.3717L58.4133 54.4985C58.4169 54.3242 58.4122 54.2272 58.4285 53.8994C58.4352 53.7612 58.4434 53.623 58.4532 53.4852C58.4631 53.3474 58.4878 53.2098 58.5068 53.0724C58.5279 52.9351 58.5488 52.7977 58.5745 52.6616C58.6059 52.5262 58.6389 52.3912 58.6734 52.2567C58.7362 51.9858 58.8313 51.7254 58.9264 51.4655C58.9506 51.4007 58.974 51.3356 58.9998 51.2715L59.0851 51.0832C59.1427 50.958 59.2017 50.8335 59.2621 50.7099C59.2909 50.6473 59.3249 50.5879 59.3593 50.5286L59.4626 50.351C59.5326 50.2333 59.6019 50.115 59.6767 50.0011C59.7551 49.8897 59.8348 49.7793 59.9157 49.6699C59.9968 49.5608 60.0763 49.4504 60.1675 49.3503C60.3466 49.1473 60.5217 48.9403 60.7227 48.7609C61.5023 48.0187 62.4415 47.458 63.4538 47.1373C63.7092 47.0678 63.965 46.9948 64.2241 46.9479C64.3542 46.9268 64.4845 46.9071 64.6148 46.8891L64.8103 46.8632C64.8755 46.8562 64.9407 46.8546 65.006 46.8505C65.1365 46.8438 65.2671 46.8385 65.3976 46.8349L65.4953 46.8324L65.5442 46.8314L65.5754 46.832L65.6918 46.8347L66.1571 46.8456C67.3981 46.8722 68.639 46.9096 69.88 46.945C71.121 46.9815 72.362 47.0253 73.6031 47.0689L74.5339 47.1049L74.9993 47.1229L75.2319 47.1319L75.2901 47.1342L75.3186 47.1352L75.3302 47.135L75.3765 47.1353C75.6248 47.1499 75.8713 47.1165 76.1118 47.0208L76.1352 47.0136L76.1563 47.0017L76.1994 46.9791C76.2283 46.9643 76.2589 46.9518 76.289 46.9379C76.3159 46.9188 76.3435 46.9008 76.3721 46.8835C76.3999 46.8655 76.4326 46.8531 76.4564 46.8289C76.506 46.7841 76.569 46.7522 76.6141 46.7004C76.6389 46.677 76.6648 46.6542 76.6918 46.632C76.7169 46.6083 76.7364 46.5796 76.7606 46.5545C76.9449 46.3476 77.0972 46.0986 77.1757 45.8152C77.1831 45.7792 77.1924 45.7435 77.2025 45.7075L77.2188 45.6535C77.2251 45.6355 77.224 45.6162 77.2274 45.5976C77.2323 45.56 77.2383 45.5223 77.2454 45.4844L77.251 45.4558C77.2527 45.4442 77.2555 45.4427 77.256 45.4176L77.262 45.2966L77.31 44.3281L77.412 42.391C77.5525 39.8083 77.7114 37.2255 77.8939 34.6426C77.9857 33.3511 78.0818 32.0596 78.1859 30.7681L78.2054 30.5259L78.2103 30.4654C78.2119 30.4457 78.2139 30.4228 78.2142 30.4108L78.219 30.3236L78.2309 30.1474L78.2343 30.1029L78.2322 30.0591L78.2286 29.971C78.2265 29.9121 78.2248 29.8526 78.2242 29.7926L78.2015 29.6159C78.1922 29.5571 78.1915 29.4951 78.1764 29.4373L78.136 29.2612L78.1168 29.1717C78.1091 29.1423 78.0977 29.1143 78.0885 29.0854L78.0313 28.9111C78.0156 28.8506 77.9848 28.798 77.9615 28.7408L77.8883 28.5692L77.7977 28.4066C77.7661 28.3531 77.7414 28.293 77.7031 28.2441L77.5965 28.0884C77.5783 28.0626 77.5619 28.0347 77.5423 28.01L77.4813 27.9379C77.1634 27.5427 76.7523 27.2113 76.2776 26.9813C76.218 26.9537 76.1563 26.9317 76.0952 26.9059C76.0336 26.8825 75.973 26.8516 75.9094 26.8331L75.7172 26.7778C75.6527 26.7591 75.5881 26.7364 75.5214 26.728L75.3214 26.6915L75.2193 26.6729L75.1029 26.66L74.6373 26.6073C73.3959 26.4608 72.1544 26.3167 70.9128 26.1368C72.1527 25.945 73.3929 25.7889 74.6329 25.6303L75.098 25.5731L75.2142 25.5591L75.3445 25.5509L75.6093 25.5366C75.6982 25.5287 75.7865 25.5356 75.8755 25.54L76.1436 25.5554C76.2333 25.5615 76.321 25.5809 76.4103 25.5936C76.4991 25.6088 76.5893 25.6212 76.6781 25.64C77.3869 25.7992 78.0714 26.1352 78.6627 26.6174L78.7746 26.7073C78.8111 26.7382 78.8445 26.7726 78.8796 26.8053L79.0875 27.0064C79.1595 27.0716 79.2176 27.1495 79.2825 27.2221L79.472 27.446L79.6423 27.687C79.697 27.7692 79.7586 27.8477 79.8046 27.9358L79.9513 28.1966C79.9751 28.2406 80.0009 28.2838 80.0228 28.3288L80.0845 28.4663L80.2061 28.7439C80.2475 28.8367 80.2737 28.9348 80.3076 29.0309C80.3392 29.1277 80.3719 29.2248 80.4012 29.3229L80.4691 29.6226L80.5017 29.7737L80.5177 29.8494L80.5278 29.9257L80.5655 30.2329L80.583 30.3874L80.5949 30.5143L80.6167 30.7563C80.7323 32.0467 80.8399 33.3372 80.9433 34.6277C81.1489 37.2088 81.3308 39.7899 81.4944 42.3712L81.6137 44.3071L81.6704 45.2751L81.6774 45.3961C81.679 45.4114 81.6786 45.4501 81.6789 45.4788L81.6792 45.5712C81.6792 45.6944 81.6781 45.8179 81.6758 45.9416C81.6737 46.0033 81.6755 46.0653 81.6693 46.127L81.6515 46.3124C81.6389 46.4361 81.6256 46.56 81.6103 46.6837C81.3248 48.6658 80.1247 50.4979 78.404 51.5067C77.5468 52.0126 76.5668 52.3218 75.5758 52.3869L75.3899 52.4005L75.3137 52.405L75.2556 52.4078L75.0229 52.4191L74.5577 52.4416L73.6273 52.4866C72.3867 52.5421 71.1462 52.5979 69.9055 52.6464C68.6649 52.6939 67.4243 52.7432 66.1837 52.7818L65.7185 52.7973L65.6022 52.8011L65.5752 52.8022L65.566 52.8045L65.5477 52.8087C65.5233 52.8139 65.499 52.8176 65.4746 52.8197C65.4625 52.8214 65.45 52.82 65.4383 52.8232C65.4269 52.8275 65.4154 52.8314 65.404 52.8349C65.3812 52.842 65.3582 52.8474 65.3351 52.8514C65.3293 52.8525 65.3234 52.8529 65.3177 52.8544L65.3016 52.8623C65.2908 52.8673 65.2801 52.8721 65.2693 52.8763C65.2475 52.8847 65.2254 52.8912 65.2029 52.8963C65.0334 52.9711 64.8805 53.0843 64.7556 53.2247C64.7185 53.2537 64.6995 53.3005 64.668 53.3342C64.6504 53.3498 64.6425 53.3734 64.6307 53.3933C64.6192 53.4136 64.6066 53.4328 64.5927 53.4512C64.5824 53.4719 64.5756 53.4946 64.5645 53.5144C64.5592 53.5245 64.5538 53.5345 64.5479 53.5442C64.5416 53.5538 64.5353 53.5632 64.5334 53.575C64.5271 53.5971 64.5195 53.6183 64.5104 53.6388C64.5058 53.6491 64.5009 53.6591 64.4956 53.6691C64.4927 53.6801 64.4915 53.6915 64.4889 53.7024C64.4798 53.7464 64.4587 53.7862 64.4581 53.8321C64.4547 53.8541 64.4498 53.8756 64.4433 53.8968C64.4425 53.9194 64.4434 53.9423 64.441 53.9644C64.4407 53.987 64.4317 54.008 64.4341 54.0314C64.4368 54.0547 64.4379 54.0778 64.4375 54.1007C64.4326 54.0952 64.4382 54.3212 64.4415 54.4695L64.5082 58.3423L64.5543 62.2151L64.561 63.1833L64.5643 63.6675L64.566 63.9095L64.5665 64.0357L64.5606 64.2458C64.5364 65.3649 64.2657 66.4947 63.7713 67.4989C63.2805 68.5068 62.5616 69.3809 61.7018 70.0607C60.8416 70.7389 59.8301 71.2261 58.7649 71.4448C58.6317 71.4687 58.498 71.491 58.3642 71.5117C58.2302 71.5307 58.0964 71.5558 57.9622 71.5611C57.8281 71.5701 57.6937 71.5776 57.5593 71.5835L57.3579 71.591H57.2374L56.3067 71.5883L54.4455 71.58C51.9637 71.5622 49.482 71.5361 47.0001 71.4894L45.1387 71.4551L43.2209 71.4088C42.6936 71.3919 42.1712 71.3136 41.6681 71.1748C41.1648 71.0363 40.6811 70.8373 40.2246 70.5888C39.3125 70.091 38.5076 69.3869 37.8866 68.5239C37.8095 68.4158 37.7365 68.3042 37.6633 68.1933C37.5902 68.083 37.5197 67.9558 37.4507 67.8362C37.3818 67.7147 37.3218 67.5879 37.2596 67.4627C37.1993 67.3369 37.1471 67.2087 37.0932 67.0809C36.8868 66.5675 36.7571 66.0518 36.6766 65.5775C36.596 65.1017 36.5623 64.6654 36.5449 64.2724L36.5389 64.1256L36.5351 63.9852C36.5323 63.8898 36.5308 63.8017 36.5301 63.7131L36.5283 63.2031L36.5574 61.2187L36.5978 59.2907C36.6216 57.9971 36.6582 56.6777 36.732 55.3364C36.7697 54.6671 36.8237 53.9909 36.8859 53.3155C36.9223 52.9767 36.9526 52.6391 36.9983 52.3007L37.0629 51.7938C37.0846 51.6249 37.1115 51.4563 37.1358 51.2877C37.2312 50.613 37.354 49.9425 37.4867 49.277C37.5526 48.9441 37.6286 48.6142 37.6992 48.2834C37.7368 48.1162 37.7804 47.9438 37.8216 47.7748L37.8843 47.5204L37.9546 47.266C38.1354 46.5887 38.3557 45.9141 38.6116 45.2529C38.8639 44.5907 39.1641 43.9414 39.5015 43.316C39.8365 42.689 40.219 42.0876 40.6394 41.5222L40.7976 41.3108C40.8496 41.24 40.9031 41.1704 40.9599 41.1034L41.2938 40.6979C41.4078 40.5656 41.5263 40.4378 41.6431 40.3092C41.7023 40.2455 41.7593 40.1801 41.82 40.1184L42.0036 39.9349C42.1273 39.8145 42.245 39.688 42.3732 39.5739L42.7535 39.2286C42.8799 39.1137 43.015 39.0103 43.1451 38.9013C43.276 38.7931 43.4068 38.6858 43.5411 38.5874C44.0692 38.1779 44.6216 37.8104 45.1816 37.4681C45.7427 37.1269 46.315 36.8147 46.8991 36.5369C47.4818 36.2566 48.0714 36.0009 48.6698 35.7777C49.865 35.3286 51.0802 34.975 52.3096 34.7218Z" fill="#196B69"/>
<path d="M36.2289 42.8645C36.1565 42.6536 36.0873 42.4409 36.0233 42.2261C35.9584 42.0115 35.9029 41.7944 35.8445 41.5763C35.8165 41.4671 35.7907 41.3574 35.7657 41.2473C35.7399 41.1373 35.7156 41.0268 35.694 40.9157L35.6267 40.5816L35.5675 40.2449C35.4161 39.3441 35.3515 38.4163 35.3732 37.4698C35.3935 36.9975 35.4233 36.5187 35.4986 36.0406C35.5288 35.8003 35.5765 35.5615 35.6239 35.3213C35.6452 35.2006 35.6786 35.0825 35.7066 34.9626C35.7369 34.8433 35.7634 34.7223 35.7977 34.6034C36.0662 33.6504 36.4692 32.7084 37.0133 31.8368L37.2273 31.5172C37.2995 31.4108 37.3702 31.3024 37.4502 31.2024C37.6071 30.9998 37.7597 30.7889 37.9324 30.5995L38.1882 30.3093C38.2755 30.2147 38.3677 30.1265 38.4579 30.0348C38.5492 29.9447 38.6393 29.8515 38.733 29.7639L39.0201 29.5096C39.7934 28.8381 40.648 28.2816 41.5343 27.8358C41.6451 27.7801 41.7558 27.7205 41.8675 27.6684L42.2041 27.5177L42.5428 27.3698C42.6555 27.3223 42.7658 27.2834 42.8777 27.2399C43.1011 27.157 43.3241 27.0662 43.5501 26.9915L43.8889 26.875C44.0013 26.8352 44.1193 26.8048 44.2346 26.7694L44.5829 26.6673L44.9289 26.5772C45.161 26.5145 45.3892 26.464 45.6187 26.4114C46.0773 26.3089 46.5295 26.2282 46.9785 26.1506C48.767 25.8556 50.4631 25.7146 51.9953 25.4781C52.1841 25.447 52.3746 25.4171 52.5584 25.3837L53.0906 25.2743C53.1791 25.2556 53.2682 25.2433 53.356 25.2197L53.6199 25.154C53.7955 25.1083 53.9721 25.0721 54.1464 25.0203C54.4945 24.9141 54.8433 24.8194 55.1873 24.6955L55.4461 24.6083L55.5753 24.5644L55.7033 24.5143L56.215 24.3157C58.9347 23.2112 61.4935 21.4929 63.9036 19.4438L63.9411 19.4119C65.257 18.2931 67.1953 18.4961 68.2705 19.8651C68.6567 20.3569 68.8784 20.9295 68.9437 21.5168L68.9671 21.7243L68.9857 21.9049L69.0187 22.255C69.0392 22.4859 69.0574 22.714 69.0737 22.9412C69.1075 23.3955 69.1299 23.8469 69.1463 24.2979C69.1792 25.1995 69.1911 26.0995 69.1686 27.0014C69.1487 27.9032 69.1051 28.8065 69.0248 29.7113C68.9866 30.1636 68.9408 30.6167 68.8866 31.0699C68.8321 31.5228 68.7655 31.9764 68.6951 32.4299C68.4068 34.2437 67.9684 36.0631 67.3089 37.8533C66.9685 38.7451 66.5866 39.6332 66.1106 40.4911C65.6445 41.3515 65.0914 42.1845 64.4527 42.9608C64.1343 43.3501 63.786 43.719 63.4234 44.0723C63.2354 44.2442 63.0539 44.4198 62.8563 44.5811C62.7583 44.6622 62.6637 44.7462 62.5627 44.8238L62.2591 45.0545L62.1825 45.1118L62.0989 45.1706L61.9315 45.2871C61.8203 45.3637 61.7046 45.4468 61.6067 45.498L60.995 45.8472C60.7898 45.9677 60.5896 46.0611 60.3885 46.1627C60.187 46.2616 59.988 46.365 59.7853 46.4588C58.1612 47.2037 56.4801 47.7434 54.7785 48.081C53.0752 48.4112 51.3502 48.5313 49.6547 48.4393C47.9601 48.3421 46.2916 48.0361 44.7273 47.4701C46.3779 47.3342 47.9688 47.0751 49.5009 46.6725C51.0322 46.2736 52.504 45.7435 53.9015 45.0932C55.2963 44.4358 56.6177 43.6636 57.8369 42.7902C57.9892 42.6812 58.136 42.5644 58.2853 42.4527C58.433 42.3399 58.5872 42.2285 58.7181 42.1133L59.1271 41.7762C59.2033 41.7188 59.2446 41.6683 59.2947 41.6174L59.3685 41.5418L59.4055 41.5044L59.4456 41.4606C59.6641 41.2292 59.8703 40.9836 60.0665 40.7289C60.258 40.4673 60.4408 40.1983 60.6126 39.9161C61.292 38.782 61.7973 37.4645 62.1602 36.0555C62.5262 34.6454 62.7558 33.1498 62.8984 31.6229C62.9323 31.2405 62.9637 30.8572 62.9848 30.4707C63.0088 30.0848 63.0302 29.6977 63.0426 29.3087C63.0568 28.92 63.0633 28.5299 63.0677 28.139C63.0727 27.7481 63.0737 27.3567 63.0677 26.9645C63.0539 26.1805 63.0319 25.3942 62.9854 24.6118C62.962 24.2209 62.9338 23.8309 62.9045 23.4447C62.8893 23.2517 62.8724 23.0599 62.8543 22.8712L62.8261 22.5923L62.7986 22.3522L67.8386 24.4252C66.4347 25.6222 64.9412 26.7449 63.3245 27.7179C62.9268 27.9692 62.5067 28.1905 62.0947 28.4218C61.8861 28.534 61.6727 28.6396 61.4619 28.7484L61.1447 28.91L60.8212 29.0622L60.1707 29.3585L59.5074 29.6318C59.3962 29.6761 59.2875 29.7246 59.1745 29.7653L58.8365 29.889C58.6105 29.9699 58.3877 30.0568 58.1578 30.128L57.4689 30.3416L57.2968 30.3945L57.1221 30.4413L56.7725 30.5332C56.5387 30.5919 56.3087 30.6611 56.0708 30.7059L55.3622 30.8521C55.1259 30.8995 54.8856 30.931 54.6478 30.9704L54.2904 31.0261C54.1717 31.0461 54.0506 31.0545 53.9308 31.0691L53.2108 31.1416C52.9761 31.1602 52.7471 31.1731 52.5167 31.1872C50.6914 31.2788 49.0127 31.2119 47.4438 31.247C47.2506 31.2535 47.0538 31.2565 46.8626 31.2653C46.6733 31.2758 46.4781 31.2815 46.2927 31.2955C46.1054 31.3078 45.9161 31.3179 45.7341 31.3373L45.4578 31.3627L45.1876 31.3965C45.0078 31.4162 44.825 31.4469 44.6416 31.4758C44.4572 31.5017 44.2776 31.542 44.0945 31.5744C44.0041 31.5922 43.9098 31.6069 43.8221 31.627L43.562 31.6898L43.2997 31.75C43.213 31.7714 43.1301 31.7988 43.0445 31.8226C41.6784 32.2088 40.4401 32.8528 39.4139 33.8458L39.2273 34.0385C39.1658 34.1039 39.0989 34.1655 39.0427 34.2364C38.9263 34.3749 38.8026 34.51 38.6943 34.6593L38.5249 34.8799L38.3668 35.1118L38.2868 35.2284C38.2609 35.2679 38.2376 35.3092 38.2127 35.3496L38.0627 35.5936C37.676 36.2567 37.3597 36.9941 37.1011 37.7758C36.5944 39.3461 36.3443 41.0801 36.2289 42.8645Z" fill="#28CC9E"/>
<path d="M2.00426 95V84.8182H3.84872V89.1286H8.56676V84.8182H10.4162V95H8.56676V90.6747H3.84872V95H2.00426ZM12.4222 95V84.8182H19.0444V86.3643H14.2667V89.1286H18.7013V90.6747H14.2667V93.4538H19.0842V95H12.4222ZM22.2337 95H20.2649L23.8494 84.8182H26.1264L29.7159 95H27.7472L25.0277 86.9062H24.9482L22.2337 95ZM22.2983 91.0078H27.6676V92.4893H22.2983V91.0078ZM31.057 95V84.8182H32.9015V93.4538H37.3858V95H31.057ZM37.2404 86.3643V84.8182H45.364V86.3643H42.217V95H40.3874V86.3643H37.2404ZM46.93 95V84.8182H48.7745V89.1286H53.4925V84.8182H55.342V95H53.4925V90.6747H48.7745V95H46.93ZM69.5359 88.2536H67.6765C67.6235 87.9486 67.5257 87.6785 67.3832 87.4432C67.2406 87.2045 67.0633 87.0024 66.8512 86.8366C66.6391 86.6709 66.3971 86.5466 66.1254 86.4638C65.8569 86.3776 65.5669 86.3345 65.2553 86.3345C64.7018 86.3345 64.2113 86.4737 63.7837 86.7521C63.3562 87.0272 63.0214 87.4316 62.7795 87.9652C62.5375 88.4955 62.4165 89.1435 62.4165 89.9091C62.4165 90.688 62.5375 91.3442 62.7795 91.8778C63.0247 92.4081 63.3595 92.8092 63.7837 93.081C64.2113 93.3494 64.7002 93.4837 65.2504 93.4837C65.5553 93.4837 65.8403 93.4439 66.1055 93.3643C66.3739 93.2815 66.6142 93.1605 66.8263 93.0014C67.0418 92.8423 67.2224 92.6468 67.3683 92.4148C67.5174 92.1828 67.6201 91.9176 67.6765 91.6193L69.5359 91.6293C69.4663 92.1132 69.3155 92.5672 69.0835 92.9915C68.8548 93.4157 68.5548 93.7902 68.1836 94.1151C67.8124 94.4366 67.3782 94.6884 66.881 94.8707C66.3839 95.0497 65.832 95.1392 65.2255 95.1392C64.3306 95.1392 63.5318 94.9321 62.8292 94.5178C62.1265 94.1035 61.573 93.5052 61.1687 92.723C60.7643 91.9408 60.5621 91.0028 60.5621 89.9091C60.5621 88.812 60.766 87.8741 61.1737 87.0952C61.5813 86.313 62.1365 85.7147 62.8391 85.3004C63.5418 84.8861 64.3372 84.679 65.2255 84.679C65.7923 84.679 66.3192 84.7585 66.8065 84.9176C67.2937 85.0767 67.7279 85.3104 68.109 85.6186C68.4902 85.9235 68.8034 86.2981 69.0487 86.7422C69.2972 87.183 69.4596 87.6868 69.5359 88.2536ZM72.4094 95H70.4407L74.0252 84.8182H76.3022L79.8917 95H77.9229L75.2035 86.9062H75.1239L72.4094 95ZM72.4741 91.0078H77.8434V92.4893H72.4741V91.0078ZM81.2328 95V84.8182H85.051C85.8332 84.8182 86.4894 84.9541 87.0197 85.2259C87.5533 85.4976 87.956 85.8788 88.2278 86.3693C88.5029 86.8565 88.6404 87.425 88.6404 88.0746C88.6404 88.7275 88.5012 89.2943 88.2228 89.7749C87.9477 90.2521 87.5417 90.6217 87.0048 90.8835C86.4679 91.142 85.8083 91.2713 85.0261 91.2713H82.3066V89.7401H84.7775C85.2349 89.7401 85.6094 89.6771 85.9011 89.5511C86.1928 89.4219 86.4082 89.2346 86.5474 88.9893C86.6899 88.7408 86.7612 88.4358 86.7612 88.0746C86.7612 87.7133 86.6899 87.4051 86.5474 87.1499C86.4049 86.8913 86.1878 86.6958 85.8961 86.5632C85.6045 86.4273 85.2283 86.3594 84.7676 86.3594H83.0772V95H81.2328ZM86.4927 90.3864L89.0133 95H86.9551L84.4792 90.3864H86.4927ZM90.3382 95V84.8182H96.9604V86.3643H92.1827V89.1286H96.6174V90.6747H92.1827V93.4538H97.0002V95H90.3382Z" fill="#28CC9E"/>
</g>
<defs>
<clipPath id="clip0_798_131">
<rect width="100" height="106.87" fill="white"/>
</clipPath>
</defs>
</svg>
