<svg width="22" height="30" viewBox="0 0 22 30" fill="none" xmlns="http://www.w3.org/2000/svg">
<path d="M10.9998 19.5001C12.5911 19.5001 14.1172 18.868 15.2424 17.7428C16.3676 16.6175 16.9998 15.0914 16.9998 13.5001V6.00012C16.9998 4.40882 16.3676 2.8827 15.2424 1.75748C14.1172 0.632263 12.5911 0.00012207 10.9998 0.00012207C9.40846 0.00012207 7.88233 0.632263 6.75711 1.75748C5.6319 2.8827 4.99976 4.40882 4.99976 6.00012V13.5001C4.99976 15.0914 5.6319 16.6175 6.75711 17.7428C7.88233 18.868 9.40846 19.5001 10.9998 19.5001Z" fill="white"/>
<path d="M21.4998 13.4999C21.4998 13.1021 21.3417 12.7205 21.0604 12.4392C20.7791 12.1579 20.3976 11.9999 19.9998 11.9999C19.6019 11.9999 19.2204 12.1579 18.9391 12.4392C18.6578 12.7205 18.4998 13.1021 18.4998 13.4999C18.4998 15.489 17.7096 17.3967 16.3031 18.8032C14.8965 20.2097 12.9889 20.9999 10.9998 20.9999C9.01063 20.9999 7.10298 20.2097 5.69646 18.8032C4.28993 17.3967 3.49976 15.489 3.49976 13.4999C3.49976 13.1021 3.34172 12.7205 3.06042 12.4392C2.77911 12.1579 2.39758 11.9999 1.99976 11.9999C1.60193 11.9999 1.2204 12.1579 0.939096 12.4392C0.657791 12.7205 0.499756 13.1021 0.499756 13.4999C0.502713 16.0226 1.41387 18.46 3.06653 20.3661C4.71919 22.2722 7.00286 23.5195 9.49976 23.8799V26.9999H6.33476C5.98069 26.9999 5.64113 27.1405 5.39077 27.3909C5.14041 27.6413 4.99976 27.9808 4.99976 28.3349V28.6649C4.99976 29.0189 5.14041 29.3585 5.39077 29.6089C5.64113 29.8592 5.98069 29.9999 6.33476 29.9999H15.6648C16.0188 29.9999 16.3584 29.8592 16.6087 29.6089C16.8591 29.3585 16.9998 29.0189 16.9998 28.6649V28.3349C16.9998 27.9808 16.8591 27.6413 16.6087 27.3909C16.3584 27.1405 16.0188 26.9999 15.6648 26.9999H12.4998V23.8799C14.9967 23.5195 17.2803 22.2722 18.933 20.3661C20.5856 18.46 21.4968 16.0226 21.4998 13.4999Z" fill="white"/>
</svg>
