<svg width="23" height="25" viewBox="0 0 23 25" fill="none" xmlns="http://www.w3.org/2000/svg">
<path d="M11.2558 12.0703C9.71906 12.0703 8.40353 11.4805 7.30919 10.3009C6.21486 9.12134 5.66769 7.70332 5.66769 6.04687C5.66769 4.39043 6.21486 2.97241 7.30919 1.79282C8.40353 0.613233 9.71906 0.0234375 11.2558 0.0234375C12.7925 0.0234375 14.108 0.613233 15.2024 1.79282C16.2967 2.97241 16.8439 4.39043 16.8439 6.04687C16.8439 7.70332 16.2967 9.12134 15.2024 10.3009C14.108 11.4805 12.7925 12.0703 11.2558 12.0703ZM0.0795898 24.1172V19.9008C0.0795898 19.0475 0.283556 18.2634 0.691487 17.5486C1.09942 16.8338 1.64053 16.2877 2.31483 15.9103C3.75842 15.1322 5.2253 14.549 6.71546 14.1604C8.20562 13.7719 9.71906 13.5772 11.2558 13.5762C12.7925 13.5762 14.306 13.7709 15.7961 14.1604C17.2863 14.55 18.7532 15.1332 20.1967 15.9103C20.872 16.2867 21.4136 16.8328 21.8215 17.5486C22.2294 18.2644 22.4329 19.0485 22.432 19.9008V24.1172H0.0795898Z" fill="white"/>
</svg>
