<svg width="25" height="25" viewBox="0 0 25 25" fill="none" xmlns="http://www.w3.org/2000/svg">
<path d="M8.34684 6.45831C9.65426 5.87736 11.0691 5.57741 12.4998 5.57786C15.6082 5.57786 18.0844 6.96113 19.9263 8.59053C21.7734 10.2242 22.941 12.0692 23.4049 12.8823C23.4156 12.8998 23.4214 12.9197 23.4218 12.9402C23.4214 12.9624 23.4152 12.9842 23.4039 13.0033C22.9309 13.8229 22.3927 14.6032 21.7945 15.3364C21.725 15.4163 21.6723 15.5092 21.6394 15.6098C21.6066 15.7104 21.5944 15.8166 21.6035 15.9221C21.6125 16.0275 21.6427 16.13 21.6922 16.2236C21.7417 16.3171 21.8096 16.3997 21.8917 16.4665C21.9738 16.5333 22.0684 16.5828 22.1701 16.6123C22.2717 16.6417 22.3783 16.6504 22.4834 16.6378C22.5884 16.6252 22.6899 16.5916 22.7817 16.539C22.8735 16.4864 22.9538 16.4158 23.0178 16.3315C23.6709 15.5316 24.2584 14.6803 24.7745 13.7859C24.9221 13.5297 24.9998 13.2392 25 12.9435C25.0002 12.6478 24.9228 12.3572 24.7756 12.1008C24.2654 11.2066 22.9978 9.20064 20.9719 7.40924C18.9417 5.61363 16.1099 4 12.4998 4C10.7168 4 9.11789 4.39341 7.71148 5.01299C7.521 5.09791 7.37188 5.25481 7.29676 5.44937C7.22163 5.64394 7.2266 5.86033 7.31059 6.05124C7.39457 6.24214 7.55073 6.39203 7.74492 6.46811C7.9391 6.5442 8.15552 6.54135 8.34684 6.45831ZM20.0378 19.239C18.1044 20.7043 15.585 21.8825 12.4998 21.8825C8.88962 21.8825 6.05683 20.2688 4.0277 18.4743C2.00172 16.6818 0.733114 14.6748 0.223989 13.7807C0.0770454 13.5245 -0.000184239 13.2343 3.30048e-07 12.939C0.000184899 12.6437 0.0777772 12.3536 0.225041 12.0976C1.16612 10.4662 2.34173 8.9819 3.71423 7.6922L1.26222 5.95866C1.17437 5.90022 1.09912 5.82475 1.04095 5.73672C0.982773 5.64869 0.942849 5.54988 0.923537 5.44615C0.904226 5.34241 0.90592 5.23586 0.928519 5.13279C0.951119 5.02972 0.994164 4.93223 1.05511 4.84609C1.11605 4.75995 1.19366 4.68692 1.28333 4.6313C1.373 4.57569 1.47292 4.53863 1.57716 4.52231C1.68141 4.506 1.78788 4.51076 1.89025 4.53632C1.99262 4.56188 2.08883 4.60772 2.17318 4.67112L23.7373 19.9238C23.8252 19.9822 23.9004 20.0577 23.9586 20.1457C24.0168 20.2338 24.0567 20.3326 24.076 20.4363C24.0953 20.5401 24.0936 20.6466 24.071 20.7497C24.0484 20.8528 24.0054 20.9502 23.9445 21.0364C23.8835 21.1225 23.8059 21.1956 23.7162 21.2512C23.6266 21.3068 23.5266 21.3438 23.4224 21.3602C23.3181 21.3765 23.2117 21.3717 23.1093 21.3461C23.0069 21.3206 22.9107 21.2747 22.8264 21.2113L20.0378 19.239ZM5.03332 8.6263C3.21352 10.2473 2.05852 12.0692 1.59568 12.8802C1.58405 12.8988 1.57786 12.9203 1.5778 12.9423C1.5778 12.9581 1.58095 12.9781 1.59463 13.0001C2.05852 13.8143 3.22614 15.6583 5.07329 17.2919C6.91414 18.9213 9.39138 20.3046 12.4998 20.3046C14.9549 20.3046 17.0125 19.442 18.6787 18.2776L14.9802 15.6615C14.3599 16.2277 13.5648 16.5649 12.7265 16.617C11.8883 16.6692 11.0575 16.4332 10.3718 15.9482C9.68618 15.4633 9.18694 14.7584 8.95695 13.9507C8.72696 13.143 8.78003 12.2809 9.10737 11.5075L5.03332 8.62735V8.6263Z" fill="#132F2B" fill-opacity="0.8"/>
</svg>
