<svg width="65" height="65" viewBox="0 0 65 65" fill="none" xmlns="http://www.w3.org/2000/svg">
<path d="M32.4999 59.5833C26.7536 59.5833 21.2426 57.3006 17.1793 53.2373C13.116 49.174 10.8333 43.663 10.8333 37.9167C10.8333 28.4321 18.1728 20.846 24.6268 13.8938L32.4999 5.41667L40.373 13.8938C46.827 20.8488 54.1666 28.4348 54.1666 37.9167C54.1666 43.663 51.8839 49.174 47.8206 53.2373C43.7573 57.3006 38.2463 59.5833 32.4999 59.5833Z" fill="#EA2B2B" stroke="#EA2B2B" stroke-width="2.5" stroke-linecap="round" stroke-linejoin="round"/>
<path d="M23.5527 33.3369L19.3164 45H17.585L22.4629 32.2031H23.5791L23.5527 33.3369ZM27.1035 45L22.8584 33.3369L22.832 32.2031H23.9482L28.8438 45H27.1035ZM26.8838 40.2627V41.6514H19.6943V40.2627H26.8838ZM35.3691 39.0146H32.126L32.1084 37.6523H35.0527C35.5391 37.6523 35.9639 37.5703 36.3271 37.4062C36.6904 37.2422 36.9717 37.0078 37.1709 36.7031C37.376 36.3926 37.4785 36.0234 37.4785 35.5957C37.4785 35.127 37.3877 34.7461 37.2061 34.4531C37.0303 34.1543 36.7578 33.9375 36.3887 33.8027C36.0254 33.6621 35.5625 33.5918 35 33.5918H32.5039V45H30.8076V32.2031H35C35.6562 32.2031 36.2422 32.2705 36.7578 32.4053C37.2734 32.5342 37.71 32.7393 38.0674 33.0205C38.4307 33.2959 38.7061 33.6475 38.8936 34.0752C39.0811 34.5029 39.1748 35.0156 39.1748 35.6133C39.1748 36.1406 39.04 36.6182 38.7705 37.0459C38.501 37.4678 38.126 37.8135 37.6455 38.083C37.1709 38.3525 36.6143 38.5254 35.9756 38.6016L35.3691 39.0146ZM35.29 45H31.458L32.416 43.6201H35.29C35.8291 43.6201 36.2861 43.5264 36.6611 43.3389C37.042 43.1514 37.332 42.8877 37.5312 42.5479C37.7305 42.2021 37.8301 41.7949 37.8301 41.3262C37.8301 40.8516 37.7451 40.4414 37.5752 40.0957C37.4053 39.75 37.1387 39.4834 36.7754 39.2959C36.4121 39.1084 35.9434 39.0146 35.3691 39.0146H32.9521L32.9697 37.6523H36.2744L36.6348 38.1445C37.25 38.1973 37.7715 38.373 38.1992 38.6719C38.627 38.9648 38.9521 39.3398 39.1748 39.7969C39.4033 40.2539 39.5176 40.7578 39.5176 41.3086C39.5176 42.1055 39.3418 42.7793 38.9902 43.3301C38.6445 43.875 38.1553 44.291 37.5225 44.5781C36.8896 44.8594 36.1455 45 35.29 45ZM50.2441 38.1357V39.665H41.4727V38.1357H50.2441ZM46.6758 34.4004V43.7168H45.0498V34.4004H46.6758Z" fill="white"/>
</svg>
