<svg width="437" height="436" viewBox="0 0 437 436" fill="none" xmlns="http://www.w3.org/2000/svg">
<path d="M408.116 238.35H404.499V237.731C404.497 236.043 403.825 234.423 402.631 233.229C401.437 232.035 399.818 231.363 398.129 231.361H395.68C393.99 231.361 392.368 232.032 391.172 233.226C389.976 234.421 389.303 236.041 389.301 237.731V238.35H385.693C385.211 238.349 384.733 238.443 384.287 238.627C383.842 238.811 383.437 239.081 383.096 239.422C382.755 239.763 382.485 240.168 382.301 240.614C382.117 241.059 382.023 241.537 382.024 242.019V258.734C382.024 259.707 382.41 260.64 383.098 261.328C383.786 262.016 384.72 262.403 385.693 262.403H408.116C409.088 262.401 410.02 262.013 410.708 261.326C411.395 260.638 411.783 259.706 411.785 258.734V242.019C411.785 241.046 411.398 240.113 410.71 239.425C410.022 238.737 409.089 238.35 408.116 238.35ZM391.044 237.731C391.046 236.503 391.535 235.326 392.405 234.459C393.274 233.591 394.452 233.104 395.68 233.104H398.129C399.356 233.104 400.533 233.591 401.401 234.459C402.269 235.327 402.756 236.504 402.756 237.731V238.35H391.044V237.731Z" fill="#3C8782"/>
<path d="M403.584 248.668H398.965V244.058H394.835V248.668H390.216V252.808H394.835V257.418H398.965V252.808H403.584V248.668Z" fill="white"/>
<path d="M400.97 138.74C400.252 138.74 399.54 138.598 398.877 138.323C398.213 138.048 397.61 137.645 397.103 137.136C396.595 136.628 396.193 136.025 395.919 135.361C395.645 134.697 395.504 133.985 395.506 133.267V118.521C395.504 117.803 395.645 117.092 395.919 116.428C396.193 115.764 396.595 115.16 397.103 114.652C397.61 114.144 398.213 113.74 398.877 113.465C399.54 113.19 400.252 113.049 400.97 113.049C401.688 113.049 402.399 113.19 403.063 113.465C403.726 113.74 404.329 114.144 404.837 114.652C405.344 115.16 405.746 115.764 406.021 116.428C406.295 117.092 406.435 117.803 406.434 118.521V133.241C406.439 133.961 406.301 134.676 406.028 135.343C405.756 136.01 405.354 136.616 404.846 137.127C404.338 137.638 403.734 138.044 403.069 138.321C402.404 138.597 401.69 138.74 400.97 138.74Z" fill="white" stroke="#3C8782" stroke-linecap="round" stroke-linejoin="round"/>
<path d="M400.97 138.74C400.252 138.74 399.54 138.598 398.877 138.323C398.213 138.048 397.61 137.645 397.103 137.136C396.595 136.628 396.193 136.025 395.919 135.361C395.645 134.697 395.504 133.985 395.506 133.267V125.903H406.434V133.267C406.435 133.985 406.295 134.697 406.021 135.361C405.746 136.025 405.344 136.628 404.837 137.136C404.329 137.645 403.726 138.048 403.063 138.323C402.399 138.598 401.688 138.74 400.97 138.74Z" fill="#3C8782" stroke="#3C8782" stroke-linecap="round" stroke-linejoin="round"/>
<path d="M373.483 117.023C373.034 116.461 372.7 115.817 372.5 115.126C372.301 114.436 372.24 113.712 372.321 112.998C372.402 112.284 372.623 111.593 372.972 110.964C373.321 110.336 373.791 109.782 374.355 109.336L385.832 100.116C386.969 99.2124 388.417 98.7967 389.86 98.9601C391.303 99.1235 392.621 99.8526 393.527 100.987C394.43 102.122 394.846 103.57 394.682 105.011C394.519 106.452 393.79 107.77 392.656 108.674L381.17 117.885C380.609 118.334 379.964 118.668 379.274 118.867C378.584 119.067 377.861 119.128 377.147 119.048C376.434 118.968 375.742 118.748 375.114 118.4C374.485 118.053 373.931 117.585 373.483 117.023Z" fill="white" stroke="#3C8782" stroke-linecap="round" stroke-linejoin="round"/>
<path d="M373.483 117.022C373.034 116.461 372.7 115.817 372.5 115.126C372.301 114.436 372.24 113.712 372.321 112.998C372.402 112.284 372.623 111.593 372.972 110.964C373.321 110.336 373.791 109.782 374.355 109.336L380.098 104.726L386.939 113.258L381.196 117.859C380.636 118.313 379.991 118.652 379.299 118.856C378.607 119.06 377.882 119.125 377.165 119.047C376.448 118.969 375.754 118.75 375.122 118.403C374.49 118.055 373.933 117.586 373.483 117.022Z" fill="#3C8782" stroke="#3C8782" stroke-linecap="round" stroke-linejoin="round"/>
<path d="M318.833 76.8995C318.151 76.8998 317.487 77.1131 316.933 77.5095L304.235 67.6531C304.858 66.5013 305.15 65.2 305.079 63.8928C305.008 62.5856 304.577 61.3233 303.834 60.2455L311.591 50.328C312.247 50.5811 312.967 50.6174 313.646 50.4317C314.324 50.2459 314.926 49.8478 315.361 49.2956C315.797 48.7434 316.045 48.0662 316.068 47.3631C316.091 46.6599 315.889 45.9679 315.49 45.3881C315.092 44.8084 314.518 44.3715 313.853 44.1414C313.189 43.9113 312.468 43.9001 311.796 44.1093C311.124 44.3186 310.537 44.7374 310.121 45.3044C309.704 45.8715 309.48 46.5569 309.482 47.2604C309.478 47.9384 309.688 48.6003 310.083 49.1515L302.536 58.8162C301.524 57.964 300.294 57.4107 298.985 57.2183C297.676 57.0258 296.34 57.202 295.125 57.7268C293.911 58.2517 292.867 59.1046 292.11 60.1899C291.353 61.2751 290.913 62.5498 290.841 63.8708H282.021C281.925 63.088 281.551 62.3657 280.967 61.8352C280.384 61.3047 279.629 61.0013 278.84 60.9801C278.052 60.9589 277.282 61.2213 276.671 61.7196C276.059 62.2179 275.647 62.919 275.509 63.6956C275.37 64.4721 275.515 65.2725 275.917 65.9512C276.319 66.63 276.951 67.142 277.698 67.3943C278.445 67.6466 279.258 67.6223 279.989 67.326C280.72 67.0296 281.321 66.4808 281.681 65.7794H291.006C291.279 67.0465 291.892 68.2153 292.78 69.16C293.667 70.1046 294.795 70.7895 296.043 71.1408C297.291 71.4922 298.61 71.4967 299.86 71.154C301.11 70.8112 302.243 70.1341 303.137 69.1956L315.765 79.0172C315.516 79.6723 315.483 80.3899 315.671 81.0652C315.858 81.7404 316.257 82.3379 316.809 82.7704C317.36 83.2029 318.036 83.4476 318.736 83.4689C319.437 83.4902 320.126 83.2869 320.703 82.8888C321.279 82.4906 321.714 81.9184 321.942 81.2558C322.17 80.5932 322.181 79.8749 321.972 79.2058C321.763 78.5368 321.346 77.9521 320.781 77.5372C320.216 77.1222 319.534 76.8988 318.833 76.8995Z" fill="#3C8782"/>
<path d="M60.9002 138.844C59.8446 138.842 58.8329 138.422 58.0865 137.675C57.3401 136.929 56.9198 135.917 56.9175 134.862V101.745H64.8828V134.862C64.8828 135.918 64.4632 136.931 63.7163 137.678C62.9694 138.425 61.9564 138.844 60.9002 138.844Z" fill="white" stroke="#3C8782" stroke-linecap="round" stroke-linejoin="round"/>
<path d="M60.9002 138.844C59.8446 138.842 58.8329 138.422 58.0865 137.675C57.3401 136.929 56.9198 135.917 56.9175 134.862V114.495H64.8828V134.862C64.8828 135.918 64.4632 136.931 63.7163 137.678C62.9694 138.425 61.9564 138.844 60.9002 138.844Z" fill="#3C8782" stroke="#3C8782" stroke-linecap="round" stroke-linejoin="round"/>
<path d="M66.0246 99.8108H55.7847V102.713H66.0246V99.8108Z" fill="white" stroke="#3C8782" stroke-linecap="round" stroke-linejoin="round"/>
<path d="M48.8303 138.844C47.7748 138.842 46.7631 138.422 46.0167 137.675C45.2703 136.929 44.85 135.917 44.8477 134.862V101.745H52.813V134.862C52.813 135.918 52.3934 136.931 51.6465 137.678C50.8996 138.425 49.8866 138.844 48.8303 138.844Z" fill="white" stroke="#3C8782" stroke-linecap="round" stroke-linejoin="round"/>
<path d="M48.8303 138.844C47.7748 138.842 46.7631 138.422 46.0167 137.675C45.2703 136.929 44.85 135.917 44.8477 134.862V114.495H52.813V134.862C52.813 135.918 52.3934 136.931 51.6465 137.678C50.8996 138.425 49.8866 138.844 48.8303 138.844Z" fill="#3C8782" stroke="#3C8782" stroke-linecap="round" stroke-linejoin="round"/>
<path d="M53.9545 99.8108H43.7146V102.713H53.9545V99.8108Z" fill="white" stroke="#3C8782" stroke-linecap="round" stroke-linejoin="round"/>
<path d="M163.735 67.165L166.907 59.5483C166.961 59.4255 167.05 59.3218 167.164 59.2503C167.277 59.1789 167.409 59.143 167.543 59.1474C167.678 59.1541 167.807 59.202 167.913 59.2847C168.019 59.3673 168.097 59.4807 168.136 59.6093L171.979 72.2806L174.907 62.947C174.948 62.8157 175.028 62.7004 175.138 62.6175C175.247 62.5346 175.38 62.4883 175.517 62.4851C175.653 62.4888 175.785 62.532 175.896 62.6094C176.008 62.6868 176.094 62.7951 176.145 62.9209L177.775 67.6095H186.585C188.388 65.725 189.437 63.244 189.531 60.6376C189.548 58.2031 188.664 55.8481 187.051 54.0251C185.437 52.2022 183.207 51.0396 180.788 50.7608C178.369 50.482 175.933 51.1065 173.947 52.5145C171.961 53.9225 170.565 56.0147 170.027 58.3892C169.473 56.0313 168.072 53.9592 166.091 52.5669C164.109 51.1746 161.684 50.5593 159.279 50.838C156.873 51.1167 154.653 52.2699 153.042 54.0784C151.431 55.8868 150.541 58.2243 150.541 60.6463C150.638 63.0601 151.543 65.3713 153.112 67.2086L163.735 67.165Z" fill="#3C8782"/>
<path d="M177.313 68.9168C177.177 68.9173 177.045 68.8756 176.934 68.7976C176.823 68.7195 176.739 68.6089 176.694 68.481L175.561 65.2217L172.589 74.6947C172.547 74.8281 172.463 74.9447 172.351 75.0277C172.238 75.1106 172.102 75.1558 171.962 75.1566C171.822 75.1561 171.685 75.1099 171.574 75.025C171.462 74.9401 171.381 74.821 171.343 74.686L167.413 61.7271L164.798 68.0714C164.749 68.19 164.665 68.2912 164.558 68.3625C164.451 68.4338 164.326 68.472 164.197 68.4723H154.166C156.319 70.8776 159.003 73.004 161.007 74.9823C164.04 77.9802 167.012 81.0827 170.106 83.976C174.071 80.063 178.062 76.1326 181.993 72.2197C183.082 71.1303 184.267 70.0497 185.365 68.9168H177.313Z" fill="#3C8782"/>
<path d="M30.3012 263.705L34.5745 265.187L39.1983 251.857L34.925 250.374L30.3012 263.705Z" fill="white" stroke="#3C8782" stroke-miterlimit="10"/>
<path d="M28.2753 265.821L34.8704 268.108L35.7414 265.597L29.1464 263.31L28.2753 265.821Z" fill="white" stroke="#3C8782" stroke-miterlimit="10"/>
<path d="M30.213 253.805L40.7766 257.469L49.1531 233.32L38.5895 229.656L30.213 253.805Z" fill="white" stroke="#3C8782" stroke-miterlimit="10"/>
<path d="M35.3495 243.474L43.1467 246.179L47.7705 232.849L39.9733 230.144L35.3495 243.474Z" fill="#3C8782" stroke="#3C8782" stroke-miterlimit="10"/>
<path d="M33.9702 253.137L38.2434 254.62L42.8672 241.289L38.594 239.807L33.9702 253.137Z" fill="#3C8782" stroke="#3C8782" stroke-miterlimit="10"/>
<path d="M29.4672 253.551L41.5376 257.738L42.5857 254.717L30.5153 250.53L29.4672 253.551Z" fill="white" stroke="#3C8782" stroke-miterlimit="10"/>
<path d="M41.1654 229.153L47.4558 231.334L48.8524 227.308L42.5619 225.126L41.1654 229.153Z" fill="white" stroke="#3C8782" stroke-miterlimit="10"/>
<path d="M37.5797 230.155L49.6501 234.342L50.6983 231.32L38.6279 227.134L37.5797 230.155Z" fill="white" stroke="#3C8782" stroke-miterlimit="10"/>
<path d="M45.7712 225.67L50.8258 211.082" stroke="#3C8782" stroke-miterlimit="10"/>
<path d="M326.807 406.982C351.994 406.982 372.411 402.378 372.411 396.699C372.411 391.019 351.994 386.415 326.807 386.415C301.62 386.415 281.202 391.019 281.202 396.699C281.202 402.378 301.62 406.982 326.807 406.982Z" fill="black" stroke="black" stroke-linecap="round" stroke-linejoin="round"/>
<path d="M291.642 164.257C291.642 164.257 285.472 168.03 285.542 169.686C285.612 171.342 283.241 201.539 282.971 205.312C282.701 209.086 279.11 216.877 278.832 220.415C278.553 223.953 279.442 227.5 280.479 229.13C281.516 230.76 285.324 235.971 285.324 235.971L295.564 220.154C295.815 216.7 295.868 213.234 295.721 209.774C295.564 202.236 291.642 164.257 291.642 164.257Z" fill="white" stroke="black" stroke-linecap="round" stroke-linejoin="round"/>
<path d="M331.042 89.4315C331.042 89.4315 320.148 88.7344 313.944 96.2901C307.739 103.846 309.072 115.402 309.028 118.949C308.985 122.496 298.449 132.892 299.616 137.128C300.784 141.363 303.887 141.842 302.893 145.381C301.9 148.919 295.416 151.045 296.357 155.533C297.298 160.022 300.714 166.383 300.714 166.383L363.461 166.81C363.461 166.81 365.701 160.205 363.313 155.246C360.925 150.287 357.535 148.649 358.084 146.287C358.633 143.925 361.666 138.261 360.498 134.017C359.33 129.772 355.269 128.596 354.842 121.04C354.415 113.484 353.3 100.996 347.304 94.8957C341.308 88.7954 331.042 89.4315 331.042 89.4315Z" fill="black" stroke="black" stroke-linecap="round" stroke-linejoin="round"/>
<path d="M311.748 380.602C309.821 384.315 307.482 387.8 304.776 390.99C300.767 395.478 296.88 397.84 297.011 400.202C297.141 402.564 305.891 403.026 310.519 401.37C315.146 399.714 318.51 396.411 319.443 396.141C320.375 395.871 322.981 396.141 323.042 392.829C323.103 389.518 322.597 380.088 322.597 380.088L311.748 380.602Z" fill="white" stroke="black" stroke-linecap="round" stroke-linejoin="round"/>
<path d="M310.501 401.37C315.138 399.714 318.493 396.411 319.425 396.141C320.358 395.87 322.963 396.141 323.024 392.829C323.024 391.086 322.929 387.6 322.807 384.75C322.121 386.036 321.106 387.117 319.866 387.883C318.626 388.648 317.204 389.071 315.748 389.108C315.748 389.108 315.66 387.452 313.133 384.628C311.503 382.781 309.856 384.236 308.898 385.5L308.122 386.668L308.061 386.781C307.055 388.265 305.955 389.682 304.767 391.025C300.758 395.513 296.871 397.875 297.002 400.237C297.133 402.598 305.874 403.025 310.501 401.37Z" fill="white" stroke="black" stroke-linecap="round" stroke-linejoin="round"/>
<path d="M344.036 380.585C346.378 384.311 349.093 387.789 352.141 390.964C356.629 395.443 360.768 397.796 360.855 400.158C360.943 402.52 352.28 402.99 347.469 401.343C342.659 399.696 338.946 396.393 337.996 396.158C337.047 395.923 334.45 396.158 334.04 392.864C333.63 389.57 333.116 380.123 333.116 380.123L344.036 380.585Z" fill="white" stroke="black" stroke-linecap="round" stroke-linejoin="round"/>
<path d="M347.504 401.344C342.702 399.696 338.981 396.394 338.031 396.158C337.081 395.923 334.484 396.158 334.075 392.864C333.857 391.121 333.613 387.635 333.43 384.777C334.236 386.055 335.343 387.115 336.654 387.866C337.965 388.616 339.441 389.034 340.951 389.082C340.951 389.082 340.864 387.426 343.069 384.594C344.506 382.755 346.31 384.202 347.426 385.465C347.714 385.849 348.01 386.232 348.297 386.633L348.376 386.746C349.547 388.228 350.798 389.645 352.123 390.99C356.611 395.47 360.751 397.823 360.838 400.185C360.925 402.546 352.315 402.991 347.504 401.344Z" fill="white" stroke="black" stroke-linecap="round" stroke-linejoin="round"/>
<path d="M292.793 256.041C292.793 256.041 294.248 305.114 296.183 314.788C298.117 324.461 306.754 379.905 306.754 379.905C309.394 381.022 312.236 381.58 315.103 381.543H324.541L325.412 340.253L325.735 280.321L330.467 381.77C330.467 381.77 343.469 382.232 344.872 381.996C346.276 381.761 347.443 381.526 347.443 381.526L355.801 317.341L360.585 274.639L360.847 257.653C360.847 257.653 320.898 256.268 309.29 255.327C297.682 254.385 292.906 254.15 292.906 254.15L292.793 256.041Z" fill="#28CC9E" stroke="black" stroke-linecap="round" stroke-linejoin="round"/>
<path d="M346.737 342.684C346.632 343.503 346.528 344.261 346.406 344.959" stroke="black" stroke-linecap="round" stroke-linejoin="round"/>
<path d="M347.81 283.606C347.81 283.606 348.62 318.57 347.199 337.551" stroke="black" stroke-linecap="round" stroke-linejoin="round"/>
<path d="M304.976 280.8C304.976 280.8 305.978 303.929 306.972 309.115" stroke="black" stroke-linecap="round" stroke-linejoin="round"/>
<path d="M342.214 266.063V283.72C344.476 284.329 346.79 284.728 349.125 284.914C352.707 285.149 359.391 284.914 359.391 284.914L359.871 278.229L342.214 266.063Z" fill="black" stroke="black" stroke-linecap="round" stroke-linejoin="round"/>
<path d="M293.534 279.659C293.534 279.659 302.606 282.526 306.423 282.761C310.24 282.996 313.813 283.476 313.813 283.476L313.342 278.709L293.054 276.8L293.534 279.659Z" fill="black" stroke="black" stroke-linecap="round" stroke-linejoin="round"/>
<path d="M321.072 145.599L313.952 153.625L294.205 168.031L298.414 255.344C298.414 255.344 314.153 259.58 327.661 260.756C341.169 261.933 358.537 258.839 358.537 258.839L355.984 167.333C355.984 167.333 348.297 156.004 344.358 152.945C340.419 149.886 338.615 147.054 333.395 146.583C328.175 146.113 321.072 145.599 321.072 145.599Z" fill="#28CC9E" stroke="black" stroke-linecap="round" stroke-linejoin="round"/>
<path d="M312.811 149.895L291.642 164.301L294.963 217.382L293.839 222.716L284.941 232.965L288.732 250.969L287.041 276.373C287.041 276.373 295.451 279.205 301.15 279.903C305.394 280.357 309.658 280.593 313.926 280.608L314.658 245.924C314.658 245.924 317.473 188.345 317.804 185.791C318.135 183.238 321.072 145.703 321.072 145.703L312.811 149.895Z" fill="white" stroke="black" stroke-linecap="round" stroke-linejoin="round"/>
<path d="M313.15 152.065L302.902 177.765L313.961 182.358L303.521 184.257L312.767 220.485" stroke="black" stroke-linecap="round" stroke-linejoin="round"/>
<path d="M319.294 138.757C319.294 138.757 322.972 163.29 325.865 168.954C328.759 174.619 329.578 176.501 329.578 176.501C329.578 176.501 335.87 157.381 337.134 154.549C338.397 151.716 339.748 141.572 339.748 141.572C339.748 141.572 327.207 145.59 319.294 138.757Z" fill="white" stroke="black" stroke-linecap="round" stroke-linejoin="round"/>
<path d="M319.294 138.757C319.294 138.757 319.626 140.988 320.166 144.256C322.005 145.659 326.876 149.128 330.476 149.311C333.221 149.45 336.707 147.673 339.025 146.252C339.443 143.681 339.731 141.572 339.731 141.572C339.731 141.572 327.207 145.59 319.294 138.757Z" fill="black" stroke="black" stroke-linecap="round" stroke-linejoin="round"/>
<path d="M314.301 121.798C314.301 121.798 311.791 118.225 310.1 121.798C308.41 125.372 312.715 130.661 313.918 131.385C317.334 133.415 316.427 129.642 316.427 129.642L314.301 121.798Z" fill="white" stroke="black" stroke-linecap="round" stroke-linejoin="round"/>
<path d="M345.474 123.341C345.474 123.341 347.591 119.646 349.666 123.132C351.74 126.618 348.001 132.099 346.886 132.875C343.696 135.08 344.201 131.297 344.201 131.297L345.474 123.341Z" fill="white" stroke="black" stroke-linecap="round" stroke-linejoin="round"/>
<path d="M313.708 118.644C313.708 118.644 322.807 116.517 327.391 113.807C330.198 112.111 332.647 109.882 334.598 107.245C334.598 107.245 338.537 114.687 342.005 117.702C345.474 120.718 346.197 120.892 346.197 120.892C346.197 120.892 344.533 133.921 342.65 138.452C340.768 142.984 334.624 147.394 328.889 146.121C325.63 145.407 319.983 143.054 318.345 139.089C316.706 135.123 313.708 118.644 313.708 118.644Z" fill="white" stroke="black" stroke-linecap="round" stroke-linejoin="round"/>
<path d="M336.925 128.657C334.101 128.727 324.646 128.744 319.765 125.798C317.809 124.66 315.978 123.319 314.301 121.798C314.475 122.67 314.684 123.759 314.911 124.892L315.974 125.668L318.641 135.742L317.395 136.012C317.658 137.042 317.975 138.057 318.345 139.054C319.983 143.019 325.63 145.372 328.89 146.087C334.615 147.35 340.742 142.967 342.642 138.444C342.193 137.565 342.061 136.559 342.267 135.594C342.816 132.744 343.496 127.751 343.496 127.751L345.439 126.008C345.544 125.371 345.631 124.761 345.718 124.204C343.365 125.833 338.955 128.605 336.925 128.657Z" fill="#28CC9E" stroke="black" stroke-linecap="round" stroke-linejoin="round"/>
<path d="M326.545 124.448C326.545 124.448 323.504 120.753 319.512 121.092" stroke="black" stroke-linecap="round" stroke-linejoin="round"/>
<path d="M334.38 125.18C335.35 124.16 336.556 123.392 337.891 122.946C339.227 122.499 340.651 122.387 342.04 122.618" stroke="black" stroke-linecap="round" stroke-linejoin="round"/>
<path d="M317.761 119.245C317.761 119.245 322.118 117.502 325.979 118.321" stroke="black" stroke-linecap="round" stroke-linejoin="round"/>
<path d="M334.737 119.271C335.885 118.685 337.186 118.465 338.462 118.643C339.739 118.821 340.93 119.387 341.874 120.265" stroke="black" stroke-linecap="round" stroke-linejoin="round"/>
<path d="M323.617 123.236C323.637 123.37 323.63 123.507 323.597 123.638C323.563 123.769 323.505 123.893 323.424 124.001C323.343 124.11 323.241 124.201 323.125 124.27C323.008 124.339 322.879 124.385 322.745 124.404C322.473 124.373 322.222 124.24 322.044 124.031C321.866 123.823 321.774 123.554 321.787 123.28C321.766 123.146 321.772 123.009 321.805 122.877C321.837 122.745 321.896 122.622 321.977 122.513C322.058 122.404 322.16 122.313 322.277 122.244C322.394 122.175 322.524 122.13 322.658 122.112C322.93 122.145 323.18 122.278 323.357 122.487C323.535 122.695 323.628 122.963 323.617 123.236Z" fill="black"/>
<path d="M339.399 124.369C339.423 124.504 339.419 124.641 339.387 124.774C339.355 124.907 339.297 125.032 339.215 125.141C339.134 125.25 339.031 125.342 338.913 125.41C338.794 125.478 338.664 125.521 338.528 125.537C338.256 125.508 338.005 125.377 337.827 125.17C337.649 124.962 337.557 124.695 337.569 124.421C337.546 124.287 337.55 124.149 337.582 124.017C337.613 123.884 337.672 123.759 337.753 123.65C337.835 123.54 337.938 123.449 338.056 123.381C338.174 123.313 338.305 123.269 338.441 123.254C338.713 123.282 338.963 123.414 339.142 123.621C339.32 123.828 339.412 124.096 339.399 124.369Z" fill="black"/>
<path d="M362.869 159.255C362.869 159.255 367.949 161.608 369.84 165.355C371.731 169.102 386.852 209.705 386.782 212.772C386.712 215.84 381.71 219.378 377.021 219.857C372.333 220.337 365.5 211.84 364.481 210.428C363.461 209.016 363.278 192.493 363.278 192.493L362.869 159.255Z" fill="white" stroke="black" stroke-linecap="round" stroke-linejoin="round"/>
<path d="M338.92 148.413L341.395 229.583L342.267 280.783C347.012 281.95 351.873 282.578 356.759 282.656C360.835 282.742 364.887 282.019 368.681 280.53C368.681 280.53 367.2 248.677 366.938 243.483C366.677 238.289 364.951 228.38 364.951 228.38L362.895 159.255C362.895 159.255 343.748 150.296 338.92 148.413Z" fill="white" stroke="black" stroke-linecap="round" stroke-linejoin="round"/>
<path d="M344.358 152.893L353.134 181.521L345.134 183.691L352.916 187.464L343.208 218.306" fill="white"/>
<path d="M344.358 152.893L353.134 181.521L345.134 183.691L352.916 187.464L343.208 218.306" stroke="black" stroke-linecap="round" stroke-linejoin="round"/>
<path d="M350.476 179.081L339.591 231.23C339.591 231.23 347.034 233.583 352.472 233.845C357.91 234.106 369.239 234.071 369.239 234.071L380.568 185.46C380.568 185.46 358.267 183.325 350.476 179.081Z" fill="black" stroke="black" stroke-linecap="round" stroke-linejoin="round"/>
<path d="M354.267 227.683L354.624 211.387L363.261 213.208C363.261 213.208 357.553 225.784 354.267 227.683Z" fill="white" stroke="black" stroke-linecap="round" stroke-linejoin="round"/>
<path d="M360.881 205.495C360.881 205.495 358.581 202.201 357.84 201.487C357.099 200.772 353.439 198.663 352.733 198.663C352.027 198.663 348.236 198.428 347.504 198.428C346.772 198.428 345.944 200.084 346.694 200.789C347.443 201.495 350.049 201.731 350.049 201.731L351.836 204.345L343.774 203.639C343.774 203.639 342.432 205.06 342.737 206.254C342.965 207.062 343.257 207.852 343.609 208.615C343.578 210.348 343.668 212.081 343.879 213.801C344.193 215.221 345.622 215.692 347.583 216.868C349.544 218.045 356.106 217.339 356.106 217.339H359.139L360.881 205.495Z" fill="white" stroke="black" stroke-linecap="round" stroke-linejoin="round"/>
<path d="M380.534 207.134L359.618 204.319C359.618 204.319 357.988 217.775 356.341 222.254C354.694 226.733 354.267 227.683 354.267 227.683C354.267 227.683 376.185 227.195 381.353 226.725C386.521 226.254 389.423 223.178 389.196 218.934C388.969 214.689 386.381 210.437 386.381 210.437" fill="white"/>
<path d="M380.534 207.134L359.618 204.319C359.618 204.319 357.988 217.775 356.341 222.254C354.694 226.733 354.267 227.683 354.267 227.683C354.267 227.683 376.185 227.195 381.353 226.725C386.521 226.254 389.423 223.178 389.196 218.934C388.969 214.689 386.381 210.437 386.381 210.437" stroke="black" stroke-linecap="round" stroke-linejoin="round"/>
<path d="M293.316 221.827C293.316 221.827 298.196 224.886 299.416 225.836C300.636 226.786 300.741 232.912 301.516 234.089C302.292 235.265 301.377 235.98 299.965 235.98C298.553 235.98 296.418 231.501 296.418 231.501L296.331 229.845L286.361 233.156L283.747 228.677C283.747 228.677 286.71 221.827 293.316 221.827Z" fill="white" stroke="black" stroke-linecap="round" stroke-linejoin="round"/>
<path d="M220.686 406.982C245.873 406.982 266.291 402.378 266.291 396.698C266.291 391.019 245.873 386.415 220.686 386.415C195.5 386.415 175.082 391.019 175.082 396.698C175.082 402.378 195.5 406.982 220.686 406.982Z" fill="black" stroke="black" stroke-linecap="round" stroke-linejoin="round"/>
<path d="M256.304 152.326C256.304 152.326 262.282 182.331 263.346 187.883C264.409 193.434 266.361 206.628 268.574 212.415C270.788 218.201 270.065 225.609 268.958 227.692C267.848 229.502 266.573 231.206 265.15 232.781L257.725 223.099C257.725 223.099 253.306 175.656 253.14 168.937C252.975 162.217 256.304 152.326 256.304 152.326Z" fill="white" stroke="black" stroke-linecap="round" stroke-linejoin="round"/>
<path d="M260.243 221.914C260.243 221.914 264.949 224.851 265.777 226.097C266.605 227.343 267.198 228.929 266.553 230.28C265.908 231.631 262.396 235.71 261.507 236.503C260.618 237.296 259.868 234.132 259.764 231.413C259.659 228.694 260.243 221.914 260.243 221.914Z" fill="white" stroke="black" stroke-linecap="round" stroke-linejoin="round"/>
<path d="M234.935 386.45C234.935 386.45 249.689 393.622 250.622 395.016C251.554 396.411 248.19 398.267 239.397 398.267C230.604 398.267 230.342 397.108 226.848 396.184C223.353 395.26 216.39 395.949 215.449 393.866C214.508 391.783 216.146 384.611 216.146 384.611L234.935 386.45Z" fill="white" stroke="black" stroke-linecap="round" stroke-linejoin="round"/>
<path d="M215.344 390.153C215.344 390.153 227.545 397.561 226.473 400.106C225.401 402.65 216.582 402.65 211.937 401.953C207.292 401.256 197.418 394.981 196.895 392.698C196.372 390.415 197.679 386.912 204.834 386.223C211.989 385.535 215.344 390.153 215.344 390.153Z" fill="white" stroke="black" stroke-linecap="round" stroke-linejoin="round"/>
<path d="M252.382 269.113C252.382 269.113 245.41 322.805 244.199 330.675C242.988 338.544 239.144 351.041 237.07 360.532C235.895 366.113 235.022 371.754 234.456 377.43C234.244 379.044 234.282 380.681 234.569 382.284C234.865 384.602 234.909 386.45 234.909 386.45C231.806 387.228 228.648 387.77 225.462 388.071C221.532 388.306 216.207 388.306 216.207 388.306L214.464 373.264C214.464 373.264 215.763 351.041 216.53 344.566C217.296 338.091 218.116 287.171 218.081 285.776C218.046 284.382 217.741 272.12 217.741 272.12L241.489 269.575C241.489 269.575 244.731 260.32 249.602 260.782C254.474 261.244 252.382 269.113 252.382 269.113Z" fill="white" stroke="black" stroke-linecap="round" stroke-linejoin="round"/>
<path d="M249.637 260.782C244.765 260.32 241.524 269.575 241.524 269.575L217.75 272.12C217.75 272.12 217.828 275.379 217.906 278.726C220.442 278.952 222.787 279.083 224.791 279.083C232.408 279.071 240.019 278.643 247.589 277.802L248.609 267.135L250.203 278.003L251.302 277.645C251.981 272.469 252.417 269.096 252.417 269.096C252.417 269.096 254.509 261.244 249.637 260.782Z" fill="black" stroke="black" stroke-linecap="round" stroke-linejoin="round"/>
<path d="M192.947 270.734C192.947 270.734 192.947 271.066 193 271.667C193.322 277.994 195.239 314.657 195.823 321.42C196.477 328.827 193.209 336.923 193.374 343.634C193.54 350.344 195.117 386.685 195.117 386.685L196.86 392.698C196.86 392.698 200.956 389.927 204.887 389.927C208.817 389.927 215.344 390.153 215.344 390.153C215.344 390.153 215.684 385.291 215.649 383.678C215.615 382.066 215.466 376.271 215.466 376.271C215.466 376.271 222.116 345.952 222.517 343.407C222.918 340.862 228.077 296.888 228.042 295.476C228.007 294.064 229.131 274.412 229.131 274.412L192.947 270.734Z" fill="white" stroke="black" stroke-linecap="round" stroke-linejoin="round"/>
<path d="M228.887 279.04C229.035 276.355 229.14 274.438 229.14 274.438L192.947 270.734C192.947 270.734 192.947 271.066 193 271.667C193 272.434 193.095 273.645 193.183 275.153C201.645 276.669 216.329 279.057 224.791 279.057C226.186 279.083 227.545 279.066 228.887 279.04Z" fill="black" stroke="black" stroke-linecap="round" stroke-linejoin="round"/>
<path d="M219.615 128.631C219.615 128.631 215.789 129.276 214.333 130.984C212.875 132.645 211.563 134.43 210.412 136.317C210.211 136.962 187.71 150.618 187.71 150.618L189.331 215.735C189.331 215.735 190.002 225.766 188.808 229.182C186.791 235.899 185.812 242.885 185.906 249.897C186.115 258.22 186.655 271.684 186.655 271.684C186.655 271.684 212.408 276.809 224.791 276.809C232.409 276.791 240.019 276.357 247.589 275.51L248.609 264.835L250.16 275.728L255.45 273.985L259.807 241.74C259.807 241.74 262.84 234.908 262.805 233.409C262.77 231.91 263.572 229.993 262.692 228.712C261.812 227.431 260.243 224.868 260.243 224.868C260.243 224.868 256.304 154.252 256.304 152.326C256.304 150.4 244.652 139.097 243.79 138.67C242.927 138.243 237.611 130.339 230.717 128.212C223.824 126.086 219.615 128.631 219.615 128.631Z" fill="white" stroke="black" stroke-linecap="round" stroke-linejoin="round"/>
<path d="M212.599 138.452L210.02 161.904L220.617 166.828L217.967 174.784L244.469 221.356" stroke="black" stroke-linecap="round" stroke-linejoin="round"/>
<path d="M242.203 141.084L250.151 159.638L246.744 164.178L252.426 172.126L250.151 223.247" stroke="black" stroke-linecap="round" stroke-linejoin="round"/>
<path d="M218.63 131.838C218.823 136.413 219.653 140.939 221.096 145.285C223.388 151.69 238.578 195.883 238.578 195.883L248.4 230.463C248.4 230.463 247.101 195.238 247.066 193.748C247.031 192.258 239.624 143.359 239.624 143.359C239.624 143.359 238.36 135.463 236.365 132.474C234.369 129.485 220.992 123.933 218.63 131.838Z" fill="#28CC9E" stroke="black" stroke-linecap="round" stroke-linejoin="round"/>
<path d="M217.688 128.421C217.688 128.421 211.51 129.058 212.599 138.452C213.688 147.847 215.126 154.252 215.126 154.252" stroke="black" stroke-width="2" stroke-linecap="round" stroke-linejoin="round"/>
<path d="M214.368 166.636C214.368 166.636 216.983 177.521 218.769 180.51C220.556 183.499 225.959 186.488 229.802 186.488" stroke="black" stroke-linecap="round" stroke-linejoin="round"/>
<path d="M222.63 164.074C222.63 164.074 225.506 176.667 225.985 179.02C226.464 181.373 224.878 185.843 222.212 190.349" stroke="black" stroke-linecap="round" stroke-linejoin="round"/>
<path d="M221.445 191.839C221.17 191.688 220.967 191.435 220.879 191.134C220.79 190.834 220.825 190.511 220.974 190.236L221.279 189.678C221.354 189.545 221.455 189.428 221.576 189.334C221.696 189.24 221.835 189.171 221.982 189.131C222.13 189.092 222.284 189.082 222.436 189.102C222.587 189.123 222.733 189.173 222.865 189.251C223.139 189.402 223.343 189.655 223.433 189.955C223.522 190.254 223.491 190.578 223.344 190.854L223.039 191.403C222.964 191.538 222.863 191.656 222.742 191.751C222.621 191.845 222.482 191.915 222.333 191.956C222.185 191.996 222.03 192.007 221.877 191.987C221.725 191.967 221.578 191.917 221.445 191.839Z" fill="black"/>
<path d="M231.231 186.723C231.232 186.877 231.201 187.029 231.141 187.171C231.08 187.312 230.992 187.44 230.882 187.547C230.771 187.653 230.64 187.736 230.496 187.791C230.353 187.846 230.2 187.871 230.046 187.865H229.41C229.096 187.858 228.798 187.728 228.58 187.503C228.361 187.278 228.24 186.976 228.242 186.662C228.241 186.509 228.271 186.357 228.33 186.216C228.389 186.075 228.476 185.947 228.586 185.84C228.696 185.733 228.827 185.65 228.97 185.595C229.113 185.54 229.266 185.515 229.419 185.521H230.055C230.369 185.53 230.667 185.66 230.886 185.885C231.105 186.109 231.229 186.41 231.231 186.723Z" fill="black"/>
<path d="M214.386 167.49L212.921 158.209C212.758 157.252 212.965 156.268 213.501 155.459C214.037 154.649 214.861 154.075 215.806 153.851C216.824 153.62 217.892 153.792 218.786 154.331C219.68 154.871 220.33 155.736 220.599 156.745L223.1 165.982" stroke="black" stroke-width="2" stroke-linecap="round" stroke-linejoin="round"/>
<path d="M248.834 173.763C250.932 173.553 252.436 171.422 252.194 169.003C251.951 166.585 250.055 164.794 247.957 165.005C245.859 165.215 244.355 167.346 244.598 169.764C244.84 172.183 246.737 173.973 248.834 173.763Z" fill="white" stroke="black" stroke-linecap="round" stroke-linejoin="round"/>
<path d="M238.116 132.334C238.116 132.334 246.509 144.143 249.184 168.213" stroke="black" stroke-width="2" stroke-linecap="round" stroke-linejoin="round"/>
<path d="M249.407 171C250.552 170.894 251.38 169.723 251.256 168.386C251.131 167.049 250.102 166.052 248.957 166.158C247.811 166.265 246.984 167.435 247.108 168.772C247.232 170.109 248.261 171.107 249.407 171Z" fill="white" stroke="black" stroke-linecap="round" stroke-linejoin="round"/>
<path d="M261.672 223.753C261.157 225.348 260.735 226.972 260.409 228.616C260.409 229.313 260.243 231.396 258.613 230.925C256.984 230.454 257.472 222.132 257.681 221.208C257.89 220.284 261.855 223.273 261.855 223.273" fill="white"/>
<path d="M261.672 223.753C261.157 225.348 260.735 226.972 260.409 228.616C260.409 229.313 260.243 231.396 258.613 230.925C256.984 230.454 257.472 222.132 257.681 221.208C257.89 220.284 261.855 223.273 261.855 223.273" stroke="black" stroke-linecap="round" stroke-linejoin="round"/>
<path d="M208.773 216.38C210.223 217.178 211.843 217.617 213.497 217.661C216.059 217.661 220.739 216.79 222.456 217.234C224.172 217.679 228.556 223.204 228.556 223.204C228.556 223.204 229.863 224.485 229.244 225.13C228.626 225.775 227.362 226.873 226.491 226.193C225.619 225.513 221.262 221.923 221.262 221.923L210.272 226.411L205.758 224.058L208.773 216.38Z" fill="white" stroke="black" stroke-linecap="round" stroke-linejoin="round"/>
<path d="M191.945 149.128C191.945 149.128 184.703 149.999 183.474 151.899C182.245 153.799 162.402 197.373 162.445 199.299C162.489 201.225 202.124 232.415 202.124 232.415L210.682 216.127L189.27 196.275L198.56 174.715" fill="white"/>
<path d="M191.945 149.128C191.945 149.128 184.703 149.999 183.474 151.899C182.245 153.799 162.402 197.373 162.445 199.299C162.489 201.225 202.124 232.415 202.124 232.415L210.682 216.127L189.27 196.275L198.56 174.715" stroke="black" stroke-linecap="round" stroke-linejoin="round"/>
<path d="M205.305 240.285L226.238 240.712L226.133 227.692" stroke="black" stroke-linecap="round" stroke-linejoin="round"/>
<path d="M210.298 226.411L204.764 228.476" stroke="black" stroke-linecap="round" stroke-linejoin="round"/>
<path d="M216.608 119.236C216.608 119.236 218.987 137.816 220.556 140.587C222.125 143.359 233.279 154.461 233.279 154.461C233.279 154.461 236.765 141.659 237.158 138.67C237.55 135.681 237.855 123.724 237.855 123.724L216.564 117.746L216.608 119.236Z" fill="white" stroke="black" stroke-linecap="round" stroke-linejoin="round"/>
<path d="M216.608 119.236C216.608 119.236 216.887 121.415 217.314 124.387C218.983 125.94 220.889 127.217 222.961 128.169C225.706 129.38 233.027 130.06 237.654 129.52C237.776 126.391 237.855 123.724 237.855 123.724L216.564 117.746L216.608 119.236Z" fill="black" stroke="black" stroke-linecap="round" stroke-linejoin="round"/>
<path d="M210.438 103.018C210.438 103.018 207.588 100.029 206.176 103.436C204.764 106.844 207.919 111.977 209.601 112.195C210.599 112.325 211.613 112.251 212.582 111.977C212.582 111.977 213.776 116.892 214.874 118.382C217.035 121.115 219.804 123.305 222.961 124.779C226.848 126.522 239.859 127.14 241.506 124.779C243.153 122.417 243.057 109.833 243.031 108.77C243.005 107.706 242.822 92.4903 242.822 92.4903C242.822 92.4903 243.99 87.2092 242.404 83.5751C240.818 79.941 224.896 74.8603 220.896 76.9605C216.895 79.0608 212.285 82.721 211.972 87.4183C211.658 92.1156 211.85 99.8021 211.85 99.8021L210.438 103.018Z" fill="white" stroke="black" stroke-linecap="round" stroke-linejoin="round"/>
<path d="M233.968 96.3945C233.968 96.3945 236.626 108.595 236.016 110.059C235.406 111.523 233.497 111.55 231.109 110.269C228.721 108.987 229.968 107.279 229.968 107.279" stroke="black" stroke-linecap="round" stroke-linejoin="round"/>
<path d="M224.713 110.486C224.713 110.486 225.863 113.685 227.998 113.903C230.133 114.12 235.493 114.539 235.493 114.539" stroke="black" stroke-linecap="round" stroke-linejoin="round"/>
<path d="M217.087 96.8216L217.427 101.946C217.427 101.946 219.379 103.018 223.859 103.018C228.338 103.018 229.811 101.946 229.811 101.946L229.689 96.8216C229.689 96.8216 223.188 92.9784 217.087 96.8216Z" stroke="black" stroke-linecap="round" stroke-linejoin="round"/>
<path d="M233.985 96.8215L235.606 102.164C235.606 102.164 236.269 103.035 240.757 103.035C245.245 103.035 246.718 101.963 246.718 101.963L246.587 96.8389C246.587 96.8389 240.077 92.9783 233.985 96.8215Z" stroke="black" stroke-linecap="round" stroke-linejoin="round"/>
<path d="M229.715 96.8215H233.985" stroke="black" stroke-linecap="round" stroke-linejoin="round"/>
<path d="M217.113 96.8215L208.695 101.737" stroke="black" stroke-linecap="round" stroke-linejoin="round"/>
<path d="M219.188 94.2593C219.188 94.2593 221.471 91.6972 226.647 93.8323" stroke="black" stroke-linecap="round" stroke-linejoin="round"/>
<path d="M234.77 94.2594C235.538 93.6427 236.466 93.2557 237.445 93.1431C238.424 93.0305 239.415 93.197 240.303 93.6233" stroke="black" stroke-linecap="round" stroke-linejoin="round"/>
<path d="M224.643 99.1746C224.643 100.116 224.303 100.918 223.832 100.918C223.362 100.918 222.961 100.151 222.961 99.1746C222.961 98.1985 223.301 97.4316 223.78 97.4316C224.259 97.4316 224.625 98.2247 224.643 99.1746Z" fill="black"/>
<path d="M238.308 98.9566C238.308 99.8978 237.968 100.7 237.497 100.7C237.027 100.7 236.626 99.9326 236.626 98.9566C236.626 97.9805 236.966 97.2136 237.436 97.2136C237.907 97.2136 238.282 98.0154 238.308 98.9566Z" fill="black"/>
<path d="M223.684 79.2089C223.684 79.2089 225.741 83.7493 223.188 85.4051C222.4 85.8611 221.505 86.1012 220.595 86.1012C219.685 86.1012 218.79 85.8611 218.002 85.4051C218.681 86.3428 219.06 87.4641 219.09 88.6214C219.12 89.7786 218.798 90.9178 218.168 91.8889C216.916 93.9745 215.456 95.9279 213.811 97.7191C213.811 97.7191 214.272 103.236 213.314 103.881C212.355 104.525 209.741 103.558 209.697 101.937C209.654 100.316 208.608 97.0742 208.564 95.4533C208.521 93.8323 207.771 89.6144 207.771 89.6144C207.771 89.6144 201.218 86.6949 204.695 83.1305C208.172 79.5662 215.554 76.6467 215.554 76.6467C215.554 76.6467 215.719 70.1629 220.207 68.2195C224.695 66.2761 234.351 63.3566 234.43 66.5985C234.553 68.267 234.253 69.9395 233.558 71.4614C233.558 71.4614 241.654 71.1389 247.302 76.6903C252.949 82.2416 252.757 87.3921 249.838 87.3921C246.918 87.3921 245.968 88.037 245.968 88.037C245.968 88.037 251.554 91.2789 248.679 92.8998C245.803 94.5208 242.84 92.5774 242.84 92.5774C242.84 92.5774 244.077 90.3115 240.434 87.3485C236.792 84.3855 223.684 79.2089 223.684 79.2089Z" fill="black" stroke="black" stroke-linecap="round" stroke-linejoin="round"/>
<path d="M113.102 406.982C138.289 406.982 158.707 402.378 158.707 396.698C158.707 391.019 138.289 386.415 113.102 386.415C87.9152 386.415 67.4973 391.019 67.4973 396.698C67.4973 402.378 87.9152 406.982 113.102 406.982Z" fill="black" stroke="black" stroke-linecap="round" stroke-linejoin="round"/>
<path d="M143.133 183.996V192.327L155.247 197.879C155.247 197.879 156.51 192.327 155.499 182.479L143.133 183.996Z" fill="#999999" stroke="black" stroke-linecap="round" stroke-linejoin="round"/>
<path d="M83.0095 383.922C80.2369 386.302 77.6172 388.855 75.1662 391.565C71.6803 395.496 71.0005 399.409 74.2424 401.282C77.4843 403.156 82.5738 402.668 88.1251 399.199C93.6764 395.731 93.4499 394.337 96.6918 393.186C99.9337 392.036 102.017 389.7 102.017 386.005C102.017 382.31 90.2079 381.84 87.6632 381.648C85.1185 381.456 83.0095 383.922 83.0095 383.922Z" fill="white" stroke="black" stroke-linecap="round" stroke-linejoin="round"/>
<path d="M101.991 386.005C101.991 386.005 96.7616 388.323 94.2256 390.432C91.6896 392.541 86.635 400.132 80.7264 400.132C77.7174 400.135 74.7583 399.363 72.1335 397.892C72.1374 398.594 72.3336 399.281 72.7009 399.878C73.0681 400.476 73.5923 400.962 74.2164 401.282C77.4583 403.13 82.5477 402.668 88.0991 399.199C93.6504 395.731 93.4238 394.337 96.6658 393.186C99.9077 392.036 101.991 389.709 101.991 386.005Z" stroke="black" stroke-linecap="round" stroke-linejoin="round"/>
<path d="M141.739 383.922C144.511 386.302 147.131 388.855 149.582 391.565C153.068 395.496 153.748 399.409 150.506 401.282C147.264 403.156 142.174 402.668 136.623 399.199C131.072 395.731 131.298 394.337 128.056 393.186C124.815 392.036 122.732 389.7 122.732 386.005C122.732 382.31 134.54 381.84 137.085 381.648C139.63 381.456 141.739 383.922 141.739 383.922Z" fill="white" stroke="black" stroke-linecap="round" stroke-linejoin="round"/>
<path d="M122.758 386.005C122.758 386.005 127.987 388.323 130.523 390.432C133.059 392.541 138.113 400.132 144.022 400.132C147.031 400.135 149.99 399.363 152.615 397.892C152.611 398.594 152.415 399.281 152.047 399.878C151.68 400.476 151.156 400.962 150.532 401.282C147.29 403.13 142.201 402.668 136.649 399.199C131.098 395.731 131.324 394.337 128.083 393.186C124.841 392.036 122.758 389.709 122.758 386.005Z" stroke="black" stroke-linecap="round" stroke-linejoin="round"/>
<path d="M76.2991 252.468C76.2991 252.468 77.6847 304.539 78.3819 312.182C79.0791 319.825 81.1358 337.176 81.1358 338.135C81.1358 339.093 82.2862 377.482 82.2862 377.482L80.2033 380.968L80.9005 385.831L90.1556 387.678C94.7832 388.602 100.805 389.997 101.729 389.073C102.653 388.149 102.888 386.293 103.35 383.748C103.812 381.203 104.736 376.567 103.812 372.872C102.888 369.177 104.971 329.821 105.206 328.897C105.441 327.973 110.766 289.959 110.766 289.959C110.766 289.959 114.252 321.211 116.779 330.692C119.307 340.174 118.4 354.301 119.324 359.852C120.248 365.403 122.104 384.158 122.339 385.543C122.575 386.929 123.028 389.029 123.028 389.029C123.028 389.029 134.601 387.408 136.684 386.476C138.796 385.698 140.963 385.08 143.168 384.628C143.168 384.628 143.856 371.434 142.933 366.109C142.259 362.368 141.872 358.58 141.773 354.78C141.773 353.159 142.933 301.785 142.933 301.785L141.773 252.024C141.773 252.024 110.531 255.266 98.4957 252.947C86.4605 250.629 76.5344 249.244 76.5344 249.244L76.2991 252.468Z" fill="#28CC9E" stroke="black" stroke-linecap="round" stroke-linejoin="round"/>
<path d="M98.5131 252.93C86.478 250.621 76.5344 249.244 76.5344 249.244L76.2991 252.477C76.2991 252.477 76.3775 255.466 76.5082 260.102C82.0247 261.645 93.232 264.355 104.064 264.355C115.516 264.355 133.756 260.869 141.965 259.205L141.791 252.015C141.791 252.015 110.548 255.248 98.5131 252.93Z" fill="black" stroke="black" stroke-linecap="round" stroke-linejoin="round"/>
<path d="M138.715 370.197C138.862 371.791 138.958 372.706 138.958 372.706" stroke="black" stroke-linecap="round" stroke-linejoin="round"/>
<path d="M135.168 264.686C135.168 264.686 136.039 309.411 136.039 326.291C136.039 337.969 137.451 355.695 138.322 365.508" stroke="black" stroke-linecap="round" stroke-linejoin="round"/>
<path d="M88.3257 262.159L90.4347 310.683" stroke="black" stroke-linecap="round" stroke-linejoin="round"/>
<path d="M90.0076 314.474V322.492" stroke="black" stroke-linecap="round" stroke-linejoin="round"/>
<path d="M100.98 130.234C99.8402 130.24 98.7186 130.518 97.7077 131.043C96.6969 131.569 95.8259 132.329 95.1669 133.258C93.7256 135.16 92.1219 136.933 90.3737 138.557L69.676 149.668L71.6979 228.677L72.4561 255.693C72.4561 255.693 88.3519 260.991 103.498 260.991C118.645 260.991 145.652 254.891 145.652 254.891C145.652 254.891 143.386 149.633 144.144 149.633C144.902 149.633 129.251 136.038 122.183 132.465C115.115 128.892 100.98 130.234 100.98 130.234Z" fill="#28CC9E" stroke="black" stroke-linecap="round" stroke-linejoin="round"/>
<path d="M95.0796 139.785C95.0796 139.785 103.097 154.557 106.479 161.311C109.86 168.065 116.169 177.782 116.169 177.782L126.723 149.511" stroke="black" stroke-linecap="round" stroke-linejoin="round"/>
<path d="M101.006 233.479L100.596 221.687L76.7786 220.302C76.7786 220.302 77.0139 237.662 77.4758 238.603" stroke="black" stroke-linecap="round" stroke-linejoin="round"/>
<path d="M101.293 241.827L101.18 238.516" stroke="black" stroke-linecap="round" stroke-linejoin="round"/>
<path d="M129.529 239.971L128.832 220.537C128.832 220.537 137.163 221.225 144.109 216.598" stroke="black" stroke-linecap="round" stroke-linejoin="round"/>
<path d="M93.8159 174.227C94.548 176.536 96.779 177.895 98.7921 177.251C100.805 176.606 101.825 174.209 101.084 171.9C100.343 169.59 98.121 168.231 96.1079 168.876C94.0948 169.521 93.0752 171.917 93.8159 174.227Z" stroke="black" stroke-linecap="round" stroke-linejoin="round"/>
<path d="M94.0513 133.79C94.0513 133.79 91.3758 144.073 97.4588 171.987" stroke="black" stroke-width="2" stroke-linecap="round" stroke-linejoin="round"/>
<path d="M99.3323 172.945C99.153 173.307 98.8737 173.61 98.5275 173.817C98.1814 174.025 97.7829 174.129 97.3795 174.116C96.9761 174.104 96.5846 173.977 96.2516 173.749C95.9185 173.521 95.6579 173.202 95.5007 172.83C95.3434 172.458 95.2961 172.049 95.3644 171.652C95.4327 171.254 95.6137 170.884 95.8859 170.586C96.1581 170.288 96.5101 170.074 96.9001 169.97C97.2901 169.867 97.7017 169.877 98.0861 170C98.6397 170.228 99.0811 170.665 99.3144 171.217C99.5477 171.768 99.5541 172.389 99.3323 172.945Z" stroke="black" stroke-linecap="round" stroke-linejoin="round"/>
<path d="M143.133 148.152C143.133 148.152 146.915 150.932 147.168 151.943C147.421 152.954 160.293 183.743 160.293 183.743L141.617 186.497L141.869 168.318" fill="#28CC9E"/>
<path d="M143.133 148.152C143.133 148.152 146.915 150.932 147.168 151.943C147.421 152.954 160.293 183.743 160.293 183.743L141.617 186.497L141.869 168.318" stroke="black" stroke-linecap="round" stroke-linejoin="round"/>
<path d="M72.2032 148.657C72.2032 148.657 67.9068 149.163 66.8959 152.439C65.885 155.716 58.5732 189.042 58.5732 189.042L85.3277 186.497L82.8004 161.503" fill="#28CC9E"/>
<path d="M72.2032 148.657C72.2032 148.657 67.9068 149.163 66.8959 152.439C65.885 155.716 58.5732 189.042 58.5732 189.042L85.3277 186.497L82.8004 161.503" stroke="black" stroke-linecap="round" stroke-linejoin="round"/>
<path d="M123.882 132.221C123.882 132.221 130.514 136.003 131.168 145.415C131.821 154.827 131.168 157.215 131.168 157.215" stroke="black" stroke-width="2" stroke-linecap="round" stroke-linejoin="round"/>
<path d="M134.166 169.268C134.166 169.268 133.573 180.397 132.362 183.612C131.15 186.828 126.357 190.637 122.557 191.247" stroke="black" stroke-linecap="round" stroke-linejoin="round"/>
<path d="M125.582 168.065C125.582 168.065 125.05 180.902 124.998 183.29C124.945 185.678 127.351 189.835 130.802 193.817" stroke="black" stroke-linecap="round" stroke-linejoin="round"/>
<path d="M131.791 195.215L131.893 195.133C132.368 194.748 132.44 194.051 132.055 193.576L131.567 192.974C131.182 192.499 130.485 192.426 130.01 192.811L129.908 192.894C129.434 193.279 129.361 193.976 129.746 194.451L130.235 195.053C130.62 195.528 131.316 195.601 131.791 195.215Z" fill="black"/>
<path d="M121.193 191.653L121.217 191.782C121.331 192.382 121.91 192.777 122.511 192.663L123.273 192.519C123.873 192.405 124.268 191.826 124.154 191.225L124.13 191.097C124.016 190.496 123.437 190.102 122.836 190.215L122.074 190.36C121.474 190.474 121.079 191.053 121.193 191.653Z" fill="black"/>
<path d="M134.296 170.113L134.043 160.762C134.02 159.787 133.634 158.855 132.96 158.149C132.286 157.443 131.374 157.014 130.401 156.945C129.367 156.868 128.345 157.203 127.558 157.878C126.771 158.552 126.282 159.511 126.2 160.544L125.416 170.026" stroke="black" stroke-width="2" stroke-linecap="round" stroke-linejoin="round"/>
<path d="M156.005 191.569L149.983 190.305L128.78 186.776L99.0448 181.111L91.9945 178C91.9945 178 85.3277 169.285 84.7525 168.414C84.1773 167.542 76.639 170.584 76.9092 171.743C77.1793 172.902 78.0683 184.484 78.6522 185.216C79.236 185.948 85.746 185.939 85.746 185.939C85.746 185.939 116.806 200.929 118.095 201.478C136.022 209.033 144.667 208.964 147.726 209.46C150.785 209.957 152.78 208.72 154.541 206.698C156.301 204.676 156.005 191.569 156.005 191.569Z" fill="#999999" stroke="black" stroke-linecap="round" stroke-linejoin="round"/>
<path d="M83.8461 168.292C83.8461 168.292 80.2294 168.44 74.8698 172.057C72.8741 173.407 71.8284 174.375 71.8284 174.959C71.9426 175.653 72.1386 176.332 72.4123 176.98C75.8871 175.307 79.5261 173.999 83.2709 173.076" fill="#999999"/>
<path d="M83.8461 168.292C83.8461 168.292 80.2294 168.44 74.8698 172.057C72.8741 173.407 71.8284 174.375 71.8284 174.959C71.9426 175.653 72.1386 176.332 72.4123 176.98C75.8871 175.307 79.5261 173.999 83.2709 173.076" stroke="black" stroke-linecap="round" stroke-linejoin="round"/>
<path d="M85.2928 177.564C85.2928 177.564 75.4538 180.022 73.859 180.318C72.2642 180.614 71.9766 179.011 71.9766 178.436C71.9766 177.861 72.4123 176.98 74.1466 176.118C75.8808 175.255 84.6043 172.928 84.6043 172.928" fill="#999999"/>
<path d="M85.2928 177.564C85.2928 177.564 75.4538 180.022 73.859 180.318C72.2642 180.614 71.9766 179.011 71.9766 178.436C71.9766 177.861 72.4123 176.98 74.1466 176.118C75.8808 175.255 84.6043 172.928 84.6043 172.928" stroke="black" stroke-linecap="round" stroke-linejoin="round"/>
<path d="M86.3124 182.052C86.3124 182.052 74.8699 183.211 73.9984 182.488C73.7317 182.198 73.5294 181.854 73.4048 181.48C73.2801 181.106 73.2359 180.71 73.275 180.318L83.5585 178.139" fill="#999999"/>
<path d="M86.3124 182.052C86.3124 182.052 74.8699 183.211 73.9984 182.488C73.7317 182.198 73.5294 181.854 73.4048 181.48C73.2801 181.106 73.2359 180.71 73.275 180.318L83.5585 178.139" stroke="black" stroke-linecap="round" stroke-linejoin="round"/>
<path d="M83.1228 182.627L74.2947 183.063C74.2947 183.063 74.7217 184.37 75.1662 184.51C77.2576 185.026 79.3885 185.368 81.5367 185.529C82.9454 185.576 84.349 185.721 85.7372 185.965" fill="#999999"/>
<path d="M83.1228 182.627L74.2947 183.063C74.2947 183.063 74.7217 184.37 75.1662 184.51C77.2576 185.026 79.3885 185.368 81.5367 185.529C82.9454 185.576 84.349 185.721 85.7372 185.965" stroke="black" stroke-linecap="round" stroke-linejoin="round"/>
<path d="M64.1245 188.536C64.1245 188.536 68.1595 205.966 69.1704 207.221C70.1813 208.476 78.5127 207.221 86.844 204.693C95.1754 202.166 130.514 187.029 130.514 187.029L135.56 188.031C135.56 188.031 133.538 181.721 130.009 181.469C126.479 181.216 85.3277 186.497 85.3277 186.497L64.1245 188.536Z" fill="#999999" stroke="black" stroke-linecap="round" stroke-linejoin="round"/>
<path d="M99.437 119.123C99.437 119.123 99.437 119.498 99.437 120.134C99.5154 123.454 99.8379 133.999 100.683 136.544C101.694 139.568 115.324 165.067 116.37 163.045C117.416 161.024 123.69 133.511 123.69 133.511V122.661C123.69 122.661 120.405 125.432 114.348 125.432C108.291 125.432 99.437 119.123 99.437 119.123Z" fill="#999999" stroke="black" stroke-linecap="round" stroke-linejoin="round"/>
<path d="M119.655 134.077C121.069 133.214 122.42 132.253 123.699 131.202V122.661C123.699 122.661 120.414 125.432 114.357 125.432C108.3 125.432 99.437 119.123 99.437 119.123C99.437 119.123 99.437 119.498 99.437 120.134C99.437 121.302 99.5242 123.367 99.6287 125.668C99.8678 126.051 100.136 126.415 100.431 126.757C102.173 128.77 110.522 133.825 112.544 134.33C114.566 134.836 117.381 135.332 119.655 134.077Z" fill="black" stroke="black" stroke-linecap="round" stroke-linejoin="round"/>
<path d="M129.756 104.482C129.756 104.482 133.791 102.207 133.791 106.504C133.791 110.8 130.009 115.846 130.009 115.846L129.756 104.482Z" fill="#999999" stroke="black" stroke-linecap="round" stroke-linejoin="round"/>
<path d="M93.6592 104.735C93.6592 104.735 88.0991 103.218 88.0991 108.273C88.0991 113.327 93.1537 116.595 93.1537 116.595H96.6396C96.6396 116.595 98.6615 121.65 100.431 123.663C102.2 125.676 110.522 130.731 112.544 131.236C114.566 131.742 117.337 132.247 119.612 130.984C122.47 129.202 125.103 127.084 127.455 124.674C128.466 123.419 130.235 114.835 130.235 114.835C130.235 114.835 130.741 99.4359 129.73 94.1373C128.719 88.8387 122.157 80.5073 113.067 79.4964C103.978 78.4855 95.3934 85.806 94.1385 91.61C92.8836 97.4141 93.6592 104.735 93.6592 104.735Z" fill="#999999" stroke="black" stroke-linecap="round" stroke-linejoin="round"/>
<path d="M110.06 108.778C110.06 108.778 108.317 112.308 111.324 113.319C114.331 114.33 118.139 114.077 118.897 112.561C119.655 111.044 118.392 109.284 118.392 109.284" stroke="black" stroke-linecap="round" stroke-linejoin="round"/>
<path d="M107.036 115.088C107.036 115.088 113.346 120.386 121.93 115.34" stroke="black" stroke-linecap="round" stroke-linejoin="round"/>
<path d="M110.566 119.881C110.566 119.881 115.873 122.914 119.403 119.375" stroke="black" stroke-linecap="round" stroke-linejoin="round"/>
<path d="M107.542 105.745C108.24 105.745 108.805 104.84 108.805 103.723C108.805 102.607 108.24 101.702 107.542 101.702C106.844 101.702 106.278 102.607 106.278 103.723C106.278 104.84 106.844 105.745 107.542 105.745Z" fill="black"/>
<path d="M121.172 103.471C121.172 104.586 120.605 105.493 119.908 105.493C119.211 105.493 118.645 104.621 118.645 103.471C118.645 102.321 119.211 101.458 119.908 101.458C120.605 101.458 121.172 102.355 121.172 103.471Z" fill="black"/>
<path d="M104.004 100.952C104.004 100.952 105.267 98.9305 110.104 99.6887" stroke="black" stroke-linecap="round" stroke-linejoin="round"/>
<path d="M117.886 99.9414C117.886 99.9414 120.161 96.4032 123.699 99.9414" stroke="black" stroke-linecap="round" stroke-linejoin="round"/>
<path d="M129.756 94.1198C129.428 92.6208 128.86 91.1847 128.074 89.8669C127.78 91.2642 127.677 92.6949 127.769 94.1198C128.135 95.9673 129.433 98.5469 129.433 99.8367C129.433 101.126 129.242 106.294 130.165 105.562C130.257 105.466 130.331 105.353 130.383 105.231C130.441 101.517 130.231 97.8037 129.756 94.1198Z" fill="black" stroke="black" stroke-linecap="round" stroke-linejoin="round"/>
<path d="M117.067 83.662C118.688 83.5761 120.301 83.3811 121.895 83.0781C119.32 81.1506 116.286 79.9307 113.093 79.5399C104.004 78.529 95.4194 85.8494 94.1645 91.6535C92.9096 97.4575 93.6591 104.778 93.6591 104.778C93.6591 104.778 95.6635 106.172 96.4042 104.7C97.145 103.227 96.4042 100.821 97.145 98.2419C97.8857 95.6623 98.9838 94.3638 99.1668 92.3332C99.3498 90.3027 98.06 87.3571 98.8008 85.6925C99.5416 84.028 104.152 80.8994 107.106 82.0062C110.285 83.2101 113.67 83.7728 117.067 83.662Z" fill="black" stroke="black" stroke-linecap="round" stroke-linejoin="round"/>
</svg>
