<svg width="236" height="313" viewBox="0 0 236 313" fill="none" xmlns="http://www.w3.org/2000/svg">
<g clip-path="url(#clip0_2548_7663)">
<path d="M229.345 299.068H234.661V197.958H229.345V299.068Z" fill="#263238"/>
<path d="M115.911 299.068H229.352V291.986H115.911V299.068Z" fill="#263238"/>
<path opacity="0.6" d="M169.297 285.334C163.805 285.334 159.355 280.998 159.355 275.646V197.352H179.245V275.646C179.245 280.998 174.796 285.334 169.304 285.334H169.297Z" fill="#EBEBEB"/>
<path d="M169.296 285.499C163.723 285.499 159.186 281.077 159.186 275.645V197.187H179.414V275.645C179.414 281.077 174.877 285.499 169.303 285.499H169.296ZM159.524 197.51V275.639C159.524 280.892 163.913 285.162 169.296 285.162C174.68 285.162 179.069 280.892 179.069 275.639V197.51H159.517H159.524Z" fill="#A6A6A6"/>
<path d="M161.299 211.086V275.678C161.299 279.988 164.881 283.479 169.304 283.479C173.726 283.479 177.308 279.988 177.308 275.678V211.086H161.306H161.299Z" fill="#37C8BF"/>
<path opacity="0.4" d="M175.432 276.906C174.965 276.906 174.586 276.536 174.586 276.081V203.094C174.586 202.638 174.965 202.269 175.432 202.269C175.9 202.269 176.279 202.638 176.279 203.094V276.081C176.279 276.536 175.9 276.906 175.432 276.906Z" fill="white"/>
<path opacity="0.4" d="M173.028 253.72C172.75 253.72 172.533 253.503 172.533 253.239V209.865C172.533 209.594 172.757 209.383 173.028 209.383C173.305 209.383 173.522 209.601 173.522 209.865V253.239C173.522 253.509 173.298 253.72 173.028 253.72Z" fill="white"/>
<path d="M181.52 181.789H157.079V200.038H181.52V181.789Z" fill="#37474F"/>
<path d="M158.691 182.746H157.898V199.081H158.691V182.746Z" fill="#263238"/>
<path d="M160.262 182.746H159.47V199.081H160.262V182.746Z" fill="#263238"/>
<path d="M161.833 182.746H161.041V199.081H161.833V182.746Z" fill="#263238"/>
<path d="M163.405 182.746H162.612V199.081H163.405V182.746Z" fill="#263238"/>
<path d="M164.975 182.746H164.183V199.081H164.975V182.746Z" fill="#263238"/>
<path d="M166.546 182.746H165.754V199.081H166.546V182.746Z" fill="#263238"/>
<path d="M168.118 182.746H167.325V199.081H168.118V182.746Z" fill="#263238"/>
<path d="M169.696 182.746H168.903V199.081H169.696V182.746Z" fill="#263238"/>
<path d="M171.267 182.746H170.475V199.081H171.267V182.746Z" fill="#263238"/>
<path d="M172.838 182.746H172.046V199.081H172.838V182.746Z" fill="#263238"/>
<path d="M174.409 182.746H173.616V199.081H174.409V182.746Z" fill="#263238"/>
<path d="M175.98 182.746H175.188V199.081H175.98V182.746Z" fill="#263238"/>
<path d="M177.551 182.746H176.759V199.081H177.551V182.746Z" fill="#263238"/>
<path d="M179.122 182.746H178.33V199.081H179.122V182.746Z" fill="#263238"/>
<path d="M180.694 182.746H179.901V199.081H180.694V182.746Z" fill="#263238"/>
<path d="M176.278 227.724H162.32V269.719H176.278V227.724Z" fill="white"/>
<path d="M166.952 227.724H162.32V269.719H166.952V227.724Z" fill="#455A64"/>
<path d="M165.333 258.843C165.442 258.843 165.537 258.863 165.625 258.909C165.706 258.948 165.78 259.008 165.835 259.087C165.889 259.16 165.936 259.252 165.963 259.351C165.99 259.45 166.004 259.556 166.004 259.668V260.895H163.403V259.536C163.403 259.45 163.424 259.371 163.464 259.298C163.505 259.226 163.552 259.166 163.613 259.113C163.674 259.061 163.749 259.028 163.823 258.995C163.904 258.968 163.986 258.955 164.06 258.955C164.189 258.955 164.304 258.988 164.419 259.047C164.528 259.107 164.616 259.199 164.67 259.318C164.71 259.173 164.792 259.061 164.907 258.975C165.022 258.889 165.164 258.849 165.333 258.849V258.843ZM163.837 260.394H164.494V259.734C164.494 259.648 164.467 259.582 164.406 259.523C164.345 259.463 164.263 259.437 164.162 259.437C164.06 259.437 163.986 259.463 163.925 259.516C163.864 259.569 163.837 259.635 163.837 259.714V260.394ZM165.239 259.338C165.191 259.338 165.151 259.344 165.103 259.364C165.062 259.377 165.022 259.397 164.988 259.424C164.954 259.45 164.934 259.483 164.914 259.516C164.893 259.549 164.886 259.589 164.886 259.635V260.394H165.57V259.661C165.57 259.615 165.564 259.575 165.543 259.536C165.53 259.496 165.503 259.463 165.469 259.437C165.435 259.41 165.401 259.384 165.36 259.371C165.32 259.351 165.272 259.344 165.232 259.344L165.239 259.338Z" fill="white"/>
<path d="M166.004 258.136H163.403V257.641H165.564V256.348H166.004V258.13V258.136Z" fill="white"/>
<path d="M166.018 254.81C166.018 254.995 165.977 255.166 165.903 255.318C165.828 255.47 165.727 255.602 165.605 255.708C165.483 255.813 165.341 255.899 165.185 255.958C165.029 256.018 164.867 256.051 164.698 256.051C164.528 256.051 164.359 256.018 164.196 255.958C164.041 255.892 163.898 255.807 163.777 255.694C163.655 255.582 163.56 255.45 163.485 255.298C163.411 255.147 163.377 254.982 163.377 254.804C163.377 254.625 163.418 254.454 163.492 254.302C163.567 254.15 163.668 254.025 163.797 253.913C163.919 253.807 164.061 253.721 164.223 253.662C164.379 253.602 164.542 253.569 164.704 253.569C164.88 253.569 165.043 253.602 165.199 253.662C165.354 253.721 165.497 253.807 165.619 253.919C165.74 254.031 165.835 254.157 165.91 254.309C165.984 254.46 166.018 254.625 166.018 254.804V254.81ZM164.698 255.543C164.813 255.543 164.921 255.523 165.023 255.49C165.131 255.457 165.219 255.411 165.3 255.345C165.382 255.279 165.442 255.206 165.497 255.114C165.544 255.021 165.571 254.916 165.571 254.804C165.571 254.691 165.544 254.579 165.497 254.487C165.449 254.394 165.382 254.315 165.3 254.256C165.219 254.19 165.124 254.144 165.023 254.111C164.921 254.078 164.813 254.064 164.704 254.064C164.596 254.064 164.481 254.084 164.379 254.117C164.271 254.15 164.183 254.203 164.102 254.262C164.02 254.328 163.959 254.401 163.912 254.493C163.865 254.586 163.837 254.685 163.837 254.804C163.837 254.922 163.865 255.028 163.912 255.12C163.959 255.213 164.027 255.292 164.108 255.351C164.19 255.411 164.284 255.463 164.386 255.49C164.488 255.523 164.596 255.536 164.704 255.536L164.698 255.543Z" fill="white"/>
<path d="M166.018 251.787C166.018 251.972 165.977 252.144 165.903 252.295C165.828 252.447 165.727 252.579 165.605 252.685C165.483 252.79 165.341 252.876 165.185 252.936C165.029 252.995 164.867 253.028 164.698 253.028C164.528 253.028 164.359 252.995 164.196 252.936C164.041 252.87 163.898 252.784 163.777 252.672C163.655 252.559 163.56 252.427 163.485 252.276C163.411 252.124 163.377 251.959 163.377 251.781C163.377 251.602 163.418 251.431 163.492 251.279C163.567 251.127 163.668 250.995 163.797 250.89C163.919 250.784 164.061 250.698 164.223 250.639C164.379 250.579 164.542 250.546 164.704 250.546C164.88 250.546 165.043 250.579 165.199 250.639C165.354 250.698 165.497 250.784 165.619 250.896C165.74 251.008 165.835 251.134 165.91 251.286C165.984 251.437 166.018 251.602 166.018 251.781V251.787ZM164.698 252.52C164.813 252.52 164.921 252.507 165.023 252.467C165.131 252.434 165.219 252.388 165.3 252.322C165.382 252.256 165.442 252.183 165.497 252.091C165.544 251.998 165.571 251.893 165.571 251.781C165.571 251.668 165.544 251.556 165.497 251.464C165.449 251.371 165.382 251.292 165.3 251.233C165.219 251.167 165.124 251.121 165.023 251.088C164.921 251.055 164.813 251.041 164.704 251.041C164.596 251.041 164.481 251.061 164.379 251.094C164.271 251.127 164.183 251.18 164.102 251.239C164.02 251.305 163.959 251.378 163.912 251.47C163.865 251.563 163.837 251.662 163.837 251.781C163.837 251.899 163.865 252.005 163.912 252.097C163.959 252.19 164.027 252.269 164.108 252.328C164.19 252.388 164.284 252.441 164.386 252.467C164.488 252.5 164.596 252.513 164.704 252.513L164.698 252.52Z" fill="white"/>
<path d="M166.004 249.853H163.403V248.93C163.403 248.725 163.437 248.54 163.505 248.388C163.573 248.23 163.667 248.105 163.783 247.999C163.898 247.893 164.04 247.814 164.196 247.761C164.351 247.709 164.521 247.682 164.697 247.682C164.893 247.682 165.076 247.709 165.232 247.768C165.394 247.827 165.53 247.913 165.645 248.019C165.76 248.131 165.848 248.263 165.909 248.415C165.97 248.567 166.004 248.738 166.004 248.93V249.853ZM164.697 248.177C164.575 248.177 164.46 248.197 164.351 248.23C164.243 248.263 164.155 248.309 164.081 248.375C164.006 248.441 163.945 248.52 163.904 248.613C163.864 248.705 163.844 248.811 163.844 248.93V249.358H165.557V248.93C165.557 248.811 165.537 248.698 165.489 248.606C165.449 248.514 165.388 248.435 165.306 248.369C165.232 248.303 165.137 248.256 165.035 248.223C164.927 248.19 164.819 248.171 164.697 248.171V248.177Z" fill="white"/>
<path d="M163.844 244V244.811H166.004V245.3H163.844V246.111H163.403V244H163.844Z" fill="white"/>
<path d="M165.557 241.604H165.997V243.366H163.396V241.637H163.837V242.871H164.466V241.802H164.88V242.871H165.557V241.604Z" fill="white"/>
<path d="M164.081 239.439C164.081 239.439 164.041 239.485 164.014 239.531C163.987 239.577 163.953 239.63 163.926 239.69C163.898 239.756 163.871 239.822 163.851 239.894C163.831 239.967 163.824 240.046 163.824 240.119C163.824 240.257 163.851 240.356 163.898 240.422C163.953 240.488 164.02 240.521 164.115 240.521C164.169 240.521 164.217 240.508 164.251 240.482C164.284 240.455 164.318 240.422 164.345 240.369C164.373 240.323 164.4 240.264 164.42 240.191C164.44 240.119 164.467 240.033 164.488 239.94C164.522 239.815 164.555 239.703 164.596 239.604C164.637 239.505 164.684 239.419 164.745 239.346C164.806 239.274 164.874 239.221 164.955 239.181C165.036 239.142 165.138 239.122 165.26 239.122C165.402 239.122 165.517 239.148 165.619 239.201C165.72 239.254 165.795 239.32 165.856 239.406C165.917 239.492 165.964 239.591 165.991 239.703C166.018 239.815 166.032 239.934 166.032 240.059C166.032 240.251 166.005 240.435 165.944 240.627C165.883 240.812 165.801 240.977 165.693 241.128L165.26 240.911C165.26 240.911 165.307 240.851 165.348 240.792C165.382 240.739 165.415 240.673 165.456 240.594C165.49 240.515 165.524 240.435 165.544 240.343C165.571 240.251 165.578 240.158 165.578 240.059C165.578 239.789 165.49 239.65 165.307 239.65C165.253 239.65 165.206 239.663 165.165 239.696C165.124 239.729 165.09 239.769 165.063 239.828C165.036 239.888 165.009 239.954 164.982 240.033C164.955 240.112 164.928 240.204 164.901 240.303C164.867 240.422 164.826 240.528 164.792 240.62C164.752 240.713 164.704 240.785 164.65 240.845C164.596 240.904 164.535 240.95 164.461 240.977C164.386 241.003 164.305 241.023 164.203 241.023C164.075 241.023 163.953 240.996 163.851 240.95C163.749 240.904 163.661 240.838 163.594 240.752C163.526 240.666 163.472 240.567 163.438 240.455C163.404 240.343 163.384 240.224 163.384 240.092C163.384 239.914 163.411 239.749 163.472 239.597C163.526 239.445 163.594 239.313 163.675 239.208L164.088 239.426L164.081 239.439Z" fill="white"/>
<path d="M163.842 236.562V237.373H166.002V237.862H163.842V238.673H163.401V236.562H163.842Z" fill="white"/>
<path d="M175.235 267.765H167.995V268.188H175.235V267.765Z" fill="#263238"/>
<path d="M175.235 266.954H167.995V267.376H175.235V266.954Z" fill="#263238"/>
<path d="M175.235 264.531H167.995V264.954H175.235V264.531Z" fill="#263238"/>
<path d="M175.235 261.304H167.995V261.727H175.235V261.304Z" fill="#263238"/>
<path d="M175.235 259.898H167.995V260.321H175.235V259.898Z" fill="#263238"/>
<path d="M175.235 258.07H167.995V258.493H175.235V258.07Z" fill="#263238"/>
<path d="M175.235 256.493H167.995V256.915H175.235V256.493Z" fill="#263238"/>
<path d="M175.235 253.384H167.995V253.807H175.235V253.384Z" fill="#263238"/>
<path d="M175.235 252.54H167.995V252.962H175.235V252.54Z" fill="#263238"/>
<path d="M175.235 249.424H167.995V249.847H175.235V249.424Z" fill="#263238"/>
<path d="M175.235 248.263H167.995V248.982H175.235V248.263Z" fill="#263238"/>
<path d="M175.235 250.362H167.995V251.081H175.235V250.362Z" fill="#263238"/>
<path d="M175.235 255.18H167.995V255.899H175.235V255.18Z" fill="#263238"/>
<path d="M175.235 263.324H167.995V264.043H175.235V263.324Z" fill="#263238"/>
<path d="M175.235 262.254H167.995V262.974H175.235V262.254Z" fill="#263238"/>
<path d="M175.235 258.862H167.995V259.582H175.235V258.862Z" fill="#263238"/>
<path d="M175.235 247.768H167.995V247.98H175.235V247.768Z" fill="#263238"/>
<path d="M175.235 251.378H167.995V251.59H175.235V251.378Z" fill="#263238"/>
<path d="M175.235 251.992H167.995V252.204H175.235V251.992Z" fill="#263238"/>
<path d="M175.235 254.354H167.995V254.566H175.235V254.354Z" fill="#263238"/>
<path d="M175.235 257.391H167.995V257.603H175.235V257.391Z" fill="#263238"/>
<path d="M175.235 260.704H167.995V260.916H175.235V260.704Z" fill="#263238"/>
<path d="M175.235 265.33H167.995V265.542H175.235V265.33Z" fill="#263238"/>
<path d="M175.235 265.852H167.995V266.064H175.235V265.852Z" fill="#263238"/>
<path d="M175.235 266.373H167.995V266.585H175.235V266.373Z" fill="#263238"/>
<path d="M175.235 246.765H167.995V247.187H175.235V246.765Z" fill="#263238"/>
<path d="M174.178 245.339H169.051C168.523 245.339 168.09 244.917 168.09 244.402V230.397C168.09 229.882 168.523 229.46 169.051 229.46H174.178C174.706 229.46 175.14 229.882 175.14 230.397V244.402C175.14 244.917 174.706 245.339 174.178 245.339ZM169.051 229.717C168.665 229.717 168.354 230.021 168.354 230.397V244.402C168.354 244.778 168.665 245.082 169.051 245.082H174.178C174.564 245.082 174.876 244.778 174.876 244.402V230.397C174.876 230.021 174.564 229.717 174.178 229.717H169.051Z" fill="#263238"/>
<path d="M174.903 237.274H168.32V237.532H174.903V237.274Z" fill="#263238"/>
<path d="M169.689 230.271H169.424V231.783H169.689V230.271Z" fill="#263238"/>
<path d="M170.331 230.898H168.78V231.157H170.331V230.898Z" fill="#263238"/>
<path d="M170.331 238.363H168.78V238.622H170.331V238.363Z" fill="#263238"/>
<path opacity="0.6" d="M200.868 285.334C195.376 285.334 190.927 280.998 190.927 275.646V197.352H210.817V275.646C210.817 280.998 206.367 285.334 200.875 285.334H200.868Z" fill="#EBEBEB"/>
<path d="M200.868 285.499C195.294 285.499 190.757 281.077 190.757 275.645V197.187H210.985V275.645C210.985 281.077 206.448 285.499 200.874 285.499H200.868ZM191.095 197.51V275.639C191.095 280.892 195.477 285.162 200.868 285.162C206.258 285.162 210.64 280.892 210.64 275.639V197.51H191.089H191.095Z" fill="#A6A6A6"/>
<path d="M192.87 211.086V275.678C192.87 279.988 196.453 283.479 200.875 283.479C205.297 283.479 208.88 279.988 208.88 275.678V211.086H192.877H192.87Z" fill="#37C8BF"/>
<path opacity="0.4" d="M207.004 276.906C206.536 276.906 206.157 276.536 206.157 276.081V203.094C206.157 202.638 206.536 202.269 207.004 202.269C207.471 202.269 207.85 202.638 207.85 203.094V276.081C207.85 276.536 207.471 276.906 207.004 276.906Z" fill="white"/>
<path opacity="0.4" d="M204.599 253.72C204.321 253.72 204.104 253.503 204.104 253.239V209.865C204.104 209.594 204.328 209.383 204.599 209.383C204.877 209.383 205.093 209.601 205.093 209.865V253.239C205.093 253.509 204.87 253.72 204.599 253.72Z" fill="white"/>
<path d="M213.091 181.789H188.65V200.038H213.091V181.789Z" fill="#37474F"/>
<path d="M190.262 182.746H189.47V199.081H190.262V182.746Z" fill="#263238"/>
<path d="M191.833 182.746H191.041V199.081H191.833V182.746Z" fill="#263238"/>
<path d="M193.405 182.746H192.612V199.081H193.405V182.746Z" fill="#263238"/>
<path d="M194.976 182.746H194.184V199.081H194.976V182.746Z" fill="#263238"/>
<path d="M196.546 182.746H195.754V199.081H196.546V182.746Z" fill="#263238"/>
<path d="M198.118 182.746H197.325V199.081H198.118V182.746Z" fill="#263238"/>
<path d="M199.696 182.746H198.903V199.081H199.696V182.746Z" fill="#263238"/>
<path d="M201.267 182.746H200.475V199.081H201.267V182.746Z" fill="#263238"/>
<path d="M202.838 182.746H202.046V199.081H202.838V182.746Z" fill="#263238"/>
<path d="M204.41 182.746H203.617V199.081H204.41V182.746Z" fill="#263238"/>
<path d="M205.98 182.746H205.188V199.081H205.98V182.746Z" fill="#263238"/>
<path d="M207.551 182.746H206.759V199.081H207.551V182.746Z" fill="#263238"/>
<path d="M209.122 182.746H208.33V199.081H209.122V182.746Z" fill="#263238"/>
<path d="M210.694 182.746H209.901V199.081H210.694V182.746Z" fill="#263238"/>
<path d="M212.265 182.746H211.473V199.081H212.265V182.746Z" fill="#263238"/>
<path d="M207.849 227.724H193.892V269.719H207.849V227.724Z" fill="white"/>
<path d="M198.524 227.724H193.892V269.719H198.524V227.724Z" fill="#455A64"/>
<path d="M196.905 258.843C197.013 258.843 197.108 258.863 197.196 258.909C197.277 258.948 197.352 259.008 197.406 259.087C197.46 259.16 197.507 259.252 197.534 259.351C197.562 259.45 197.575 259.556 197.575 259.668V260.895H194.975V259.536C194.975 259.45 194.995 259.371 195.036 259.298C195.076 259.226 195.124 259.166 195.185 259.113C195.245 259.061 195.32 259.028 195.394 258.995C195.476 258.968 195.557 258.955 195.632 258.955C195.76 258.955 195.875 258.988 195.99 259.047C196.099 259.107 196.187 259.199 196.241 259.318C196.282 259.173 196.363 259.061 196.478 258.975C196.593 258.889 196.735 258.849 196.905 258.849V258.843ZM195.408 260.394H196.065V259.734C196.065 259.648 196.038 259.582 195.977 259.523C195.916 259.463 195.835 259.437 195.733 259.437C195.632 259.437 195.557 259.463 195.496 259.516C195.435 259.569 195.408 259.635 195.408 259.714V260.394ZM196.81 259.338C196.762 259.338 196.722 259.344 196.674 259.364C196.634 259.377 196.593 259.397 196.559 259.424C196.525 259.45 196.505 259.483 196.485 259.516C196.464 259.549 196.458 259.589 196.458 259.635V260.394H197.142V259.661C197.142 259.615 197.135 259.575 197.115 259.536C197.101 259.496 197.074 259.463 197.04 259.437C197.006 259.41 196.972 259.384 196.932 259.371C196.891 259.351 196.844 259.344 196.803 259.344L196.81 259.338Z" fill="white"/>
<path d="M197.575 258.136H194.975V257.641H197.135V256.348H197.575V258.13V258.136Z" fill="white"/>
<path d="M197.589 254.81C197.589 254.995 197.556 255.166 197.474 255.318C197.4 255.47 197.298 255.602 197.176 255.708C197.054 255.813 196.912 255.899 196.756 255.958C196.601 256.018 196.438 256.051 196.269 256.051C196.1 256.051 195.93 256.018 195.768 255.958C195.612 255.892 195.47 255.807 195.348 255.694C195.226 255.582 195.131 255.45 195.057 255.298C194.982 255.147 194.948 254.982 194.948 254.804C194.948 254.625 194.989 254.454 195.063 254.302C195.138 254.15 195.239 254.025 195.368 253.913C195.49 253.807 195.632 253.721 195.795 253.662C195.951 253.602 196.113 253.569 196.276 253.569C196.452 253.569 196.614 253.602 196.77 253.662C196.926 253.721 197.068 253.807 197.19 253.919C197.312 254.031 197.407 254.157 197.481 254.309C197.556 254.46 197.589 254.625 197.589 254.804V254.81ZM196.269 255.543C196.384 255.543 196.492 255.523 196.594 255.49C196.702 255.457 196.79 255.411 196.872 255.345C196.953 255.279 197.014 255.206 197.068 255.114C197.115 255.021 197.142 254.916 197.142 254.804C197.142 254.691 197.115 254.579 197.068 254.487C197.021 254.394 196.953 254.315 196.872 254.256C196.79 254.19 196.695 254.144 196.594 254.111C196.492 254.078 196.384 254.064 196.276 254.064C196.167 254.064 196.052 254.084 195.951 254.117C195.842 254.15 195.754 254.203 195.673 254.262C195.592 254.328 195.531 254.401 195.483 254.493C195.436 254.586 195.409 254.685 195.409 254.804C195.409 254.922 195.436 255.028 195.483 255.12C195.531 255.213 195.598 255.292 195.68 255.351C195.761 255.411 195.856 255.463 195.957 255.49C196.059 255.523 196.167 255.536 196.276 255.536L196.269 255.543Z" fill="white"/>
<path d="M197.589 251.787C197.589 251.972 197.556 252.144 197.474 252.295C197.4 252.447 197.298 252.579 197.176 252.685C197.054 252.79 196.912 252.876 196.756 252.936C196.601 252.995 196.438 253.028 196.269 253.028C196.1 253.028 195.93 252.995 195.768 252.936C195.612 252.87 195.47 252.784 195.348 252.672C195.226 252.559 195.131 252.427 195.057 252.276C194.982 252.124 194.948 251.959 194.948 251.781C194.948 251.602 194.989 251.431 195.063 251.279C195.138 251.127 195.239 250.995 195.368 250.89C195.49 250.784 195.632 250.698 195.795 250.639C195.951 250.579 196.113 250.546 196.276 250.546C196.452 250.546 196.614 250.579 196.77 250.639C196.926 250.698 197.068 250.784 197.19 250.896C197.312 251.008 197.407 251.134 197.481 251.286C197.556 251.437 197.589 251.602 197.589 251.781V251.787ZM196.269 252.52C196.384 252.52 196.492 252.507 196.594 252.467C196.702 252.434 196.79 252.388 196.872 252.322C196.953 252.256 197.014 252.183 197.068 252.091C197.115 251.998 197.142 251.893 197.142 251.781C197.142 251.668 197.115 251.556 197.068 251.464C197.021 251.371 196.953 251.292 196.872 251.233C196.79 251.167 196.695 251.121 196.594 251.088C196.492 251.055 196.384 251.041 196.276 251.041C196.167 251.041 196.052 251.061 195.951 251.094C195.842 251.127 195.754 251.18 195.673 251.239C195.592 251.305 195.531 251.378 195.483 251.47C195.436 251.563 195.409 251.662 195.409 251.781C195.409 251.899 195.436 252.005 195.483 252.097C195.531 252.19 195.598 252.269 195.68 252.328C195.761 252.388 195.856 252.441 195.957 252.467C196.059 252.5 196.167 252.513 196.276 252.513L196.269 252.52Z" fill="white"/>
<path d="M197.575 249.853H194.975V248.93C194.975 248.725 195.008 248.54 195.076 248.388C195.144 248.23 195.239 248.105 195.354 247.999C195.469 247.893 195.611 247.814 195.767 247.761C195.923 247.709 196.092 247.682 196.268 247.682C196.464 247.682 196.647 247.709 196.803 247.768C196.966 247.827 197.101 247.913 197.216 248.019C197.331 248.131 197.419 248.263 197.48 248.415C197.541 248.567 197.575 248.738 197.575 248.93V249.853ZM196.268 248.177C196.146 248.177 196.031 248.197 195.923 248.23C195.814 248.263 195.726 248.309 195.652 248.375C195.577 248.441 195.516 248.52 195.476 248.613C195.435 248.705 195.415 248.811 195.415 248.93V249.358H197.128V248.93C197.128 248.811 197.108 248.698 197.06 248.606C197.02 248.514 196.959 248.435 196.878 248.369C196.803 248.303 196.708 248.256 196.607 248.223C196.498 248.19 196.39 248.171 196.268 248.171V248.177Z" fill="white"/>
<path d="M195.415 244V244.811H197.575V245.3H195.415V246.111H194.975V244H195.415Z" fill="white"/>
<path d="M197.128 241.604H197.568V243.366H194.968V241.637H195.408V242.871H196.038V241.802H196.451V242.871H197.128V241.604Z" fill="white"/>
<path d="M195.652 239.439C195.652 239.439 195.611 239.485 195.584 239.531C195.557 239.577 195.523 239.63 195.496 239.69C195.469 239.756 195.442 239.822 195.421 239.894C195.401 239.967 195.394 240.046 195.394 240.119C195.394 240.257 195.421 240.356 195.469 240.422C195.523 240.488 195.591 240.521 195.686 240.521C195.74 240.521 195.787 240.508 195.821 240.482C195.855 240.455 195.889 240.422 195.916 240.369C195.943 240.323 195.97 240.264 195.99 240.191C196.011 240.119 196.038 240.033 196.058 239.94C196.092 239.815 196.133 239.703 196.166 239.604C196.207 239.505 196.254 239.419 196.315 239.346C196.376 239.274 196.444 239.221 196.525 239.181C196.607 239.142 196.708 239.122 196.83 239.122C196.972 239.122 197.087 239.148 197.189 239.201C197.291 239.254 197.365 239.32 197.426 239.406C197.487 239.492 197.534 239.591 197.561 239.703C197.589 239.815 197.602 239.934 197.602 240.059C197.602 240.251 197.575 240.435 197.514 240.627C197.453 240.812 197.372 240.977 197.263 241.128L196.83 240.911C196.83 240.911 196.877 240.851 196.918 240.792C196.952 240.739 196.986 240.673 197.026 240.594C197.06 240.515 197.094 240.435 197.115 240.343C197.142 240.251 197.148 240.158 197.148 240.059C197.148 239.789 197.06 239.65 196.884 239.65C196.83 239.65 196.783 239.663 196.742 239.696C196.701 239.729 196.668 239.769 196.64 239.828C196.613 239.888 196.586 239.954 196.559 240.033C196.532 240.112 196.505 240.204 196.478 240.303C196.444 240.422 196.403 240.528 196.37 240.62C196.329 240.713 196.282 240.785 196.227 240.845C196.173 240.904 196.105 240.95 196.038 240.977C195.963 241.003 195.882 241.023 195.78 241.023C195.652 241.023 195.53 240.996 195.428 240.95C195.327 240.904 195.239 240.838 195.171 240.752C195.103 240.666 195.049 240.567 195.015 240.455C194.981 240.343 194.961 240.224 194.961 240.092C194.961 239.914 194.988 239.749 195.049 239.597C195.103 239.445 195.171 239.313 195.252 239.208L195.665 239.426L195.652 239.439Z" fill="white"/>
<path d="M195.413 236.562V237.373H197.573V237.862H195.413V238.673H194.973V236.562H195.413Z" fill="white"/>
<path d="M206.806 267.765H199.566V268.188H206.806V267.765Z" fill="#263238"/>
<path d="M206.806 266.954H199.566V267.376H206.806V266.954Z" fill="#263238"/>
<path d="M206.806 264.531H199.566V264.954H206.806V264.531Z" fill="#263238"/>
<path d="M206.806 261.304H199.566V261.727H206.806V261.304Z" fill="#263238"/>
<path d="M206.806 259.898H199.566V260.321H206.806V259.898Z" fill="#263238"/>
<path d="M206.806 258.07H199.566V258.493H206.806V258.07Z" fill="#263238"/>
<path d="M206.806 256.493H199.566V256.915H206.806V256.493Z" fill="#263238"/>
<path d="M206.806 253.384H199.566V253.807H206.806V253.384Z" fill="#263238"/>
<path d="M206.806 252.54H199.566V252.962H206.806V252.54Z" fill="#263238"/>
<path d="M206.806 249.424H199.566V249.847H206.806V249.424Z" fill="#263238"/>
<path d="M206.806 248.263H199.566V248.982H206.806V248.263Z" fill="#263238"/>
<path d="M206.806 250.362H199.566V251.081H206.806V250.362Z" fill="#263238"/>
<path d="M206.806 255.18H199.566V255.899H206.806V255.18Z" fill="#263238"/>
<path d="M206.806 263.324H199.566V264.043H206.806V263.324Z" fill="#263238"/>
<path d="M206.806 262.254H199.566V262.974H206.806V262.254Z" fill="#263238"/>
<path d="M206.806 258.862H199.566V259.582H206.806V258.862Z" fill="#263238"/>
<path d="M206.806 247.768H199.566V247.98H206.806V247.768Z" fill="#263238"/>
<path d="M206.806 251.378H199.566V251.59H206.806V251.378Z" fill="#263238"/>
<path d="M206.806 251.992H199.566V252.204H206.806V251.992Z" fill="#263238"/>
<path d="M206.806 254.354H199.566V254.566H206.806V254.354Z" fill="#263238"/>
<path d="M206.806 257.391H199.566V257.603H206.806V257.391Z" fill="#263238"/>
<path d="M206.806 260.704H199.566V260.916H206.806V260.704Z" fill="#263238"/>
<path d="M206.806 265.33H199.566V265.542H206.806V265.33Z" fill="#263238"/>
<path d="M206.806 265.852H199.566V266.064H206.806V265.852Z" fill="#263238"/>
<path d="M206.806 266.373H199.566V266.585H206.806V266.373Z" fill="#263238"/>
<path d="M206.806 246.765H199.566V247.187H206.806V246.765Z" fill="#263238"/>
<path d="M205.749 245.339H200.623C200.095 245.339 199.661 244.917 199.661 244.402V230.397C199.661 229.882 200.095 229.46 200.623 229.46H205.749C206.278 229.46 206.711 229.882 206.711 230.397V244.402C206.711 244.917 206.278 245.339 205.749 245.339ZM200.623 229.717C200.237 229.717 199.925 230.021 199.925 230.397V244.402C199.925 244.778 200.237 245.082 200.623 245.082H205.749C206.135 245.082 206.447 244.778 206.447 244.402V230.397C206.447 230.021 206.135 229.717 205.749 229.717H200.623Z" fill="#263238"/>
<path d="M206.474 237.274H199.892V237.532H206.474V237.274Z" fill="#263238"/>
<path d="M201.267 230.271H201.002V231.783H201.267V230.271Z" fill="#263238"/>
<path d="M201.909 230.898H200.358V231.157H201.909V230.898Z" fill="#263238"/>
<path d="M201.909 238.363H200.358V238.622H201.909V238.363Z" fill="#263238"/>
<path d="M116.226 245.174H229.342V235.716H210.929V238.884C210.929 240.448 206.405 241.716 200.831 241.716C195.258 241.716 190.747 240.455 190.747 238.884V235.716H179.357V238.884C179.357 240.448 174.846 241.716 169.273 241.716C168.21 241.716 167.167 241.663 166.198 241.57C162.121 241.214 159.176 240.151 159.176 238.884V235.716H147.785V238.884C147.785 240.448 143.261 241.716 137.687 241.716C133.164 241.716 129.358 240.884 128.064 239.729C127.969 239.65 127.875 239.544 127.807 239.452C127.671 239.267 127.604 239.082 127.604 238.884V235.716H116.213L116.233 245.174H116.226Z" fill="#455A64"/>
<path d="M116.209 248.976H229.345V245.167H116.209V248.976Z" fill="#263238"/>
<path d="M110.913 299.068H116.229L116.229 197.958H110.913L110.913 299.068Z" fill="#263238"/>
<path opacity="0.5" d="M228.43 161.422V34.171C228.43 29.1354 224.238 25.0303 219.05 25.0303H126.509C121.341 25.0303 117.149 29.1354 117.149 34.171V161.422C117.149 166.458 121.341 170.563 126.509 170.563H163.823C163.823 175.374 167.853 179.282 172.79 179.282C177.727 179.282 181.763 175.374 181.763 170.563H219.05C224.238 170.563 228.43 166.458 228.43 161.422ZM169.011 170.543C169.011 168.524 170.697 166.881 172.79 166.881C174.882 166.881 176.568 168.524 176.568 170.543C176.568 172.563 174.862 174.226 172.79 174.226C170.717 174.226 169.011 172.583 169.011 170.543Z" fill="#EBEBEB"/>
<path opacity="0.7" d="M228.43 161.422V34.171C228.43 29.1354 224.238 25.0303 219.05 25.0303H126.509C121.341 25.0303 117.149 29.1354 117.149 34.171V161.422C117.149 166.458 121.341 170.563 126.509 170.563H163.823C163.823 175.374 167.853 179.282 172.79 179.282C177.727 179.282 181.763 175.374 181.763 170.563H219.05C224.238 170.563 228.43 166.458 228.43 161.422ZM169.011 170.543C169.011 168.524 170.697 166.881 172.79 166.881C174.882 166.881 176.568 168.524 176.568 170.543C176.568 172.563 174.862 174.226 172.79 174.226C170.717 174.226 169.011 172.583 169.011 170.543ZM217.913 148.625C217.913 150.711 216.159 152.42 214.019 152.42H131.561C129.4 152.42 127.667 150.711 127.667 148.625V40.1637C127.667 38.0781 129.394 36.3688 131.561 36.3688H214.019C216.159 36.3688 217.913 38.0781 217.913 40.1637V148.619V148.625Z" fill="#DBDBDB"/>
<path d="M130.91 152.414H214.668C216.46 152.414 217.912 150.998 217.912 149.252V39.5301C217.912 37.7841 216.46 36.3687 214.668 36.3687L130.91 36.3687C129.118 36.3687 127.666 37.7841 127.666 39.5301L127.666 149.252C127.666 150.998 129.118 152.414 130.91 152.414Z" fill="#37C8BF"/>
<path opacity="0.5" d="M146.29 25.0303H137.046C131.859 25.0303 127.667 29.1354 127.667 34.171V161.422C127.667 166.458 131.859 170.563 137.046 170.563H146.29C141.103 170.563 136.911 166.458 136.911 161.422V34.171C136.911 29.1354 141.103 25.0303 146.29 25.0303Z" fill="white"/>
<path d="M148.07 10.8472H143.52V36.3687H148.07V10.8472Z" fill="#37C8BF"/>
<path opacity="0.7" d="M151.158 10.8472H148.07V25.0302H151.158V10.8472Z" fill="#DBDBDB"/>
<path opacity="0.7" d="M143.527 10.8472H140.438V25.0302H143.527V10.8472Z" fill="#DBDBDB"/>
<path d="M202.059 10.8472H197.508V36.3687H202.059V10.8472Z" fill="#37C8BF"/>
<path opacity="0.7" d="M205.147 10.8472H202.059V25.0302H205.147V10.8472Z" fill="#DBDBDB"/>
<path opacity="0.7" d="M197.508 10.8472H194.42V25.0302H197.508V10.8472Z" fill="#DBDBDB"/>
<path d="M175.065 8.16748H170.514V36.3686H175.065V8.16748Z" fill="#37C8BF"/>
<path opacity="0.7" d="M178.153 8.16748H175.064V25.03H178.153V8.16748Z" fill="#DBDBDB"/>
<path opacity="0.7" d="M170.514 8.16748H167.426V25.03H170.514V8.16748Z" fill="#DBDBDB"/>
<path d="M153.008 7.6792H138.59V10.8471H153.008V7.6792Z" fill="#DBDBDB"/>
<path d="M206.989 7.6792H192.571V10.8471H206.989V7.6792Z" fill="#DBDBDB"/>
<path d="M180.002 4.99951H165.584V8.16743H180.002V4.99951Z" fill="#DBDBDB"/>
<path opacity="0.1" d="M140.438 10.8472V12.1803L151.159 11.5137V10.8472H140.438Z" fill="black"/>
<path opacity="0.1" d="M194.42 10.8472V12.1803L205.14 11.5137V10.8472H194.42Z" fill="black"/>
<path opacity="0.1" d="M167.426 8.16748V9.50724L178.153 8.84066V8.16748H167.426Z" fill="black"/>
<path d="M175.065 -12.5757H170.514V4.99967H175.065V-12.5757Z" fill="#DBDBDB"/>
<path d="M202.994 77.3604H142.586V143.22H202.994V77.3604Z" fill="white"/>
<path d="M158.196 122.807H154.735V136.27H158.196V122.807Z" fill="#37C8BF"/>
<path d="M149.562 127.849V131.221H163.377V127.849H149.562Z" fill="#37C8BF"/>
<path d="M195.937 85.6235H149.649V87.2075H195.937V85.6235Z" fill="#DBDBDB"/>
<path d="M195.937 91.0747H149.649V92.6587H195.937V91.0747Z" fill="#DBDBDB"/>
<path d="M195.937 96.5264H149.649V98.1103H195.937V96.5264Z" fill="#DBDBDB"/>
<path d="M195.937 101.978H149.649V103.561H195.937V101.978Z" fill="#DBDBDB"/>
<path d="M195.937 107.429H149.649V109.013H195.937V107.429Z" fill="#DBDBDB"/>
<path d="M195.937 112.881H149.649V114.465H195.937V112.881Z" fill="#DBDBDB"/>
<path d="M195.937 123.784H168.686V125.368H195.937V123.784Z" fill="#DBDBDB"/>
<path d="M195.937 129.235H168.686V130.819H195.937V129.235Z" fill="#DBDBDB"/>
<path d="M195.937 134.687H168.686V136.27H195.937V134.687Z" fill="#DBDBDB"/>
<path opacity="0.1" d="M217.913 161.422V34.171C217.913 29.1354 213.721 25.0303 208.533 25.0303H192.063C197.251 25.0303 201.443 29.1354 201.443 34.171V161.422C201.443 166.458 197.251 170.563 192.063 170.563H208.533C213.721 170.563 217.913 166.458 217.913 161.422Z" fill="black"/>
<path d="M136.221 298.957C134.636 299.452 89.5133 298.884 87.8134 297.795C87.1565 297.392 86.8586 290.977 86.7299 283.223C86.7299 283.143 86.7299 283.058 86.7299 282.978C86.696 281.381 86.6757 279.731 86.6757 278.062C86.6757 277.831 86.6757 277.6 86.6689 277.375L86.7841 254.56L116.968 254.857L116.06 277.454L116.026 278.352L115.843 283.031L115.823 283.513C115.823 283.513 132.997 291.261 134.738 292.647C136.465 294.027 137.799 298.462 136.221 298.957Z" fill="#F7A9A0"/>
<path d="M136.221 298.956C134.636 299.451 89.5133 298.884 87.8134 297.795C87.1565 297.392 86.8586 290.977 86.7299 283.222C86.7299 283.143 86.7299 283.057 86.7299 282.978C86.696 281.381 86.6757 279.731 86.6757 278.061C86.6757 277.83 86.6757 277.599 86.6689 277.375L116.067 277.454L116.033 278.352L115.85 283.031L115.83 283.513C115.83 283.513 133.004 291.261 134.745 292.647C136.472 294.026 137.806 298.461 136.228 298.956H136.221Z" fill="#EBEBEB"/>
<path d="M136.22 298.955C135.408 299.212 123.143 299.186 111.163 298.948C108.753 298.902 106.362 298.849 104.073 298.79C95.5265 298.559 88.4631 298.216 87.8062 297.8C87.1561 297.404 86.8581 291.167 86.7294 283.551C86.7294 283.445 86.7227 283.333 86.7227 283.227C86.7227 283.148 86.7227 283.062 86.7227 282.977H86.7565L115.836 283.029L115.823 283.511C115.823 283.511 132.997 291.253 134.737 292.639C136.471 294.025 137.805 298.46 136.22 298.948V298.955Z" fill="#37C8BF"/>
<path opacity="0.4" d="M136.22 298.955C135.408 299.212 123.143 299.186 111.163 298.948C108.753 298.902 106.362 298.849 104.073 298.79C95.5265 298.559 88.4631 298.216 87.8062 297.8C87.1561 297.404 86.8581 291.167 86.7294 283.551C86.7294 283.445 86.7227 283.333 86.7227 283.227C86.7227 283.148 86.7227 283.062 86.7227 282.977H86.7565L115.836 283.029L115.823 283.511C115.823 283.511 132.997 291.253 134.737 292.639C136.471 294.025 137.805 298.46 136.22 298.948V298.955Z" fill="black"/>
<path d="M135.733 297.247C128.128 296.97 97.4298 296.548 89.8924 296.838C89.8314 296.838 89.8314 296.884 89.8924 296.884C97.423 297.32 128.121 297.498 135.733 297.373C135.896 297.373 135.896 297.254 135.733 297.254V297.247Z" fill="#263238"/>
<path d="M119.081 283.156C116.094 282.576 112.431 282.978 110.114 285.024C110.026 285.103 110.142 285.229 110.236 285.196C113.203 284.325 115.966 283.777 119.06 283.519C119.277 283.5 119.291 283.196 119.074 283.15L119.081 283.156Z" fill="#263238"/>
<path d="M121.22 284.45C118.234 283.869 114.57 284.272 112.254 286.318C112.166 286.397 112.281 286.522 112.376 286.489C115.342 285.618 118.105 285.07 121.2 284.813C121.417 284.793 121.43 284.49 121.214 284.443L121.22 284.45Z" fill="#263238"/>
<path d="M123.367 285.75C120.38 285.169 116.717 285.572 114.401 287.618C114.313 287.697 114.428 287.823 114.522 287.79C117.489 286.918 120.252 286.371 123.347 286.113C123.563 286.093 123.577 285.783 123.36 285.744L123.367 285.75Z" fill="#263238"/>
<path d="M117.821 283.13H86.0119C86.0119 283.13 84.7997 239.657 86.9194 221.752C87.1158 220.075 78.5625 143.959 78.5625 143.959H106.613C106.613 143.959 110.304 159.971 110.527 161.753C113.168 182.535 116.135 211.944 116.805 219.943C117.753 231.315 117.828 283.13 117.828 283.13H117.821Z" fill="#263238"/>
<path d="M114.591 276.451C110.04 276.352 111.347 276.313 106.803 276.266C104.575 276.247 89.9466 276.108 87.8676 276.471C87.8202 276.478 87.8202 276.563 87.8676 276.57C89.9466 276.94 104.575 276.801 106.803 276.775C111.353 276.728 110.046 276.689 114.591 276.59C114.679 276.59 114.679 276.451 114.591 276.451Z" fill="#37474F"/>
<path d="M85.2471 178.622C87.299 192.006 89.3578 206.526 91.2337 219.976L91.6468 222.933C91.7348 224.009 91.579 224.972 91.5113 225.969C90.4007 237.835 90.5632 249.794 90.9018 261.7C91.0102 265.673 91.1727 269.646 91.3353 273.626C90.1704 257.76 89.412 241.789 90.8544 225.916C90.9289 224.933 91.0779 223.916 91.0102 223.005L90.6106 220.049C88.7957 206.578 86.8724 192.072 85.2471 178.622Z" fill="#37474F"/>
<path opacity="0.2" d="M78.5625 143.959C78.5625 143.959 84.4204 193.584 86.2015 215.389L96.6239 143.959H78.5625Z" fill="black"/>
<path d="M21.2402 298.957C22.8248 299.452 67.9478 298.884 69.6476 297.795C70.3045 297.392 70.6025 290.977 70.7312 283.223C70.7312 283.143 70.7312 283.058 70.7312 282.978C70.7651 281.381 70.7854 279.731 70.7854 278.062C70.7854 277.831 70.7854 277.6 70.7921 277.375L75.4175 254.56L45.234 254.857L41.4009 277.454L41.4348 278.352L41.6176 283.031L41.6379 283.513C41.6379 283.513 24.4637 291.261 22.7233 292.647C20.9964 294.027 19.6622 298.462 21.2402 298.957Z" fill="#F7A9A0"/>
<path d="M21.2411 298.956C22.8258 299.451 67.9488 298.884 69.6486 297.795C70.3055 297.392 70.6035 290.977 70.7321 283.222C70.7321 283.143 70.7321 283.057 70.7321 282.978C70.766 281.381 70.7863 279.731 70.7863 278.061C70.7863 277.83 70.7863 277.599 70.7931 277.375L41.3951 277.454L41.4289 278.352L41.6118 283.031L41.6321 283.513C41.6321 283.513 24.4579 291.261 22.7174 292.647C20.9905 294.026 19.6564 298.461 21.2343 298.956H21.2411Z" fill="#EBEBEB"/>
<path d="M21.2357 298.955C22.0483 299.212 34.3127 299.186 46.2927 298.948C48.7036 298.902 51.0942 298.849 53.3832 298.79C61.9297 298.559 68.9931 298.216 69.6432 297.8C70.2933 297.404 70.5913 291.167 70.72 283.551C70.72 283.445 70.7267 283.333 70.7267 283.227C70.7267 283.148 70.7267 283.062 70.7267 282.977H70.6929L41.6132 283.029L41.6267 283.511C41.6267 283.511 24.4525 291.253 22.712 292.639C20.9783 294.025 19.6442 298.46 21.2289 298.948L21.2357 298.955Z" fill="#37C8BF"/>
<path opacity="0.4" d="M21.2357 298.955C22.0483 299.212 34.3127 299.186 46.2927 298.948C48.7036 298.902 51.0942 298.849 53.3832 298.79C61.9297 298.559 68.9931 298.216 69.6432 297.8C70.2933 297.404 70.5913 291.167 70.72 283.551C70.72 283.445 70.7267 283.333 70.7267 283.227C70.7267 283.148 70.7267 283.062 70.7267 282.977H70.6929L41.6132 283.029L41.6267 283.511C41.6267 283.511 24.4525 291.253 22.712 292.639C20.9783 294.025 19.6442 298.46 21.2289 298.948L21.2357 298.955Z" fill="black"/>
<path d="M21.7303 297.247C29.3354 296.97 60.0337 296.548 67.5711 296.838C67.6321 296.838 67.6321 296.884 67.5711 296.884C60.0405 297.32 29.3422 297.498 21.7303 297.373C21.5678 297.373 21.5678 297.254 21.7303 297.254V297.247Z" fill="#263238"/>
<path d="M38.3835 283.156C41.37 282.576 45.0338 282.978 47.3499 285.024C47.4379 285.103 47.3228 285.229 47.228 285.196C44.2618 284.325 41.4987 283.777 38.4038 283.519C38.1871 283.5 38.1736 283.196 38.3903 283.15L38.3835 283.156Z" fill="#263238"/>
<path d="M36.2361 284.45C39.2226 283.869 42.8863 284.272 45.2024 286.318C45.2905 286.397 45.1753 286.522 45.0805 286.489C42.1143 285.618 39.3513 285.07 36.2564 284.813C36.0397 284.793 36.0261 284.49 36.2428 284.443L36.2361 284.45Z" fill="#263238"/>
<path d="M34.0896 285.75C37.0761 285.169 40.7399 285.572 43.0559 287.618C43.144 287.697 43.0288 287.823 42.934 287.79C39.9678 286.918 37.2048 286.371 34.1099 286.113C33.8932 286.093 33.8796 285.783 34.0963 285.744L34.0896 285.75Z" fill="#263238"/>
<path d="M39.6357 283.13H70.7539C70.7539 283.13 78.2439 250.415 79.2394 224.735C79.28 223.751 82.4765 200.678 88.7814 175.183C88.7814 175.183 92.9328 175.784 93.1901 174.965C95.0524 168.913 96.6168 143.959 96.6168 143.959H69.5146C69.5146 143.959 65.6951 154.453 64.002 160.433C63.0742 163.706 52.2455 212.301 50.2477 219.943C46.8007 233.11 39.6425 283.13 39.6425 283.13H39.6357Z" fill="#263238"/>
<path d="M43.1568 276.418C47.7348 276.319 46.421 276.279 50.999 276.233C53.2406 276.213 67.9633 276.075 70.0559 276.438C70.1033 276.444 70.1033 276.53 70.0559 276.537C67.9633 276.9 53.2406 276.768 50.999 276.741C46.421 276.695 47.7348 276.656 43.1568 276.557C43.0688 276.557 43.0688 276.418 43.1568 276.418Z" fill="#37474F"/>
<path d="M67.9297 273.633C71.221 256.473 74.5867 239.254 76.0157 221.837C78.8261 209.034 82.2596 193.781 85.2461 181.011C82.6456 193.861 79.4153 209.146 76.6387 221.963C75.3249 239.155 71.7831 256.651 67.9297 273.626V273.633Z" fill="#37474F"/>
<path d="M76.0567 175.507C77.8716 175.19 79.7204 175.078 81.5489 174.926C83.4248 174.774 85.3007 174.662 87.1834 174.655C90.8539 174.636 94.5176 175.078 98.1475 175.54C98.2423 175.553 98.2356 175.705 98.1407 175.698C94.4702 175.612 90.8065 175.751 87.136 175.698C85.2872 175.672 83.4451 175.619 81.5963 175.593C79.7475 175.566 77.8987 175.639 76.0567 175.579C76.0093 175.579 76.0025 175.513 76.0567 175.507Z" fill="#37474F"/>
<path d="M87.623 164.458C87.6637 162.848 87.7788 161.238 87.8668 159.627C88.0632 155.826 88.2122 152.005 88.5712 148.21C88.5847 148.058 88.8082 148.064 88.815 148.21C88.8624 151.153 88.7472 154.097 88.6863 157.04C88.6524 158.512 88.6118 159.984 88.5712 161.456C88.5305 162.855 88.4357 164.274 88.5441 165.673C88.6253 166.735 88.8624 168.795 90.2845 168.92C91.6186 169.039 92.3568 167.633 92.6886 166.603C93.5352 163.983 93.8399 161.159 94.1108 158.433C94.2733 156.822 94.4359 155.212 94.5374 153.595C94.639 151.965 94.7677 149.556 94.6797 147.926C94.6797 147.82 94.8286 147.827 94.849 147.926C95.1131 149.325 95.1198 152.163 95.086 153.833C94.7609 168.834 92.3365 169.686 91.0498 169.936C90.8872 169.969 90.7315 169.982 90.5757 169.982C90.5622 170.326 90.5148 170.669 90.4877 171.005C90.447 171.54 90.3793 172.068 90.3116 172.596C90.2371 173.111 90.1152 173.632 89.9798 174.134C89.8376 174.635 89.7021 175.157 89.4244 175.606C89.377 175.678 89.2755 175.639 89.2687 175.559C89.2281 175.051 89.3296 174.543 89.3974 174.041C89.4719 173.527 89.5463 172.999 89.6547 172.49C89.7631 171.989 89.8579 171.481 89.9662 170.979C90.0407 170.642 90.0881 170.293 90.1491 169.949C89.3229 169.824 88.6389 169.296 88.2529 168.498C87.6501 167.257 87.6027 165.792 87.6366 164.445L87.623 164.458Z" fill="#37474F"/>
<path d="M67.4354 161.766C69.1826 161.654 70.9163 161.66 72.6296 161.185C74.2346 160.743 75.7313 159.911 76.9029 158.618C79.4695 155.793 80.2415 151.648 80.5734 147.814C80.5802 147.728 80.6953 147.728 80.6953 147.814C80.7562 151.087 80.5192 154.513 78.9277 157.384C78.237 158.631 77.3295 159.733 76.2189 160.552C75.0608 161.403 73.6861 161.832 72.3181 162.023C70.7131 162.248 69.0404 162.215 67.4354 161.99C67.3067 161.97 67.3067 161.779 67.4354 161.766Z" fill="#37474F"/>
<path d="M109.01 161.766C107.602 161.654 106.2 161.66 104.818 161.198C103.518 160.756 102.319 159.925 101.371 158.638C99.3057 155.813 98.6827 151.675 98.4253 147.84C98.4253 147.754 98.3305 147.754 98.3237 147.84C98.2695 151.114 98.4524 154.539 99.7323 157.403C100.288 158.651 101.019 159.753 101.913 160.565C102.848 161.416 103.958 161.838 105.062 162.03C106.356 162.248 107.71 162.215 109.01 161.99C109.112 161.97 109.119 161.779 109.01 161.766Z" fill="#37474F"/>
<path d="M124.349 120.233C123.617 127.572 117.089 128.555 115.403 127.876C109.619 125.533 100.836 115.778 92.7566 105.812C86.445 98.0179 91.1922 97.0544 95.3097 99.0871C104.919 103.826 124.674 116.953 124.342 120.233H124.349Z" fill="#EBEBEB"/>
<path opacity="0.1" d="M92.7556 105.809C98.4984 112.897 104.6 119.88 109.72 124.163L93.5208 98.4108C90.0535 97.4802 87.3582 99.1434 92.7556 105.816V105.809Z" fill="black"/>
<path d="M113.615 124.028C110.899 121.045 111.285 114.445 111.942 98.6515C112.03 96.467 128.723 94.3617 128.751 96.698C128.784 99.6415 127.213 111.488 126.644 113.264C123.861 121.975 115.464 126.047 113.622 124.028H113.615Z" fill="#F7A9A0"/>
<path d="M121.106 102.585C122.772 101.984 131.548 98.3082 133.438 96.9948C136.675 94.7443 138.957 91.7149 137.84 90.3554C136.81 89.1014 133.573 92.2759 133.573 92.2759C133.573 92.2759 138.016 87.2336 136.587 85.3197C135.524 83.8941 133.56 86.1843 133.56 86.1843C133.56 86.1843 135.415 83.2605 133.871 82.3366C132.591 81.571 128.433 86.6067 128.433 86.6067C128.433 86.6067 133.031 81.8218 130.6 81.109C129.002 80.6404 126.74 83.7159 124.065 85.5177C123.828 85.6761 121.444 87.0356 119.081 88.3886C116.616 89.7878 111.896 99.3839 111.896 99.3839L121.112 102.591L121.106 102.585Z" fill="#F7A9A0"/>
<path d="M129.367 85.4913C127.559 87.5768 126.157 88.5734 124.579 89.4578C124.538 89.4842 124.606 89.6228 124.653 89.5964C127.342 88.2368 128.012 87.887 129.502 85.5837C129.584 85.4583 129.448 85.3857 129.36 85.4913H129.367Z" fill="#263238"/>
<path d="M133.437 86.2105C131.175 89.2399 129.685 90.3618 126.407 92.2692C126.36 92.2956 126.407 92.3748 126.455 92.355C129.827 90.7446 131.717 89.6622 133.572 86.3491C133.654 86.1973 133.538 86.0785 133.437 86.2171V86.2105Z" fill="#263238"/>
<path d="M133.485 92.2365C131.704 93.4574 131.162 93.7214 129.171 94.8368C129.124 94.8632 129.157 94.982 129.212 94.9622C131.331 94.1438 132.09 93.8072 133.546 92.3289C133.654 92.2167 133.614 92.1507 133.485 92.2365Z" fill="#263238"/>
<path d="M111.888 99.3771C111.888 99.3771 111.177 92.1041 113.412 88.6986C114.529 86.9892 120.583 81.1748 121.944 82.3034C123.698 83.7619 121.078 87.7548 119.534 89.5434C119.534 89.5434 123.59 92.9159 122.351 96.1762C121.105 99.4365 111.888 99.3771 111.888 99.3771Z" fill="#F7A9A0"/>
<path d="M122.296 82.8578C122.912 85.3129 120.725 87.5371 119.364 89.3784C119.262 89.517 119.337 89.649 119.465 89.7084C121.07 91.233 122.879 93.8399 122.493 96.1168C122.479 96.1828 122.574 96.2092 122.594 96.1432C123.353 93.7607 121.788 91.0548 119.919 89.4972C121.348 87.6229 123.441 85.3063 122.323 82.8578C122.323 82.8446 122.296 82.8512 122.296 82.8644V82.8578Z" fill="#263238"/>
<path d="M130.085 107.627L111.468 104.895C111.468 104.895 108.577 122.352 111.414 125.17C112.681 126.43 115.701 128.965 118.864 128.133C126.137 126.226 130.085 107.627 130.085 107.627Z" fill="#EBEBEB"/>
<path d="M112.26 109.072C114.258 109.475 116.276 109.772 118.294 110.062C120.312 110.353 122.337 110.65 124.362 110.894C125.507 111.033 126.651 111.171 127.803 111.27C127.83 111.27 127.843 111.224 127.816 111.217C125.818 110.815 123.8 110.511 121.789 110.208C119.771 109.904 117.746 109.62 115.721 109.356C114.576 109.204 113.432 109.079 112.281 108.98C112.227 108.98 112.199 109.066 112.26 109.079V109.072Z" fill="#263238"/>
<path d="M111.665 104.809C111.475 104.749 111.204 104.683 111.197 104.723C111.001 105.858 110.906 107.086 110.811 108.234C110.717 109.369 110.649 110.504 110.595 111.64C110.568 112.253 110.547 112.861 110.554 113.474C110.276 114.253 110.134 115.058 110.168 115.883C110.168 115.923 110.243 115.923 110.243 115.883C110.243 115.157 110.351 114.418 110.554 113.719C110.574 115.21 110.737 116.688 111.211 118.121C111.211 118.127 111.224 118.121 111.224 118.121C110.574 115.982 110.859 113.646 110.967 111.455C111.021 110.359 111.096 109.264 111.184 108.168C111.272 107.079 111.394 105.984 111.468 104.895C111.468 104.895 111.665 104.928 111.712 104.928C111.753 104.928 111.705 104.822 111.665 104.809Z" fill="#263238"/>
<path d="M107.473 145.372L66.6162 145.952C66.6162 145.952 71.5328 114.59 82.0297 98.8956C83.3977 96.8497 89.3775 95.2459 93.6169 98.9814C99.3123 103.991 107.561 145.226 107.473 145.372Z" fill="#37C8BF"/>
<path d="M82.829 98.1694C82.829 98.1694 86.8313 111.778 87.1767 123.005C88.1045 153.417 79.9034 219.006 79.9034 219.006C65.0588 219.494 48.9004 215.508 48.9004 215.508C48.9004 215.508 57.7178 176.232 65.0994 145.589C76.0229 100.262 82.829 98.1694 82.829 98.1694Z" fill="#EBEBEB"/>
<path d="M60.9888 174.826C60.2642 179.585 59.7495 185.003 60.4267 186.099C61.7066 188.145 65.7564 188.475 67.016 188.613C68.2689 188.752 72.7995 189.293 74.2284 186.502C74.8582 185.267 75.8334 178.621 76.1246 176.259C76.2397 175.302 76.6731 170.57 76.6799 170.035C76.6799 169.91 76.409 169.89 76.3887 169.969C76.2533 170.504 76.0501 172.464 75.9756 172.833C68.5601 173.124 64.1853 171.599 61.9233 170.754C62.0385 169.877 62.1265 169.19 62.2213 168.306C63.183 168.741 66.481 169.652 69.0003 169.962C71.5195 170.266 75.3729 170.253 76.6325 170.207C76.6935 170.207 76.6935 169.85 76.6054 169.837C75.6573 169.738 72.3186 169.745 69.0138 169.342C65.8173 168.953 62.0452 167.791 62.0317 167.791C61.9166 167.817 61.3139 172.549 60.9617 174.833L60.9888 174.826ZM60.9414 185.604C60.2845 184.35 60.6163 181.004 60.8669 179.011C61.219 176.265 61.5035 174.074 61.8624 171.329C67.2463 173.638 73.5105 173.586 75.9214 173.269C75.9011 173.388 75.2104 179.182 74.9327 181.024C74.5805 183.373 74.2419 185.498 73.3683 186.634C72.6166 187.61 70.7407 188.448 66.7384 187.96C63.8466 187.604 61.4899 186.647 60.9414 185.597V185.604Z" fill="#DBDBDB"/>
<path d="M93.9014 98.9683C93.9014 98.9683 98.7773 115.837 99.5155 122.239C99.9422 125.909 105.482 218.478 105.482 218.478C116.344 217.732 120.056 215.468 120.056 215.468C120.056 215.468 113.1 147.437 98.2965 106.71C95.5131 99.0541 93.9014 98.9683 93.9014 98.9683Z" fill="#EBEBEB"/>
<path d="M90.2646 106.664L91.8764 103.852L94.2806 106.472L93.5085 108.617L91.1653 108.729L90.2646 106.664Z" fill="#263238"/>
<path d="M91.1653 108.729L89.7432 137.036L94.6327 145.167L98.6892 136.963L93.5085 108.617L91.1653 108.729Z" fill="#263238"/>
<path d="M92.3028 103.786C89.919 104.294 85.8963 100.697 84.3387 97.8066C84.2304 97.6086 84.5758 95.5429 84.867 93.0085C85.0363 91.4708 85.192 89.7548 85.2191 88.184C85.2191 87.8607 95.3164 90.7382 95.3164 90.7382C95.3164 90.7382 94.2667 94.0249 94.2396 96.7704C94.2396 97.0014 94.26 97.2126 94.3006 97.4172C94.3006 97.4436 94.3141 97.4832 94.3141 97.5228C94.497 98.7504 94.6121 103.291 92.3096 103.786H92.3028Z" fill="#F7A9A0"/>
<path d="M85.0977 90.5861C88.6598 95.9452 93.1701 96.9352 94.2333 96.7768C94.2943 93.7673 95.3101 90.7445 95.3101 90.7445C95.3101 90.7445 85.2196 87.867 85.2196 88.1904C85.206 88.9692 85.1586 89.781 85.0977 90.5861Z" fill="#263238"/>
<path d="M82.2729 77.6836C81.555 81.2805 84.5212 91.1473 87.2978 93.1338C91.334 96.0114 97.3951 95.7078 99.7722 91.1077C102.075 86.6462 97.9775 73.8491 94.9233 72.0936C90.4198 69.513 83.3361 72.3774 82.2729 77.6836Z" fill="#F7A9A0"/>
<path d="M91.8831 83.426C91.8831 83.426 91.8357 83.4722 91.8493 83.4986C92.0592 84.1586 92.1811 84.9572 91.6258 85.34C91.6055 85.3532 91.6258 85.3862 91.6393 85.373C92.3707 85.0694 92.1879 84.02 91.8831 83.4194V83.426Z" fill="#263238"/>
<path d="M91.0769 82.8912C89.9527 83.1024 90.4674 85.2804 91.5103 85.0824C92.5396 84.891 92.0182 82.713 91.0769 82.8912Z" fill="#263238"/>
<path d="M95.7831 82.6206C95.7831 82.6206 95.8441 82.6404 95.8509 82.6668C95.9863 83.3466 96.264 84.1056 96.9412 84.1848C96.9615 84.1848 96.9683 84.2244 96.9412 84.2244C96.1488 84.2904 95.7967 83.2872 95.7764 82.6206H95.7831Z" fill="#263238"/>
<path d="M96.232 81.776C97.3291 81.446 97.9318 83.5976 96.916 83.9077C95.9205 84.2113 95.3177 82.0532 96.232 81.776Z" fill="#263238"/>
<path d="M89.5055 81.8749C89.817 81.7957 90.0947 81.6703 90.3927 81.5647C90.7313 81.4393 91.0157 81.38 91.2324 81.083C91.3475 80.9246 91.3001 80.6408 91.1511 80.5088C90.8057 80.2118 90.352 80.2646 89.9389 80.3966C89.492 80.5418 89.1804 80.7596 88.9231 81.149C88.6725 81.5251 89.0924 81.9805 89.5055 81.8749Z" fill="#263238"/>
<path d="M96.7587 80.1061C96.4404 80.1391 96.1357 80.1127 95.8174 80.1061C95.4585 80.1061 95.1673 80.1391 94.8557 79.9345C94.6864 79.8223 94.6323 79.5386 94.7271 79.3736C94.9506 78.9776 95.3907 78.8786 95.8242 78.8588C96.2982 78.839 96.6639 78.9446 97.0431 79.2218C97.4088 79.4924 97.1786 80.0599 96.7587 80.0995V80.1061Z" fill="#263238"/>
<path d="M92.7358 89.6889C92.9389 89.8077 93.1624 89.9859 93.413 89.9463C93.6568 89.9067 93.9141 89.7351 94.1105 89.5965C94.1308 89.5833 94.1579 89.5965 94.1512 89.6229C94.036 89.9265 93.6974 90.1773 93.3656 90.1971C93.0405 90.2169 92.817 89.9925 92.6748 89.7351C92.6545 89.6955 92.7019 89.6691 92.7358 89.6889Z" fill="#263238"/>
<path d="M92.9522 87.5048C93.4872 87.9931 94.1373 88.1779 94.7806 88.1515C95.0651 88.1383 95.3563 88.0789 95.6339 87.9865C95.6881 87.9733 95.7423 87.9535 95.7897 87.9271C95.8371 87.9073 95.8845 87.8941 95.9387 87.8677C96.0132 87.8347 96.047 87.7622 96.0403 87.683C96.0403 87.683 96.0267 87.6368 96.0132 87.6104L95.9996 87.5444C95.8845 87.023 95.6339 86.2508 95.6339 86.2508C95.8507 86.297 96.9545 86.495 96.8665 86.231C96.1622 84.0266 95.3834 81.5715 94.2118 79.519C94.1779 79.4464 94.0628 79.4926 94.0899 79.5652C94.6791 81.7101 95.6475 83.7429 96.2773 85.8944C95.9319 85.8548 95.3631 85.7624 95.0854 85.8284C95.0177 85.868 95.5933 87.32 95.6272 87.5576C95.6272 87.5576 95.6272 87.5708 95.6272 87.584C94.7603 87.9073 94.0222 87.8083 93.0063 87.4322C92.9454 87.4058 92.9048 87.4652 92.9589 87.5048H92.9522Z" fill="#263238"/>
<path d="M83.2688 86.191C82.8421 85.7554 78.9955 81.0695 79.0226 78.8982C79.0429 76.7268 83.0114 73.4599 83.1062 73.2619C83.201 73.0639 83.2213 71.9948 85.3343 70.4042C87.4472 68.8136 92.1471 68.873 96.312 70.8662C97.9305 71.6384 99.4813 77.2548 98.7838 78.7464C98.7838 78.7464 97.0366 75.4201 96.4745 75.1561C95.628 74.7601 92.1877 76.8258 89.0996 75.3277C89.0996 75.3277 91.3683 77.1228 92.5805 76.9182C92.5805 76.9182 89.3231 78.7992 87.6978 78.2712C86.3027 77.8158 85.4833 77.0766 85.4833 77.0766C85.4833 77.0766 88.0431 82.7921 85.6526 86.9566C85.6526 86.9566 84.5419 87.4912 83.2688 86.1976V86.191Z" fill="#263238"/>
<path d="M85.3682 77.0567C85.6052 77.6308 85.9302 78.1654 86.1605 78.7462C86.4043 79.36 86.5939 80.0002 86.6887 80.6536C86.858 81.8283 86.7226 83.0493 86.2756 84.1845C86.2688 84.2043 86.2959 84.2109 86.3027 84.1911C86.9122 83.0955 87.0815 81.8877 86.9393 80.6866C86.7903 79.4128 86.3298 77.9674 85.5104 76.9709C85.4562 76.9049 85.3343 76.9709 85.3682 77.0501V77.0567Z" fill="#263238"/>
<path d="M86.2286 86.666C86.2286 86.666 83.4859 83.7027 82.0773 84.6926C80.6687 85.6826 83.0254 90.1771 84.881 90.6061C86.7365 91.0351 87.1767 89.3653 87.1767 89.3653L86.2286 86.6594V86.666Z" fill="#F7A9A0"/>
<path d="M82.7816 85.9663C82.7816 85.9663 82.7545 86.006 82.7816 86.0126C84.0886 86.3557 84.8877 87.3985 85.4972 88.5073C85.0706 88.1047 84.5356 87.9199 83.9735 88.4215C83.9464 88.4479 83.9803 88.4941 84.0141 88.4809C84.5085 88.3159 84.8877 88.3555 85.2873 88.7119C85.5649 88.9627 85.7816 89.2993 85.9984 89.6029C86.0728 89.7019 86.2625 89.6227 86.2083 89.5039L86.1947 89.4775C86.0254 87.9265 84.522 85.9136 82.7951 85.9663H82.7816Z" fill="#263238"/>
<path d="M94.4495 97.1797L91.6526 102.605L84.447 95.1338L82.6592 97.6945C82.6592 97.6945 89.262 108.703 89.323 108.221L91.849 103.674L95.1538 107V98.9155L94.4563 97.1731L94.4495 97.1797Z" fill="#37C8BF"/>
<path d="M95.3909 103.007C95.3435 101.674 95.3367 100.328 95.2216 98.9945C95.2216 98.9483 95.1403 98.9219 95.1268 98.9813C94.7949 100.255 95.0116 105.363 94.9574 106.578L94.9439 106.565C94.8085 106.419 91.8761 103.628 91.849 103.674C91.314 104.393 89.4584 107.7 89.3298 108.003C88.2869 106.254 83.8375 99.3509 82.5847 97.6878C82.5508 97.6416 82.4696 97.6746 82.4966 97.734C83.4109 99.5753 89.1469 108.683 89.235 108.663C89.2891 108.709 91.5917 104.631 91.8761 103.859C92.3705 104.459 95.3096 107.601 95.3299 107.403C95.445 106.07 95.4383 104.354 95.3909 103.014V103.007Z" fill="#263238"/>
<path opacity="0.6" d="M92.0458 189.201C87.0547 188.178 83.8582 183.4 84.9147 178.536L100.301 107.376L118.376 111.092L102.99 182.252C101.94 187.116 97.0369 190.231 92.0458 189.201Z" fill="#EBEBEB"/>
<path d="M93.9485 189.558C93.3051 189.558 92.655 189.492 92.0048 189.36C86.9325 188.317 83.6683 183.446 84.7383 178.496L100.165 107.172L118.572 110.954L118.538 111.112L103.152 182.271C102.217 186.581 98.303 189.551 93.9485 189.551V189.558ZM92.0793 189.036C96.9689 190.039 101.791 186.977 102.82 182.212L118.173 111.211L100.429 107.568L85.0769 178.569C84.0475 183.334 87.1898 188.033 92.0793 189.036Z" fill="#A6A6A6"/>
<path d="M99.3661 120.22L86.6682 178.925C85.8217 182.839 88.3884 186.68 92.411 187.505C96.4269 188.33 100.368 185.822 101.215 181.909L113.913 123.203L99.3661 120.213V120.22Z" fill="#37C8BF"/>
<path opacity="0.4" d="M99.2779 182.68C98.8512 182.595 98.5804 182.185 98.6752 181.776L113.019 115.441C113.107 115.025 113.527 114.761 113.946 114.854C114.373 114.94 114.644 115.349 114.549 115.758L100.206 182.093C100.118 182.509 99.6978 182.773 99.2779 182.68Z" fill="white"/>
<path opacity="0.4" d="M101.649 161.165C101.398 161.112 101.242 160.875 101.29 160.631L109.816 121.203C109.87 120.959 110.114 120.807 110.364 120.853C110.615 120.906 110.771 121.144 110.723 121.388L102.197 160.815C102.143 161.06 101.899 161.211 101.649 161.165Z" fill="white"/>
<path d="M123.503 97.3655L101.29 92.8037L97.7026 109.394L119.915 113.956L123.503 97.3655Z" fill="#37474F"/>
<path d="M102.568 93.9794L101.846 93.8311L98.6353 108.678L99.3576 108.826L102.568 93.9794Z" fill="#263238"/>
<path d="M104 94.267L103.277 94.1187L100.067 108.966L100.789 109.114L104 94.267Z" fill="#263238"/>
<path d="M105.43 94.5609L104.708 94.4126L101.498 109.26L102.22 109.408L105.43 94.5609Z" fill="#263238"/>
<path d="M106.855 94.8549L106.133 94.7065L102.922 109.553L103.645 109.702L106.855 94.8549Z" fill="#263238"/>
<path d="M108.276 95.1621L107.554 95.0137L104.341 109.86L105.063 110.009L108.276 95.1621Z" fill="#263238"/>
<path d="M109.716 95.4433L108.994 95.2949L105.784 110.142L106.506 110.29L109.716 95.4433Z" fill="#263238"/>
<path d="M111.14 95.7436L110.418 95.5952L107.208 110.442L107.93 110.59L111.14 95.7436Z" fill="#263238"/>
<path d="M112.572 96.0312L111.85 95.8828L108.639 110.73L109.361 110.878L112.572 96.0312Z" fill="#263238"/>
<path d="M114.002 96.3251L113.279 96.1768L110.069 111.024L110.791 111.172L114.002 96.3251Z" fill="#263238"/>
<path d="M115.426 96.619L114.704 96.4707L111.494 111.318L112.216 111.466L115.426 96.619Z" fill="#263238"/>
<path d="M116.857 96.913L116.135 96.7646L112.924 111.612L113.647 111.76L116.857 96.913Z" fill="#263238"/>
<path d="M118.282 97.206L117.56 97.0576L114.349 111.905L115.071 112.053L118.282 97.206Z" fill="#263238"/>
<path d="M119.707 97.4936L118.984 97.3452L115.774 112.192L116.496 112.34L119.707 97.4936Z" fill="#263238"/>
<path d="M121.144 97.7875L120.422 97.6392L117.211 112.486L117.934 112.634L121.144 97.7875Z" fill="#263238"/>
<path d="M122.569 98.0814L121.847 97.9331L118.636 112.78L119.359 112.928L122.569 98.0814Z" fill="#263238"/>
<path d="M109.711 138.137L97.0273 135.532L88.7743 173.698L101.458 176.303L109.711 138.137Z" fill="white"/>
<path d="M101.241 136.395L97.0264 135.53L88.7733 173.697L92.9879 174.562L101.241 136.395Z" fill="#455A64"/>
<path d="M93.6438 164.379C93.7454 164.399 93.8266 164.439 93.8944 164.492C93.9621 164.544 94.0163 164.61 94.0501 164.69C94.084 164.769 94.1111 164.855 94.1178 164.954C94.1246 165.053 94.1178 165.145 94.0975 165.251L93.8537 166.366L91.4902 165.878L91.7543 164.643C91.7747 164.564 91.8085 164.492 91.8559 164.439C91.9033 164.379 91.9643 164.333 92.032 164.3C92.0997 164.267 92.1675 164.247 92.2487 164.234C92.3232 164.221 92.4045 164.228 92.4722 164.241C92.5873 164.267 92.6889 164.313 92.777 164.393C92.865 164.472 92.9259 164.564 92.9463 164.683C93.014 164.558 93.1088 164.472 93.2307 164.412C93.3526 164.36 93.488 164.346 93.6438 164.379ZM91.9778 165.508L92.5738 165.633L92.7025 165.039C92.716 164.967 92.7025 164.894 92.6618 164.828C92.6212 164.762 92.5535 164.723 92.4587 164.703C92.3706 164.683 92.2893 164.696 92.2284 164.729C92.1674 164.769 92.1268 164.822 92.1065 164.894L91.9711 165.508H91.9778ZM93.4609 164.815C93.4203 164.808 93.3797 164.808 93.3323 164.815C93.2916 164.815 93.251 164.835 93.2171 164.848C93.1833 164.868 93.1562 164.888 93.1291 164.921C93.1088 164.947 93.0885 164.987 93.0817 165.02L92.9327 165.706L93.5557 165.831L93.698 165.165C93.7047 165.125 93.7047 165.086 93.698 165.046C93.6912 165.006 93.6776 164.973 93.6506 164.94C93.6302 164.907 93.6032 164.881 93.5625 164.861C93.5287 164.841 93.488 164.822 93.4474 164.815H93.4609Z" fill="white"/>
<path d="M94.3957 163.865L92.0322 163.376L92.127 162.927L94.091 163.33L94.3483 162.155L94.7479 162.241L94.3957 163.865Z" fill="white"/>
<path d="M95.0663 160.842C95.0324 161.014 94.9647 161.159 94.8631 161.278C94.7683 161.403 94.6532 161.502 94.5178 161.575C94.3823 161.647 94.2401 161.7 94.0843 161.726C93.9286 161.753 93.7728 161.746 93.6238 161.72C93.4681 161.687 93.3191 161.627 93.1904 161.542C93.0617 161.456 92.9466 161.35 92.8586 161.225C92.7705 161.099 92.7096 160.961 92.669 160.809C92.6351 160.657 92.6351 160.499 92.669 160.34C92.7028 160.175 92.7705 160.03 92.8721 159.905C92.9737 159.779 93.0888 159.68 93.2243 159.608C93.3597 159.535 93.5019 159.482 93.6577 159.463C93.8134 159.436 93.9692 159.443 94.1114 159.469C94.2672 159.502 94.4162 159.562 94.5448 159.647C94.6735 159.733 94.7886 159.839 94.8767 159.958C94.9647 160.076 95.0257 160.215 95.0595 160.367C95.0934 160.519 95.0934 160.677 95.0595 160.835L95.0663 160.842ZM93.7254 161.264C93.827 161.284 93.9286 161.291 94.0302 161.278C94.1317 161.264 94.2265 161.238 94.3146 161.198C94.4026 161.159 94.4771 161.099 94.5381 161.027C94.599 160.954 94.6464 160.862 94.6667 160.756C94.6871 160.651 94.6871 160.545 94.6667 160.453C94.6397 160.36 94.5922 160.274 94.5313 160.202C94.4703 160.129 94.3959 160.07 94.3078 160.017C94.2198 159.971 94.125 159.931 94.0302 159.911C93.9286 159.892 93.827 159.885 93.7254 159.898C93.6238 159.911 93.529 159.938 93.441 159.977C93.3529 160.017 93.2852 160.076 93.2175 160.156C93.1565 160.228 93.1159 160.321 93.0888 160.42C93.0685 160.525 93.0685 160.631 93.0888 160.723C93.1159 160.816 93.1633 160.901 93.2243 160.974C93.2852 161.047 93.3597 161.106 93.4477 161.152C93.5358 161.198 93.6306 161.238 93.7254 161.258V161.264Z" fill="white"/>
<path d="M95.662 158.096C95.6281 158.268 95.5604 158.413 95.4588 158.532C95.364 158.657 95.2489 158.756 95.1135 158.829C94.978 158.902 94.8358 158.954 94.68 158.981C94.5243 159.007 94.3685 159.001 94.2195 158.974C94.0638 158.941 93.9148 158.882 93.7861 158.796C93.6574 158.71 93.5423 158.605 93.4543 158.479C93.3662 158.354 93.3053 158.215 93.2647 158.063C93.2308 157.912 93.2308 157.753 93.2647 157.595C93.2985 157.43 93.3662 157.285 93.4678 157.159C93.5694 157.034 93.6845 156.935 93.82 156.862C93.9554 156.79 94.0976 156.737 94.2534 156.717C94.4091 156.691 94.5649 156.697 94.7071 156.724C94.8629 156.757 95.0119 156.816 95.1405 156.902C95.2692 156.988 95.3843 157.093 95.4724 157.212C95.5604 157.331 95.6214 157.469 95.6552 157.621C95.6891 157.773 95.6891 157.931 95.6552 158.09L95.662 158.096ZM94.3211 158.519C94.4227 158.539 94.5243 158.545 94.6259 158.532C94.7274 158.519 94.8222 158.492 94.9103 158.453C94.9983 158.413 95.0728 158.354 95.1338 158.281C95.1947 158.209 95.2421 158.116 95.2624 158.011C95.2828 157.905 95.2828 157.799 95.2624 157.707C95.2354 157.615 95.188 157.529 95.127 157.456C95.0661 157.384 94.9916 157.324 94.9035 157.271C94.8155 157.225 94.7207 157.186 94.6259 157.166C94.5243 157.146 94.4227 157.139 94.3211 157.153C94.2195 157.166 94.1247 157.192 94.0367 157.232C93.9486 157.271 93.8809 157.331 93.8132 157.41C93.7522 157.483 93.7116 157.575 93.6845 157.681C93.6642 157.786 93.6642 157.892 93.6845 157.984C93.7116 158.077 93.759 158.162 93.82 158.235C93.8809 158.308 93.9554 158.367 94.0434 158.413C94.1315 158.459 94.2263 158.499 94.3211 158.519Z" fill="white"/>
<path d="M96.0207 156.334L93.6572 155.846L93.8401 155.008C93.8807 154.816 93.9484 154.658 94.0432 154.532C94.1381 154.407 94.2464 154.301 94.3751 154.229C94.5038 154.156 94.6392 154.11 94.795 154.09C94.9507 154.07 95.1065 154.077 95.269 154.11C95.4519 154.15 95.6076 154.209 95.7431 154.288C95.8785 154.374 95.9869 154.473 96.0681 154.592C96.1494 154.711 96.2036 154.849 96.2307 155.001C96.2577 155.153 96.251 155.318 96.2171 155.489L96.0343 156.328L96.0207 156.334ZM95.1674 154.572C95.0523 154.546 94.9439 154.546 94.8424 154.552C94.7408 154.565 94.646 154.592 94.5647 154.631C94.4834 154.678 94.4157 154.737 94.3615 154.816C94.3074 154.895 94.2667 154.988 94.2396 155.093L94.1584 155.483L95.716 155.806L95.7972 155.417C95.8243 155.305 95.8243 155.206 95.7972 155.113C95.7769 155.021 95.7363 154.935 95.6821 154.862C95.6279 154.79 95.5534 154.73 95.4654 154.678C95.3774 154.625 95.2758 154.592 95.1674 154.565V154.572Z" fill="white"/>
<path d="M95.2149 150.612L95.0524 151.351L97.0163 151.754L96.9215 152.196L94.9576 151.794L94.7951 152.533L94.3955 152.447L94.8086 150.526L95.2149 150.612Z" fill="white"/>
<path d="M97.24 148.751L97.6395 148.837L97.2942 150.434L94.9307 149.945L95.2693 148.375L95.6688 148.46L95.425 149.582L95.9939 149.701L96.2038 148.731L96.5763 148.81L96.3664 149.78L96.9826 149.906L97.2332 148.751H97.24Z" fill="white"/>
<path d="M96.3251 146.514C96.3251 146.514 96.2777 146.547 96.2439 146.586C96.21 146.619 96.1694 146.666 96.1355 146.718C96.0949 146.771 96.061 146.831 96.0272 146.89C95.9933 146.956 95.973 147.022 95.9594 147.088C95.9324 147.213 95.9391 147.306 95.973 147.378C96.0069 147.451 96.0678 147.491 96.1491 147.51C96.1965 147.524 96.2439 147.517 96.2777 147.504C96.3116 147.491 96.3522 147.458 96.3861 147.425C96.4199 147.385 96.4538 147.339 96.4877 147.273C96.5215 147.213 96.5622 147.141 96.6028 147.055C96.657 146.949 96.7112 146.85 96.7721 146.771C96.8263 146.685 96.8872 146.619 96.955 146.567C97.0227 146.514 97.0972 146.481 97.1784 146.461C97.2597 146.441 97.3545 146.441 97.4629 146.461C97.5915 146.487 97.6931 146.534 97.7744 146.6C97.8556 146.666 97.9166 146.745 97.9505 146.831C97.9911 146.923 98.0114 147.022 98.0114 147.128C98.0114 147.233 98.0046 147.345 97.9775 147.458C97.9369 147.629 97.876 147.794 97.7879 147.953C97.6999 148.111 97.5915 148.243 97.4629 148.362L97.1107 148.085C97.1107 148.085 97.1717 148.038 97.2123 147.992C97.2529 147.946 97.3003 147.893 97.3477 147.834C97.3951 147.768 97.4358 147.702 97.4764 147.623C97.517 147.543 97.5441 147.458 97.5644 147.372C97.6186 147.128 97.5644 146.982 97.4019 146.949C97.3477 146.936 97.3071 146.949 97.2597 146.963C97.2191 146.982 97.1784 147.015 97.1378 147.062C97.0972 147.108 97.0633 147.167 97.0227 147.233C96.982 147.299 96.9414 147.378 96.894 147.464C96.8398 147.57 96.7857 147.656 96.7315 147.728C96.6773 147.801 96.6163 147.86 96.5554 147.906C96.4944 147.953 96.4267 147.979 96.359 147.992C96.2913 148.005 96.21 148.005 96.1152 147.986C95.9933 147.959 95.8917 147.92 95.8105 147.854C95.7292 147.794 95.6615 147.715 95.6141 147.623C95.5667 147.53 95.5396 147.431 95.5328 147.326C95.5193 147.22 95.5328 147.108 95.5531 146.989C95.587 146.824 95.6479 146.685 95.7292 146.56C95.8105 146.435 95.8985 146.329 95.9933 146.243L96.3251 146.52V146.514Z" fill="white"/>
<path d="M96.671 143.854L96.5085 144.593L98.4724 144.996L98.3776 145.438L96.4137 145.035L96.2511 145.774L95.8516 145.689L96.2647 143.768L96.671 143.854Z" fill="white"/>
<path d="M100.898 174.341L94.3174 172.99L94.2336 173.377L100.814 174.729L100.898 174.341Z" fill="#263238"/>
<path d="M101.049 173.603L94.4688 172.251L94.385 172.639L100.965 173.99L101.049 173.603Z" fill="#263238"/>
<path d="M101.532 171.404L94.9521 170.053L94.8684 170.44L101.449 171.792L101.532 171.404Z" fill="#263238"/>
<path d="M102.167 168.467L95.5869 167.115L95.5031 167.503L102.083 168.854L102.167 168.467Z" fill="#263238"/>
<path d="M102.438 167.189L95.8574 165.837L95.7736 166.225L102.354 167.576L102.438 167.189Z" fill="#263238"/>
<path d="M102.795 165.528L96.2148 164.177L96.1311 164.564L102.711 165.916L102.795 165.528Z" fill="#263238"/>
<path d="M103.111 164.097L96.5312 162.746L96.4475 163.133L103.028 164.484L103.111 164.097Z" fill="#263238"/>
<path d="M103.718 161.264L97.1377 159.913L97.0539 160.3L103.634 161.651L103.718 161.264Z" fill="#263238"/>
<path d="M103.89 160.496L97.3096 159.145L97.2258 159.532L103.806 160.883L103.89 160.496Z" fill="#263238"/>
<path d="M104.496 157.663L97.916 156.312L97.8322 156.699L104.412 158.051L104.496 157.663Z" fill="#263238"/>
<path d="M104.731 156.605L98.1504 155.254L98.0093 155.906L104.59 157.258L104.731 156.605Z" fill="#263238"/>
<path d="M104.32 158.52L97.7402 157.169L97.5992 157.821L104.179 159.173L104.32 158.52Z" fill="#263238"/>
<path d="M103.368 162.895L96.7881 161.544L96.647 162.196L103.227 163.548L103.368 162.895Z" fill="#263238"/>
<path d="M101.775 170.302L95.1943 168.95L95.0533 169.602L101.634 170.954L101.775 170.302Z" fill="#263238"/>
<path d="M101.982 169.328L95.4014 167.977L95.2603 168.629L101.841 169.981L101.982 169.328Z" fill="#263238"/>
<path d="M102.649 166.242L96.0684 164.89L95.9273 165.542L102.508 166.894L102.649 166.242Z" fill="#263238"/>
<path d="M104.828 156.163L98.2471 154.812L98.205 155.006L104.786 156.357L104.828 156.163Z" fill="#263238"/>
<path d="M104.121 159.447L97.54 158.096L97.498 158.29L104.079 159.642L104.121 159.447Z" fill="#263238"/>
<path d="M104 159.998L97.4189 158.646L97.3769 158.841L103.958 160.192L104 159.998Z" fill="#263238"/>
<path d="M103.528 162.148L96.9473 160.797L96.9052 160.991L103.486 162.343L103.528 162.148Z" fill="#263238"/>
<path d="M102.937 164.913L96.3555 163.561L96.3134 163.755L102.895 165.107L102.937 164.913Z" fill="#263238"/>
<path d="M102.286 167.918L95.7051 166.567L95.663 166.761L102.244 168.113L102.286 167.918Z" fill="#263238"/>
<path d="M101.376 172.127L94.7949 170.775L94.7529 170.97L101.334 172.321L101.376 172.127Z" fill="#263238"/>
<path d="M101.277 172.598L94.6963 171.246L94.6543 171.44L101.235 172.792L101.277 172.598Z" fill="#263238"/>
<path d="M101.167 173.067L94.5859 171.716L94.5439 171.91L101.125 173.262L101.167 173.067Z" fill="#263238"/>
<path d="M105.024 155.253L98.4434 153.901L98.3596 154.289L104.94 155.64L105.024 155.253Z" fill="#263238"/>
<path d="M104.344 153.76L99.6846 152.803C99.2038 152.704 98.8922 152.242 98.9938 151.774L101.743 139.042C101.845 138.574 102.319 138.27 102.8 138.369L107.459 139.326C107.94 139.425 108.251 139.887 108.15 140.356L105.4 153.087C105.299 153.556 104.825 153.859 104.344 153.76ZM102.752 138.607C102.4 138.534 102.055 138.752 101.987 139.095L99.2376 151.826C99.1631 152.17 99.3866 152.506 99.7388 152.572L104.398 153.529C104.75 153.602 105.096 153.384 105.163 153.041L107.913 140.31C107.987 139.966 107.764 139.63 107.412 139.564L102.752 138.607Z" fill="#263238"/>
<path d="M100.601 145.335L100.551 145.568L106.535 146.797L106.586 146.564L100.601 145.335Z" fill="#263238"/>
<path d="M102.984 139.176L102.688 140.545L102.926 140.594L103.222 139.225L102.984 139.176Z" fill="#263238"/>
<path d="M102.273 139.614L102.223 139.847L103.628 140.136L103.678 139.902L102.273 139.614Z" fill="#263238"/>
<path d="M100.813 146.406L100.763 146.639L102.168 146.928L102.218 146.694L100.813 146.406Z" fill="#263238"/>
<path d="M76.6995 102.677C66.5819 114.669 54.8457 138.514 57.8932 142.976C61.2928 147.945 75.2435 131.69 75.1013 130.793C74.9929 130.113 79.1443 115.573 82.3272 104.974C85.5101 94.3878 79.1985 99.7073 76.6927 102.671L76.6995 102.677Z" fill="#EB9481"/>
<path d="M75.21 130.799C75.5418 129.255 81.244 110.056 82.8219 104.004C84.3998 97.9517 82.2598 96.3084 76.6998 102.215C71.1331 108.122 59.7423 126.324 57.5955 136.119C55.53 145.55 60.1554 146.031 66.1556 141.24C71.0654 137.313 75.2167 130.799 75.2167 130.799H75.21Z" fill="#EBEBEB"/>
<path d="M74.4853 133.281C74.9458 131.466 75.4334 129.657 75.9278 127.856C76.4221 126.047 76.9368 124.252 77.4447 122.45L79.0226 117.065L79.8353 114.379C80.113 113.488 80.3839 112.59 80.6751 111.699C80.4448 112.61 80.201 113.508 79.964 114.418L79.2258 117.124L77.7088 122.53C77.1806 124.325 76.6659 126.126 76.1309 127.915C75.5959 129.71 75.0474 131.499 74.4785 133.281H74.4853Z" fill="#263238"/>
<path d="M79.5576 115.89C79.7269 115.422 79.9504 114.979 80.1874 114.55C80.3093 114.333 80.4312 114.121 80.5599 113.91C80.6886 113.699 80.824 113.494 80.9595 113.283C80.8308 113.765 80.6005 114.214 80.3703 114.643C80.1265 115.072 79.8691 115.501 79.5576 115.89Z" fill="#263238"/>
<path d="M58.5026 143.676C62.1866 146.296 68.4712 145.088 86.3768 142.692C88.8555 142.362 91.5779 124.252 88.9164 124.477C85.5574 124.754 72.5955 126.549 71.6677 126.793C63.8187 128.879 56.0036 141.9 58.5026 143.676Z" fill="#F7A9A0"/>
<path d="M83.0723 126.087C83.0723 126.087 89.4042 123.579 93.6165 122.127C95.9733 121.315 100.131 120.279 102.143 120.457C105.143 120.721 117.536 123.691 116.859 126.635C116.249 129.301 105.935 125.427 105.935 125.427C105.935 125.427 116.696 128.436 115.355 131.512C114.014 134.587 102.962 128.707 102.962 128.707C102.962 128.707 113.947 132.04 112.05 134.997C110.615 137.234 100.301 132.456 100.301 132.456C100.301 132.456 109.721 135.386 108.346 137.749C106.829 140.356 97.0229 136.528 97.0229 136.528C92.4991 141.959 88.0634 142.738 84.8398 142.93C84.061 142.976 83.079 126.087 83.079 126.087H83.0723Z" fill="#F7A9A0"/>
<path d="M102.292 124.153C103.571 124.463 104.865 124.767 106.104 125.183C107.35 125.598 108.576 126.06 109.775 126.588C112.714 127.889 114.346 129.149 114.238 129.083C111.644 127.493 107.215 125.928 105.969 125.513C104.73 125.097 103.504 124.615 102.264 124.199C102.231 124.186 102.251 124.146 102.285 124.153H102.292Z" fill="#263238"/>
<path d="M100.659 128.509C102.271 128.971 103.89 129.374 105.481 129.908C107.066 130.436 108.522 131.076 110.066 131.71C110.188 131.756 110.12 131.802 109.998 131.763C108.434 131.189 106.937 130.773 105.359 130.218C103.788 129.664 102.231 129.044 100.646 128.549C100.619 128.542 100.639 128.502 100.659 128.509Z" fill="#263238"/>
<path d="M98.5669 131.994C101.066 132.581 103.456 133.611 105.772 134.68C105.888 134.733 105.793 134.786 105.678 134.733C103.301 133.796 101.438 133.043 98.5466 132.073C98.4992 132.06 98.5127 131.974 98.5669 131.987V131.994Z" fill="#263238"/>
<path d="M86.7835 124.358L77.6885 145.22C77.6885 145.22 61.8213 146.738 58.3268 143.755C56.0243 141.788 63.5685 128.258 72.4265 126.595L86.7903 124.358H86.7835Z" fill="#EBEBEB"/>
<path d="M63.2496 132.555C64.2722 131.136 67.3264 127.612 72.4259 126.582C72.4733 126.575 72.4936 126.641 72.453 126.655C68.7283 127.783 64.4076 131.327 63.3037 132.608C63.2767 132.641 63.2225 132.594 63.2496 132.561V132.555Z" fill="#263238"/>
<path d="M72.7247 143.887C73.5983 141.544 74.6006 139.241 75.6097 136.95C76.6187 134.654 77.621 132.357 78.691 130.08C79.2937 128.793 79.8897 127.506 80.5398 126.245C80.5601 126.212 80.6143 126.232 80.6008 126.265C79.7272 128.608 78.7384 130.912 77.7429 133.208C76.7474 135.512 75.7316 137.808 74.6887 140.092C74.0995 141.385 73.49 142.666 72.8399 143.926C72.806 143.986 72.6909 143.953 72.718 143.887H72.7247Z" fill="#263238"/>
<path d="M86.7355 124.14C85.7332 124.147 84.7513 124.305 83.7625 124.45C82.7738 124.589 81.7918 124.747 80.8099 124.912C78.8527 125.242 74.6743 125.717 71.2543 126.872C71.2137 126.886 71.471 126.998 71.5117 126.985C73.1099 126.358 85.5843 124.721 86.5662 124.47C86.5527 124.543 86.5324 124.615 86.5324 124.695C86.5324 124.747 86.6001 124.794 86.6339 124.741C86.7288 124.622 86.7762 124.497 86.8574 124.371C86.9251 124.272 86.8574 124.14 86.7355 124.147V124.14Z" fill="#263238"/>
<path d="M60.6699 144.824C61.3471 144.962 66.3991 145.603 77.6748 145.16L77.6274 145.193L78.4265 143.774L77.7357 145.246L77.7222 145.273H77.6816C64.7602 146.395 61.3132 145.068 60.6631 144.824H60.6699Z" fill="#263238"/>
<path d="M38.6328 299.068C124.578 298.665 221.001 298.658 306.946 299.068C221.001 299.477 124.578 299.47 38.6328 299.068Z" fill="#263238"/>
</g>
<defs>
<clipPath id="clip0_2548_7663">
<rect width="236" height="313" fill="white"/>
</clipPath>
</defs>
</svg>
