<svg width="22" height="22" viewBox="0 0 22 22" fill="none" xmlns="http://www.w3.org/2000/svg">
<path fill-rule="evenodd" clip-rule="evenodd" d="M13.7581 1.62146C14.6362 0.743329 15.8273 0.25 17.0691 0.25C18.311 0.25 19.502 0.743329 20.3801 1.62146C21.2582 2.49959 21.7516 3.6906 21.7516 4.93246C21.7516 6.17433 21.2582 7.36533 20.3801 8.24346L10.8941 17.7295C10.3521 18.2715 10.0341 18.5895 9.67812 18.8665C9.26012 19.1935 8.80812 19.4735 8.32812 19.7015C7.92212 19.8945 7.49412 20.0375 6.76812 20.2795L3.43612 21.3895L2.63412 21.6575C2.31514 21.7639 1.97281 21.7795 1.64552 21.7023C1.31822 21.6251 1.0189 21.4582 0.781113 21.2205C0.54333 20.9827 0.376491 20.6834 0.299303 20.3561C0.222116 20.0288 0.237634 19.6864 0.344116 19.3675L1.72212 15.2345C1.96412 14.5075 2.10712 14.0795 2.30012 13.6725C2.52912 13.1935 2.80812 12.7415 3.13512 12.3225C3.41112 11.9685 3.73012 11.6495 4.27212 11.1075L13.7581 1.62146ZM3.40112 19.8215L6.24212 18.8735C7.03312 18.6095 7.36912 18.4965 7.68212 18.3475C8.06212 18.1655 8.42212 17.9435 8.75512 17.6845C9.02812 17.4705 9.28012 17.2215 9.87012 16.6315L17.4401 9.06146C16.4022 8.69368 15.4601 8.09771 14.6831 7.31746C13.9035 6.54033 13.3082 5.59819 12.9411 4.56046L5.37112 12.1305C4.78112 12.7195 4.53112 12.9705 4.31812 13.2445C4.05916 13.5772 3.83687 13.937 3.65512 14.3175C3.50612 14.6305 3.39312 14.9665 3.12912 15.7575L2.18112 18.6005L3.40112 19.8215ZM14.1561 3.34346C14.1911 3.51846 14.2481 3.75646 14.3451 4.03346C14.6376 4.87055 15.1163 5.63032 15.7451 6.25546C16.37 6.88418 17.1294 7.36287 17.9661 7.65546C18.2441 7.75246 18.4821 7.80946 18.6571 7.84446L19.3191 7.18246C19.9124 6.585 20.2447 5.77676 20.2432 4.93477C20.2418 4.09278 19.9066 3.2857 19.3113 2.69032C18.7159 2.09494 17.9088 1.75981 17.0668 1.75834C16.2248 1.75687 15.4166 2.08917 14.8191 2.68246L14.1561 3.34346Z" fill="black"/>
</svg>
