<svg width="500" height="500" viewBox="0 0 500 500" fill="none" xmlns="http://www.w3.org/2000/svg">
<path d="M403.842 453.131C403.842 453.274 334.403 453.392 248.765 453.392C163.098 453.392 93.6729 453.275 93.6729 453.131C93.6729 452.987 163.097 452.87 248.765 452.87C334.403 452.871 403.842 452.988 403.842 453.131Z" fill="#263238"/>
<path d="M336.179 330.712C320.731 319.919 317.226 299.886 317.837 281.878C317.939 278.872 317.608 275.703 319.038 273.065C320.469 270.428 323.805 268.626 326.496 269.892C328.728 270.943 329.701 273.539 330.95 275.687C332.611 278.544 335.087 280.909 338 282.42C339.914 283.413 342.282 284.021 344.172 282.979C346.765 281.548 347.07 277.966 347.052 274.976C347.017 269.404 346.983 263.831 346.948 258.26C346.929 255.271 346.921 252.218 347.85 249.381C348.78 246.544 350.834 243.908 353.678 243.111C356.523 242.315 360.039 243.954 360.64 246.881C360.89 248.099 360.642 249.363 360.725 250.604C360.808 251.845 361.386 253.218 362.565 253.564C363.758 253.915 364.955 253.067 365.848 252.192C368.934 249.174 371.028 245.285 372.985 241.418C374.942 237.551 376.841 233.592 379.641 230.299C382.441 227.006 386.314 224.398 390.595 224.155C394.877 223.913 399.439 226.555 400.521 230.759C401.606 234.974 399.147 239.25 396.471 242.662C392.501 247.724 387.805 252.201 382.576 255.907C381.634 256.576 380.612 257.299 380.252 258.406C379.603 260.399 381.491 262.379 383.459 263.034C385.687 263.776 388.105 263.545 390.436 263.819C392.767 264.093 395.293 265.122 396.174 267.325C397.399 270.381 394.843 273.584 392.328 275.681C387.293 279.882 381.543 283.201 375.409 285.448C373.21 286.253 370.895 286.959 369.122 288.504C367.349 290.05 366.278 292.736 367.35 294.842C368.422 296.95 371.172 297.624 373.476 297.196C375.779 296.769 377.841 295.518 380.037 294.69C384.145 293.139 389.451 293.422 392.083 296.973C393.812 299.307 393.965 302.557 393.09 305.339C392.216 308.121 390.442 310.518 388.558 312.728C381.973 320.454 373.543 326.673 364.012 329.978C354.482 333.282 345.651 334.176 336.179 330.712Z" fill="#EE4040"/>
<path d="M396.202 226.658C396.209 226.665 396.11 226.762 395.912 226.942C395.691 227.139 395.397 227.401 395.024 227.734C394.241 228.426 393.086 229.447 391.635 230.802C388.73 233.503 384.649 237.567 380.216 243.127C377.991 245.898 375.68 249.035 373.259 252.448C370.844 255.867 368.286 259.536 365.742 263.494C363.198 267.45 360.651 271.69 358.366 276.271C357.214 278.556 356.186 280.948 355.137 283.386C354.094 285.824 353.036 288.297 351.965 290.8C347.717 300.825 343.981 310.517 341.311 319.57C338.626 328.615 337.028 336.998 336.329 344.101C335.612 351.207 335.759 357.007 336.049 360.987C336.205 362.977 336.358 364.522 336.498 365.564C336.556 366.064 336.601 366.457 336.636 366.753C336.664 367.021 336.674 367.16 336.665 367.162C336.655 367.163 336.627 367.028 336.58 366.762C336.533 366.469 336.469 366.077 336.388 365.58C336.212 364.541 336.025 362.998 335.835 361.005C335.48 357.022 335.272 351.201 335.942 344.064C336.594 336.93 338.159 328.505 340.827 319.424C343.477 310.336 347.209 300.615 351.461 290.582C352.533 288.078 353.593 285.603 354.637 283.165C355.685 280.733 356.724 278.321 357.886 276.025C360.191 271.421 362.757 267.171 365.32 263.214C367.881 259.253 370.457 255.588 372.889 252.179C375.33 248.773 377.665 245.642 379.915 242.879C384.399 237.333 388.538 233.297 391.492 230.643C392.967 229.31 394.144 228.314 394.952 227.649C395.341 227.334 395.645 227.086 395.875 226.899C396.085 226.732 396.196 226.65 396.202 226.658Z" fill="#263238"/>
<path d="M358.043 276.003C358.006 276.009 357.904 275.555 357.751 274.728C357.594 273.902 357.406 272.7 357.196 271.21C356.773 268.233 356.33 264.103 355.858 259.547C355.386 254.988 354.885 250.876 354.419 247.914C354.19 246.433 353.992 245.235 353.845 244.409C353.702 243.582 353.641 243.12 353.678 243.111C353.715 243.103 353.847 243.549 354.054 244.364C354.266 245.178 354.523 246.368 354.801 247.846C355.368 250.802 355.933 254.924 356.404 259.487C356.858 263.984 357.268 268.052 357.582 271.161C357.732 272.564 357.86 273.747 357.963 274.696C358.05 275.532 358.082 275.998 358.043 276.003Z" fill="#263238"/>
<path d="M396.48 268.82C396.481 268.858 395.934 268.922 394.947 269.004C393.961 269.092 392.533 269.211 390.774 269.415C387.253 269.795 382.409 270.49 377.097 271.491C371.786 272.502 367.018 273.621 363.593 274.53C361.876 274.972 360.497 275.368 359.542 275.636C358.588 275.907 358.055 276.04 358.042 276.004C358.03 275.967 358.542 275.765 359.478 275.429C360.416 275.098 361.782 274.644 363.49 274.151C366.898 273.142 371.669 271.959 376.996 270.944C382.323 269.941 387.195 269.304 390.736 269.024C392.506 268.87 393.942 268.809 394.935 268.789C395.929 268.772 396.478 268.781 396.48 268.82Z" fill="#263238"/>
<path d="M341.3 318.716C341.282 318.724 341.193 318.563 341.036 318.247C340.858 317.871 340.641 317.412 340.379 316.856C339.814 315.646 339.041 313.874 338.115 311.671C336.261 307.268 333.89 301.105 331.367 294.269C328.842 287.43 326.532 281.253 324.772 276.818C323.91 274.662 323.2 272.888 322.672 271.57C322.446 270.998 322.261 270.526 322.108 270.138C321.985 269.809 321.928 269.632 321.946 269.623C321.964 269.616 322.053 269.777 322.21 270.093C322.388 270.469 322.605 270.927 322.867 271.483C323.432 272.693 324.205 274.465 325.131 276.668C326.986 281.071 329.356 287.234 331.88 294.073C334.404 300.91 336.714 307.086 338.474 311.522C339.337 313.677 340.046 315.452 340.574 316.769C340.8 317.341 340.985 317.814 341.138 318.201C341.261 318.532 341.318 318.708 341.3 318.716Z" fill="#263238"/>
<path d="M392.378 302.254C392.383 302.273 392.208 302.344 391.871 302.463C391.472 302.597 390.981 302.761 390.388 302.96C389.018 303.404 387.168 304.004 384.918 304.732C380.3 306.23 373.945 308.372 366.927 310.748C359.906 313.126 353.526 315.211 348.875 316.613C346.55 317.315 344.663 317.864 343.352 318.216C342.746 318.375 342.246 318.506 341.839 318.614C341.491 318.699 341.306 318.734 341.301 318.716C341.296 318.698 341.471 318.626 341.808 318.506C342.206 318.373 342.697 318.209 343.291 318.01C344.661 317.566 346.51 316.967 348.76 316.237C353.378 314.74 359.734 312.597 366.754 310.22C373.773 307.843 380.152 305.758 384.803 304.356C387.128 303.654 389.015 303.105 390.327 302.752C390.933 302.593 391.432 302.461 391.84 302.355C392.187 302.271 392.372 302.236 392.378 302.254Z" fill="#263238"/>
<path d="M371.541 59.679L366.388 61.522L364.185 54.793C360.121 42.381 347.151 35.74 335.288 39.984C323.418 44.23 317.072 57.781 321.136 70.193L323.339 76.922L318.169 78.771C314.149 80.209 311.973 84.843 313.35 89.05L327.686 132.841C329.084 137.112 333.523 139.389 337.543 137.951L390.917 118.858C395.002 117.397 397.18 112.752 395.781 108.482L381.445 64.691C380.066 60.484 375.625 58.217 371.541 59.679ZM330.86 66.713C328.633 59.911 332.109 52.483 338.617 50.155C345.119 47.829 352.223 51.472 354.45 58.274L356.653 65.004L333.063 73.442L330.86 66.713ZM360.869 105.566L364.53 116.749C364.684 117.222 364.414 117.705 363.957 117.869L358.835 119.701C358.443 119.841 357.941 119.634 357.787 119.161L354.126 107.978C350.159 107.81 346.477 105.181 345.099 100.974C343.329 95.565 346.098 89.651 351.289 87.794C356.477 85.938 362.131 88.838 363.902 94.248C365.279 98.455 363.91 102.892 360.869 105.566Z" fill="#EE4040"/>
<path d="M366.164 61.401C366.213 61.536 356.614 65.13 344.726 69.426C332.835 73.724 323.159 77.098 323.11 76.963C323.061 76.828 332.658 73.235 344.55 68.937C356.436 64.641 366.115 61.266 366.164 61.401Z" fill="#263238"/>
<path d="M377.498 63.244C377.507 63.241 377.546 63.33 377.613 63.506C377.689 63.71 377.785 63.968 377.904 64.29C378.161 65.019 378.518 66.033 378.972 67.321C379.891 69.998 381.199 73.807 382.809 78.499C384.414 83.236 386.321 88.858 388.436 95.099C389.481 98.232 390.622 101.487 391.717 104.925C392.223 106.653 392.643 108.5 392.467 110.413C392.378 111.362 392.12 112.317 391.658 113.181C391.187 114.039 390.53 114.794 389.768 115.409C388.231 116.638 386.431 117.356 384.693 118C382.948 118.627 381.227 119.245 379.538 119.852C376.158 121.061 372.898 122.228 369.791 123.341C363.583 125.551 357.989 127.543 353.277 129.221C348.597 130.867 344.798 132.203 342.129 133.142C340.838 133.584 339.82 133.933 339.09 134.183C338.764 134.289 338.502 134.374 338.295 134.441C338.114 134.497 338.021 134.521 338.018 134.512C338.015 134.504 338.103 134.463 338.277 134.391C338.48 134.311 338.736 134.21 339.054 134.084C339.778 133.812 340.784 133.432 342.061 132.951C344.717 131.974 348.497 130.585 353.154 128.874C357.854 127.166 363.435 125.139 369.63 122.89C372.733 121.768 375.99 120.592 379.366 119.372C381.054 118.763 382.772 118.143 384.515 117.514C386.24 116.875 387.991 116.166 389.441 115.004C390.16 114.424 390.766 113.724 391.202 112.934C391.628 112.138 391.868 111.257 391.953 110.364C392.122 108.567 391.725 106.772 391.229 105.07C390.152 101.666 389.011 98.382 387.982 95.253C385.907 89 384.037 83.364 382.461 78.617C380.917 73.903 379.662 70.076 378.781 67.387C378.366 66.086 378.04 65.061 377.806 64.325C377.706 63.996 377.627 63.733 377.565 63.524C377.511 63.341 377.489 63.247 377.498 63.244Z" fill="#263238"/>
<path d="M349.342 49.454C349.316 49.498 348.811 49.185 347.828 48.789C346.843 48.413 345.352 47.974 343.463 47.914C341.586 47.845 339.302 48.135 337.022 49.131C334.75 50.115 332.512 51.862 330.91 54.239C329.276 56.607 328.561 59.347 328.56 61.832C328.539 64.328 329.069 66.551 329.578 68.375C330.105 70.201 330.644 71.65 330.999 72.656C331.358 73.662 331.552 74.221 331.517 74.235C331.485 74.247 331.228 73.714 330.81 72.73C330.397 71.744 329.804 70.312 329.226 68.481C328.666 66.652 328.086 64.401 328.08 61.829C328.053 59.271 328.785 56.397 330.478 53.946C332.14 51.482 334.469 49.685 336.832 48.69C339.203 47.685 341.558 47.427 343.481 47.545C345.417 47.654 346.93 48.161 347.908 48.602C348.392 48.839 348.762 49.033 348.995 49.196C349.233 49.351 349.352 49.438 349.342 49.454Z" fill="#263238"/>
<path d="M349.796 88.584C349.79 88.571 349.963 88.485 350.303 88.332C350.64 88.175 351.156 87.974 351.846 87.777C352.531 87.562 353.409 87.406 354.445 87.345C355.478 87.294 356.695 87.401 357.953 87.868C360.508 88.766 362.863 91.378 364.019 94.839C364.575 96.587 364.624 98.617 364.065 100.58C363.469 102.535 362.375 104.41 360.795 105.986L360.861 105.721C362.189 109.366 363.635 113.333 365.141 117.46L365.232 117.711L364.979 117.796C364.254 118.039 363.476 118.3 362.693 118.562C361.008 119.126 359.347 119.682 357.717 120.228L357.471 120.31L357.39 120.063C356.02 115.917 354.519 112.008 353.429 108.272L353.645 108.442C351.598 108.305 349.758 107.446 348.293 106.326C346.822 105.195 345.695 103.791 344.935 102.314C344.188 100.832 343.812 99.259 343.875 97.81C343.912 96.362 344.246 95.051 344.714 93.946C345.647 91.717 347.037 90.315 348.067 89.55C349.116 88.783 349.796 88.584 349.796 88.584C349.82 88.629 349.161 88.88 348.16 89.671C347.179 90.461 345.853 91.865 344.981 94.055C344.11 96.192 343.732 99.264 345.29 102.131C346.037 103.548 347.138 104.895 348.561 105.974C349.978 107.042 351.746 107.847 353.67 107.965L353.839 107.975L353.886 108.135C354.989 111.845 356.498 115.738 357.88 119.901L357.552 119.737C359.181 119.191 360.842 118.633 362.527 118.068C363.31 117.806 364.087 117.545 364.813 117.302L364.651 117.637C363.156 113.506 361.718 109.535 360.399 105.888L360.345 105.741L360.464 105.623C361.96 104.144 363.05 102.31 363.624 100.45C364.17 98.573 364.138 96.644 363.62 94.96C362.527 91.601 360.28 89.047 357.843 88.15C356.64 87.68 355.462 87.552 354.45 87.579C353.436 87.615 352.569 87.744 351.885 87.932C350.513 88.286 349.814 88.628 349.796 88.584Z" fill="#263238"/>
<path d="M318.891 377.318L219.01 376.856C206.997 376.801 197.302 367.02 197.353 355.007L198.412 104.603C198.463 92.583 208.25 82.882 220.269 82.938L320.15 83.399C332.163 83.455 341.857 93.236 341.806 105.248L340.747 355.652C340.698 367.672 330.911 377.374 318.891 377.318Z" fill="#455A64"/>
<path d="M320.008 92.041L300.643 91.952C298.046 91.94 295.931 94.132 295.92 96.846L295.904 100.359C295.893 103.074 293.778 105.265 291.181 105.253L253.434 105.079C250.837 105.067 248.741 102.856 248.752 100.141L248.767 96.628C248.778 93.913 246.682 91.702 244.085 91.69L237.274 91.658L220.325 91.58C211.908 91.541 205.053 98.335 205.017 106.753L203.984 351.165C203.948 359.579 210.738 366.429 219.151 366.468L318.833 366.928C327.25 366.967 334.104 360.173 334.141 351.755L335.174 107.342C335.21 98.93 328.421 92.081 320.008 92.041Z" fill="white"/>
<path d="M306.593 334.325L232.469 333.983C231.702 333.979 231.083 333.144 231.088 332.117L231.17 312.725C231.174 311.698 231.8 310.869 232.567 310.872L306.691 311.215C307.459 311.219 308.078 312.054 308.073 313.081L307.991 332.472C307.987 333.499 307.361 334.329 306.593 334.325Z" fill="#EE4040"/>
<path d="M256.55 320.238C256.517 319.945 256.378 319.718 256.132 319.555C255.887 319.393 255.586 319.311 255.228 319.309C254.967 319.308 254.738 319.349 254.542 319.433C254.347 319.516 254.195 319.632 254.085 319.78C253.977 319.927 253.922 320.095 253.921 320.283C253.921 320.441 253.957 320.576 254.032 320.69C254.108 320.802 254.206 320.896 254.325 320.971C254.444 321.045 254.568 321.106 254.699 321.154C254.829 321.201 254.949 321.239 255.059 321.268L255.657 321.433C255.811 321.474 255.982 321.53 256.17 321.602C256.36 321.674 256.541 321.772 256.713 321.896C256.888 322.018 257.031 322.174 257.144 322.365C257.256 322.556 257.312 322.789 257.311 323.066C257.31 323.385 257.225 323.673 257.056 323.93C256.89 324.186 256.647 324.39 256.327 324.54C256.01 324.691 255.624 324.765 255.171 324.763C254.748 324.761 254.382 324.691 254.073 324.553C253.766 324.415 253.525 324.224 253.349 323.979C253.176 323.734 253.078 323.45 253.056 323.127L253.794 323.13C253.812 323.353 253.886 323.538 254.016 323.685C254.148 323.83 254.315 323.938 254.517 324.01C254.72 324.08 254.939 324.116 255.173 324.117C255.446 324.118 255.691 324.075 255.909 323.988C256.126 323.898 256.299 323.774 256.427 323.615C256.554 323.454 256.618 323.266 256.619 323.051C256.62 322.855 256.566 322.695 256.457 322.572C256.348 322.449 256.204 322.348 256.026 322.27C255.847 322.193 255.654 322.124 255.447 322.066L254.722 321.855C254.261 321.72 253.897 321.529 253.629 321.282C253.361 321.035 253.228 320.712 253.229 320.315C253.231 319.984 253.321 319.696 253.501 319.451C253.683 319.204 253.926 319.013 254.23 318.878C254.536 318.741 254.877 318.673 255.254 318.675C255.634 318.677 255.972 318.747 256.268 318.884C256.563 319.02 256.797 319.206 256.969 319.441C257.143 319.676 257.234 319.943 257.242 320.241L256.55 320.238ZM259.219 318.774L259.194 324.677L258.479 324.674L258.504 318.771L259.219 318.774ZM265.333 318.802L265.309 324.705L264.617 324.702L261.42 320.052L261.362 320.052L261.342 324.687L260.628 324.684L260.652 318.781L261.344 318.784L264.553 323.445L264.611 323.445L264.63 318.799L265.333 318.802ZM270.791 320.672C270.729 320.478 270.646 320.303 270.543 320.149C270.442 319.993 270.32 319.86 270.178 319.75C270.039 319.64 269.88 319.555 269.701 319.497C269.523 319.438 269.327 319.409 269.113 319.408C268.764 319.406 268.445 319.495 268.158 319.674C267.871 319.853 267.642 320.119 267.472 320.469C267.301 320.82 267.215 321.251 267.213 321.763C267.21 322.274 267.294 322.705 267.464 323.058C267.633 323.41 267.864 323.678 268.155 323.86C268.446 324.041 268.775 324.133 269.14 324.135C269.478 324.137 269.776 324.066 270.034 323.923C270.294 323.778 270.497 323.573 270.642 323.309C270.789 323.042 270.864 322.729 270.865 322.367L271.084 322.414L269.308 322.406L269.311 321.772L271.559 321.782L271.557 322.417C271.555 322.903 271.449 323.325 271.24 323.683C271.033 324.042 270.747 324.319 270.383 324.515C270.021 324.71 269.606 324.806 269.137 324.804C268.614 324.801 268.155 324.676 267.761 324.428C267.368 324.181 267.062 323.83 266.843 323.375C266.625 322.92 266.518 322.382 266.521 321.759C266.523 321.292 266.587 320.873 266.713 320.501C266.842 320.126 267.022 319.808 267.254 319.546C267.485 319.284 267.759 319.083 268.075 318.945C268.39 318.806 268.738 318.737 269.116 318.739C269.428 318.74 269.717 318.789 269.986 318.884C270.257 318.978 270.497 319.11 270.708 319.282C270.921 319.452 271.097 319.656 271.239 319.893C271.38 320.128 271.477 320.389 271.529 320.675L270.791 320.672ZM278.953 318.865L279.668 318.868L279.651 322.777C279.65 323.18 279.553 323.54 279.361 323.856C279.172 324.171 278.905 324.418 278.56 324.599C278.215 324.778 277.811 324.867 277.348 324.865C276.885 324.862 276.482 324.77 276.139 324.588C275.795 324.404 275.529 324.154 275.34 323.838C275.153 323.52 275.061 323.159 275.062 322.756L275.079 318.847L275.794 318.85L275.778 322.701C275.776 322.989 275.839 323.246 275.965 323.472C276.09 323.695 276.27 323.872 276.504 324.002C276.74 324.13 277.022 324.194 277.351 324.196C277.679 324.197 277.962 324.135 278.199 324.009C278.436 323.882 278.617 323.707 278.743 323.484C278.871 323.26 278.935 323.004 278.937 322.716L278.953 318.865ZM281.07 324.778L281.095 318.875L283.09 318.884C283.553 318.886 283.931 318.971 284.224 319.14C284.52 319.306 284.738 319.531 284.879 319.814C285.02 320.098 285.09 320.413 285.088 320.761C285.087 321.109 285.014 321.425 284.871 321.708C284.729 321.992 284.511 322.218 284.217 322.386C283.922 322.551 283.545 322.633 283.086 322.631L281.656 322.625L281.659 321.99L283.065 321.997C283.382 321.998 283.637 321.945 283.83 321.836C284.022 321.727 284.162 321.58 284.25 321.394C284.339 321.206 284.384 320.994 284.385 320.758C284.386 320.521 284.343 320.31 284.255 320.123C284.169 319.936 284.03 319.789 283.836 319.683C283.642 319.574 283.385 319.519 283.064 319.518L281.807 319.512L281.785 324.781L281.07 324.778Z" fill="#E8E8E3"/>
<path d="M247.24 163.868L221.523 163.75L221.502 168.469L247.219 168.587L247.24 163.868Z" fill="#EE4040"/>
<path opacity="0.1" d="M247.24 163.868L221.523 163.75L221.502 168.469L247.219 168.587L247.24 163.868Z" fill="black"/>
<path d="M322.655 192.826C322.651 192.806 322.87 192.838 323.242 192.688C323.593 192.552 324.147 192.125 324.211 191.342C324.208 189.747 324.203 187.429 324.197 184.453C324.197 182.954 324.196 181.291 324.195 179.471C324.196 179.015 324.196 178.551 324.196 178.076C324.209 177.59 324.208 177.139 323.916 176.766C323.653 176.395 323.203 176.158 322.733 176.156C322.22 176.155 321.698 176.154 321.167 176.153C316.912 176.145 312.071 176.135 306.723 176.125C285.3 176.045 255.736 175.936 223.082 175.815C222.651 175.812 222.23 176.023 221.98 176.372C221.702 176.726 221.714 177.143 221.72 177.679C221.716 178.694 221.711 179.705 221.707 180.714C221.698 182.731 221.689 184.734 221.681 186.722C221.677 187.717 221.672 188.707 221.667 189.694C221.683 190.167 221.621 190.733 221.709 191.1C221.808 191.501 222.112 191.841 222.49 192.001C222.687 192.081 222.871 192.109 223.109 192.107L223.841 192.111L225.3 192.118C226.271 192.123 227.238 192.128 228.201 192.133C235.902 192.174 243.331 192.214 250.409 192.251C264.558 192.337 277.302 192.415 288.011 192.48C298.7 192.564 307.357 192.633 313.361 192.68C316.339 192.715 318.658 192.742 320.253 192.761C321.027 192.776 321.622 192.787 322.045 192.795C322.448 192.807 322.655 192.826 322.655 192.826C322.655 192.826 322.448 192.843 322.044 192.849C321.621 192.853 321.026 192.859 320.252 192.867C318.656 192.871 316.337 192.877 313.359 192.884C307.354 192.876 298.698 192.864 288.008 192.85C277.299 192.816 264.555 192.776 250.405 192.732C243.328 192.704 235.899 192.675 228.198 192.645C227.235 192.641 226.268 192.637 225.297 192.633L223.837 192.627L223.105 192.624C222.855 192.629 222.545 192.59 222.289 192.478C221.766 192.258 221.349 191.79 221.209 191.233C221.13 190.95 221.148 190.664 221.147 190.433L221.15 189.694C221.154 188.707 221.158 187.716 221.162 186.722C221.17 184.733 221.178 182.73 221.186 180.714C221.19 179.706 221.194 178.694 221.198 177.679C221.206 177.419 221.183 177.191 221.224 176.88C221.268 176.588 221.381 176.305 221.558 176.067C221.901 175.584 222.491 175.289 223.083 175.296C255.736 175.476 285.3 175.64 306.722 175.758C312.072 175.797 316.912 175.832 321.167 175.863C321.698 175.867 322.221 175.871 322.733 175.876C323.293 175.881 323.826 176.169 324.132 176.609C324.475 177.04 324.472 177.63 324.452 178.078C324.448 178.553 324.445 179.018 324.441 179.473C324.424 181.293 324.41 182.956 324.397 184.454C324.36 187.434 324.332 189.755 324.312 191.351C324.225 192.185 323.626 192.613 323.257 192.738C322.87 192.876 322.655 192.826 322.655 192.826Z" fill="#E0E0E0"/>
<path d="M275.47 182.116L228.427 181.9L228.406 186.311L275.449 186.527L275.47 182.116Z" fill="#EE4040"/>
<path opacity="0.2" d="M275.47 182.116L228.427 181.9L228.406 186.311L275.449 186.527L275.47 182.116Z" fill="white"/>
<path d="M247.059 206.932L221.342 206.813L221.32 211.532L247.037 211.651L247.059 206.932Z" fill="#EE4040"/>
<path opacity="0.1" d="M247.059 206.932L221.342 206.813L221.32 211.532L247.037 211.651L247.059 206.932Z" fill="black"/>
<path d="M321.995 235.887C321.993 235.869 322.205 235.888 322.588 235.775C322.951 235.656 323.536 235.356 323.855 234.642C324.026 234.29 324.043 233.863 324.028 233.374C324.026 232.888 324.024 232.358 324.022 231.785C324.02 230.634 324.017 229.309 324.014 227.821C324.014 226.328 324.013 224.67 324.013 222.857C324.013 222.403 324.013 221.94 324.013 221.467C324.035 220.989 323.977 220.546 323.721 220.147C323.481 219.755 323.09 219.444 322.634 219.305C322.187 219.163 321.652 219.24 321.123 219.219C316.883 219.211 312.059 219.201 306.727 219.191C285.379 219.112 255.917 219.002 223.377 218.882C222.473 218.86 221.638 219.597 221.551 220.491C221.521 221.442 221.535 222.493 221.525 223.485C221.516 225.494 221.507 227.491 221.499 229.472C221.495 230.463 221.49 231.451 221.486 232.434C221.503 232.925 221.433 233.438 221.549 233.83C221.662 234.244 221.926 234.613 222.279 234.855C222.646 235.102 223.043 235.193 223.523 235.175L224.978 235.182C225.946 235.187 226.909 235.192 227.869 235.197C235.544 235.237 242.947 235.277 249.999 235.314C264.1 235.4 276.799 235.478 287.471 235.543C298.123 235.627 306.749 235.695 312.733 235.742C315.701 235.777 318.011 235.804 319.601 235.823C320.372 235.838 320.965 235.849 321.387 235.857C321.789 235.868 321.995 235.887 321.995 235.887C321.995 235.887 321.789 235.904 321.386 235.91C320.965 235.914 320.371 235.92 319.6 235.928C318.011 235.932 315.7 235.938 312.732 235.946C306.749 235.938 298.122 235.926 287.469 235.912C276.797 235.879 264.098 235.839 249.997 235.795C242.944 235.767 235.541 235.738 227.867 235.708C226.907 235.704 225.944 235.7 224.976 235.696L223.521 235.69C223.032 235.716 222.431 235.598 221.989 235.282C221.536 234.972 221.198 234.499 221.052 233.967C220.903 233.407 220.992 232.92 220.97 232.432C220.974 231.449 220.977 230.461 220.981 229.47C220.989 227.488 220.998 225.492 221.005 223.482C221.017 222.464 220.997 221.498 221.034 220.429C221.145 219.278 222.219 218.331 223.379 218.36C255.919 218.54 285.38 218.703 306.728 218.821C312.059 218.86 316.882 218.895 321.123 218.927C321.646 218.955 322.175 218.87 322.716 219.036C323.239 219.199 323.68 219.557 323.95 220.005C324.237 220.444 324.299 221.005 324.27 221.467C324.266 221.94 324.263 222.403 324.259 222.858C324.243 224.671 324.228 226.329 324.215 227.822C324.199 229.311 324.186 230.635 324.174 231.786C324.167 232.359 324.161 232.889 324.156 233.374C324.165 233.851 324.136 234.324 323.949 234.685C323.597 235.428 322.979 235.72 322.601 235.826C322.205 235.925 321.995 235.887 321.995 235.887Z" fill="#E0E0E0"/>
<path d="M246.865 251.85L221.148 251.731L221.127 256.45L246.844 256.569L246.865 251.85Z" fill="#EE4040"/>
<path opacity="0.1" d="M246.865 251.85L221.148 251.731L221.127 256.45L246.844 256.569L246.865 251.85Z" fill="black"/>
<path d="M321.804 280.8C321.803 280.782 322.015 280.801 322.397 280.689C322.761 280.57 323.345 280.269 323.664 279.555C323.835 279.203 323.852 278.776 323.837 278.287C323.835 277.801 323.833 277.271 323.831 276.698C323.829 275.547 323.827 274.222 323.824 272.734C323.823 271.241 323.823 269.583 323.822 267.769C323.822 267.316 323.823 266.852 323.823 266.378C323.844 265.9 323.787 265.458 323.531 265.059C323.29 264.667 322.9 264.356 322.444 264.216C321.997 264.075 321.462 264.152 320.932 264.13C316.693 264.121 311.868 264.112 306.537 264.102C285.188 264.023 255.727 263.914 223.187 263.793C222.282 263.771 221.448 264.508 221.361 265.402C221.331 266.353 221.345 267.404 221.336 268.396C221.327 270.405 221.318 272.402 221.31 274.383C221.306 275.374 221.301 276.36 221.297 277.345C221.314 277.835 221.243 278.348 221.359 278.741C221.472 279.155 221.736 279.524 222.089 279.766C222.456 280.013 222.853 280.105 223.333 280.086L224.788 280.093C225.756 280.098 226.719 280.103 227.679 280.108C235.353 280.149 242.756 280.188 249.809 280.225C263.91 280.312 276.609 280.389 287.281 280.454C297.933 280.538 306.559 280.606 312.543 280.653C315.511 280.688 317.822 280.716 319.411 280.734C320.182 280.749 320.776 280.759 321.197 280.768C321.598 280.782 321.804 280.8 321.804 280.8C321.804 280.8 321.598 280.817 321.196 280.823C320.774 280.827 320.181 280.833 319.41 280.841C317.82 280.845 315.509 280.851 312.541 280.859C306.558 280.85 297.932 280.839 287.278 280.825C276.606 280.792 263.907 280.752 249.806 280.708C242.753 280.68 235.35 280.651 227.676 280.621C226.716 280.617 225.753 280.612 224.785 280.608L223.33 280.602C222.841 280.628 222.24 280.509 221.798 280.194C221.345 279.883 221.007 279.411 220.861 278.879C220.713 278.319 220.801 277.831 220.779 277.344C220.783 276.361 220.787 275.373 220.791 274.383C220.799 272.401 220.807 270.404 220.815 268.395C220.827 267.378 220.807 266.412 220.844 265.342C220.955 264.191 222.029 263.244 223.189 263.274C255.729 263.454 285.189 263.617 306.538 263.735C311.868 263.774 316.692 263.809 320.933 263.84C321.456 263.867 321.985 263.783 322.526 263.949C323.048 264.112 323.489 264.47 323.76 264.919C324.047 265.358 324.109 265.919 324.08 266.381C324.076 266.854 324.072 267.317 324.068 267.771C324.052 269.585 324.038 271.243 324.025 272.735C324.009 274.224 323.996 275.549 323.984 276.7C323.977 277.272 323.97 277.803 323.964 278.288C323.973 278.766 323.944 279.238 323.757 279.599C323.405 280.341 322.787 280.634 322.41 280.74C322.015 280.837 321.804 280.8 321.804 280.8Z" fill="#E0E0E0"/>
<path d="M275.289 225.18L228.245 224.963L228.225 229.374L275.269 229.591L275.289 225.18Z" fill="#EE4040"/>
<path opacity="0.2" d="M275.289 225.18L228.245 224.963L228.225 229.374L275.269 229.591L275.289 225.18Z" fill="white"/>
<path d="M232.51 272.637C232.505 273.848 231.58 274.826 230.444 274.821C229.308 274.815 228.392 273.829 228.397 272.618C228.402 271.407 229.327 270.428 230.463 270.434C231.599 270.439 232.515 271.425 232.51 272.637Z" fill="#EE4040"/>
<path d="M238.884 272.667C238.879 273.878 237.954 274.856 236.818 274.851C235.682 274.846 234.766 273.86 234.771 272.648C234.776 271.437 235.701 270.459 236.837 270.464C237.973 270.468 238.889 271.455 238.884 272.667Z" fill="#EE4040"/>
<path d="M245.257 272.696C245.252 273.907 244.327 274.886 243.191 274.88C242.055 274.875 241.139 273.889 241.144 272.677C241.149 271.466 242.074 270.488 243.21 270.493C244.345 270.498 245.262 271.484 245.257 272.696Z" fill="#EE4040"/>
<path d="M251.629 272.725C251.624 273.936 250.699 274.915 249.564 274.909C248.428 274.904 247.511 273.918 247.517 272.706C247.522 271.495 248.447 270.517 249.583 270.522C250.718 270.528 251.635 271.514 251.629 272.725Z" fill="#EE4040"/>
<path d="M258.003 272.754C257.998 273.966 257.073 274.944 255.937 274.938C254.801 274.933 253.884 273.947 253.889 272.736C253.895 271.524 254.82 270.546 255.955 270.551C257.091 270.557 258.007 271.543 258.003 272.754Z" fill="#EE4040"/>
<path d="M264.375 272.784C264.37 273.996 263.445 274.974 262.309 274.968C261.173 274.963 260.257 273.977 260.262 272.766C260.267 271.554 261.192 270.577 262.327 270.581C263.464 270.586 264.38 271.573 264.375 272.784Z" fill="#EE4040"/>
<path d="M270.749 272.813C270.743 274.025 269.818 275.003 268.683 274.998C267.547 274.992 266.631 274.006 266.636 272.795C266.641 271.583 267.566 270.606 268.701 270.611C269.836 270.616 270.753 271.602 270.749 272.813Z" fill="#EE4040"/>
<path d="M277.121 272.842C277.116 274.054 276.191 275.032 275.056 275.027C273.92 275.021 273.003 274.036 273.009 272.824C273.014 271.613 273.939 270.635 275.074 270.64C276.21 270.645 277.126 271.631 277.121 272.842Z" fill="#EE4040"/>
<path d="M283.494 272.873C283.489 274.084 282.564 275.062 281.429 275.057C280.293 275.052 279.376 274.066 279.381 272.854C279.387 271.643 280.312 270.666 281.447 270.67C282.583 270.674 283.499 271.661 283.494 272.873Z" fill="#EE4040"/>
<g opacity="0.2">
<path d="M232.51 272.637C232.505 273.848 231.58 274.826 230.444 274.821C229.308 274.815 228.392 273.829 228.397 272.618C228.402 271.407 229.327 270.428 230.463 270.434C231.599 270.439 232.515 271.425 232.51 272.637Z" fill="white"/>
<path d="M238.884 272.667C238.879 273.878 237.954 274.856 236.818 274.851C235.682 274.846 234.766 273.86 234.771 272.648C234.776 271.437 235.701 270.459 236.837 270.464C237.973 270.468 238.889 271.455 238.884 272.667Z" fill="white"/>
<path d="M245.257 272.696C245.252 273.907 244.327 274.886 243.191 274.88C242.055 274.875 241.139 273.889 241.144 272.677C241.149 271.466 242.074 270.488 243.21 270.493C244.345 270.498 245.262 271.484 245.257 272.696Z" fill="white"/>
<path d="M251.629 272.725C251.624 273.936 250.699 274.915 249.564 274.909C248.428 274.904 247.511 273.918 247.517 272.706C247.522 271.495 248.447 270.517 249.583 270.522C250.718 270.528 251.635 271.514 251.629 272.725Z" fill="white"/>
<path d="M258.003 272.754C257.998 273.966 257.073 274.944 255.937 274.938C254.801 274.933 253.884 273.947 253.889 272.736C253.895 271.524 254.82 270.546 255.955 270.551C257.091 270.557 258.007 271.543 258.003 272.754Z" fill="white"/>
<path d="M264.375 272.784C264.37 273.996 263.445 274.974 262.309 274.968C261.173 274.963 260.257 273.977 260.262 272.766C260.267 271.554 261.192 270.577 262.327 270.581C263.464 270.586 264.38 271.573 264.375 272.784Z" fill="white"/>
<path d="M270.749 272.813C270.743 274.025 269.818 275.003 268.683 274.998C267.547 274.992 266.631 274.006 266.636 272.795C266.641 271.583 267.566 270.606 268.701 270.611C269.836 270.616 270.753 271.602 270.749 272.813Z" fill="white"/>
<path d="M277.121 272.842C277.116 274.054 276.191 275.032 275.056 275.027C273.92 275.021 273.003 274.036 273.009 272.824C273.014 271.613 273.939 270.635 275.074 270.64C276.21 270.645 277.126 271.631 277.121 272.842Z" fill="white"/>
<path d="M283.494 272.873C283.489 274.084 282.564 275.062 281.429 275.057C280.293 275.052 279.376 274.066 279.381 272.854C279.387 271.643 280.312 270.666 281.447 270.67C282.583 270.674 283.499 271.661 283.494 272.873Z" fill="white"/>
</g>
<path d="M274.442 128.506C275.788 127.941 276.745 126.554 276.753 124.919C276.762 122.777 275.141 121.033 273.132 121.023C271.124 121.014 269.488 122.743 269.48 124.885C269.473 126.535 270.437 127.94 271.797 128.506C266.2 129.349 266.454 135.432 266.454 135.432L279.688 135.493C279.688 135.493 279.99 129.344 274.442 128.506Z" fill="#EE4040"/>
<path opacity="0.1" d="M274.442 128.506C275.788 127.941 276.745 126.554 276.753 124.919C276.762 122.777 275.141 121.033 273.132 121.023C271.124 121.014 269.488 122.743 269.48 124.885C269.473 126.535 270.437 127.94 271.797 128.506C266.2 129.349 266.454 135.432 266.454 135.432L279.688 135.493C279.688 135.493 279.99 129.344 274.442 128.506Z" fill="black"/>
<path d="M295.955 139.472L248.762 139.255L248.736 144.898L295.929 145.115L295.955 139.472Z" fill="#EE4040"/>
<path opacity="0.2" d="M295.955 139.472L248.762 139.255L248.736 144.898L295.929 145.115L295.955 139.472Z" fill="white"/>
<path d="M122.465 168.677C122.465 168.687 122.307 168.704 122.001 168.729C121.67 168.753 121.219 168.786 120.64 168.828C120.039 168.838 119.308 168.969 118.446 169.121C118.017 169.208 117.543 169.243 117.059 169.386C116.573 169.521 116.056 169.664 115.509 169.816C113.351 170.497 110.752 171.579 108.135 173.474C105.525 175.354 102.914 178.043 100.879 181.551C99.8091 183.275 99.0331 185.266 98.3361 187.359C97.7691 189.489 97.2671 191.752 97.2291 194.137C97.1231 195.326 97.2431 196.534 97.2931 197.762C97.3251 198.376 97.4571 198.984 97.5361 199.603C97.6201 200.222 97.7111 200.844 97.8871 201.455C98.3931 203.941 99.4061 206.378 100.687 208.713C103.248 213.401 107.552 217.44 112.867 219.781C115.526 220.954 118.466 221.587 121.456 221.71C124.449 221.9 127.515 221.419 130.421 220.42L131.3 220.097L131.416 220.055L131.521 220.108C135.824 222.293 140.044 224.435 144.133 226.511L143.758 226.831C142.411 222.651 141.106 218.599 139.853 214.71L139.805 214.56L139.916 214.449C143.095 211.266 145.31 207.399 146.538 203.44C147.769 199.469 147.979 195.425 147.499 191.719C147.019 188.005 145.805 184.628 144.186 181.786C142.568 178.936 140.556 176.621 138.491 174.813C136.402 173.018 134.236 171.802 132.295 170.871C130.307 170.039 128.535 169.506 127.062 169.222C126.326 169.096 125.671 168.985 125.1 168.888C124.534 168.848 124.052 168.815 123.653 168.787C123.281 168.758 122.988 168.736 122.766 168.719C122.567 168.698 122.465 168.685 122.465 168.677C122.465 168.67 122.567 168.668 122.767 168.671C122.989 168.677 123.283 168.686 123.657 168.696C124.058 168.712 124.544 168.732 125.114 168.755C125.69 168.841 126.351 168.939 127.094 169.05C128.582 169.31 130.377 169.821 132.396 170.639C134.366 171.556 136.57 172.766 138.7 174.566C140.806 176.378 142.861 178.711 144.52 181.592C146.179 184.465 147.431 187.888 147.935 191.659C148.439 195.421 148.241 199.533 147.001 203.578C145.764 207.611 143.518 211.558 140.282 214.81L140.345 214.549C141.603 218.435 142.915 222.486 144.268 226.664L144.466 227.275L143.893 226.985C139.802 224.911 135.582 222.772 131.277 220.589L131.498 220.6L130.6 220.93C127.629 221.952 124.493 222.441 121.434 222.247C118.379 222.12 115.373 221.469 112.658 220.267C107.229 217.87 102.85 213.738 100.253 208.956C98.9531 206.574 97.9321 204.089 97.4231 201.558C97.2471 200.936 97.1571 200.303 97.0731 199.673C96.9951 199.044 96.8641 198.424 96.8331 197.8C96.7861 196.552 96.6691 195.323 96.7821 194.116C96.8311 191.693 97.3501 189.395 97.9381 187.236C98.6561 185.114 99.4561 183.099 100.551 181.356C102.636 177.811 105.302 175.106 107.961 173.227C110.626 171.333 113.265 170.269 115.451 169.613C116.004 169.469 116.528 169.332 117.02 169.204C117.509 169.068 117.988 169.04 118.421 168.962C119.292 168.825 120.028 168.711 120.633 168.719C121.215 168.699 121.669 168.685 122.002 168.673C122.308 168.667 122.465 168.668 122.465 168.677Z" fill="#EE4040"/>
<path d="M128.168 192.026H126.32L122.287 186.405V182.716C122.287 182.716 119.431 182.54 119.766 187.371C120.102 192.202 119.739 190.972 119.739 190.972C119.739 190.972 113.674 190.995 113.17 191.522C112.803 191.905 112.638 197.93 112.574 201.197C112.542 202.842 113.551 204.372 115.081 204.761C115.298 204.817 115.518 204.849 115.734 204.849C117.247 204.849 124.976 203.619 124.976 203.619H128.168V192.026Z" fill="#EE4040"/>
<path d="M133.458 191.013L132.322 203.653H129.157V191.268L133.458 191.013Z" fill="#EE4040"/>
<path d="M171.15 448.341V439.785L155.819 439.682L155.692 452.607L156.642 452.678C160.871 452.951 178.163 453.349 180.996 452.472C184.157 451.495 171.15 448.341 171.15 448.341Z" fill="#EE4040"/>
<path d="M181.359 451.67C181.359 451.815 175.624 451.931 168.552 451.931C161.477 451.931 155.744 451.815 155.744 451.67C155.744 451.526 161.477 451.41 168.552 451.41C175.624 451.411 181.359 451.527 181.359 451.67Z" fill="#263238"/>
<path d="M171.419 450.087C171.293 450.021 171.401 449.569 171.73 449.123C172.058 448.676 172.459 448.438 172.559 448.539C172.662 448.642 172.452 449.018 172.149 449.432C171.846 449.843 171.548 450.156 171.419 450.087Z" fill="#263238"/>
<path d="M172.398 450.651C172.265 450.601 172.334 450.094 172.635 449.561C172.935 449.026 173.334 448.706 173.445 448.793C173.56 448.883 173.367 449.319 173.088 449.816C172.809 450.312 172.535 450.704 172.398 450.651Z" fill="#263238"/>
<path d="M160.363 451.632C160.303 451.674 160.075 451.449 159.743 451.073C159.409 450.7 158.972 450.172 158.398 449.726C157.829 449.282 157.202 449.059 156.739 449.001C156.273 448.938 155.967 449.011 155.941 448.936C155.914 448.88 156.199 448.666 156.752 448.633C157.296 448.596 158.065 448.803 158.716 449.313C159.363 449.818 159.777 450.42 160.04 450.856C160.302 451.296 160.42 451.592 160.363 451.632Z" fill="#263238"/>
<path d="M171.466 448.479C171.541 448.6 171.278 448.897 170.84 449.057C170.403 449.219 170.009 449.162 169.989 449.022C169.966 448.878 170.277 448.711 170.66 448.569C171.044 448.428 171.39 448.355 171.466 448.479Z" fill="#263238"/>
<path d="M171.227 447.652C171.241 447.796 170.832 447.919 170.315 447.925C169.797 447.932 169.385 447.821 169.396 447.677C169.406 447.533 169.814 447.411 170.308 447.404C170.801 447.398 171.213 447.509 171.227 447.652Z" fill="#263238"/>
<path d="M208.901 448.341L208.902 439.785L193.571 439.682L193.444 452.476L194.394 452.546C198.623 452.819 215.915 453.349 218.749 452.472C221.909 451.495 208.901 448.341 208.901 448.341Z" fill="#EE4040"/>
<path d="M219.111 451.69C219.111 451.833 213.377 451.951 206.304 451.951C199.229 451.951 193.496 451.834 193.496 451.69C193.496 451.546 199.229 451.429 206.304 451.429C213.376 451.429 219.111 451.546 219.111 451.69Z" fill="#263238"/>
<path d="M209.171 450.087C209.045 450.021 209.153 449.569 209.483 449.123C209.811 448.676 210.212 448.438 210.312 448.539C210.415 448.642 210.205 449.018 209.902 449.432C209.598 449.843 209.299 450.156 209.171 450.087Z" fill="#263238"/>
<path d="M210.15 450.651C210.017 450.601 210.086 450.094 210.387 449.561C210.687 449.026 211.086 448.706 211.197 448.793C211.312 448.883 211.119 449.319 210.841 449.816C210.561 450.312 210.286 450.704 210.15 450.651Z" fill="#263238"/>
<path d="M198.114 451.632C198.054 451.674 197.826 451.449 197.494 451.073C197.161 450.7 196.723 450.172 196.149 449.726C195.58 449.282 194.954 449.059 194.49 449.001C194.024 448.938 193.718 449.011 193.692 448.936C193.665 448.88 193.95 448.666 194.502 448.633C195.046 448.596 195.816 448.803 196.466 449.313C197.114 449.818 197.526 450.42 197.79 450.856C198.054 451.296 198.172 451.592 198.114 451.632Z" fill="#263238"/>
<path d="M209.218 448.479C209.293 448.6 209.03 448.897 208.593 449.057C208.155 449.219 207.762 449.162 207.741 449.022C207.718 448.878 208.029 448.711 208.412 448.569C208.796 448.428 209.142 448.355 209.218 448.479Z" fill="#263238"/>
<path d="M208.978 447.652C208.992 447.796 208.583 447.919 208.066 447.925C207.548 447.932 207.137 447.821 207.147 447.677C207.157 447.533 207.566 447.411 208.06 447.404C208.553 447.398 208.964 447.509 208.978 447.652Z" fill="#263238"/>
<path d="M265.378 194.445C264.978 194.033 263.994 194.227 263.994 194.227C263.994 194.227 264.166 193.058 263.984 192.493C263.803 191.928 262.543 192.037 262.543 192.037C262.543 192.037 262.465 191.493 262.575 190.615C262.603 190.395 262.481 190.233 262.282 190.112C261.685 189.751 260.398 189.768 260.398 189.768C259.626 189.216 262.75 184.848 263.908 183.45C265.053 182.069 264.86 180.962 263.827 180.964C263.123 180.965 259.476 185.164 258.363 186.574C257.251 187.983 254.267 191.904 254.166 188.775C254.064 185.646 252.807 183.279 252.021 182.876C251.235 182.473 250.387 183.419 250.822 184.288C251.174 184.99 251.396 186.343 251.522 187.366C251.626 188.21 251.591 189.066 251.407 189.895C250.885 192.239 250.324 193.761 250.061 194.412L249.984 194.369C249.984 194.369 228.157 215.298 226.584 216.792C225.168 218.136 196.806 215.202 191.124 214.599C189.571 214.425 187.271 214.113 185.278 214.201C182.813 214.309 182.375 214.659 179.908 214.692C172.354 214.793 166.059 215.528 161.374 216.321C155.71 217.279 151.066 221.311 149.313 226.782C143.578 244.679 130.604 287.05 128.292 310.854C126.471 314.278 124.436 318.277 123.609 320.527C122.002 324.902 122.392 325.051 122.934 325.152C124.388 325.421 126.052 317.564 126.673 319.46C127.295 321.357 123.521 328.833 125.052 329.052C127.048 329.337 128.639 321.08 128.825 320.391C129.006 319.722 130.013 319.948 129.812 320.561C129.522 321.442 126.708 330.772 128.666 331.071C129.751 331.237 129.868 329.26 129.868 329.26C129.868 329.26 131.858 320.337 132.777 320.509C133.711 320.684 132.719 325.962 132.258 327.718C131.803 329.453 132.444 330.375 133.38 329.939C134.018 329.641 135.555 324.295 135.969 322.548C136.384 320.801 137.435 315.988 138.847 318.782C140.259 321.576 142.396 323.192 143.279 323.227C144.161 323.261 144.531 322.046 143.77 321.441C143.155 320.953 142.383 319.82 141.837 318.945C141.387 318.224 141.057 317.433 140.875 316.603C140.172 313.403 140.178 311.542 140.178 311.542L140.015 310.514C142.254 299.421 148.709 266.876 157.981 246.084L161.799 253.941L163.456 259.757L153.281 284.896L196.694 284.324L190.222 259.385L198.085 233.38H198.084C206.594 233.57 228.451 233.887 232.124 232.245C236.703 230.199 260.402 200.325 260.402 200.325H260.401C262.002 199.05 263.63 197.679 264.831 196.482C264.833 196.48 266.246 195.337 265.378 194.445Z" fill="#FFBE9D"/>
<path d="M151.392 266.387C152.649 262.088 159.121 240.83 159.121 240.83C159.121 240.83 162.297 258.161 161.462 260.248C160.5 262.653 158.732 265.405 158.732 265.405C151.392 276.584 152.355 282.171 152.355 282.171L196.695 280.819C196.803 274.618 193.132 260.201 192.365 257.904C191.597 255.607 194.143 248.068 194.143 248.068C194.143 248.068 199.154 242.979 198.96 240.36C198.569 235.084 198.086 233.38 198.086 233.38L225.066 234.373L224.218 216.066L185.435 212.185C184.093 216.004 171.88 214.133 171.88 214.133C158.695 214.566 157.897 216.991 152.398 221.248C146.9 225.505 137.845 262.067 137.845 262.067L151.392 266.387Z" fill="#EE4040"/>
<path d="M177.615 262.063C177.614 262.132 176.722 262.191 175.278 262.181C173.835 262.172 171.84 262.082 169.648 261.863C167.455 261.641 165.483 261.332 164.066 261.053C162.65 260.775 161.787 260.54 161.8 260.472C161.814 260.399 162.699 260.506 164.125 260.69C165.551 260.875 167.519 261.125 169.7 261.344C171.88 261.563 173.858 261.71 175.292 261.813C176.727 261.917 177.616 261.988 177.615 262.063Z" fill="#263238"/>
<path d="M180.65 258.292C180.669 258.356 179.754 258.703 178.229 259.117C176.705 259.53 174.564 259.987 172.168 260.273C169.771 260.556 167.582 260.615 166.003 260.569C164.423 260.524 163.453 260.399 163.457 260.334C163.46 260.257 164.434 260.25 166.002 260.201C167.57 260.152 169.732 260.037 172.106 259.756C174.478 259.473 176.608 259.078 178.144 258.759C179.68 258.439 180.629 258.217 180.65 258.292Z" fill="#263238"/>
<path d="M195.565 241.471C195.634 241.486 195.52 242.35 195.262 243.733C195.004 245.116 194.599 247.016 194.088 249.1C193.576 251.185 193.057 253.058 192.646 254.403C192.235 255.749 191.937 256.568 191.868 256.549C191.798 256.529 191.971 255.676 192.29 254.308C192.668 252.747 193.103 250.955 193.582 248.977C194.072 247.002 194.516 245.213 194.903 243.654C195.252 242.292 195.494 241.456 195.565 241.471Z" fill="#263238"/>
<path d="M151.856 263.84C151.818 263.979 148.76 263.266 145.026 262.247C141.291 261.227 138.295 260.29 138.333 260.15C138.371 260.011 141.428 260.725 145.163 261.744C148.897 262.763 151.894 263.702 151.856 263.84Z" fill="#263238"/>
<path d="M198.574 233.145C198.574 233.169 198.163 233.212 197.426 233.139C196.693 233.064 195.62 232.893 194.377 232.412C193.133 231.946 191.719 231.167 190.398 229.989C189.077 228.816 187.896 227.202 187.143 225.303C186.378 223.405 186.127 221.427 186.247 219.666C186.363 217.908 186.829 216.319 187.616 215.206C188.395 214.078 189.428 213.532 190.147 213.343C190.511 213.246 190.805 213.223 191.001 213.228C191.198 213.233 191.299 213.255 191.299 213.271C191.301 213.32 190.884 213.297 190.208 213.536C189.544 213.774 188.61 214.335 187.922 215.412C186.561 217.552 186.181 221.459 187.628 225.111C188.353 226.937 189.468 228.487 190.722 229.635C191.975 230.788 193.323 231.575 194.515 232.071C196.917 233.067 198.592 233.034 198.574 233.145Z" fill="#263238"/>
<path d="M221.883 234.007C221.74 234.007 221.631 229.881 221.641 224.792C221.651 219.701 221.776 215.577 221.919 215.577C222.063 215.578 222.171 219.703 222.161 224.793C222.152 229.882 222.027 234.008 221.883 234.007Z" fill="#263238"/>
<path d="M185.198 213.3C185.307 211.068 185.541 208.547 185.541 208.547C185.541 208.547 191.059 207.939 191.394 202.238C191.729 196.537 191.394 183.392 191.394 183.392L181.343 178.274L170.287 186.999L171.962 215.5L182.135 216.147C183.739 216.249 185.116 214.971 185.198 213.3Z" fill="#FFBE9D"/>
<path d="M186.192 197.729C186.208 197.733 186.209 197.836 186.105 197.974C186.003 198.108 185.78 198.26 185.47 198.254C184.829 198.223 184.213 197.515 183.986 196.651C183.872 196.212 183.873 195.767 183.959 195.384C184.027 195.007 184.245 194.628 184.559 194.525C184.709 194.469 184.865 194.475 184.984 194.535C185.101 194.594 185.173 194.683 185.21 194.765C185.285 194.935 185.227 195.038 185.212 195.03C185.189 195.029 185.195 194.935 185.111 194.828C185.032 194.719 184.844 194.62 184.636 194.728C184.424 194.824 184.279 195.095 184.225 195.442C184.162 195.786 184.17 196.181 184.271 196.572C184.471 197.346 185.008 197.98 185.485 198.037C185.721 198.067 185.917 197.976 186.023 197.89C186.133 197.8 186.171 197.719 186.192 197.729Z" fill="#EB996E"/>
<path d="M194.821 180.315C194.053 177.691 191.263 176.387 188.721 175.667C184.854 174.571 180.665 174.086 176.887 175.477C173.109 176.868 168.565 179.315 168.566 183.489C166.336 183.305 165.062 185.259 164.177 187.68C163.654 189.11 163.31 190.702 163.229 192.279L163.192 192.267C162.905 197.73 161.383 205.257 157.841 209.298C155.885 211.529 153.069 213.07 151.929 215.849C150.938 218.264 151.451 221.118 150.514 223.556C149.687 225.708 147.856 227.236 146.543 229.108C143.684 233.186 143.489 238.947 145.59 243.498C147.691 248.049 151.854 251.379 156.475 252.905C161.096 254.431 166.13 254.263 170.833 253.039C174.305 252.135 177.683 250.639 180.45 248.274C183.217 245.909 185.34 242.622 185.973 238.952C186.677 234.867 185.534 230.719 184.693 226.662C182.033 213.827 182.793 213.16 186.15 201.254C186.226 201.044 186.273 200.825 186.331 200.609C186.375 200.451 186.418 200.3 186.463 200.138L186.456 200.136C186.55 199.67 186.611 199.196 186.613 198.712C185.641 199.095 184.467 198.84 183.721 198.086C182.976 197.332 182.698 196.116 183.037 195.093C183.427 193.916 184.507 193.13 185.616 192.663C186.725 192.196 187.918 191.965 189.007 191.448C191.316 190.349 192.917 188.069 194.006 185.68C194.771 184.005 195.34 182.087 194.821 180.315Z" fill="#263238"/>
<path d="M186.587 197.972C186.622 197.957 186.816 198.329 187.113 198.96C187.41 199.591 187.808 200.482 188.251 201.506L188.334 201.7L188.122 201.718C187.789 201.747 187.452 201.776 187.104 201.806C186.406 201.851 185.824 201.935 185.148 201.928C185.041 201.909 184.922 201.811 184.89 201.701C184.854 201.593 184.864 201.502 184.875 201.423C184.904 201.266 184.939 201.15 184.969 201.017L185.146 200.309C185.367 199.445 185.525 198.915 185.567 198.925C185.609 198.935 185.527 199.482 185.361 200.357L185.222 201.072C185.171 201.314 185.083 201.675 185.213 201.647C185.711 201.626 186.42 201.543 187.078 201.494C187.426 201.466 187.763 201.44 188.096 201.413L187.968 201.625C187.54 200.596 187.177 199.689 186.929 199.037C186.684 198.386 186.552 197.987 186.587 197.972Z" fill="#EE4040"/>
<path d="M152.355 282.171L196.695 280.819L215.98 356.158L212.428 442.577H188.959L191.867 357.998L174.715 305.552L177.358 445.928L153.664 446.278L151.168 314.33C151.064 310.663 149.857 302.389 150.306 298.751L152.355 282.171Z" fill="#263238"/>
<path d="M180.621 306.617C180.612 306.686 179.78 306.645 178.446 306.488C177.112 306.331 175.277 306.049 173.267 305.646C171.257 305.241 169.456 304.791 168.165 304.419C166.874 304.047 166.091 303.766 166.109 303.697C166.149 303.552 169.368 304.333 173.37 305.135C177.369 305.944 180.64 306.468 180.621 306.617Z" fill="#455A64"/>
<path d="M212.214 437.837C212.214 437.982 206.9 438.098 200.348 438.098C193.793 438.098 188.481 437.982 188.481 437.837C188.481 437.694 193.793 437.577 200.348 437.577C206.9 437.578 212.214 437.694 212.214 437.837Z" fill="#455A64"/>
<path d="M177.146 442.281C177.146 442.426 171.992 442.542 165.634 442.542C159.275 442.542 154.121 442.426 154.121 442.281C154.121 442.137 159.275 442.021 165.634 442.021C171.992 442.021 177.146 442.137 177.146 442.281Z" fill="#455A64"/>
<path d="M174.094 441.921C173.95 441.923 173.327 411.249 172.702 373.418C172.077 335.573 171.687 304.901 171.831 304.899C171.975 304.897 172.598 335.564 173.223 373.409C173.848 411.241 174.238 441.918 174.094 441.921Z" fill="#455A64"/>
<path d="M209.062 437.837C209.053 437.837 209.05 437.698 209.051 437.429C209.056 437.134 209.064 436.738 209.073 436.231C209.104 435.15 209.149 433.604 209.206 431.627C209.346 427.602 209.546 421.824 209.794 414.696C210.341 400.379 211.096 380.644 211.93 358.846C211.938 358.645 211.946 358.444 211.953 358.258L211.961 358.332C206.706 337.289 201.956 318.269 198.512 304.479C196.822 297.61 195.453 292.044 194.499 288.166C194.041 286.26 193.684 284.769 193.434 283.727C193.322 283.238 193.235 282.855 193.17 282.57C193.113 282.308 193.088 282.174 193.097 282.172C193.105 282.17 193.147 282.301 193.221 282.558C193.298 282.839 193.402 283.219 193.535 283.703C193.808 284.74 194.197 286.223 194.695 288.119C195.687 291.986 197.11 297.538 198.867 304.391C202.349 318.171 207.152 337.178 212.465 358.206L212.474 358.242L212.473 358.28C212.466 358.465 212.457 358.666 212.45 358.868C211.557 380.663 210.748 400.394 210.161 414.711C209.844 421.836 209.587 427.61 209.408 431.635C209.308 433.611 209.231 435.155 209.177 436.236C209.146 436.742 209.122 437.138 209.104 437.432C209.085 437.701 209.071 437.838 209.062 437.837Z" fill="#455A64"/>
<path d="M201.414 356.5C201.438 356.642 199.117 357.158 196.229 357.654C194.073 358.025 192.211 358.279 191.398 358.325L191.397 358.122C191.667 358.196 191.812 358.254 191.806 358.29C191.801 358.326 191.644 358.337 191.365 358.325L190.759 358.299L191.364 358.122C192.146 357.893 193.986 357.512 196.142 357.142C199.028 356.645 201.389 356.357 201.414 356.5Z" fill="#455A64"/>
<path d="M200.964 359.375C200.944 359.52 198.861 359.359 196.296 359.162C193.731 358.96 191.648 358.796 191.651 358.649C191.654 358.507 193.755 358.439 196.337 358.642C198.917 358.841 200.983 359.235 200.964 359.375Z" fill="#455A64"/>
<path opacity="0.2" d="M152.158 283.763C153.23 285.272 154.759 285.801 156.536 286.092C158.312 286.383 160.125 286.189 161.913 285.99C173.358 284.72 185.486 283.549 196.695 280.818C182.186 281.631 166.864 281.357 152.355 282.17C152.355 282.17 152.231 283.168 152.202 283.408" fill="black"/>
<g opacity="0.2">
<path d="M167.113 304.214L175.287 335.947L174.715 305.551L167.113 304.214Z" fill="black"/>
</g>
</svg>
