<svg width="59" height="61" viewBox="0 0 59 61" fill="none" xmlns="http://www.w3.org/2000/svg">
<ellipse cx="29.5" cy="30.159" rx="29.5" ry="30.159" fill="#2BB785"/>
<path d="M41.9453 33.0801H14.2891C13.9223 33.0801 13.5706 32.9311 13.3113 32.666C13.0519 32.4009 12.9062 32.0413 12.9062 31.6664C12.9062 31.2914 13.0519 30.9319 13.3113 30.6667C13.5706 30.4016 13.9223 30.2527 14.2891 30.2527H41.9453C42.3121 30.2527 42.6638 30.4016 42.9231 30.6667C43.1824 30.9319 43.3281 31.2914 43.3281 31.6664C43.3281 32.0413 43.1824 32.4009 42.9231 32.666C42.6638 32.9311 42.3121 33.0801 41.9453 33.0801Z" fill="white"/>
<path d="M41.3728 31.6664L29.9037 19.944C29.6441 19.6785 29.4982 19.3185 29.4982 18.9431C29.4982 18.5677 29.6441 18.2076 29.9037 17.9422C30.1634 17.6767 30.5156 17.5276 30.8828 17.5276C31.25 17.5276 31.6022 17.6767 31.8618 17.9422L44.3071 30.6655C44.4359 30.7968 44.5381 30.9528 44.6078 31.1246C44.6775 31.2963 44.7134 31.4804 44.7134 31.6664C44.7134 31.8523 44.6775 32.0364 44.6078 32.2082C44.5381 32.3799 44.4359 32.536 44.3071 32.6673L31.8618 45.3906C31.6022 45.656 31.25 45.8052 30.8828 45.8052C30.5156 45.8052 30.1634 45.656 29.9037 45.3906C29.6441 45.1251 29.4982 44.7651 29.4982 44.3897C29.4982 44.0143 29.6441 43.6542 29.9037 43.3888L41.3728 31.6664Z" fill="white"/>
</svg>
