<svg width="40" height="40" viewBox="0 0 40 40" fill="none" xmlns="http://www.w3.org/2000/svg">
<path d="M6.66699 30.0002C6.66699 28.2321 7.36937 26.5364 8.61961 25.2861C9.86986 24.0359 11.5655 23.3335 13.3337 23.3335H26.667C28.4351 23.3335 30.1308 24.0359 31.381 25.2861C32.6313 26.5364 33.3337 28.2321 33.3337 30.0002C33.3337 30.8842 32.9825 31.7321 32.3573 32.3572C31.7322 32.9823 30.8844 33.3335 30.0003 33.3335H10.0003C9.11627 33.3335 8.26842 32.9823 7.6433 32.3572C7.01818 31.7321 6.66699 30.8842 6.66699 30.0002Z" stroke="black" stroke-opacity="0.8" stroke-width="2.5" stroke-linejoin="round"/>
<path d="M20.0005 16.6667C22.7619 16.6667 25.0005 14.4282 25.0005 11.6667C25.0005 8.90532 22.7619 6.66675 20.0005 6.66675C17.2391 6.66675 15.0005 8.90532 15.0005 11.6667C15.0005 14.4282 17.2391 16.6667 20.0005 16.6667Z" stroke="black" stroke-opacity="0.8" stroke-width="2.5"/>
</svg>
