<svg width="65" height="65" viewBox="0 0 65 65" fill="none" xmlns="http://www.w3.org/2000/svg">
<path d="M32.4999 59.5833C26.7536 59.5833 21.2426 57.3006 17.1793 53.2373C13.116 49.174 10.8333 43.663 10.8333 37.9167C10.8333 28.4321 18.1728 20.846 24.6268 13.8937L32.4999 5.41666L40.373 13.8937C46.827 20.8487 54.1666 28.4348 54.1666 37.9167C54.1666 43.663 51.8839 49.174 47.8206 53.2373C43.7573 57.3006 38.2463 59.5833 32.4999 59.5833Z" stroke="#EA2B2B" stroke-width="2.5" stroke-linecap="round" stroke-linejoin="round"/>
<path d="M34.7207 38.1973V39.0059C34.7207 39.9668 34.6006 40.8281 34.3604 41.5898C34.1201 42.3516 33.7744 42.999 33.3232 43.5322C32.8721 44.0654 32.3301 44.4727 31.6973 44.7539C31.0703 45.0352 30.3672 45.1758 29.5879 45.1758C28.832 45.1758 28.1377 45.0352 27.5049 44.7539C26.8779 44.4727 26.333 44.0654 25.8701 43.5322C25.4131 42.999 25.0586 42.3516 24.8066 41.5898C24.5547 40.8281 24.4287 39.9668 24.4287 39.0059V38.1973C24.4287 37.2363 24.5518 36.3779 24.7979 35.6221C25.0498 34.8604 25.4043 34.2129 25.8613 33.6797C26.3184 33.1406 26.8604 32.7305 27.4873 32.4492C28.1201 32.168 28.8145 32.0273 29.5703 32.0273C30.3496 32.0273 31.0527 32.168 31.6797 32.4492C32.3125 32.7305 32.8545 33.1406 33.3057 33.6797C33.7627 34.2129 34.1113 34.8604 34.3516 35.6221C34.5977 36.3779 34.7207 37.2363 34.7207 38.1973ZM33.042 39.0059V38.1797C33.042 37.418 32.9629 36.7441 32.8047 36.1582C32.6523 35.5723 32.4268 35.0801 32.1279 34.6816C31.8291 34.2832 31.4629 33.9814 31.0293 33.7764C30.6016 33.5713 30.1152 33.4688 29.5703 33.4688C29.043 33.4688 28.5654 33.5713 28.1377 33.7764C27.7158 33.9814 27.3525 34.2832 27.0479 34.6816C26.749 35.0801 26.5176 35.5723 26.3535 36.1582C26.1895 36.7441 26.1074 37.418 26.1074 38.1797V39.0059C26.1074 39.7734 26.1895 40.4531 26.3535 41.0449C26.5176 41.6309 26.752 42.126 27.0566 42.5303C27.3672 42.9287 27.7334 43.2305 28.1553 43.4355C28.583 43.6406 29.0605 43.7432 29.5879 43.7432C30.1387 43.7432 30.6279 43.6406 31.0557 43.4355C31.4834 43.2305 31.8438 42.9287 32.1367 42.5303C32.4355 42.126 32.6611 41.6309 32.8135 41.0449C32.9658 40.4531 33.042 39.7734 33.042 39.0059ZM40.6484 38.8916V40.2275H36.3594V38.8916H40.6484Z" fill="#EA2B2B"/>
</svg>
